G04 Layer_Color=255*
%FSLAX44Y44*%
%MOMM*%
G71*
G01*
G75*
%ADD10R,0.4500X0.5000*%
%ADD11R,0.5000X0.4500*%
%ADD12R,1.2000X1.6000*%
%ADD13R,1.0000X1.4000*%
%ADD14R,1.1000X1.2500*%
%ADD15R,0.8000X0.6500*%
%ADD16R,0.6500X0.8000*%
%ADD17R,0.6500X0.4000*%
%ADD18R,0.4500X0.4000*%
%ADD19O,0.8000X0.2800*%
%ADD20O,0.2800X0.8000*%
%ADD21R,4.5000X4.5000*%
%ADD22R,0.8000X0.8000*%
%ADD23C,1.0000*%
%ADD24R,1.4000X1.0000*%
%ADD25O,0.7000X0.3000*%
%ADD26O,0.3000X0.7000*%
%ADD27R,2.5500X2.0500*%
%ADD28R,0.9000X0.8000*%
%ADD29R,1.6000X2.1000*%
%ADD30R,1.3500X0.4000*%
%ADD31R,1.9000X1.8000*%
%ADD32R,1.9000X1.9000*%
G04:AMPARAMS|DCode=33|XSize=0.28mm|YSize=0.85mm|CornerRadius=0.098mm|HoleSize=0mm|Usage=FLASHONLY|Rotation=0.000|XOffset=0mm|YOffset=0mm|HoleType=Round|Shape=RoundedRectangle|*
%AMROUNDEDRECTD33*
21,1,0.2800,0.6540,0,0,0.0*
21,1,0.0840,0.8500,0,0,0.0*
1,1,0.1960,0.0420,-0.3270*
1,1,0.1960,-0.0420,-0.3270*
1,1,0.1960,-0.0420,0.3270*
1,1,0.1960,0.0420,0.3270*
%
%ADD33ROUNDEDRECTD33*%
G04:AMPARAMS|DCode=34|XSize=0.28mm|YSize=0.85mm|CornerRadius=0.098mm|HoleSize=0mm|Usage=FLASHONLY|Rotation=90.000|XOffset=0mm|YOffset=0mm|HoleType=Round|Shape=RoundedRectangle|*
%AMROUNDEDRECTD34*
21,1,0.2800,0.6540,0,0,90.0*
21,1,0.0840,0.8500,0,0,90.0*
1,1,0.1960,0.3270,0.0420*
1,1,0.1960,0.3270,-0.0420*
1,1,0.1960,-0.3270,-0.0420*
1,1,0.1960,-0.3270,0.0420*
%
%ADD34ROUNDEDRECTD34*%
%ADD35R,1.7000X1.7000*%
%ADD36R,1.7000X1.7000*%
%ADD37C,1.5000*%
%ADD38R,1.5000X3.2000*%
%ADD39R,0.8000X0.9000*%
%ADD40R,0.8500X0.2800*%
%ADD41R,0.2800X0.8500*%
%ADD42R,3.0500X2.0500*%
%ADD43R,1.4000X1.5000*%
%ADD44R,0.6858X0.5588*%
%ADD45R,0.8000X0.5000*%
%ADD46R,1.6000X1.2000*%
%ADD47R,0.5588X0.6858*%
%ADD48R,1.6000X2.2500*%
G04:AMPARAMS|DCode=49|XSize=0.3mm|YSize=0.65mm|CornerRadius=0.045mm|HoleSize=0mm|Usage=FLASHONLY|Rotation=90.000|XOffset=0mm|YOffset=0mm|HoleType=Round|Shape=RoundedRectangle|*
%AMROUNDEDRECTD49*
21,1,0.3000,0.5600,0,0,90.0*
21,1,0.2100,0.6500,0,0,90.0*
1,1,0.0900,0.2800,0.1050*
1,1,0.0900,0.2800,-0.1050*
1,1,0.0900,-0.2800,-0.1050*
1,1,0.0900,-0.2800,0.1050*
%
%ADD49ROUNDEDRECTD49*%
%ADD50R,1.0000X1.2000*%
%ADD51R,0.5000X0.3000*%
%ADD52O,1.8000X0.4500*%
%ADD53R,3.7000X0.9800*%
%ADD54R,0.7500X0.2800*%
%ADD55R,3.6000X4.3000*%
G04:AMPARAMS|DCode=56|XSize=0.45mm|YSize=1.05mm|CornerRadius=0.0675mm|HoleSize=0mm|Usage=FLASHONLY|Rotation=90.000|XOffset=0mm|YOffset=0mm|HoleType=Round|Shape=RoundedRectangle|*
%AMROUNDEDRECTD56*
21,1,0.4500,0.9150,0,0,90.0*
21,1,0.3150,1.0500,0,0,90.0*
1,1,0.1350,0.4575,0.1575*
1,1,0.1350,0.4575,-0.1575*
1,1,0.1350,-0.4575,-0.1575*
1,1,0.1350,-0.4575,0.1575*
%
%ADD56ROUNDEDRECTD56*%
%ADD57R,2.2000X2.2000*%
%ADD58O,1.6500X0.3000*%
%ADD59O,0.3000X1.6500*%
%ADD69C,1.5000*%
%ADD70R,1.5000X1.5000*%
%ADD71C,1.7000*%
%ADD72R,1.7000X1.7000*%
%ADD73R,1.7000X1.7000*%
%ADD74C,4.6200*%
%ADD75C,5.3800*%
%ADD76R,1.5000X1.5000*%
%ADD77C,1.5400*%
%ADD78C,1.9300*%
%ADD79C,1.3700*%
%ADD80R,1.3700X1.3700*%
%ADD81C,1.5240*%
D10*
X181250Y224000D02*
D03*
X190750D02*
D03*
X108750Y190000D02*
D03*
X99250D02*
D03*
X88750Y174000D02*
D03*
X79250D02*
D03*
X98250Y273000D02*
D03*
X107750D02*
D03*
X131760Y339580D02*
D03*
X122260D02*
D03*
X437250Y390000D02*
D03*
X446750D02*
D03*
X64750Y222000D02*
D03*
X55250D02*
D03*
X107750Y313000D02*
D03*
X98250D02*
D03*
X200750Y338140D02*
D03*
X191250D02*
D03*
X107750Y264000D02*
D03*
X98250D02*
D03*
X143160Y224240D02*
D03*
X133660D02*
D03*
X106750Y380340D02*
D03*
X97250D02*
D03*
X55250Y212000D02*
D03*
X64750D02*
D03*
X410450Y390000D02*
D03*
X400950D02*
D03*
X546250Y290000D02*
D03*
X555750D02*
D03*
X517250Y198000D02*
D03*
X526750D02*
D03*
X269750Y254000D02*
D03*
X260250D02*
D03*
X541250Y390000D02*
D03*
X550750D02*
D03*
X297250Y67000D02*
D03*
X306750D02*
D03*
X525750Y390000D02*
D03*
X516250D02*
D03*
X201840Y224000D02*
D03*
X211340D02*
D03*
X232630Y92700D02*
D03*
X223130D02*
D03*
X98250Y250000D02*
D03*
X107750D02*
D03*
X446750Y142000D02*
D03*
X437250D02*
D03*
X297250Y77000D02*
D03*
X306750D02*
D03*
X171750Y224000D02*
D03*
X162250D02*
D03*
X80250Y190000D02*
D03*
X89750D02*
D03*
X55250Y190000D02*
D03*
X64750D02*
D03*
X98250Y303000D02*
D03*
X107750D02*
D03*
X260250Y224000D02*
D03*
X269750D02*
D03*
Y209000D02*
D03*
X260250D02*
D03*
X168160Y338420D02*
D03*
X158660D02*
D03*
X117250Y174000D02*
D03*
X126750D02*
D03*
X260250Y164000D02*
D03*
X269750D02*
D03*
X565250Y290000D02*
D03*
X574750D02*
D03*
X652750Y390000D02*
D03*
X643250D02*
D03*
X61760Y348810D02*
D03*
X52260D02*
D03*
X406840Y141870D02*
D03*
X416340D02*
D03*
X576750Y390000D02*
D03*
X567250D02*
D03*
X464250D02*
D03*
X473750D02*
D03*
X626750D02*
D03*
X617250D02*
D03*
X350450Y391000D02*
D03*
X359950D02*
D03*
X367250Y142000D02*
D03*
X376750D02*
D03*
X499750Y390000D02*
D03*
X490250D02*
D03*
X222250Y289000D02*
D03*
X231750D02*
D03*
X107750Y174000D02*
D03*
X98250D02*
D03*
X64750Y202000D02*
D03*
X55250D02*
D03*
X592250Y390000D02*
D03*
X601750D02*
D03*
D11*
X534000Y282750D02*
D03*
Y273250D02*
D03*
X269380Y326190D02*
D03*
Y335690D02*
D03*
X223000Y262750D02*
D03*
Y253250D02*
D03*
X531000Y360250D02*
D03*
Y369750D02*
D03*
X608000Y183750D02*
D03*
Y174250D02*
D03*
X201000Y439750D02*
D03*
Y430250D02*
D03*
X596000Y183750D02*
D03*
Y174250D02*
D03*
X273000Y46250D02*
D03*
Y55750D02*
D03*
X595000Y318250D02*
D03*
Y327750D02*
D03*
X608000Y155250D02*
D03*
Y164750D02*
D03*
X126000Y361250D02*
D03*
Y370750D02*
D03*
X238000Y474750D02*
D03*
Y465250D02*
D03*
X268000Y474750D02*
D03*
Y465250D02*
D03*
X271000Y176250D02*
D03*
Y185750D02*
D03*
X228000Y474750D02*
D03*
Y465250D02*
D03*
X517000Y256750D02*
D03*
Y247250D02*
D03*
X364000Y96750D02*
D03*
Y87250D02*
D03*
X503750Y163750D02*
D03*
Y154250D02*
D03*
X617000Y72750D02*
D03*
Y63250D02*
D03*
X223000Y376750D02*
D03*
Y367250D02*
D03*
X258000Y474750D02*
D03*
Y465250D02*
D03*
X201000Y403250D02*
D03*
Y412750D02*
D03*
X211000D02*
D03*
Y403250D02*
D03*
X298000Y89250D02*
D03*
Y98750D02*
D03*
X517000Y286750D02*
D03*
Y277250D02*
D03*
X352620Y142730D02*
D03*
Y133230D02*
D03*
X233000Y367250D02*
D03*
Y376750D02*
D03*
X397000Y61250D02*
D03*
Y70750D02*
D03*
X211000Y439750D02*
D03*
Y430250D02*
D03*
X77000Y221750D02*
D03*
Y212250D02*
D03*
X218000Y474750D02*
D03*
Y465250D02*
D03*
X427000Y61250D02*
D03*
Y70750D02*
D03*
X596000Y164750D02*
D03*
Y155250D02*
D03*
X531000Y338250D02*
D03*
Y347750D02*
D03*
X417000Y61250D02*
D03*
Y70750D02*
D03*
X407000Y61250D02*
D03*
Y70750D02*
D03*
X617000Y84250D02*
D03*
Y93750D02*
D03*
X534000Y243250D02*
D03*
Y252750D02*
D03*
X213000Y376750D02*
D03*
Y367250D02*
D03*
X517000Y316250D02*
D03*
Y325750D02*
D03*
X248000Y474750D02*
D03*
Y465250D02*
D03*
X203000Y376750D02*
D03*
Y367250D02*
D03*
D12*
X200640Y76280D02*
D03*
X232640D02*
D03*
D13*
X90500Y211000D02*
D03*
X109500D02*
D03*
X100000Y233000D02*
D03*
D14*
X61470Y255550D02*
D03*
X82470D02*
D03*
D15*
X348121Y88967D02*
D03*
Y102467D02*
D03*
X595000Y294250D02*
D03*
Y307750D02*
D03*
X336121Y88967D02*
D03*
Y102467D02*
D03*
X260000Y176250D02*
D03*
Y189750D02*
D03*
X125000Y185750D02*
D03*
Y199250D02*
D03*
X153000Y122750D02*
D03*
Y109250D02*
D03*
X222440Y327210D02*
D03*
Y313710D02*
D03*
X334879Y140033D02*
D03*
Y126533D02*
D03*
D16*
X107620Y324180D02*
D03*
X94120D02*
D03*
X84120Y270090D02*
D03*
X70620D02*
D03*
X28740Y348810D02*
D03*
X42240D02*
D03*
X54750Y174000D02*
D03*
X68250D02*
D03*
X196250Y153000D02*
D03*
X209750D02*
D03*
X224250Y150000D02*
D03*
X237750D02*
D03*
D17*
X108530Y142460D02*
D03*
Y148960D02*
D03*
Y155460D02*
D03*
X333750Y59500D02*
D03*
Y66000D02*
D03*
Y72500D02*
D03*
X131470Y142820D02*
D03*
Y149320D02*
D03*
Y155820D02*
D03*
D18*
X87030Y155460D02*
D03*
Y148960D02*
D03*
Y142460D02*
D03*
X355250Y72500D02*
D03*
Y66000D02*
D03*
Y59500D02*
D03*
X152970Y155820D02*
D03*
Y149320D02*
D03*
Y142820D02*
D03*
D19*
X121460Y318850D02*
D03*
Y313850D02*
D03*
Y253850D02*
D03*
Y258850D02*
D03*
Y263850D02*
D03*
Y268850D02*
D03*
Y273850D02*
D03*
Y278850D02*
D03*
Y283850D02*
D03*
Y288850D02*
D03*
Y293850D02*
D03*
Y298850D02*
D03*
Y303850D02*
D03*
Y308850D02*
D03*
Y248850D02*
D03*
Y243850D02*
D03*
X209460Y318850D02*
D03*
Y313850D02*
D03*
Y308850D02*
D03*
Y303850D02*
D03*
Y298850D02*
D03*
Y293850D02*
D03*
Y288850D02*
D03*
Y283850D02*
D03*
Y278850D02*
D03*
Y273850D02*
D03*
Y268850D02*
D03*
Y263850D02*
D03*
Y258850D02*
D03*
Y253850D02*
D03*
Y248850D02*
D03*
Y243850D02*
D03*
D20*
X127960Y237350D02*
D03*
X132960D02*
D03*
X137960D02*
D03*
X142960D02*
D03*
X147960D02*
D03*
X152960D02*
D03*
X157960D02*
D03*
X162960D02*
D03*
X167960D02*
D03*
X172960D02*
D03*
X177960D02*
D03*
X182960D02*
D03*
X187960D02*
D03*
X202960D02*
D03*
X197960D02*
D03*
X192960D02*
D03*
X167960Y325350D02*
D03*
X202960D02*
D03*
X197960D02*
D03*
X192960D02*
D03*
X187960D02*
D03*
X182960D02*
D03*
X177960D02*
D03*
X172960D02*
D03*
X162960D02*
D03*
X157960D02*
D03*
X152960D02*
D03*
X147960D02*
D03*
X142960D02*
D03*
X137960D02*
D03*
X132960D02*
D03*
X127960D02*
D03*
D21*
X165460Y281350D02*
D03*
D22*
X37000Y513000D02*
D03*
X21000D02*
D03*
X37000Y468000D02*
D03*
X21000D02*
D03*
X37000Y483000D02*
D03*
X21000D02*
D03*
X37000Y498000D02*
D03*
X21000D02*
D03*
X37230Y453000D02*
D03*
X21230D02*
D03*
X37000Y423000D02*
D03*
X21000D02*
D03*
X37000Y408000D02*
D03*
X21000D02*
D03*
X272340Y67360D02*
D03*
X256340D02*
D03*
X37000Y438000D02*
D03*
X21000D02*
D03*
D23*
X360717Y113879D02*
D03*
X268717Y238879D02*
D03*
X280718Y146879D02*
D03*
X384718Y59879D02*
D03*
X75718Y401879D02*
D03*
X482968Y21379D02*
D03*
X246468Y369879D02*
D03*
D24*
X17000Y194500D02*
D03*
Y175500D02*
D03*
X39000Y185000D02*
D03*
X17000Y230500D02*
D03*
Y211500D02*
D03*
X39000Y221000D02*
D03*
D25*
X228217Y432379D02*
D03*
Y417379D02*
D03*
X267217D02*
D03*
Y432379D02*
D03*
D26*
X235217Y406629D02*
D03*
X240217D02*
D03*
X245217D02*
D03*
X250217D02*
D03*
X255217D02*
D03*
X260217D02*
D03*
Y443129D02*
D03*
X255217D02*
D03*
X250217D02*
D03*
X245217D02*
D03*
X240217D02*
D03*
X235217D02*
D03*
D27*
X247717Y424879D02*
D03*
D28*
X59910Y333990D02*
D03*
Y319990D02*
D03*
X79820Y324718D02*
D03*
Y310718D02*
D03*
D29*
X43125Y258192D02*
D03*
Y320192D02*
D03*
D30*
X44375Y276192D02*
D03*
Y282692D02*
D03*
Y289192D02*
D03*
Y295692D02*
D03*
Y302192D02*
D03*
D31*
X17625Y329192D02*
D03*
Y249192D02*
D03*
D32*
Y301192D02*
D03*
Y277192D02*
D03*
D33*
X555218Y276629D02*
D03*
X560218D02*
D03*
X565218D02*
D03*
X570218D02*
D03*
X555218Y247129D02*
D03*
X560218D02*
D03*
X565218D02*
D03*
X570218D02*
D03*
X206640Y135030D02*
D03*
X211640D02*
D03*
X216640D02*
D03*
X221640D02*
D03*
X206640Y105530D02*
D03*
X211640D02*
D03*
X216640D02*
D03*
X221640D02*
D03*
D34*
X547968Y269379D02*
D03*
Y264379D02*
D03*
Y259379D02*
D03*
Y254379D02*
D03*
X577468Y254379D02*
D03*
Y259379D02*
D03*
Y264379D02*
D03*
Y269379D02*
D03*
X199390Y112780D02*
D03*
Y117780D02*
D03*
Y122780D02*
D03*
Y127780D02*
D03*
X228890Y127780D02*
D03*
Y122780D02*
D03*
Y117780D02*
D03*
Y112780D02*
D03*
D35*
X562718Y261879D02*
D03*
D36*
X214140Y120280D02*
D03*
D37*
X25400Y21590D02*
D03*
X113040Y511460D02*
D03*
X660620Y317460D02*
D03*
D38*
X16530Y377610D02*
D03*
X58530D02*
D03*
D39*
X181000Y136000D02*
D03*
X167000D02*
D03*
D40*
X582250Y163500D02*
D03*
Y178500D02*
D03*
X537750D02*
D03*
Y163500D02*
D03*
X543467Y361379D02*
D03*
Y346379D02*
D03*
X587967D02*
D03*
Y361379D02*
D03*
X312467Y98879D02*
D03*
D41*
X577500Y188250D02*
D03*
X572500D02*
D03*
X567500D02*
D03*
X562500D02*
D03*
X557500D02*
D03*
X552500D02*
D03*
X547500D02*
D03*
X542500D02*
D03*
Y153750D02*
D03*
X547500D02*
D03*
X552500D02*
D03*
X557500D02*
D03*
X562500D02*
D03*
X567500D02*
D03*
X572500D02*
D03*
X577500D02*
D03*
X548218Y336629D02*
D03*
X553218D02*
D03*
X558218D02*
D03*
X563218D02*
D03*
X568218D02*
D03*
X573218D02*
D03*
X578218D02*
D03*
X583218D02*
D03*
Y371129D02*
D03*
X578218D02*
D03*
X573218D02*
D03*
X568218D02*
D03*
X563218D02*
D03*
X558218D02*
D03*
X553218D02*
D03*
X548218D02*
D03*
D42*
X560000Y171000D02*
D03*
X565718Y353879D02*
D03*
D43*
X171000Y474500D02*
D03*
Y409500D02*
D03*
X117000Y474500D02*
D03*
Y409500D02*
D03*
D44*
X518121Y359909D02*
D03*
Y335525D02*
D03*
D45*
X61560Y418860D02*
D03*
X77560D02*
D03*
Y426860D02*
D03*
Y434860D02*
D03*
Y442860D02*
D03*
X61560Y426860D02*
D03*
Y434860D02*
D03*
Y442860D02*
D03*
Y474620D02*
D03*
X77560D02*
D03*
Y482620D02*
D03*
Y490620D02*
D03*
Y498620D02*
D03*
X61560Y482620D02*
D03*
Y490620D02*
D03*
Y498620D02*
D03*
D46*
X173960Y85640D02*
D03*
Y117640D02*
D03*
D47*
X56090Y235121D02*
D03*
X80474D02*
D03*
D48*
X308121Y127718D02*
D03*
D49*
X321871Y117968D02*
D03*
Y124468D02*
D03*
Y130968D02*
D03*
Y137468D02*
D03*
X294371D02*
D03*
Y130968D02*
D03*
Y124468D02*
D03*
Y117968D02*
D03*
D50*
X106880Y365480D02*
D03*
X87880D02*
D03*
X106880Y344480D02*
D03*
X87880D02*
D03*
D51*
X68740Y286130D02*
D03*
Y291130D02*
D03*
Y296130D02*
D03*
X82740D02*
D03*
Y291130D02*
D03*
Y286130D02*
D03*
D52*
X143570Y374350D02*
D03*
Y367850D02*
D03*
Y361350D02*
D03*
Y354850D02*
D03*
X185070Y374350D02*
D03*
Y367850D02*
D03*
Y361350D02*
D03*
Y354850D02*
D03*
D53*
X262720Y128130D02*
D03*
Y104430D02*
D03*
D54*
X311968Y93879D02*
D03*
Y88879D02*
D03*
X323467Y98879D02*
D03*
Y93879D02*
D03*
Y88879D02*
D03*
D55*
X411121Y105718D02*
D03*
D56*
X438621Y86668D02*
D03*
Y99368D02*
D03*
Y112068D02*
D03*
Y124768D02*
D03*
X383621D02*
D03*
Y112068D02*
D03*
Y99368D02*
D03*
Y86668D02*
D03*
D57*
X22980Y149060D02*
D03*
X62980D02*
D03*
D58*
X288270Y354200D02*
D03*
Y349200D02*
D03*
Y344200D02*
D03*
Y339200D02*
D03*
Y334200D02*
D03*
Y329200D02*
D03*
Y324200D02*
D03*
Y319200D02*
D03*
Y314200D02*
D03*
Y309200D02*
D03*
Y304200D02*
D03*
Y299200D02*
D03*
Y294200D02*
D03*
Y289200D02*
D03*
Y284200D02*
D03*
Y279200D02*
D03*
Y274200D02*
D03*
Y269200D02*
D03*
Y264200D02*
D03*
Y259200D02*
D03*
Y254200D02*
D03*
Y249200D02*
D03*
Y244200D02*
D03*
Y239200D02*
D03*
Y234200D02*
D03*
Y229200D02*
D03*
Y224200D02*
D03*
Y219200D02*
D03*
Y214200D02*
D03*
Y209200D02*
D03*
Y204200D02*
D03*
Y199200D02*
D03*
Y194200D02*
D03*
Y189200D02*
D03*
Y184200D02*
D03*
Y179200D02*
D03*
X500270D02*
D03*
Y184200D02*
D03*
Y189200D02*
D03*
Y194200D02*
D03*
Y199200D02*
D03*
Y204200D02*
D03*
Y209200D02*
D03*
Y214200D02*
D03*
Y219200D02*
D03*
Y224200D02*
D03*
Y229200D02*
D03*
Y234200D02*
D03*
Y239200D02*
D03*
Y244200D02*
D03*
Y249200D02*
D03*
Y254200D02*
D03*
Y259200D02*
D03*
Y264200D02*
D03*
X500270Y269200D02*
D03*
X500270Y274200D02*
D03*
Y279200D02*
D03*
Y284200D02*
D03*
Y289200D02*
D03*
Y294200D02*
D03*
Y299200D02*
D03*
Y304200D02*
D03*
Y309200D02*
D03*
Y314200D02*
D03*
Y319200D02*
D03*
Y324200D02*
D03*
Y329200D02*
D03*
Y334200D02*
D03*
Y339200D02*
D03*
Y344200D02*
D03*
Y349200D02*
D03*
Y354200D02*
D03*
D59*
X306770Y160700D02*
D03*
X311770D02*
D03*
X316770D02*
D03*
X321770D02*
D03*
X326770D02*
D03*
X331770D02*
D03*
X336770D02*
D03*
X341770D02*
D03*
X346770D02*
D03*
X351770D02*
D03*
X356770D02*
D03*
X361770D02*
D03*
X366770D02*
D03*
X371770D02*
D03*
X376770D02*
D03*
X381770D02*
D03*
X386770D02*
D03*
X391770Y160700D02*
D03*
X396770Y160700D02*
D03*
X401770D02*
D03*
X406770D02*
D03*
X411770D02*
D03*
X416770D02*
D03*
X421770D02*
D03*
X426770D02*
D03*
X431770D02*
D03*
X436770D02*
D03*
X441770D02*
D03*
X446770D02*
D03*
X451770D02*
D03*
X456770D02*
D03*
X461770D02*
D03*
X466770D02*
D03*
X471770D02*
D03*
X476770D02*
D03*
X481770D02*
D03*
Y372700D02*
D03*
X476770D02*
D03*
X471770D02*
D03*
X466770D02*
D03*
X461770D02*
D03*
X456770D02*
D03*
X451770D02*
D03*
X446770D02*
D03*
X441770D02*
D03*
X436770D02*
D03*
X431770D02*
D03*
X426770D02*
D03*
X421770D02*
D03*
X416770D02*
D03*
X411770D02*
D03*
X406770D02*
D03*
X401770D02*
D03*
X396770D02*
D03*
X391770D02*
D03*
X386770D02*
D03*
X381770D02*
D03*
X376770D02*
D03*
X371770D02*
D03*
X366770D02*
D03*
X361770D02*
D03*
X356770D02*
D03*
X351770D02*
D03*
X346770D02*
D03*
X341770D02*
D03*
X336770D02*
D03*
X331770D02*
D03*
X326770D02*
D03*
X321770D02*
D03*
X316770D02*
D03*
X311770D02*
D03*
X306770D02*
D03*
D69*
X187960Y508000D02*
D03*
X213360D02*
D03*
X264160D02*
D03*
X238760D02*
D03*
X289560D02*
D03*
X314960D02*
D03*
X340360D02*
D03*
X365760D02*
D03*
X391160D02*
D03*
X596900Y120650D02*
D03*
X571500D02*
D03*
X546100D02*
D03*
X520700D02*
D03*
X495300D02*
D03*
X289560Y412750D02*
D03*
X314960D02*
D03*
X340360D02*
D03*
X365760D02*
D03*
X391160D02*
D03*
X289560Y463550D02*
D03*
X314960D02*
D03*
X340360D02*
D03*
X365760D02*
D03*
X391160D02*
D03*
X457200D02*
D03*
X533400D02*
D03*
X508000D02*
D03*
X482600D02*
D03*
X558800D02*
D03*
X584200D02*
D03*
X609600D02*
D03*
X457200Y412750D02*
D03*
X533400D02*
D03*
X508000D02*
D03*
X482600D02*
D03*
X558800D02*
D03*
X584200D02*
D03*
X609600D02*
D03*
X289560Y438150D02*
D03*
X314960D02*
D03*
X340360D02*
D03*
X365760D02*
D03*
X391160D02*
D03*
X596900Y69850D02*
D03*
X571500D02*
D03*
X546100D02*
D03*
X520700D02*
D03*
X495300D02*
D03*
X642000Y258800D02*
D03*
Y233400D02*
D03*
Y208000D02*
D03*
X609600Y508000D02*
D03*
X584200D02*
D03*
X558800D02*
D03*
X533400D02*
D03*
X508000D02*
D03*
X457200D02*
D03*
X482600D02*
D03*
X596900Y95250D02*
D03*
X571500D02*
D03*
X546100D02*
D03*
X520700D02*
D03*
X495300D02*
D03*
X667400Y258800D02*
D03*
Y233400D02*
D03*
Y208000D02*
D03*
X457200Y438150D02*
D03*
X533400D02*
D03*
X508000D02*
D03*
X482600D02*
D03*
X558800D02*
D03*
X584200D02*
D03*
X609600D02*
D03*
X304800Y25400D02*
D03*
X330200D02*
D03*
X355600D02*
D03*
X381000D02*
D03*
X406400D02*
D03*
X457200D02*
D03*
X431800D02*
D03*
X616600Y258800D02*
D03*
Y233400D02*
D03*
Y208000D02*
D03*
X533400Y25400D02*
D03*
X558800D02*
D03*
X584200D02*
D03*
X609600D02*
D03*
X635000D02*
D03*
D70*
X416560Y508000D02*
D03*
X469900Y120650D02*
D03*
X416560Y412750D02*
D03*
Y463550D02*
D03*
X635000D02*
D03*
Y412750D02*
D03*
X416560Y438150D02*
D03*
X469900Y69850D02*
D03*
X635000Y508000D02*
D03*
X469900Y95250D02*
D03*
X635000Y438150D02*
D03*
X279400Y25400D02*
D03*
X508000D02*
D03*
D71*
X208679Y178282D02*
D03*
X183279D02*
D03*
X157879Y203682D02*
D03*
X183279D02*
D03*
X208679D02*
D03*
X234079D02*
D03*
Y178282D02*
D03*
X615700Y343279D02*
D03*
Y368679D02*
D03*
D72*
X157879Y178282D02*
D03*
D73*
X615700Y317879D02*
D03*
D74*
X54340Y83820D02*
D03*
X86840Y35820D02*
D03*
D75*
X116840Y83820D02*
D03*
D76*
X642000Y284200D02*
D03*
X667400D02*
D03*
X616600D02*
D03*
D77*
X656590Y168910D02*
D03*
Y123910D02*
D03*
D78*
X631590Y181410D02*
D03*
Y111410D02*
D03*
D79*
X236220Y52070D02*
D03*
X210820D02*
D03*
D80*
X185420D02*
D03*
D81*
X660400Y76200D02*
D03*
Y355600D02*
D03*
X152400Y508000D02*
D03*
X139700Y25400D02*
D03*
M02*
