<?xml version="1.0" standalone="no"?>
 <!DOCTYPE svg PUBLIC "-//W3C//DTD SVG 1.1//EN" 
 "http://www.w3.org/Graphics/SVG/1.1/DTD/svg11.dtd"> 
<svg xmlns="http://www.w3.org/2000/svg" version="1.1" 
    width="29.7002cm" height="21.0007cm" viewBox="0 0 116930 82680 ">
<title>SVG Picture created as icezum-Edge.Cuts.svg date 2016/07/28 13:08:30 </title>
  <desc>Picture generated by PCBNEW </desc>
<g style="fill:#000000; fill-opacity:1;stroke:#000000; stroke-opacity:1;
stroke-linecap:round; stroke-linejoin:round; "
 transform="translate(0 0) scale(1 1)">
</g>
<g style="fill:#000000; fill-opacity:0.0; 
stroke:#000000; stroke-width:-0.000393701; stroke-opacity:1; 
stroke-linecap:round; stroke-linejoin:round;">
</g>
<g style="fill:#000000; fill-opacity:0.0; 
stroke:#000000; stroke-width:39.3701; stroke-opacity:1; 
stroke-linecap:round; stroke-linejoin:round;">
</g>
<g style="fill:#000000; fill-opacity:0.0; 
stroke:#000000; stroke-width:59.0551; stroke-opacity:1; 
stroke-linecap:round; stroke-linejoin:round;">
<rect x="69685.9" y="65357.2" width="42519.7" height="12598.4" rx="0" />
</g>
<g style="fill:#000000; fill-opacity:0.0; 
stroke:#000000; stroke-width:39.3701; stroke-opacity:1; 
stroke-linecap:round; stroke-linejoin:round;">
</g>
<g style="fill:#000000; fill-opacity:0.0; 
stroke:#000000; stroke-width:59.0551; stroke-opacity:1; 
stroke-linecap:round; stroke-linejoin:round;">
<rect x="3937.01" y="3937.01" width="109056" height="74806" rx="0" />
</g>
<g style="fill:#000000; fill-opacity:0.0; 
stroke:#000000; stroke-width:39.3701; stroke-opacity:1; 
stroke-linecap:round; stroke-linejoin:round;">
</g>
<g style="fill:#000000; fill-opacity:0.0; 
stroke:#000000; stroke-width:59.0551; stroke-opacity:1; 
stroke-linecap:round; stroke-linejoin:round;">
<rect x="4724.41" y="4724.41" width="107481" height="73231.2" rx="0" />
</g>
<g style="fill:#000000; fill-opacity:0.0; 
stroke:#000000; stroke-width:39.3701; stroke-opacity:1; 
stroke-linecap:round; stroke-linejoin:round;">
</g>
<g style="fill:#000000; fill-opacity:0.0; 
stroke:#000000; stroke-width:59.0551; stroke-opacity:1; 
stroke-linecap:round; stroke-linejoin:round;">
<path d="M23622 4724
L23622 3937
" />
</g>
<g style="fill:#000000; fill-opacity:0.0; 
stroke:#000000; stroke-width:39.3701; stroke-opacity:1; 
stroke-linecap:round; stroke-linejoin:round;">
</g>
<g style="fill:#000000; fill-opacity:0.0; 
stroke:#000000; stroke-width:59.0551; stroke-opacity:1; 
stroke-linecap:round; stroke-linejoin:round;">
<path d="M43307 4724
L43307 3937
" />
</g>
<g style="fill:#000000; fill-opacity:0.0; 
stroke:#000000; stroke-width:39.3701; stroke-opacity:1; 
stroke-linecap:round; stroke-linejoin:round;">
</g>
<g style="fill:#000000; fill-opacity:0.0; 
stroke:#000000; stroke-width:59.0551; stroke-opacity:1; 
stroke-linecap:round; stroke-linejoin:round;">
<path d="M62992 4724
L62992 3937
" />
</g>
<g style="fill:#000000; fill-opacity:0.0; 
stroke:#000000; stroke-width:39.3701; stroke-opacity:1; 
stroke-linecap:round; stroke-linejoin:round;">
</g>
<g style="fill:#000000; fill-opacity:0.0; 
stroke:#000000; stroke-width:59.0551; stroke-opacity:1; 
stroke-linecap:round; stroke-linejoin:round;">
<path d="M82677 4724
L82677 3937
" />
</g>
<g style="fill:#000000; fill-opacity:0.0; 
stroke:#000000; stroke-width:39.3701; stroke-opacity:1; 
stroke-linecap:round; stroke-linejoin:round;">
</g>
<g style="fill:#000000; fill-opacity:0.0; 
stroke:#000000; stroke-width:59.0551; stroke-opacity:1; 
stroke-linecap:round; stroke-linejoin:round;">
<path d="M102362 4724
L102362 3937
" />
</g>
<g style="fill:#000000; fill-opacity:0.0; 
stroke:#000000; stroke-width:39.3701; stroke-opacity:1; 
stroke-linecap:round; stroke-linejoin:round;">
</g>
<g style="fill:#000000; fill-opacity:0.0; 
stroke:#000000; stroke-width:59.0551; stroke-opacity:1; 
stroke-linecap:round; stroke-linejoin:round;">
<path d="M14169 4562
L13877 4562
" />
<path d="M14023 4562
L14023 4050
L13974 4123
L13925 4172
L13877 4196
" />
</g>
<g style="fill:#000000; fill-opacity:0.0; 
stroke:#000000; stroke-width:39.3701; stroke-opacity:1; 
stroke-linecap:round; stroke-linejoin:round;">
</g>
<g style="fill:#000000; fill-opacity:0.0; 
stroke:#000000; stroke-width:59.0551; stroke-opacity:1; 
stroke-linecap:round; stroke-linejoin:round;">
<path d="M33562 4099
L33586 4074
L33635 4050
L33757 4050
L33805 4074
L33830 4099
L33854 4147
L33854 4196
L33830 4269
L33537 4562
L33854 4562
" />
</g>
<g style="fill:#000000; fill-opacity:0.0; 
stroke:#000000; stroke-width:39.3701; stroke-opacity:1; 
stroke-linecap:round; stroke-linejoin:round;">
</g>
<g style="fill:#000000; fill-opacity:0.0; 
stroke:#000000; stroke-width:59.0551; stroke-opacity:1; 
stroke-linecap:round; stroke-linejoin:round;">
<path d="M53222 4050
L53539 4050
L53368 4245
L53442 4245
L53490 4269
L53515 4294
L53539 4342
L53539 4464
L53515 4513
L53490 4537
L53442 4562
L53295 4562
L53247 4537
L53222 4513
" />
</g>
<g style="fill:#000000; fill-opacity:0.0; 
stroke:#000000; stroke-width:39.3701; stroke-opacity:1; 
stroke-linecap:round; stroke-linejoin:round;">
</g>
<g style="fill:#000000; fill-opacity:0.0; 
stroke:#000000; stroke-width:59.0551; stroke-opacity:1; 
stroke-linecap:round; stroke-linejoin:round;">
<path d="M73175 4221
L73175 4562
" />
<path d="M73053 4026
L72932 4391
L73248 4391
" />
</g>
<g style="fill:#000000; fill-opacity:0.0; 
stroke:#000000; stroke-width:39.3701; stroke-opacity:1; 
stroke-linecap:round; stroke-linejoin:round;">
</g>
<g style="fill:#000000; fill-opacity:0.0; 
stroke:#000000; stroke-width:59.0551; stroke-opacity:1; 
stroke-linecap:round; stroke-linejoin:round;">
<path d="M92885 4050
L92641 4050
L92617 4294
L92641 4269
L92690 4245
L92812 4245
L92860 4269
L92885 4294
L92909 4342
L92909 4464
L92885 4513
L92860 4537
L92812 4562
L92690 4562
L92641 4537
L92617 4513
" />
</g>
<g style="fill:#000000; fill-opacity:0.0; 
stroke:#000000; stroke-width:39.3701; stroke-opacity:1; 
stroke-linecap:round; stroke-linejoin:round;">
</g>
<g style="fill:#000000; fill-opacity:0.0; 
stroke:#000000; stroke-width:59.0551; stroke-opacity:1; 
stroke-linecap:round; stroke-linejoin:round;">
<path d="M112545 4050
L112448 4050
L112399 4074
L112375 4099
L112326 4172
L112302 4269
L112302 4464
L112326 4513
L112350 4537
L112399 4562
L112497 4562
L112545 4537
L112570 4513
L112594 4464
L112594 4342
L112570 4294
L112545 4269
L112497 4245
L112399 4245
L112350 4269
L112326 4294
L112302 4342
" />
</g>
<g style="fill:#000000; fill-opacity:0.0; 
stroke:#000000; stroke-width:39.3701; stroke-opacity:1; 
stroke-linecap:round; stroke-linejoin:round;">
</g>
<g style="fill:#000000; fill-opacity:0.0; 
stroke:#000000; stroke-width:59.0551; stroke-opacity:1; 
stroke-linecap:round; stroke-linejoin:round;">
<path d="M23622 77955
L23622 78742
" />
</g>
<g style="fill:#000000; fill-opacity:0.0; 
stroke:#000000; stroke-width:39.3701; stroke-opacity:1; 
stroke-linecap:round; stroke-linejoin:round;">
</g>
<g style="fill:#000000; fill-opacity:0.0; 
stroke:#000000; stroke-width:59.0551; stroke-opacity:1; 
stroke-linecap:round; stroke-linejoin:round;">
<path d="M43307 77955
L43307 78742
" />
</g>
<g style="fill:#000000; fill-opacity:0.0; 
stroke:#000000; stroke-width:39.3701; stroke-opacity:1; 
stroke-linecap:round; stroke-linejoin:round;">
</g>
<g style="fill:#000000; fill-opacity:0.0; 
stroke:#000000; stroke-width:59.0551; stroke-opacity:1; 
stroke-linecap:round; stroke-linejoin:round;">
<path d="M62992 77955
L62992 78742
" />
</g>
<g style="fill:#000000; fill-opacity:0.0; 
stroke:#000000; stroke-width:39.3701; stroke-opacity:1; 
stroke-linecap:round; stroke-linejoin:round;">
</g>
<g style="fill:#000000; fill-opacity:0.0; 
stroke:#000000; stroke-width:59.0551; stroke-opacity:1; 
stroke-linecap:round; stroke-linejoin:round;">
<path d="M82677 77955
L82677 78742
" />
</g>
<g style="fill:#000000; fill-opacity:0.0; 
stroke:#000000; stroke-width:39.3701; stroke-opacity:1; 
stroke-linecap:round; stroke-linejoin:round;">
</g>
<g style="fill:#000000; fill-opacity:0.0; 
stroke:#000000; stroke-width:59.0551; stroke-opacity:1; 
stroke-linecap:round; stroke-linejoin:round;">
<path d="M102362 77955
L102362 78742
" />
</g>
<g style="fill:#000000; fill-opacity:0.0; 
stroke:#000000; stroke-width:39.3701; stroke-opacity:1; 
stroke-linecap:round; stroke-linejoin:round;">
</g>
<g style="fill:#000000; fill-opacity:0.0; 
stroke:#000000; stroke-width:59.0551; stroke-opacity:1; 
stroke-linecap:round; stroke-linejoin:round;">
<path d="M14169 78580
L13877 78580
" />
<path d="M14023 78580
L14023 78069
L13974 78142
L13925 78190
L13877 78215
" />
</g>
<g style="fill:#000000; fill-opacity:0.0; 
stroke:#000000; stroke-width:39.3701; stroke-opacity:1; 
stroke-linecap:round; stroke-linejoin:round;">
</g>
<g style="fill:#000000; fill-opacity:0.0; 
stroke:#000000; stroke-width:59.0551; stroke-opacity:1; 
stroke-linecap:round; stroke-linejoin:round;">
<path d="M33562 78117
L33586 78093
L33635 78069
L33757 78069
L33805 78093
L33830 78117
L33854 78166
L33854 78215
L33830 78288
L33537 78580
L33854 78580
" />
</g>
<g style="fill:#000000; fill-opacity:0.0; 
stroke:#000000; stroke-width:39.3701; stroke-opacity:1; 
stroke-linecap:round; stroke-linejoin:round;">
</g>
<g style="fill:#000000; fill-opacity:0.0; 
stroke:#000000; stroke-width:59.0551; stroke-opacity:1; 
stroke-linecap:round; stroke-linejoin:round;">
<path d="M53222 78069
L53539 78069
L53368 78263
L53442 78263
L53490 78288
L53515 78312
L53539 78361
L53539 78483
L53515 78532
L53490 78556
L53442 78580
L53295 78580
L53247 78556
L53222 78532
" />
</g>
<g style="fill:#000000; fill-opacity:0.0; 
stroke:#000000; stroke-width:39.3701; stroke-opacity:1; 
stroke-linecap:round; stroke-linejoin:round;">
</g>
<g style="fill:#000000; fill-opacity:0.0; 
stroke:#000000; stroke-width:59.0551; stroke-opacity:1; 
stroke-linecap:round; stroke-linejoin:round;">
<path d="M73175 78239
L73175 78580
" />
<path d="M73053 78044
L72932 78410
L73248 78410
" />
</g>
<g style="fill:#000000; fill-opacity:0.0; 
stroke:#000000; stroke-width:39.3701; stroke-opacity:1; 
stroke-linecap:round; stroke-linejoin:round;">
</g>
<g style="fill:#000000; fill-opacity:0.0; 
stroke:#000000; stroke-width:59.0551; stroke-opacity:1; 
stroke-linecap:round; stroke-linejoin:round;">
<path d="M92885 78069
L92641 78069
L92617 78312
L92641 78288
L92690 78263
L92812 78263
L92860 78288
L92885 78312
L92909 78361
L92909 78483
L92885 78532
L92860 78556
L92812 78580
L92690 78580
L92641 78556
L92617 78532
" />
</g>
<g style="fill:#000000; fill-opacity:0.0; 
stroke:#000000; stroke-width:39.3701; stroke-opacity:1; 
stroke-linecap:round; stroke-linejoin:round;">
</g>
<g style="fill:#000000; fill-opacity:0.0; 
stroke:#000000; stroke-width:59.0551; stroke-opacity:1; 
stroke-linecap:round; stroke-linejoin:round;">
<path d="M112545 78069
L112448 78069
L112399 78093
L112375 78117
L112326 78190
L112302 78288
L112302 78483
L112326 78532
L112350 78556
L112399 78580
L112497 78580
L112545 78556
L112570 78532
L112594 78483
L112594 78361
L112570 78312
L112545 78288
L112497 78263
L112399 78263
L112350 78288
L112326 78312
L112302 78361
" />
</g>
<g style="fill:#000000; fill-opacity:0.0; 
stroke:#000000; stroke-width:39.3701; stroke-opacity:1; 
stroke-linecap:round; stroke-linejoin:round;">
</g>
<g style="fill:#000000; fill-opacity:0.0; 
stroke:#000000; stroke-width:59.0551; stroke-opacity:1; 
stroke-linecap:round; stroke-linejoin:round;">
<path d="M3937 23622
L4724 23622
" />
</g>
<g style="fill:#000000; fill-opacity:0.0; 
stroke:#000000; stroke-width:39.3701; stroke-opacity:1; 
stroke-linecap:round; stroke-linejoin:round;">
</g>
<g style="fill:#000000; fill-opacity:0.0; 
stroke:#000000; stroke-width:59.0551; stroke-opacity:1; 
stroke-linecap:round; stroke-linejoin:round;">
<path d="M3937 43307
L4724 43307
" />
</g>
<g style="fill:#000000; fill-opacity:0.0; 
stroke:#000000; stroke-width:39.3701; stroke-opacity:1; 
stroke-linecap:round; stroke-linejoin:round;">
</g>
<g style="fill:#000000; fill-opacity:0.0; 
stroke:#000000; stroke-width:59.0551; stroke-opacity:1; 
stroke-linecap:round; stroke-linejoin:round;">
<path d="M3937 62992
L4724 62992
" />
</g>
<g style="fill:#000000; fill-opacity:0.0; 
stroke:#000000; stroke-width:39.3701; stroke-opacity:1; 
stroke-linecap:round; stroke-linejoin:round;">
</g>
<g style="fill:#000000; fill-opacity:0.0; 
stroke:#000000; stroke-width:59.0551; stroke-opacity:1; 
stroke-linecap:round; stroke-linejoin:round;">
<path d="M4208 13864
L4452 13864
" />
<path d="M4160 14011
L4330 13499
L4501 14011
" />
</g>
<g style="fill:#000000; fill-opacity:0.0; 
stroke:#000000; stroke-width:39.3701; stroke-opacity:1; 
stroke-linecap:round; stroke-linejoin:round;">
</g>
<g style="fill:#000000; fill-opacity:0.0; 
stroke:#000000; stroke-width:59.0551; stroke-opacity:1; 
stroke-linecap:round; stroke-linejoin:round;">
<path d="M4367 33428
L4440 33452
L4464 33476
L4489 33525
L4489 33598
L4464 33647
L4440 33671
L4391 33696
L4196 33696
L4196 33184
L4367 33184
L4416 33208
L4440 33233
L4464 33281
L4464 33330
L4440 33379
L4416 33403
L4367 33428
L4196 33428
" />
</g>
<g style="fill:#000000; fill-opacity:0.0; 
stroke:#000000; stroke-width:39.3701; stroke-opacity:1; 
stroke-linecap:round; stroke-linejoin:round;">
</g>
<g style="fill:#000000; fill-opacity:0.0; 
stroke:#000000; stroke-width:59.0551; stroke-opacity:1; 
stroke-linecap:round; stroke-linejoin:round;">
<path d="M4489 53332
L4464 53356
L4391 53381
L4342 53381
L4269 53356
L4221 53308
L4196 53259
L4172 53161
L4172 53088
L4196 52991
L4221 52942
L4269 52893
L4342 52869
L4391 52869
L4464 52893
L4489 52918
" />
</g>
<g style="fill:#000000; fill-opacity:0.0; 
stroke:#000000; stroke-width:39.3701; stroke-opacity:1; 
stroke-linecap:round; stroke-linejoin:round;">
</g>
<g style="fill:#000000; fill-opacity:0.0; 
stroke:#000000; stroke-width:59.0551; stroke-opacity:1; 
stroke-linecap:round; stroke-linejoin:round;">
<path d="M4196 73066
L4196 72554
L4318 72554
L4391 72578
L4440 72627
L4464 72676
L4489 72773
L4489 72846
L4464 72944
L4440 72993
L4391 73041
L4318 73066
L4196 73066
" />
</g>
<g style="fill:#000000; fill-opacity:0.0; 
stroke:#000000; stroke-width:39.3701; stroke-opacity:1; 
stroke-linecap:round; stroke-linejoin:round;">
</g>
<g style="fill:#000000; fill-opacity:0.0; 
stroke:#000000; stroke-width:59.0551; stroke-opacity:1; 
stroke-linecap:round; stroke-linejoin:round;">
<path d="M112992 23622
L112205 23622
" />
</g>
<g style="fill:#000000; fill-opacity:0.0; 
stroke:#000000; stroke-width:39.3701; stroke-opacity:1; 
stroke-linecap:round; stroke-linejoin:round;">
</g>
<g style="fill:#000000; fill-opacity:0.0; 
stroke:#000000; stroke-width:59.0551; stroke-opacity:1; 
stroke-linecap:round; stroke-linejoin:round;">
<path d="M112992 43307
L112205 43307
" />
</g>
<g style="fill:#000000; fill-opacity:0.0; 
stroke:#000000; stroke-width:39.3701; stroke-opacity:1; 
stroke-linecap:round; stroke-linejoin:round;">
</g>
<g style="fill:#000000; fill-opacity:0.0; 
stroke:#000000; stroke-width:59.0551; stroke-opacity:1; 
stroke-linecap:round; stroke-linejoin:round;">
<path d="M112992 62992
L112205 62992
" />
</g>
<g style="fill:#000000; fill-opacity:0.0; 
stroke:#000000; stroke-width:39.3701; stroke-opacity:1; 
stroke-linecap:round; stroke-linejoin:round;">
</g>
<g style="fill:#000000; fill-opacity:0.0; 
stroke:#000000; stroke-width:59.0551; stroke-opacity:1; 
stroke-linecap:round; stroke-linejoin:round;">
<path d="M112477 13864
L112721 13864
" />
<path d="M112428 14011
L112599 13499
L112769 14011
" />
</g>
<g style="fill:#000000; fill-opacity:0.0; 
stroke:#000000; stroke-width:39.3701; stroke-opacity:1; 
stroke-linecap:round; stroke-linejoin:round;">
</g>
<g style="fill:#000000; fill-opacity:0.0; 
stroke:#000000; stroke-width:59.0551; stroke-opacity:1; 
stroke-linecap:round; stroke-linejoin:round;">
<path d="M112635 33428
L112708 33452
L112733 33476
L112757 33525
L112757 33598
L112733 33647
L112708 33671
L112660 33696
L112465 33696
L112465 33184
L112635 33184
L112684 33208
L112708 33233
L112733 33281
L112733 33330
L112708 33379
L112684 33403
L112635 33428
L112465 33428
" />
</g>
<g style="fill:#000000; fill-opacity:0.0; 
stroke:#000000; stroke-width:39.3701; stroke-opacity:1; 
stroke-linecap:round; stroke-linejoin:round;">
</g>
<g style="fill:#000000; fill-opacity:0.0; 
stroke:#000000; stroke-width:59.0551; stroke-opacity:1; 
stroke-linecap:round; stroke-linejoin:round;">
<path d="M112757 53332
L112733 53356
L112660 53381
L112611 53381
L112538 53356
L112489 53308
L112465 53259
L112440 53161
L112440 53088
L112465 52991
L112489 52942
L112538 52893
L112611 52869
L112660 52869
L112733 52893
L112757 52918
" />
</g>
<g style="fill:#000000; fill-opacity:0.0; 
stroke:#000000; stroke-width:39.3701; stroke-opacity:1; 
stroke-linecap:round; stroke-linejoin:round;">
</g>
<g style="fill:#000000; fill-opacity:0.0; 
stroke:#000000; stroke-width:59.0551; stroke-opacity:1; 
stroke-linecap:round; stroke-linejoin:round;">
<path d="M112465 73066
L112465 72554
L112587 72554
L112660 72578
L112708 72627
L112733 72676
L112757 72773
L112757 72846
L112733 72944
L112708 72993
L112660 73041
L112587 73066
L112465 73066
" />
</g>
<g style="fill:#000000; fill-opacity:0.0; 
stroke:#000000; stroke-width:39.3701; stroke-opacity:1; 
stroke-linecap:round; stroke-linejoin:round;">
</g>
<g style="fill:#000000; fill-opacity:0.0; 
stroke:#000000; stroke-width:59.0551; stroke-opacity:1; 
stroke-linecap:round; stroke-linejoin:round;">
<path d="M78881 76293
L78881 75703
L79022 75703
L79106 75731
L79162 75787
L79190 75843
L79219 75956
L79219 76040
L79190 76153
L79162 76209
L79106 76265
L79022 76293
L78881 76293
" />
<path d="M79725 76293
L79725 75984
L79697 75928
L79640 75899
L79528 75899
L79472 75928
" />
<path d="M79725 76265
L79669 76293
L79528 76293
L79472 76265
L79444 76209
L79444 76153
L79472 76096
L79528 76068
L79669 76068
L79725 76040
" />
<path d="M79922 75899
L80147 75899
" />
<path d="M80006 75703
L80006 76209
L80034 76265
L80090 76293
L80147 76293
" />
<path d="M80568 76265
L80512 76293
L80400 76293
L80343 76265
L80315 76209
L80315 75984
L80343 75928
L80400 75899
L80512 75899
L80568 75928
L80597 75984
L80597 76040
L80315 76096
" />
<path d="M80850 76237
L80878 76265
L80850 76293
L80822 76265
L80850 76237
L80850 76293
" />
<path d="M80850 75928
L80878 75956
L80850 75984
L80822 75956
L80850 75928
L80850 75984
" />
<path d="M81553 75759
L81581 75731
L81637 75703
L81778 75703
L81834 75731
L81862 75759
L81890 75815
L81890 75871
L81862 75956
L81525 76293
L81890 76293
" />
<path d="M82256 75703
L82312 75703
L82368 75731
L82396 75759
L82424 75815
L82453 75928
L82453 76068
L82424 76181
L82396 76237
L82368 76265
L82312 76293
L82256 76293
L82199 76265
L82171 76237
L82143 76181
L82115 76068
L82115 75928
L82143 75815
L82171 75759
L82199 75731
L82256 75703
" />
<path d="M83015 76293
L82678 76293
" />
<path d="M82846 76293
L82846 75703
L82790 75787
L82734 75843
L82678 75871
" />
<path d="M83521 75703
L83409 75703
L83352 75731
L83324 75759
L83268 75843
L83240 75956
L83240 76181
L83268 76237
L83296 76265
L83352 76293
L83465 76293
L83521 76265
L83549 76237
L83577 76181
L83577 76040
L83549 75984
L83521 75956
L83465 75928
L83352 75928
L83296 75956
L83268 75984
L83240 76040
" />
<path d="M83831 76068
L84280 76068
" />
<path d="M84674 75703
L84730 75703
L84787 75731
L84815 75759
L84843 75815
L84871 75928
L84871 76068
L84843 76181
L84815 76237
L84787 76265
L84730 76293
L84674 76293
L84618 76265
L84590 76237
L84562 76181
L84534 76068
L84534 75928
L84562 75815
L84590 75759
L84618 75731
L84674 75703
" />
<path d="M85377 75703
L85265 75703
L85208 75731
L85180 75759
L85124 75843
L85096 75956
L85096 76181
L85124 76237
L85152 76265
L85208 76293
L85321 76293
L85377 76265
L85405 76237
L85433 76181
L85433 76040
L85405 75984
L85377 75956
L85321 75928
L85208 75928
L85152 75956
L85124 75984
L85096 76040
" />
<path d="M85687 76068
L86136 76068
" />
<path d="M86530 75703
L86586 75703
L86643 75731
L86671 75759
L86699 75815
L86727 75928
L86727 76068
L86699 76181
L86671 76237
L86643 76265
L86586 76293
L86530 76293
L86474 76265
L86446 76237
L86418 76181
L86390 76068
L86390 75928
L86418 75815
L86446 75759
L86474 75731
L86530 75703
" />
<path d="M86952 75759
L86980 75731
L87036 75703
L87177 75703
L87233 75731
L87261 75759
L87289 75815
L87289 75871
L87261 75956
L86924 76293
L87289 76293
" />
</g>
<g style="fill:#000000; fill-opacity:0.0; 
stroke:#000000; stroke-width:39.3701; stroke-opacity:1; 
stroke-linecap:round; stroke-linejoin:round;">
</g>
<g style="fill:#000000; fill-opacity:0.0; 
stroke:#000000; stroke-width:59.0551; stroke-opacity:1; 
stroke-linecap:round; stroke-linejoin:round;">
<path d="M69685 76577
L112205 76577
" />
</g>
<g style="fill:#000000; fill-opacity:0.0; 
stroke:#000000; stroke-width:39.3701; stroke-opacity:1; 
stroke-linecap:round; stroke-linejoin:round;">
</g>
<g style="fill:#000000; fill-opacity:0.0; 
stroke:#000000; stroke-width:59.0551; stroke-opacity:1; 
stroke-linecap:round; stroke-linejoin:round;">
<path d="M70220 77395
L70220 76805
" />
<path d="M70557 77395
L70304 77058
" />
<path d="M70557 76805
L70220 77142
" />
<path d="M70810 77395
L70810 77002
" />
<path d="M70810 76805
L70782 76833
L70810 76861
L70838 76833
L70810 76805
L70810 76861
" />
<path d="M71429 77339
L71401 77367
L71316 77395
L71260 77395
L71176 77367
L71120 77311
L71091 77255
L71063 77142
L71063 77058
L71091 76946
L71120 76889
L71176 76833
L71260 76805
L71316 76805
L71401 76833
L71429 76861
" />
<path d="M71935 77395
L71935 77086
L71907 77030
L71851 77002
L71738 77002
L71682 77030
" />
<path d="M71935 77367
L71879 77395
L71738 77395
L71682 77367
L71654 77311
L71654 77255
L71682 77199
L71738 77171
L71879 77171
L71935 77142
" />
<path d="M72469 77395
L72469 76805
" />
<path d="M72469 77367
L72413 77395
L72301 77395
L72244 77367
L72216 77339
L72188 77283
L72188 77114
L72216 77058
L72244 77030
L72301 77002
L72413 77002
L72469 77030
" />
<path d="M73201 77086
L73397 77086
" />
<path d="M73482 77395
L73201 77395
L73201 76805
L73482 76805
" />
<path d="M73735 77339
L73763 77367
L73735 77395
L73707 77367
L73735 77339
L73735 77395
" />
<path d="M74016 77395
L74016 76805
L74157 76805
L74241 76833
L74297 76889
L74325 76946
L74354 77058
L74354 77142
L74325 77255
L74297 77311
L74241 77367
L74157 77395
L74016 77395
" />
<path d="M74607 77339
L74635 77367
L74607 77395
L74579 77367
L74607 77339
L74607 77395
" />
<path d="M74860 77227
L75141 77227
" />
<path d="M74804 77395
L75000 76805
L75197 77395
" />
<path d="M75394 77339
L75422 77367
L75394 77395
L75366 77367
L75394 77339
L75394 77395
" />
<path d="M76575 77395
L76575 76805
" />
<path d="M76631 77171
L76800 77395
" />
<path d="M76800 77002
L76575 77227
" />
<path d="M77053 77395
L77053 77002
" />
<path d="M77053 76805
L77025 76833
L77053 76861
L77081 76833
L77053 76805
L77053 76861
" />
<path d="M77588 77367
L77531 77395
L77419 77395
L77363 77367
L77334 77339
L77306 77283
L77306 77114
L77334 77058
L77363 77030
L77419 77002
L77531 77002
L77588 77030
" />
<path d="M78094 77395
L78094 77086
L78066 77030
L78009 77002
L77897 77002
L77841 77030
" />
<path d="M78094 77367
L78037 77395
L77897 77395
L77841 77367
L77813 77311
L77813 77255
L77841 77199
L77897 77171
L78037 77171
L78094 77142
" />
<path d="M78628 77395
L78628 76805
" />
<path d="M78628 77367
L78572 77395
L78459 77395
L78403 77367
L78375 77339
L78347 77283
L78347 77114
L78375 77058
L78403 77030
L78459 77002
L78572 77002
L78628 77030
" />
<path d="M79612 77002
L79612 77395
" />
<path d="M79472 76777
L79331 77199
L79697 77199
" />
<path d="M79922 77339
L79950 77367
L79922 77395
L79894 77367
L79922 77339
L79922 77395
" />
<path d="M80315 76805
L80372 76805
L80428 76833
L80456 76861
L80484 76917
L80512 77030
L80512 77171
L80484 77283
L80456 77339
L80428 77367
L80372 77395
L80315 77395
L80259 77367
L80231 77339
L80203 77283
L80175 77171
L80175 77030
L80203 76917
L80231 76861
L80259 76833
L80315 76805
" />
<path d="M80765 77339
L80793 77367
L80765 77395
L80737 77367
L80765 77339
L80765 77395
" />
<path d="M81018 76861
L81046 76833
L81103 76805
L81243 76805
L81300 76833
L81328 76861
L81356 76917
L81356 76974
L81328 77058
L80990 77395
L81356 77395
" />
<path d="M81609 77171
L82059 77171
" />
<path d="M81834 77395
L81834 76946
" />
<path d="M82565 77367
L82509 77395
L82396 77395
L82340 77367
L82312 77311
L82312 77086
L82340 77030
L82396 77002
L82509 77002
L82565 77030
L82593 77086
L82593 77142
L82312 77199
" />
<path d="M83099 77002
L83099 77395
" />
<path d="M82959 76777
L82818 77199
L83184 77199
" />
<path d="M83409 77171
L83859 77171
" />
<path d="M84393 76805
L84280 76805
L84224 76833
L84196 76861
L84140 76946
L84112 77058
L84112 77283
L84140 77339
L84168 77367
L84224 77395
L84337 77395
L84393 77367
L84421 77339
L84449 77283
L84449 77142
L84421 77086
L84393 77058
L84337 77030
L84224 77030
L84168 77058
L84140 77086
L84112 77142
" />
<path d="M84674 76861
L84702 76833
L84759 76805
L84899 76805
L84955 76833
L84983 76861
L85012 76917
L85012 76974
L84983 77058
L84646 77395
L85012 77395
" />
<path d="M85237 76861
L85265 76833
L85321 76805
L85462 76805
L85518 76833
L85546 76861
L85574 76917
L85574 76974
L85546 77058
L85208 77395
L85574 77395
" />
<path d="M86108 76805
L85827 76805
L85799 77086
L85827 77058
L85883 77030
L86024 77030
L86080 77058
L86108 77086
L86136 77142
L86136 77283
L86108 77339
L86080 77367
L86024 77395
L85883 77395
L85827 77367
L85799 77339
" />
<path d="M86333 76805
L86699 76805
L86502 77030
L86586 77030
L86643 77058
L86671 77086
L86699 77142
L86699 77283
L86671 77339
L86643 77367
L86586 77395
L86418 77395
L86361 77367
L86333 77339
" />
<path d="M87036 77058
L86980 77030
L86952 77002
L86924 76946
L86924 76917
L86952 76861
L86980 76833
L87036 76805
L87149 76805
L87205 76833
L87233 76861
L87261 76917
L87261 76946
L87233 77002
L87205 77030
L87149 77058
L87036 77058
L86980 77086
L86952 77114
L86924 77171
L86924 77283
L86952 77339
L86980 77367
L87036 77395
L87149 77395
L87205 77367
L87233 77339
L87261 77283
L87261 77171
L87233 77114
L87205 77086
L87149 77058
" />
<path d="M86249 76703
L87374 76703
" />
<path d="M87768 77002
L87768 77395
" />
<path d="M87514 77002
L87514 77311
L87543 77367
L87599 77395
L87683 77395
L87739 77367
L87768 77339
" />
<path d="M88049 77395
L88049 76805
" />
<path d="M88049 77030
L88105 77002
L88217 77002
L88274 77030
L88302 77058
L88330 77114
L88330 77283
L88302 77339
L88274 77367
L88217 77395
L88105 77395
L88049 77367
" />
<path d="M88836 77002
L88836 77395
" />
<path d="M88583 77002
L88583 77311
L88611 77367
L88667 77395
L88752 77395
L88808 77367
L88836 77339
" />
<path d="M89117 77002
L89117 77395
" />
<path d="M89117 77058
L89145 77030
L89202 77002
L89286 77002
L89342 77030
L89370 77086
L89370 77395
" />
<path d="M89567 77002
L89792 77002
" />
<path d="M89652 76805
L89652 77311
L89680 77367
L89736 77395
L89792 77395
" />
<path d="M90242 77002
L90242 77395
" />
<path d="M89989 77002
L89989 77311
L90017 77367
L90073 77395
L90158 77395
L90214 77367
L90242 77339
" />
<path d="M90833 77395
L90495 77395
" />
<path d="M90664 77395
L90664 76805
L90608 76889
L90552 76946
L90495 76974
" />
<path d="M91339 76805
L91226 76805
L91170 76833
L91142 76861
L91086 76946
L91058 77058
L91058 77283
L91086 77339
L91114 77367
L91170 77395
L91283 77395
L91339 77367
L91367 77339
L91395 77283
L91395 77142
L91367 77086
L91339 77058
L91283 77030
L91170 77030
L91114 77058
L91086 77086
L91058 77142
" />
<path d="M91648 77339
L91676 77367
L91648 77395
L91620 77367
L91648 77339
L91648 77395
" />
<path d="M92042 76805
L92098 76805
L92154 76833
L92183 76861
L92211 76917
L92239 77030
L92239 77171
L92211 77283
L92183 77339
L92154 77367
L92098 77395
L92042 77395
L91986 77367
L91958 77339
L91929 77283
L91901 77171
L91901 77030
L91929 76917
L91958 76861
L91986 76833
L92042 76805
" />
<path d="M92745 77002
L92745 77395
" />
<path d="M92604 76777
L92464 77199
L92829 77199
" />
<path d="M93054 77339
L93082 77367
L93054 77395
L93026 77367
L93054 77339
L93054 77395
" />
<path d="M93645 77395
L93307 77395
" />
<path d="M93476 77395
L93476 76805
L93420 76889
L93364 76946
L93307 76974
" />
<path d="M93898 77171
L94348 77171
" />
<path d="M94601 77367
L94657 77395
L94770 77395
L94826 77367
L94854 77311
L94854 77283
L94826 77227
L94770 77199
L94685 77199
L94629 77171
L94601 77114
L94601 77086
L94629 77030
L94685 77002
L94770 77002
L94826 77030
" />
<path d="M95023 77002
L95248 77002
" />
<path d="M95107 76805
L95107 77311
L95135 77367
L95192 77395
L95248 77395
" />
<path d="M95698 77395
L95698 77086
L95670 77030
L95613 77002
L95501 77002
L95445 77030
" />
<path d="M95698 77367
L95642 77395
L95501 77395
L95445 77367
L95417 77311
L95417 77255
L95445 77199
L95501 77171
L95642 77171
L95698 77142
" />
<path d="M95979 77395
L95979 76805
" />
<path d="M95979 77030
L96035 77002
L96148 77002
L96204 77030
L96232 77058
L96260 77114
L96260 77283
L96232 77339
L96204 77367
L96148 77395
L96035 77395
L95979 77367
" />
<path d="M96598 77395
L96541 77367
L96513 77311
L96513 76805
" />
<path d="M97048 77367
L96991 77395
L96879 77395
L96823 77367
L96795 77311
L96795 77086
L96823 77030
L96879 77002
L96991 77002
L97048 77030
L97076 77086
L97076 77142
L96795 77199
" />
</g>
<g style="fill:#000000; fill-opacity:0.0; 
stroke:#000000; stroke-width:39.3701; stroke-opacity:1; 
stroke-linecap:round; stroke-linejoin:round;">
</g>
<g style="fill:#000000; fill-opacity:0.0; 
stroke:#000000; stroke-width:59.0551; stroke-opacity:1; 
stroke-linecap:round; stroke-linejoin:round;">
<path d="M69685 75396
L112205 75396
" />
</g>
<g style="fill:#000000; fill-opacity:0.0; 
stroke:#000000; stroke-width:39.3701; stroke-opacity:1; 
stroke-linecap:round; stroke-linejoin:round;">
</g>
<g style="fill:#000000; fill-opacity:0.0; 
stroke:#000000; stroke-width:118.11; stroke-opacity:1; 
stroke-linecap:round; stroke-linejoin:round;">
<path d="M104022 76293
L103825 76012
" />
<path d="M103684 76293
L103684 75703
L103909 75703
L103965 75731
L103994 75759
L104022 75815
L104022 75899
L103994 75956
L103965 75984
L103909 76012
L103684 76012
" />
<path d="M104500 76265
L104444 76293
L104331 76293
L104275 76265
L104247 76209
L104247 75984
L104275 75928
L104331 75899
L104444 75899
L104500 75928
L104528 75984
L104528 76040
L104247 76096
" />
<path d="M104725 75899
L104865 76293
L105006 75899
" />
<path d="M105231 76237
L105259 76265
L105231 76293
L105203 76265
L105231 76237
L105231 76293
" />
<path d="M105231 75928
L105259 75956
L105231 75984
L105203 75956
L105231 75928
L105231 75984
" />
<path d="M105878 75703
L106075 76293
L106271 75703
" />
<path d="M106778 76293
L106440 76293
" />
<path d="M106609 76293
L106609 75703
L106553 75787
L106496 75843
L106440 75871
" />
<path d="M107031 76237
L107059 76265
L107031 76293
L107003 76265
L107031 76237
L107031 76293
" />
<path d="M107424 75703
L107481 75703
L107537 75731
L107565 75759
L107593 75815
L107621 75928
L107621 76068
L107593 76181
L107565 76237
L107537 76265
L107481 76293
L107424 76293
L107368 76265
L107340 76237
L107312 76181
L107284 76068
L107284 75928
L107312 75815
L107340 75759
L107368 75731
L107424 75703
" />
<path d="M107874 76293
L107874 75703
" />
<path d="M108212 76293
L107959 75956
" />
<path d="M108212 75703
L107874 76040
" />
</g>
<g style="fill:#000000; fill-opacity:0.0; 
stroke:#000000; stroke-width:39.3701; stroke-opacity:1; 
stroke-linecap:round; stroke-linejoin:round;">
</g>
<g style="fill:#000000; fill-opacity:0.0; 
stroke:#000000; stroke-width:59.0551; stroke-opacity:1; 
stroke-linecap:round; stroke-linejoin:round;">
<path d="M70192 76265
L70276 76293
L70417 76293
L70473 76265
L70501 76237
L70529 76181
L70529 76124
L70501 76068
L70473 76040
L70417 76012
L70304 75984
L70248 75956
L70220 75928
L70192 75871
L70192 75815
L70220 75759
L70248 75731
L70304 75703
L70445 75703
L70529 75731
" />
<path d="M70782 76293
L70782 75899
" />
<path d="M70782 75703
L70754 75731
L70782 75759
L70810 75731
L70782 75703
L70782 75759
" />
<path d="M71007 75899
L71316 75899
L71007 76293
L71316 76293
" />
<path d="M71766 76265
L71710 76293
L71598 76293
L71541 76265
L71513 76209
L71513 75984
L71541 75928
L71598 75899
L71710 75899
L71766 75928
L71795 75984
L71795 76040
L71513 76096
" />
<path d="M72048 76237
L72076 76265
L72048 76293
L72019 76265
L72048 76237
L72048 76293
" />
<path d="M72048 75928
L72076 75956
L72048 75984
L72019 75956
L72048 75928
L72048 75984
" />
<path d="M72751 76124
L73032 76124
" />
<path d="M72694 76293
L72891 75703
L73088 76293
" />
<path d="M73538 75899
L73538 76293
" />
<path d="M73397 75674
L73257 76096
L73622 76096
" />
</g>
<g style="fill:#000000; fill-opacity:0.0; 
stroke:#000000; stroke-width:39.3701; stroke-opacity:1; 
stroke-linecap:round; stroke-linejoin:round;">
</g>
<g style="fill:#000000; fill-opacity:0.0; 
stroke:#000000; stroke-width:59.0551; stroke-opacity:1; 
stroke-linecap:round; stroke-linejoin:round;">
<path d="M103684 77395
L103684 76805
" />
<path d="M104219 77395
L104219 76805
" />
<path d="M104219 77367
L104162 77395
L104050 77395
L103994 77367
L103965 77339
L103937 77283
L103937 77114
L103965 77058
L103994 77030
L104050 77002
L104162 77002
L104219 77030
" />
<path d="M104500 77339
L104528 77367
L104500 77395
L104472 77367
L104500 77339
L104500 77395
" />
<path d="M104500 77030
L104528 77058
L104500 77086
L104472 77058
L104500 77030
L104500 77086
" />
<path d="M105540 77395
L105203 77395
" />
<path d="M105372 77395
L105372 76805
L105315 76889
L105259 76946
L105203 76974
" />
<path d="M106215 76777
L105709 77536
" />
<path d="M106721 77395
L106384 77395
" />
<path d="M106553 77395
L106553 76805
L106496 76889
L106440 76946
L106384 76974
" />
</g>
<g style="fill:#000000; fill-opacity:0.0; 
stroke:#000000; stroke-width:39.3701; stroke-opacity:1; 
stroke-linecap:round; stroke-linejoin:round;">
</g>
<g style="fill:#000000; fill-opacity:0.0; 
stroke:#000000; stroke-width:59.0551; stroke-opacity:1; 
stroke-linecap:round; stroke-linejoin:round;">
<path d="M69685 73821
L112205 73821
" />
</g>
<g style="fill:#000000; fill-opacity:0.0; 
stroke:#000000; stroke-width:39.3701; stroke-opacity:1; 
stroke-linecap:round; stroke-linejoin:round;">
</g>
<g style="fill:#000000; fill-opacity:0.0; 
stroke:#000000; stroke-width:157.48; stroke-opacity:1; 
stroke-linecap:round; stroke-linejoin:round;">
<path d="M70257 74099
L70707 74099
" />
<path d="M70384 74886
L70482 74099
" />
<path d="M70871 74886
L70937 74361
" />
<path d="M70970 74099
L70927 74136
L70960 74174
L71002 74136
L70970 74099
L70960 74174
" />
<path d="M71199 74361
L71499 74361
" />
<path d="M71345 74099
L71260 74774
L71288 74849
L71359 74886
L71434 74886
" />
<path d="M71809 74886
L71738 74849
L71710 74774
L71795 74099
" />
<path d="M72413 74849
L72334 74886
L72184 74886
L72113 74849
L72085 74774
L72123 74474
L72169 74399
L72249 74361
L72399 74361
L72469 74399
L72498 74474
L72488 74549
L72104 74624
" />
<path d="M72793 74811
L72826 74849
L72783 74886
L72751 74849
L72793 74811
L72783 74886
" />
<path d="M72844 74399
L72877 74436
L72835 74474
L72802 74436
L72844 74399
L72835 74474
" />
<path d="M73758 74886
L73857 74099
" />
<path d="M74475 74849
L74396 74886
L74246 74886
L74175 74849
L74143 74811
L74115 74736
L74143 74511
L74190 74436
L74232 74399
L74311 74361
L74461 74361
L74532 74399
" />
<path d="M75113 74849
L75033 74886
L74883 74886
L74813 74849
L74785 74774
L74822 74474
L74869 74399
L74949 74361
L75099 74361
L75169 74399
L75197 74474
L75188 74549
L74804 74624
" />
<path d="M75507 74099
L76031 74099
L75408 74886
L75933 74886
" />
<path d="M76331 74099
L76252 74736
L76280 74811
L76313 74849
L76383 74886
L76533 74886
L76613 74849
L76655 74811
L76702 74736
L76781 74099
" />
<path d="M77058 74886
L77156 74099
L77349 74661
L77681 74099
L77583 74886
" />
<path d="M78548 74661
L78923 74661
" />
<path d="M78445 74886
L78806 74099
L78970 74886
" />
<path d="M79345 74886
L79275 74849
L79247 74774
L79331 74099
" />
<path d="M79645 74886
L79744 74099
" />
<path d="M79983 74886
L80034 74474
L80006 74399
L79936 74361
L79823 74361
L79744 74399
L79701 74436
" />
<path d="M80695 74886
L80747 74474
L80718 74399
L80648 74361
L80498 74361
L80418 74399
" />
<path d="M80700 74849
L80620 74886
L80433 74886
L80362 74849
L80334 74774
L80343 74699
L80390 74624
L80470 74586
L80657 74586
L80737 74549
" />
<path d="M81070 74886
L81136 74361
" />
<path d="M81126 74436
L81168 74399
L81248 74361
L81361 74361
L81431 74399
L81459 74474
L81407 74886
" />
<path d="M81459 74474
L81506 74399
L81585 74361
L81698 74361
L81768 74399
L81796 74474
L81745 74886
" />
<path d="M82120 74886
L82218 74099
" />
<path d="M82181 74399
L82260 74361
L82410 74361
L82481 74399
L82513 74436
L82542 74511
L82513 74736
L82467 74811
L82424 74849
L82345 74886
L82195 74886
L82124 74849
" />
<path d="M82832 74886
L82898 74361
" />
<path d="M82879 74511
L82926 74436
L82968 74399
L83048 74361
L83123 74361
" />
<path d="M83657 74886
L83709 74474
L83681 74399
L83610 74361
L83460 74361
L83381 74399
" />
<path d="M83662 74849
L83582 74886
L83395 74886
L83324 74849
L83296 74774
L83306 74699
L83352 74624
L83432 74586
L83620 74586
L83699 74549
" />
<path d="M84946 74474
L84684 74474
" />
<path d="M84632 74886
L84730 74099
L85105 74099
" />
<path d="M85307 74886
L85405 74099
L85705 74099
L85776 74136
L85808 74174
L85837 74249
L85822 74361
L85776 74436
L85733 74474
L85654 74511
L85354 74511
" />
<path d="M86600 74136
L86530 74099
L86418 74099
L86301 74136
L86216 74211
L86169 74286
L86113 74436
L86099 74549
L86118 74699
L86146 74774
L86211 74849
L86319 74886
L86394 74886
L86511 74849
L86554 74811
L86586 74549
L86436 74549
" />
<path d="M86872 74661
L87247 74661
" />
<path d="M86769 74886
L87130 74099
L87294 74886
" />
<path d="M88157 74886
L88255 74099
" />
<path d="M88217 74399
L88297 74361
L88447 74361
L88517 74399
L88550 74436
L88578 74511
L88550 74736
L88503 74811
L88461 74849
L88382 74886
L88232 74886
L88161 74849
" />
<path d="M88981 74886
L88911 74849
L88878 74811
L88850 74736
L88878 74511
L88925 74436
L88967 74399
L89047 74361
L89160 74361
L89230 74399
L89263 74436
L89291 74511
L89263 74736
L89216 74811
L89174 74849
L89094 74886
L88981 74886
" />
<path d="M89919 74886
L89970 74474
L89942 74399
L89872 74361
L89722 74361
L89642 74399
" />
<path d="M89924 74849
L89844 74886
L89656 74886
L89586 74849
L89558 74774
L89567 74699
L89614 74624
L89694 74586
L89881 74586
L89961 74549
" />
<path d="M90294 74886
L90359 74361
" />
<path d="M90341 74511
L90388 74436
L90430 74399
L90509 74361
L90584 74361
" />
<path d="M91119 74886
L91217 74099
" />
<path d="M91123 74849
L91044 74886
L90894 74886
L90823 74849
L90791 74811
L90762 74736
L90791 74511
L90837 74436
L90880 74399
L90959 74361
L91109 74361
L91180 74399
" />
<path d="M92281 75186
L92248 75149
L92187 75036
L92159 74961
L92136 74849
L92122 74661
L92140 74511
L92201 74324
L92253 74211
L92300 74136
L92389 74024
L92431 73986
" />
<path d="M92618 74886
L92717 74099
L93017 74099
L93087 74136
L93120 74174
L93148 74249
L93134 74361
L93087 74436
L93045 74474
L92965 74511
L92665 74511
" />
<path d="M93865 74811
L93823 74849
L93706 74886
L93631 74886
L93523 74849
L93457 74774
L93429 74699
L93411 74549
L93425 74436
L93481 74286
L93528 74211
L93612 74136
L93729 74099
L93804 74099
L93912 74136
L93945 74174
" />
<path d="M94507 74474
L94615 74511
L94648 74549
L94676 74624
L94662 74736
L94615 74811
L94573 74849
L94493 74886
L94193 74886
L94292 74099
L94554 74099
L94624 74136
L94657 74174
L94685 74249
L94676 74324
L94629 74399
L94587 74436
L94507 74474
L94245 74474
" />
<path d="M94868 75186
L94910 75149
L94999 75036
L95046 74961
L95098 74849
L95159 74661
L95178 74511
L95163 74324
L95140 74211
L95112 74136
L95051 74024
L95018 73986
" />
</g>
<g style="fill:#000000; fill-opacity:0.0; 
stroke:#000000; stroke-width:39.3701; stroke-opacity:1; 
stroke-linecap:round; stroke-linejoin:round;">
</g>
<g style="fill:#000000; fill-opacity:0.0; 
stroke:#000000; stroke-width:59.0551; stroke-opacity:1; 
stroke-linecap:round; stroke-linejoin:round;">
<path d="M70417 73070
L70220 73070
" />
<path d="M70220 73380
L70220 72789
L70501 72789
" />
<path d="M70726 73380
L70726 72986
" />
<path d="M70726 72789
L70698 72817
L70726 72845
L70754 72817
L70726 72789
L70726 72845
" />
<path d="M71091 73380
L71035 73352
L71007 73295
L71007 72789
" />
<path d="M71541 73352
L71485 73380
L71373 73380
L71316 73352
L71288 73295
L71288 73070
L71316 73014
L71373 72986
L71485 72986
L71541 73014
L71570 73070
L71570 73127
L71288 73183
" />
<path d="M71823 73323
L71851 73352
L71823 73380
L71795 73352
L71823 73323
L71823 73380
" />
<path d="M71823 73014
L71851 73042
L71823 73070
L71795 73042
L71823 73014
L71823 73070
" />
<path d="M72554 73380
L72554 72986
" />
<path d="M72554 72789
L72526 72817
L72554 72845
L72582 72817
L72554 72789
L72554 72845
" />
<path d="M73088 73352
L73032 73380
L72919 73380
L72863 73352
L72835 73323
L72807 73267
L72807 73099
L72835 73042
L72863 73014
L72919 72986
L73032 72986
L73088 73014
" />
<path d="M73566 73352
L73510 73380
L73397 73380
L73341 73352
L73313 73295
L73313 73070
L73341 73014
L73397 72986
L73510 72986
L73566 73014
L73594 73070
L73594 73127
L73313 73183
" />
<path d="M73791 72986
L74100 72986
L73791 73380
L74100 73380
" />
<path d="M74579 72986
L74579 73380
" />
<path d="M74325 72986
L74325 73295
L74354 73352
L74410 73380
L74494 73380
L74550 73352
L74579 73323
" />
<path d="M74860 73380
L74860 72986
" />
<path d="M74860 73042
L74888 73014
L74944 72986
L75028 72986
L75085 73014
L75113 73070
L75113 73380
" />
<path d="M75113 73070
L75141 73014
L75197 72986
L75282 72986
L75338 73014
L75366 73070
L75366 73380
" />
<path d="M75647 73323
L75675 73352
L75647 73380
L75619 73352
L75647 73323
L75647 73380
" />
<path d="M75928 73380
L75928 72789
" />
<path d="M75985 73155
L76153 73380
" />
<path d="M76153 72986
L75928 73211
" />
<path d="M76406 73380
L76406 72986
" />
<path d="M76406 72789
L76378 72817
L76406 72845
L76435 72817
L76406 72789
L76406 72845
" />
<path d="M76941 73352
L76885 73380
L76772 73380
L76716 73352
L76688 73323
L76660 73267
L76660 73099
L76688 73042
L76716 73014
L76772 72986
L76885 72986
L76941 73014
" />
<path d="M77447 73380
L77447 73070
L77419 73014
L77363 72986
L77250 72986
L77194 73014
" />
<path d="M77447 73352
L77391 73380
L77250 73380
L77194 73352
L77166 73295
L77166 73239
L77194 73183
L77250 73155
L77391 73155
L77447 73127
" />
<path d="M77981 73380
L77981 72789
" />
<path d="M77981 73352
L77925 73380
L77813 73380
L77756 73352
L77728 73323
L77700 73267
L77700 73099
L77728 73042
L77756 73014
L77813 72986
L77925 72986
L77981 73014
" />
<path d="M78122 73436
L78572 73436
" />
<path d="M78712 72986
L78712 73577
" />
<path d="M78712 73014
L78769 72986
L78881 72986
L78937 73014
L78965 73042
L78994 73099
L78994 73267
L78965 73323
L78937 73352
L78881 73380
L78769 73380
L78712 73352
" />
<path d="M79500 73352
L79444 73380
L79331 73380
L79275 73352
L79247 73323
L79219 73267
L79219 73099
L79247 73042
L79275 73014
L79331 72986
L79444 72986
L79500 73014
" />
<path d="M79753 73380
L79753 72789
" />
<path d="M79753 73014
L79809 72986
L79922 72986
L79978 73014
L80006 73042
L80034 73099
L80034 73267
L80006 73323
L79978 73352
L79922 73380
L79809 73380
L79753 73352
" />
</g>
<g style="fill:#000000; fill-opacity:0.0; 
stroke:#000000; stroke-width:39.3701; stroke-opacity:1; 
stroke-linecap:round; stroke-linejoin:round;">
</g>
<g style="fill:#000000; fill-opacity:0.0; 
stroke:#000000; stroke-width:59.0551; stroke-opacity:1; 
stroke-linecap:round; stroke-linejoin:round;">
<path d="M69685 71459
L112205 71459
" />
</g>
<g style="fill:#000000; fill-opacity:0.0; 
stroke:#000000; stroke-width:39.3701; stroke-opacity:1; 
stroke-linecap:round; stroke-linejoin:round;">
</g>
<g style="fill:#000000; fill-opacity:0.0; 
stroke:#000000; stroke-width:59.0551; stroke-opacity:1; 
stroke-linecap:round; stroke-linejoin:round;">
<path d="M70192 72289
L70276 72317
L70417 72317
L70473 72289
L70501 72260
L70529 72204
L70529 72148
L70501 72092
L70473 72064
L70417 72036
L70304 72007
L70248 71979
L70220 71951
L70192 71895
L70192 71839
L70220 71782
L70248 71754
L70304 71726
L70445 71726
L70529 71754
" />
<path d="M70782 72317
L70782 71726
" />
<path d="M71035 72317
L71035 72007
L71007 71951
L70951 71923
L70867 71923
L70810 71951
L70782 71979
" />
<path d="M71541 72289
L71485 72317
L71373 72317
L71316 72289
L71288 72232
L71288 72007
L71316 71951
L71373 71923
L71485 71923
L71541 71951
L71570 72007
L71570 72064
L71288 72120
" />
<path d="M72048 72289
L71991 72317
L71879 72317
L71823 72289
L71795 72232
L71795 72007
L71823 71951
L71879 71923
L71991 71923
L72048 71951
L72076 72007
L72076 72064
L71795 72120
" />
<path d="M72244 71923
L72469 71923
" />
<path d="M72329 71726
L72329 72232
L72357 72289
L72413 72317
L72469 72317
" />
<path d="M72666 72260
L72694 72289
L72666 72317
L72638 72289
L72666 72260
L72666 72317
" />
<path d="M72666 71951
L72694 71979
L72666 72007
L72638 71979
L72666 71951
L72666 72007
" />
</g>
<g style="fill:#000000; fill-opacity:0.0; 
stroke:#000000; stroke-width:39.3701; stroke-opacity:1; 
stroke-linecap:round; stroke-linejoin:round;">
</g>
<g style="fill:#000000; fill-opacity:0.0; 
stroke:#000000; stroke-width:118.11; stroke-opacity:1; 
stroke-linecap:round; stroke-linejoin:round;">
<path d="M70417 70826
L70220 70826
" />
<path d="M70220 71136
L70220 70545
L70501 70545
" />
<path d="M70726 71136
L70726 70545
L70951 70545
L71007 70573
L71035 70601
L71063 70658
L71063 70742
L71035 70798
L71007 70826
L70951 70854
L70726 70854
" />
<path d="M71626 70573
L71570 70545
L71485 70545
L71401 70573
L71345 70629
L71316 70686
L71288 70798
L71288 70883
L71316 70995
L71345 71051
L71401 71108
L71485 71136
L71541 71136
L71626 71108
L71654 71079
L71654 70883
L71541 70883
" />
<path d="M71879 70967
L72160 70967
" />
<path d="M71823 71136
L72019 70545
L72216 71136
" />
<path d="M72357 70742
L72469 71136
L72582 70854
L72694 71136
L72807 70742
" />
<path d="M73285 71136
L73285 70826
L73257 70770
L73201 70742
L73088 70742
L73032 70770
" />
<path d="M73285 71108
L73229 71136
L73088 71136
L73032 71108
L73004 71051
L73004 70995
L73032 70939
L73088 70911
L73229 70911
L73285 70883
" />
<path d="M73566 71136
L73566 70742
" />
<path d="M73566 70854
L73594 70798
L73622 70770
L73679 70742
L73735 70742
" />
<path d="M73904 71108
L73960 71136
L74072 71136
L74129 71108
L74157 71051
L74157 71023
L74129 70967
L74072 70939
L73988 70939
L73932 70911
L73904 70854
L73904 70826
L73932 70770
L73988 70742
L74072 70742
L74129 70770
" />
</g>
<g style="fill:#000000; fill-opacity:0.0; 
stroke:#000000; stroke-width:39.3701; stroke-opacity:1; 
stroke-linecap:round; stroke-linejoin:round;">
</g>
<g style="fill:#000000; fill-opacity:0.0; 
stroke:#000000; stroke-width:59.0551; stroke-opacity:1; 
stroke-linecap:round; stroke-linejoin:round;">
<path d="M70220 69955
L70220 69364
L70360 69364
L70445 69392
L70501 69448
L70529 69505
L70557 69617
L70557 69701
L70529 69814
L70501 69870
L70445 69926
L70360 69955
L70220 69955
" />
<path d="M71035 69926
L70979 69955
L70867 69955
L70810 69926
L70782 69870
L70782 69645
L70810 69589
L70867 69561
L70979 69561
L71035 69589
L71063 69645
L71063 69701
L70782 69758
" />
<path d="M71316 69955
L71316 69561
" />
<path d="M71316 69673
L71345 69617
L71373 69589
L71429 69561
L71485 69561
" />
<path d="M71682 69955
L71682 69561
" />
<path d="M71682 69364
L71654 69392
L71682 69420
L71710 69392
L71682 69364
L71682 69420
" />
<path d="M71907 69561
L72048 69955
L72188 69561
" />
<path d="M72638 69926
L72582 69955
L72469 69955
L72413 69926
L72385 69870
L72385 69645
L72413 69589
L72469 69561
L72582 69561
L72638 69589
L72666 69645
L72666 69701
L72385 69758
" />
<path d="M73172 69955
L73172 69364
" />
<path d="M73172 69926
L73116 69955
L73004 69955
L72947 69926
L72919 69898
L72891 69842
L72891 69673
L72919 69617
L72947 69589
L73004 69561
L73116 69561
L73172 69589
" />
<path d="M73819 69561
L74044 69561
" />
<path d="M73904 69955
L73904 69448
L73932 69392
L73988 69364
L74044 69364
" />
<path d="M74241 69955
L74241 69561
" />
<path d="M74241 69673
L74269 69617
L74297 69589
L74354 69561
L74410 69561
" />
<path d="M74691 69955
L74635 69926
L74607 69898
L74579 69842
L74579 69673
L74607 69617
L74635 69589
L74691 69561
L74775 69561
L74832 69589
L74860 69617
L74888 69673
L74888 69842
L74860 69898
L74832 69926
L74775 69955
L74691 69955
" />
<path d="M75141 69955
L75141 69561
" />
<path d="M75141 69617
L75169 69589
L75225 69561
L75310 69561
L75366 69589
L75394 69645
L75394 69955
" />
<path d="M75394 69645
L75422 69589
L75478 69561
L75563 69561
L75619 69589
L75647 69645
L75647 69955
" />
<path d="M76575 69645
L76660 69673
L76688 69701
L76716 69758
L76716 69842
L76688 69898
L76660 69926
L76603 69955
L76378 69955
L76378 69364
L76575 69364
L76631 69392
L76660 69420
L76688 69476
L76688 69533
L76660 69589
L76631 69617
L76575 69645
L76378 69645
" />
<path d="M77363 70011
L77306 69983
L77250 69926
L77166 69842
L77109 69814
L77053 69814
" />
<path d="M77081 69955
L77025 69926
L76969 69870
L76941 69758
L76941 69561
L76969 69448
L77025 69392
L77081 69364
L77194 69364
L77250 69392
L77306 69448
L77334 69561
L77334 69758
L77306 69870
L77250 69926
L77194 69955
L77081 69955
" />
<path d="M78037 69955
L78037 69364
" />
<path d="M78572 69926
L78516 69955
L78403 69955
L78347 69926
L78319 69898
L78291 69842
L78291 69673
L78319 69617
L78347 69589
L78403 69561
L78516 69561
L78572 69589
" />
<path d="M79050 69926
L78994 69955
L78881 69955
L78825 69926
L78797 69870
L78797 69645
L78825 69589
L78881 69561
L78994 69561
L79050 69589
L79078 69645
L79078 69701
L78797 69758
" />
<path d="M79275 69561
L79584 69561
L79275 69955
L79584 69955
" />
<path d="M80062 69561
L80062 69955
" />
<path d="M79809 69561
L79809 69870
L79837 69926
L79894 69955
L79978 69955
L80034 69926
L80062 69898
" />
<path d="M80343 69955
L80343 69561
" />
<path d="M80343 69617
L80372 69589
L80428 69561
L80512 69561
L80568 69589
L80597 69645
L80597 69955
" />
<path d="M80597 69645
L80625 69589
L80681 69561
L80765 69561
L80822 69589
L80850 69645
L80850 69955
" />
<path d="M81496 69364
L81693 69955
L81890 69364
" />
<path d="M82396 69955
L82059 69955
" />
<path d="M82228 69955
L82228 69364
L82171 69448
L82115 69505
L82059 69533
" />
<path d="M82649 69898
L82678 69926
L82649 69955
L82621 69926
L82649 69898
L82649 69955
" />
<path d="M83043 69364
L83099 69364
L83156 69392
L83184 69420
L83212 69476
L83240 69589
L83240 69730
L83212 69842
L83184 69898
L83156 69926
L83099 69955
L83043 69955
L82987 69926
L82959 69898
L82931 69842
L82903 69730
L82903 69589
L82931 69476
L82959 69420
L82987 69392
L83043 69364
" />
</g>
<g style="fill:#000000; fill-opacity:0.0; 
stroke:#000000; stroke-width:39.3701; stroke-opacity:1; 
stroke-linecap:round; stroke-linejoin:round;">
</g>
<g style="fill:#000000; fill-opacity:0.0; 
stroke:#000000; stroke-width:59.0551; stroke-opacity:1; 
stroke-linecap:round; stroke-linejoin:round;">
<path d="M70220 68773
L70220 68183
L70417 68605
L70613 68183
L70613 68773
" />
<path d="M70895 68773
L70895 68380
" />
<path d="M70895 68183
L70867 68211
L70895 68239
L70923 68211
L70895 68183
L70895 68239
" />
<path d="M71429 68380
L71429 68858
L71401 68914
L71373 68942
L71316 68970
L71232 68970
L71176 68942
" />
<path d="M71429 68745
L71373 68773
L71260 68773
L71204 68745
L71176 68717
L71148 68661
L71148 68492
L71176 68436
L71204 68408
L71260 68380
L71373 68380
L71429 68408
" />
<path d="M71710 68773
L71710 68380
" />
<path d="M71710 68492
L71738 68436
L71766 68408
L71823 68380
L71879 68380
" />
<path d="M72329 68773
L72329 68464
L72301 68408
L72244 68380
L72132 68380
L72076 68408
" />
<path d="M72329 68745
L72273 68773
L72132 68773
L72076 68745
L72048 68689
L72048 68633
L72076 68577
L72132 68548
L72273 68548
L72329 68520
" />
<path d="M72526 68380
L72751 68380
" />
<path d="M72610 68183
L72610 68689
L72638 68745
L72694 68773
L72751 68773
" />
<path d="M72947 68773
L72947 68380
" />
<path d="M72947 68183
L72919 68211
L72947 68239
L72976 68211
L72947 68183
L72947 68239
" />
<path d="M73313 68773
L73257 68745
L73229 68717
L73201 68661
L73201 68492
L73229 68436
L73257 68408
L73313 68380
L73397 68380
L73454 68408
L73482 68436
L73510 68492
L73510 68661
L73482 68717
L73454 68745
L73397 68773
L73313 68773
" />
<path d="M73763 68380
L73763 68773
" />
<path d="M73763 68436
L73791 68408
L73847 68380
L73932 68380
L73988 68408
L74016 68464
L74016 68773
" />
<path d="M74663 68380
L74888 68380
" />
<path d="M74747 68183
L74747 68689
L74775 68745
L74832 68773
L74888 68773
" />
<path d="M75169 68773
L75113 68745
L75085 68717
L75057 68661
L75057 68492
L75085 68436
L75113 68408
L75169 68380
L75253 68380
L75310 68408
L75338 68436
L75366 68492
L75366 68661
L75338 68717
L75310 68745
L75253 68773
L75169 68773
" />
<path d="M76069 68773
L76069 68183
" />
<path d="M76125 68548
L76294 68773
" />
<path d="M76294 68380
L76069 68605
" />
<path d="M76547 68773
L76547 68380
" />
<path d="M76547 68183
L76519 68211
L76547 68239
L76575 68211
L76547 68183
L76547 68239
" />
<path d="M77081 68745
L77025 68773
L76913 68773
L76856 68745
L76828 68717
L76800 68661
L76800 68492
L76828 68436
L76856 68408
L76913 68380
L77025 68380
L77081 68408
" />
<path d="M77588 68773
L77588 68464
L77559 68408
L77503 68380
L77391 68380
L77334 68408
" />
<path d="M77588 68745
L77531 68773
L77391 68773
L77334 68745
L77306 68689
L77306 68633
L77334 68577
L77391 68548
L77531 68548
L77588 68520
" />
<path d="M78122 68773
L78122 68183
" />
<path d="M78122 68745
L78066 68773
L77953 68773
L77897 68745
L77869 68717
L77841 68661
L77841 68492
L77869 68436
L77897 68408
L77953 68380
L78066 68380
L78122 68408
" />
<path d="M78403 68717
L78431 68745
L78403 68773
L78375 68745
L78403 68717
L78403 68773
" />
<path d="M78403 68408
L78431 68436
L78403 68464
L78375 68436
L78403 68408
L78403 68464
" />
<path d="M79753 68183
L79753 68605
L79725 68689
L79669 68745
L79584 68773
L79528 68773
" />
<path d="M80287 68380
L80287 68773
" />
<path d="M80034 68380
L80034 68689
L80062 68745
L80118 68773
L80203 68773
L80259 68745
L80287 68717
" />
<path d="M80822 68773
L80822 68464
L80793 68408
L80737 68380
L80625 68380
L80568 68408
" />
<path d="M80822 68745
L80765 68773
L80625 68773
L80568 68745
L80540 68689
L80540 68633
L80568 68577
L80625 68548
L80765 68548
L80822 68520
" />
<path d="M81103 68380
L81103 68773
" />
<path d="M81103 68436
L81131 68408
L81187 68380
L81271 68380
L81328 68408
L81356 68464
L81356 68773
" />
<path d="M82396 68211
L82340 68183
L82256 68183
L82171 68211
L82115 68267
L82087 68323
L82059 68436
L82059 68520
L82087 68633
L82115 68689
L82171 68745
L82256 68773
L82312 68773
L82396 68745
L82424 68717
L82424 68520
L82312 68520
" />
<path d="M82762 68773
L82706 68745
L82678 68717
L82649 68661
L82649 68492
L82678 68436
L82706 68408
L82762 68380
L82846 68380
L82903 68408
L82931 68436
L82959 68492
L82959 68661
L82931 68717
L82903 68745
L82846 68773
L82762 68773
" />
<path d="M83212 68380
L83212 68773
" />
<path d="M83212 68436
L83240 68408
L83296 68380
L83381 68380
L83437 68408
L83465 68464
L83465 68773
" />
<path d="M83690 68380
L83999 68380
L83690 68773
L83999 68773
" />
<path d="M84477 68773
L84477 68464
L84449 68408
L84393 68380
L84280 68380
L84224 68408
" />
<path d="M84477 68745
L84421 68773
L84280 68773
L84224 68745
L84196 68689
L84196 68633
L84224 68577
L84280 68548
L84421 68548
L84477 68520
" />
<path d="M84843 68773
L84787 68745
L84759 68689
L84759 68183
" />
<path d="M85293 68745
L85237 68773
L85124 68773
L85068 68745
L85040 68689
L85040 68464
L85068 68408
L85124 68380
L85237 68380
L85293 68408
L85321 68464
L85321 68520
L85040 68577
" />
<path d="M85518 68380
L85827 68380
L85518 68773
L85827 68773
" />
<path d="M86671 68998
L86643 68970
L86586 68886
L86558 68830
L86530 68745
L86502 68605
L86502 68492
L86530 68352
L86558 68267
L86586 68211
L86643 68127
L86671 68099
" />
<path d="M87008 68183
L87121 68183
L87177 68211
L87233 68267
L87261 68380
L87261 68577
L87233 68689
L87177 68745
L87121 68773
L87008 68773
L86952 68745
L86896 68689
L86868 68577
L86868 68380
L86896 68267
L86952 68211
L87008 68183
" />
<path d="M87514 68773
L87514 68183
" />
<path d="M87514 68408
L87571 68380
L87683 68380
L87739 68408
L87768 68436
L87796 68492
L87796 68661
L87768 68717
L87739 68745
L87683 68773
L87571 68773
L87514 68745
" />
<path d="M88049 68773
L88049 68380
" />
<path d="M88049 68183
L88021 68211
L88049 68239
L88077 68211
L88049 68183
L88049 68239
" />
<path d="M88330 68380
L88330 68886
L88302 68942
L88246 68970
L88217 68970
" />
<path d="M88330 68183
L88302 68211
L88330 68239
L88358 68211
L88330 68183
L88330 68239
" />
<path d="M88864 68380
L88864 68773
" />
<path d="M88611 68380
L88611 68689
L88639 68745
L88696 68773
L88780 68773
L88836 68745
L88864 68717
" />
<path d="M89399 68773
L89399 68464
L89370 68408
L89314 68380
L89202 68380
L89145 68408
" />
<path d="M89399 68745
L89342 68773
L89202 68773
L89145 68745
L89117 68689
L89117 68633
L89145 68577
L89202 68548
L89342 68548
L89399 68520
" />
<path d="M89680 68380
L89680 68773
" />
<path d="M89680 68436
L89708 68408
L89764 68380
L89849 68380
L89905 68408
L89933 68464
L89933 68773
" />
<path d="M90158 68998
L90186 68970
L90242 68886
L90270 68830
L90298 68745
L90327 68605
L90327 68492
L90298 68352
L90270 68267
L90242 68211
L90186 68127
L90158 68099
" />
</g>
<g style="fill:#000000; fill-opacity:0.0; 
stroke:#000000; stroke-width:39.3701; stroke-opacity:1; 
stroke-linecap:round; stroke-linejoin:round;">
</g>
<g style="fill:#000000; fill-opacity:0.0; 
stroke:#000000; stroke-width:59.0551; stroke-opacity:1; 
stroke-linecap:round; stroke-linejoin:round;">
<path d="M70192 67424
L70473 67424
" />
<path d="M70135 67592
L70332 67002
L70529 67592
" />
<path d="M70979 67199
L70979 67592
" />
<path d="M70726 67199
L70726 67508
L70754 67564
L70810 67592
L70895 67592
L70951 67564
L70979 67536
" />
<path d="M71176 67199
L71401 67199
" />
<path d="M71260 67002
L71260 67508
L71288 67564
L71345 67592
L71401 67592
" />
<path d="M71598 67592
L71598 67002
" />
<path d="M71851 67592
L71851 67283
L71823 67227
L71766 67199
L71682 67199
L71626 67227
L71598 67255
" />
<path d="M72216 67592
L72160 67564
L72132 67536
L72104 67480
L72104 67311
L72132 67255
L72160 67227
L72216 67199
L72301 67199
L72357 67227
L72385 67255
L72413 67311
L72413 67480
L72385 67536
L72357 67564
L72301 67592
L72216 67592
" />
<path d="M72666 67592
L72666 67199
" />
<path d="M72666 67311
L72694 67255
L72723 67227
L72779 67199
L72835 67199
" />
<path d="M73032 67536
L73060 67564
L73032 67592
L73004 67564
L73032 67536
L73032 67592
" />
<path d="M73032 67227
L73060 67255
L73032 67283
L73004 67255
L73032 67227
L73032 67283
" />
<path d="M74213 67283
L74410 67283
" />
<path d="M74494 67592
L74213 67592
L74213 67002
L74494 67002
" />
<path d="M74832 67592
L74775 67564
L74747 67508
L74747 67002
" />
<path d="M75310 67592
L75310 67283
L75282 67227
L75225 67199
L75113 67199
L75057 67227
" />
<path d="M75310 67564
L75253 67592
L75113 67592
L75057 67564
L75028 67508
L75028 67452
L75057 67395
L75113 67367
L75253 67367
L75310 67339
" />
<path d="M75844 67592
L75844 67002
" />
<path d="M75844 67564
L75788 67592
L75675 67592
L75619 67564
L75591 67536
L75563 67480
L75563 67311
L75591 67255
L75619 67227
L75675 67199
L75788 67199
L75844 67227
" />
<path d="M76125 67592
L76125 67199
" />
<path d="M76125 67002
L76097 67030
L76125 67058
L76153 67030
L76125 67002
L76125 67058
" />
<path d="M76491 67592
L76435 67564
L76406 67536
L76378 67480
L76378 67311
L76406 67255
L76435 67227
L76491 67199
L76575 67199
L76631 67227
L76660 67255
L76688 67311
L76688 67480
L76660 67536
L76631 67564
L76575 67592
L76491 67592
" />
<path d="M77391 67592
L77391 67002
L77531 67002
L77616 67030
L77672 67086
L77700 67142
L77728 67255
L77728 67339
L77700 67452
L77672 67508
L77616 67564
L77531 67592
L77391 67592
" />
<path d="M78206 67564
L78150 67592
L78037 67592
L77981 67564
L77953 67508
L77953 67283
L77981 67227
L78037 67199
L78150 67199
L78206 67227
L78234 67283
L78234 67339
L77953 67395
" />
<path d="M78572 67592
L78516 67564
L78487 67508
L78487 67002
" />
<path d="M79050 67592
L79050 67283
L79022 67227
L78965 67199
L78853 67199
L78797 67227
" />
<path d="M79050 67564
L78994 67592
L78853 67592
L78797 67564
L78769 67508
L78769 67452
L78797 67395
L78853 67367
L78994 67367
L79050 67339
" />
<path d="M79584 67199
L79584 67677
L79556 67733
L79528 67761
L79472 67789
L79387 67789
L79331 67761
" />
<path d="M79584 67564
L79528 67592
L79415 67592
L79359 67564
L79331 67536
L79303 67480
L79303 67311
L79331 67255
L79359 67227
L79415 67199
L79528 67199
L79584 67227
" />
<path d="M80118 67592
L80118 67283
L80090 67227
L80034 67199
L79922 67199
L79865 67227
" />
<path d="M80118 67564
L80062 67592
L79922 67592
L79865 67564
L79837 67508
L79837 67452
L79865 67395
L79922 67367
L80062 67367
L80118 67339
" />
<path d="M80653 67592
L80653 67002
" />
<path d="M80653 67564
L80597 67592
L80484 67592
L80428 67564
L80400 67536
L80372 67480
L80372 67311
L80400 67255
L80428 67227
L80484 67199
L80597 67199
L80653 67227
" />
<path d="M81018 67592
L80962 67564
L80934 67536
L80906 67480
L80906 67311
L80934 67255
L80962 67227
L81018 67199
L81103 67199
L81159 67227
L81187 67255
L81215 67311
L81215 67480
L81187 67536
L81159 67564
L81103 67592
L81018 67592
" />
<path d="M81918 67592
L81918 67002
L82115 67424
L82312 67002
L82312 67592
" />
<path d="M82593 67592
L82593 67199
" />
<path d="M82593 67002
L82565 67030
L82593 67058
L82621 67030
L82593 67002
L82593 67058
" />
<path d="M82874 67199
L82874 67592
" />
<path d="M82874 67255
L82903 67227
L82959 67199
L83043 67199
L83099 67227
L83127 67283
L83127 67592
" />
<path d="M83662 67199
L83662 67677
L83634 67733
L83606 67761
L83549 67789
L83465 67789
L83409 67761
" />
<path d="M83662 67564
L83606 67592
L83493 67592
L83437 67564
L83409 67536
L83381 67480
L83381 67311
L83409 67255
L83437 67227
L83493 67199
L83606 67199
L83662 67227
" />
<path d="M84027 67592
L83971 67564
L83943 67536
L83915 67480
L83915 67311
L83943 67255
L83971 67227
L84027 67199
L84112 67199
L84168 67227
L84196 67255
L84224 67311
L84224 67480
L84196 67536
L84168 67564
L84112 67592
L84027 67592
" />
<path d="M84477 67592
L84477 67199
" />
<path d="M84477 67311
L84505 67255
L84534 67227
L84590 67199
L84646 67199
" />
<path d="M85096 67592
L85096 67283
L85068 67227
L85012 67199
L84899 67199
L84843 67227
" />
<path d="M85096 67564
L85040 67592
L84899 67592
L84843 67564
L84815 67508
L84815 67452
L84843 67395
L84899 67367
L85040 67367
L85096 67339
" />
<path d="M85377 67199
L85377 67592
" />
<path d="M85377 67255
L85405 67227
L85462 67199
L85546 67199
L85602 67227
L85630 67283
L85630 67592
" />
<path d="M86165 67564
L86108 67592
L85996 67592
L85940 67564
L85912 67536
L85883 67480
L85883 67311
L85912 67255
L85940 67227
L85996 67199
L86108 67199
L86165 67227
" />
<path d="M86643 67564
L86586 67592
L86474 67592
L86418 67564
L86390 67508
L86390 67283
L86418 67227
L86474 67199
L86586 67199
L86643 67227
L86671 67283
L86671 67339
L86390 67395
" />
</g>
<g style="fill:#000000; fill-opacity:0.0; 
stroke:#000000; stroke-width:39.3701; stroke-opacity:1; 
stroke-linecap:round; stroke-linejoin:round;">
</g>
<g style="fill:#000000; fill-opacity:0.0; 
stroke:#000000; stroke-width:59.0551; stroke-opacity:1; 
stroke-linecap:round; stroke-linejoin:round;">
<path d="M70501 66411
L70220 66411
L70220 65821
" />
<path d="M70698 66411
L70698 66018
" />
<path d="M70698 65821
L70670 65849
L70698 65877
L70726 65849
L70698 65821
L70698 65877
" />
<path d="M71232 66383
L71176 66411
L71063 66411
L71007 66383
L70979 66355
L70951 66299
L70951 66130
L70979 66074
L71007 66046
L71063 66018
L71176 66018
L71232 66046
" />
<path d="M71710 66383
L71654 66411
L71541 66411
L71485 66383
L71457 66327
L71457 66102
L71485 66046
L71541 66018
L71654 66018
L71710 66046
L71738 66102
L71738 66158
L71457 66214
" />
<path d="M71991 66018
L71991 66411
" />
<path d="M71991 66074
L72019 66046
L72076 66018
L72160 66018
L72216 66046
L72244 66102
L72244 66411
" />
<path d="M72498 66383
L72554 66411
L72666 66411
L72723 66383
L72751 66327
L72751 66299
L72723 66242
L72666 66214
L72582 66214
L72526 66186
L72498 66130
L72498 66102
L72526 66046
L72582 66018
L72666 66018
L72723 66046
" />
<path d="M73229 66383
L73172 66411
L73060 66411
L73004 66383
L72976 66327
L72976 66102
L73004 66046
L73060 66018
L73172 66018
L73229 66046
L73257 66102
L73257 66158
L72976 66214
" />
<path d="M73510 66355
L73538 66383
L73510 66411
L73482 66383
L73510 66355
L73510 66411
" />
<path d="M73510 66046
L73538 66074
L73510 66102
L73482 66074
L73510 66046
L73510 66102
" />
<path d="M74579 66355
L74550 66383
L74466 66411
L74410 66411
L74325 66383
L74269 66327
L74241 66271
L74213 66158
L74213 66074
L74241 65961
L74269 65905
L74325 65849
L74410 65821
L74466 65821
L74550 65849
L74579 65877
" />
<path d="M74832 66411
L74832 66018
" />
<path d="M74832 66130
L74860 66074
L74888 66046
L74944 66018
L75000 66018
" />
<path d="M75422 66383
L75366 66411
L75253 66411
L75197 66383
L75169 66327
L75169 66102
L75197 66046
L75253 66018
L75366 66018
L75422 66046
L75450 66102
L75450 66158
L75169 66214
" />
<path d="M75956 66411
L75956 66102
L75928 66046
L75872 66018
L75760 66018
L75703 66046
" />
<path d="M75956 66383
L75900 66411
L75760 66411
L75703 66383
L75675 66327
L75675 66271
L75703 66214
L75760 66186
L75900 66186
L75956 66158
" />
<path d="M76153 66018
L76378 66018
" />
<path d="M76238 65821
L76238 66327
L76266 66383
L76322 66411
L76378 66411
" />
<path d="M76575 66411
L76575 66018
" />
<path d="M76575 65821
L76547 65849
L76575 65877
L76603 65849
L76575 65821
L76575 65877
" />
<path d="M76800 66018
L76941 66411
L77081 66018
" />
<path d="M77531 66383
L77475 66411
L77363 66411
L77306 66383
L77278 66327
L77278 66102
L77306 66046
L77363 66018
L77475 66018
L77531 66046
L77559 66102
L77559 66158
L77278 66214
" />
<path d="M78516 66383
L78459 66411
L78347 66411
L78291 66383
L78262 66355
L78234 66299
L78234 66130
L78262 66074
L78291 66046
L78347 66018
L78459 66018
L78516 66046
" />
<path d="M78853 66411
L78797 66383
L78769 66355
L78741 66299
L78741 66130
L78769 66074
L78797 66046
L78853 66018
L78937 66018
L78994 66046
L79022 66074
L79050 66130
L79050 66299
L79022 66355
L78994 66383
L78937 66411
L78853 66411
" />
<path d="M79303 66411
L79303 66018
" />
<path d="M79303 66074
L79331 66046
L79387 66018
L79472 66018
L79528 66046
L79556 66102
L79556 66411
" />
<path d="M79556 66102
L79584 66046
L79640 66018
L79725 66018
L79781 66046
L79809 66102
L79809 66411
" />
<path d="M80090 66411
L80090 66018
" />
<path d="M80090 66074
L80118 66046
L80175 66018
L80259 66018
L80315 66046
L80343 66102
L80343 66411
" />
<path d="M80343 66102
L80372 66046
L80428 66018
L80512 66018
L80568 66046
L80597 66102
L80597 66411
" />
<path d="M80962 66411
L80906 66383
L80878 66355
L80850 66299
L80850 66130
L80878 66074
L80906 66046
L80962 66018
L81046 66018
L81103 66046
L81131 66074
L81159 66130
L81159 66299
L81131 66355
L81103 66383
L81046 66411
L80962 66411
" />
<path d="M81412 66018
L81412 66411
" />
<path d="M81412 66074
L81440 66046
L81496 66018
L81581 66018
L81637 66046
L81665 66102
L81665 66411
" />
<path d="M81918 66383
L81974 66411
L82087 66411
L82143 66383
L82171 66327
L82171 66299
L82143 66242
L82087 66214
L82003 66214
L81946 66186
L81918 66130
L81918 66102
L81946 66046
L82003 66018
L82087 66018
L82143 66046
" />
<path d="M82846 66242
L83127 66242
" />
<path d="M82790 66411
L82987 65821
L83184 66411
" />
<path d="M83296 66018
L83521 66018
" />
<path d="M83381 65821
L83381 66327
L83409 66383
L83465 66411
L83521 66411
" />
<path d="M83634 66018
L83859 66018
" />
<path d="M83718 65821
L83718 66327
L83746 66383
L83802 66411
L83859 66411
" />
<path d="M84055 66411
L84055 66018
" />
<path d="M84055 66130
L84084 66074
L84112 66046
L84168 66018
L84224 66018
" />
<path d="M84421 66411
L84421 66018
" />
<path d="M84421 65821
L84393 65849
L84421 65877
L84449 65849
L84421 65821
L84421 65877
" />
<path d="M84702 66411
L84702 65821
" />
<path d="M84702 66046
L84759 66018
L84871 66018
L84927 66046
L84955 66074
L84983 66130
L84983 66299
L84955 66355
L84927 66383
L84871 66411
L84759 66411
L84702 66383
" />
<path d="M85490 66018
L85490 66411
" />
<path d="M85237 66018
L85237 66327
L85265 66383
L85321 66411
L85405 66411
L85462 66383
L85490 66355
" />
<path d="M85687 66018
L85912 66018
" />
<path d="M85771 65821
L85771 66327
L85799 66383
L85855 66411
L85912 66411
" />
<path d="M86108 66411
L86108 66018
" />
<path d="M86108 65821
L86080 65849
L86108 65877
L86136 65849
L86108 65821
L86108 65877
" />
<path d="M86474 66411
L86418 66383
L86390 66355
L86361 66299
L86361 66130
L86390 66074
L86418 66046
L86474 66018
L86558 66018
L86615 66046
L86643 66074
L86671 66130
L86671 66299
L86643 66355
L86615 66383
L86558 66411
L86474 66411
" />
<path d="M86924 66018
L86924 66411
" />
<path d="M86924 66074
L86952 66046
L87008 66018
L87093 66018
L87149 66046
L87177 66102
L87177 66411
" />
<path d="M87880 66383
L87964 66411
L88105 66411
L88161 66383
L88189 66355
L88217 66299
L88217 66242
L88189 66186
L88161 66158
L88105 66130
L87992 66102
L87936 66074
L87908 66046
L87880 65989
L87880 65933
L87908 65877
L87936 65849
L87992 65821
L88133 65821
L88217 65849
" />
<path d="M88471 66411
L88471 65821
" />
<path d="M88724 66411
L88724 66102
L88696 66046
L88639 66018
L88555 66018
L88499 66046
L88471 66074
" />
<path d="M89258 66411
L89258 66102
L89230 66046
L89174 66018
L89061 66018
L89005 66046
" />
<path d="M89258 66383
L89202 66411
L89061 66411
L89005 66383
L88977 66327
L88977 66271
L89005 66214
L89061 66186
L89202 66186
L89258 66158
" />
<path d="M89539 66411
L89539 66018
" />
<path d="M89539 66130
L89567 66074
L89595 66046
L89652 66018
L89708 66018
" />
<path d="M90130 66383
L90073 66411
L89961 66411
L89905 66383
L89877 66327
L89877 66102
L89905 66046
L89961 66018
L90073 66018
L90130 66046
L90158 66102
L90158 66158
L89877 66214
" />
<path d="M90383 66242
L90664 66242
" />
<path d="M90327 66411
L90523 65821
L90720 66411
" />
<path d="M91001 66411
L90945 66383
L90917 66327
L90917 65821
" />
<path d="M91226 66411
L91226 66018
" />
<path d="M91226 65821
L91198 65849
L91226 65877
L91255 65849
L91226 65821
L91226 65877
" />
<path d="M91508 66411
L91508 65821
" />
<path d="M91564 66186
L91733 66411
" />
<path d="M91733 66018
L91508 66242
" />
<path d="M92211 66383
L92154 66411
L92042 66411
L91986 66383
L91958 66327
L91958 66102
L91986 66046
L92042 66018
L92154 66018
L92211 66046
L92239 66102
L92239 66158
L91958 66214
" />
</g>
<g style="fill:#000000; fill-opacity:0.0; 
stroke:#000000; stroke-width:39.3701; stroke-opacity:1; 
stroke-linecap:round; stroke-linejoin:round;">
</g>
<g style="fill:#000000; fill-opacity:0.0; 
stroke:#000000; stroke-width:59.0551; stroke-opacity:1; 
stroke-linecap:round; stroke-linejoin:round;">
<path d="M77559 75396
L77559 76577
" />
</g>
<g style="fill:#000000; fill-opacity:0.0; 
stroke:#000000; stroke-width:39.3701; stroke-opacity:1; 
stroke-linecap:round; stroke-linejoin:round;">
</g>
<g style="fill:#000000; fill-opacity:0.0; 
stroke:#000000; stroke-width:59.0551; stroke-opacity:1; 
stroke-linecap:round; stroke-linejoin:round;">
<path d="M102756 75396
L102756 77955
" />
</g>
<g style="fill:#C2C200; fill-opacity:0.0; 
stroke:#C2C200; stroke-width:59.0551; stroke-opacity:1; 
stroke-linecap:round; stroke-linejoin:round;">
</g>
<g style="fill:#C2C200; fill-opacity:0.0; 
stroke:#C2C200; stroke-width:267.717; stroke-opacity:1; 
stroke-linecap:round; stroke-linejoin:round;">
<path d="M65000 41000
L65000 54000
" />
<path d="M64000 40000
L64000 36000
" />
<path d="M65000 41000 A500 500 0.0 0 0 64500 40500 " />
<path d="M64000 40000 A500 500 0.0 0 0 64500 40500 " />
<path d="M64500 54500 A500 500 0.0 0 0 65000 54000 " />
<path d="M64500 54500 A500 500 0.0 0 0 64000 55000 " />
<path d="M39000 35000
L63000 35000
" />
<path d="M38000 55000
L38000 36000
" />
<path d="M39000 56000
L63000 56000
" />
<path d="M64000 36000 A1000 1000 0.0 0 0 63000 35000 " />
<path d="M63000 56000 A1000 1000 0.0 0 0 64000 55000 " />
<path d="M39000 35000 A1000 1000 0.0 0 0 38000 36000 " />
<path d="M38000 55000 A1000 1000 0.0 0 0 39000 56000 " />
</g> 
</svg>
