<?xml version="1.0" standalone="no"?>
 <!DOCTYPE svg PUBLIC "-//W3C//DTD SVG 1.1//EN" 
 "http://www.w3.org/Graphics/SVG/1.1/DTD/svg11.dtd"> 
<svg xmlns="http://www.w3.org/2000/svg" version="1.1" 
    width="29.7002cm" height="21.0007cm" viewBox="0 0 116930 82680 ">
<title>SVG Picture created as icezum-Edge.Cuts.svg date 2017/11/03 18:07:00 </title>
  <desc>Picture generated by PCBNEW </desc>
<g style="fill:#000000; fill-opacity:1;stroke:#000000; stroke-opacity:1;
stroke-linecap:round; stroke-linejoin:round; "
 transform="translate(0 0) scale(1 1)">
</g>
<g style="fill:#000000; fill-opacity:0.0; 
stroke:#000000; stroke-width:-0.000393701; stroke-opacity:1; 
stroke-linecap:round; stroke-linejoin:round;">
</g>
<g style="fill:#000000; fill-opacity:0.0; 
stroke:#000000; stroke-width:39.3701; stroke-opacity:1; 
stroke-linecap:round; stroke-linejoin:round;">
</g>
<g style="fill:#000000; fill-opacity:0.0; 
stroke:#000000; stroke-width:59.0551; stroke-opacity:1; 
stroke-linecap:round; stroke-linejoin:round;">
<rect x="69685.9" y="65357.2" width="42519.7" height="12598.4" rx="0" />
</g>
<g style="fill:#000000; fill-opacity:0.0; 
stroke:#000000; stroke-width:39.3701; stroke-opacity:1; 
stroke-linecap:round; stroke-linejoin:round;">
</g>
<g style="fill:#000000; fill-opacity:0.0; 
stroke:#000000; stroke-width:59.0551; stroke-opacity:1; 
stroke-linecap:round; stroke-linejoin:round;">
<rect x="3937.01" y="3937.01" width="109056" height="74806" rx="0" />
</g>
<g style="fill:#000000; fill-opacity:0.0; 
stroke:#000000; stroke-width:39.3701; stroke-opacity:1; 
stroke-linecap:round; stroke-linejoin:round;">
</g>
<g style="fill:#000000; fill-opacity:0.0; 
stroke:#000000; stroke-width:59.0551; stroke-opacity:1; 
stroke-linecap:round; stroke-linejoin:round;">
<rect x="4724.41" y="4724.41" width="107481" height="73231.2" rx="0" />
</g>
<g style="fill:#000000; fill-opacity:0.0; 
stroke:#000000; stroke-width:39.3701; stroke-opacity:1; 
stroke-linecap:round; stroke-linejoin:round;">
</g>
<g style="fill:#000000; fill-opacity:0.0; 
stroke:#000000; stroke-width:59.0551; stroke-opacity:1; 
stroke-linecap:round; stroke-linejoin:round;">
<path d="M23622 4724
L23622 3937
" />
</g>
<g style="fill:#000000; fill-opacity:0.0; 
stroke:#000000; stroke-width:39.3701; stroke-opacity:1; 
stroke-linecap:round; stroke-linejoin:round;">
</g>
<g style="fill:#000000; fill-opacity:0.0; 
stroke:#000000; stroke-width:59.0551; stroke-opacity:1; 
stroke-linecap:round; stroke-linejoin:round;">
<path d="M43307 4724
L43307 3937
" />
</g>
<g style="fill:#000000; fill-opacity:0.0; 
stroke:#000000; stroke-width:39.3701; stroke-opacity:1; 
stroke-linecap:round; stroke-linejoin:round;">
</g>
<g style="fill:#000000; fill-opacity:0.0; 
stroke:#000000; stroke-width:59.0551; stroke-opacity:1; 
stroke-linecap:round; stroke-linejoin:round;">
<path d="M62992 4724
L62992 3937
" />
</g>
<g style="fill:#000000; fill-opacity:0.0; 
stroke:#000000; stroke-width:39.3701; stroke-opacity:1; 
stroke-linecap:round; stroke-linejoin:round;">
</g>
<g style="fill:#000000; fill-opacity:0.0; 
stroke:#000000; stroke-width:59.0551; stroke-opacity:1; 
stroke-linecap:round; stroke-linejoin:round;">
<path d="M82677 4724
L82677 3937
" />
</g>
<g style="fill:#000000; fill-opacity:0.0; 
stroke:#000000; stroke-width:39.3701; stroke-opacity:1; 
stroke-linecap:round; stroke-linejoin:round;">
</g>
<g style="fill:#000000; fill-opacity:0.0; 
stroke:#000000; stroke-width:59.0551; stroke-opacity:1; 
stroke-linecap:round; stroke-linejoin:round;">
<path d="M102362 4724
L102362 3937
" />
</g>
<g style="fill:#000000; fill-opacity:0.0; 
stroke:#000000; stroke-width:39.3701; stroke-opacity:1; 
stroke-linecap:round; stroke-linejoin:round;">
</g>
<g style="fill:#000000; fill-opacity:0.0; 
stroke:#000000; stroke-width:59.0551; stroke-opacity:1; 
stroke-linecap:round; stroke-linejoin:round;">
<path d="M14199 4562
L13906 4562
" />
<path d="M14052 4562
L14052 4050
L14004 4123
L13955 4172
L13906 4196
" />
</g>
<g style="fill:#000000; fill-opacity:0.0; 
stroke:#000000; stroke-width:39.3701; stroke-opacity:1; 
stroke-linecap:round; stroke-linejoin:round;">
</g>
<g style="fill:#000000; fill-opacity:0.0; 
stroke:#000000; stroke-width:59.0551; stroke-opacity:1; 
stroke-linecap:round; stroke-linejoin:round;">
<path d="M33591 4099
L33615 4074
L33664 4050
L33786 4050
L33835 4074
L33859 4099
L33884 4147
L33884 4196
L33859 4269
L33567 4562
L33884 4562
" />
</g>
<g style="fill:#000000; fill-opacity:0.0; 
stroke:#000000; stroke-width:39.3701; stroke-opacity:1; 
stroke-linecap:round; stroke-linejoin:round;">
</g>
<g style="fill:#000000; fill-opacity:0.0; 
stroke:#000000; stroke-width:59.0551; stroke-opacity:1; 
stroke-linecap:round; stroke-linejoin:round;">
<path d="M53252 4050
L53569 4050
L53398 4245
L53471 4245
L53520 4269
L53544 4294
L53569 4342
L53569 4464
L53544 4513
L53520 4537
L53471 4562
L53325 4562
L53276 4537
L53252 4513
" />
</g>
<g style="fill:#000000; fill-opacity:0.0; 
stroke:#000000; stroke-width:39.3701; stroke-opacity:1; 
stroke-linecap:round; stroke-linejoin:round;">
</g>
<g style="fill:#000000; fill-opacity:0.0; 
stroke:#000000; stroke-width:59.0551; stroke-opacity:1; 
stroke-linecap:round; stroke-linejoin:round;">
<path d="M73205 4221
L73205 4562
" />
<path d="M73083 4026
L72961 4391
L73278 4391
" />
</g>
<g style="fill:#000000; fill-opacity:0.0; 
stroke:#000000; stroke-width:39.3701; stroke-opacity:1; 
stroke-linecap:round; stroke-linejoin:round;">
</g>
<g style="fill:#000000; fill-opacity:0.0; 
stroke:#000000; stroke-width:59.0551; stroke-opacity:1; 
stroke-linecap:round; stroke-linejoin:round;">
<path d="M92914 4050
L92671 4050
L92646 4294
L92671 4269
L92719 4245
L92841 4245
L92890 4269
L92914 4294
L92939 4342
L92939 4464
L92914 4513
L92890 4537
L92841 4562
L92719 4562
L92671 4537
L92646 4513
" />
</g>
<g style="fill:#000000; fill-opacity:0.0; 
stroke:#000000; stroke-width:39.3701; stroke-opacity:1; 
stroke-linecap:round; stroke-linejoin:round;">
</g>
<g style="fill:#000000; fill-opacity:0.0; 
stroke:#000000; stroke-width:59.0551; stroke-opacity:1; 
stroke-linecap:round; stroke-linejoin:round;">
<path d="M112575 4050
L112477 4050
L112429 4074
L112404 4099
L112356 4172
L112331 4269
L112331 4464
L112356 4513
L112380 4537
L112429 4562
L112526 4562
L112575 4537
L112599 4513
L112624 4464
L112624 4342
L112599 4294
L112575 4269
L112526 4245
L112429 4245
L112380 4269
L112356 4294
L112331 4342
" />
</g>
<g style="fill:#000000; fill-opacity:0.0; 
stroke:#000000; stroke-width:39.3701; stroke-opacity:1; 
stroke-linecap:round; stroke-linejoin:round;">
</g>
<g style="fill:#000000; fill-opacity:0.0; 
stroke:#000000; stroke-width:59.0551; stroke-opacity:1; 
stroke-linecap:round; stroke-linejoin:round;">
<path d="M23622 77955
L23622 78742
" />
</g>
<g style="fill:#000000; fill-opacity:0.0; 
stroke:#000000; stroke-width:39.3701; stroke-opacity:1; 
stroke-linecap:round; stroke-linejoin:round;">
</g>
<g style="fill:#000000; fill-opacity:0.0; 
stroke:#000000; stroke-width:59.0551; stroke-opacity:1; 
stroke-linecap:round; stroke-linejoin:round;">
<path d="M43307 77955
L43307 78742
" />
</g>
<g style="fill:#000000; fill-opacity:0.0; 
stroke:#000000; stroke-width:39.3701; stroke-opacity:1; 
stroke-linecap:round; stroke-linejoin:round;">
</g>
<g style="fill:#000000; fill-opacity:0.0; 
stroke:#000000; stroke-width:59.0551; stroke-opacity:1; 
stroke-linecap:round; stroke-linejoin:round;">
<path d="M62992 77955
L62992 78742
" />
</g>
<g style="fill:#000000; fill-opacity:0.0; 
stroke:#000000; stroke-width:39.3701; stroke-opacity:1; 
stroke-linecap:round; stroke-linejoin:round;">
</g>
<g style="fill:#000000; fill-opacity:0.0; 
stroke:#000000; stroke-width:59.0551; stroke-opacity:1; 
stroke-linecap:round; stroke-linejoin:round;">
<path d="M82677 77955
L82677 78742
" />
</g>
<g style="fill:#000000; fill-opacity:0.0; 
stroke:#000000; stroke-width:39.3701; stroke-opacity:1; 
stroke-linecap:round; stroke-linejoin:round;">
</g>
<g style="fill:#000000; fill-opacity:0.0; 
stroke:#000000; stroke-width:59.0551; stroke-opacity:1; 
stroke-linecap:round; stroke-linejoin:round;">
<path d="M102362 77955
L102362 78742
" />
</g>
<g style="fill:#000000; fill-opacity:0.0; 
stroke:#000000; stroke-width:39.3701; stroke-opacity:1; 
stroke-linecap:round; stroke-linejoin:round;">
</g>
<g style="fill:#000000; fill-opacity:0.0; 
stroke:#000000; stroke-width:59.0551; stroke-opacity:1; 
stroke-linecap:round; stroke-linejoin:round;">
<path d="M14199 78580
L13906 78580
" />
<path d="M14052 78580
L14052 78069
L14004 78142
L13955 78190
L13906 78215
" />
</g>
<g style="fill:#000000; fill-opacity:0.0; 
stroke:#000000; stroke-width:39.3701; stroke-opacity:1; 
stroke-linecap:round; stroke-linejoin:round;">
</g>
<g style="fill:#000000; fill-opacity:0.0; 
stroke:#000000; stroke-width:59.0551; stroke-opacity:1; 
stroke-linecap:round; stroke-linejoin:round;">
<path d="M33591 78117
L33615 78093
L33664 78069
L33786 78069
L33835 78093
L33859 78117
L33884 78166
L33884 78215
L33859 78288
L33567 78580
L33884 78580
" />
</g>
<g style="fill:#000000; fill-opacity:0.0; 
stroke:#000000; stroke-width:39.3701; stroke-opacity:1; 
stroke-linecap:round; stroke-linejoin:round;">
</g>
<g style="fill:#000000; fill-opacity:0.0; 
stroke:#000000; stroke-width:59.0551; stroke-opacity:1; 
stroke-linecap:round; stroke-linejoin:round;">
<path d="M53252 78069
L53569 78069
L53398 78263
L53471 78263
L53520 78288
L53544 78312
L53569 78361
L53569 78483
L53544 78532
L53520 78556
L53471 78580
L53325 78580
L53276 78556
L53252 78532
" />
</g>
<g style="fill:#000000; fill-opacity:0.0; 
stroke:#000000; stroke-width:39.3701; stroke-opacity:1; 
stroke-linecap:round; stroke-linejoin:round;">
</g>
<g style="fill:#000000; fill-opacity:0.0; 
stroke:#000000; stroke-width:59.0551; stroke-opacity:1; 
stroke-linecap:round; stroke-linejoin:round;">
<path d="M73205 78239
L73205 78580
" />
<path d="M73083 78044
L72961 78410
L73278 78410
" />
</g>
<g style="fill:#000000; fill-opacity:0.0; 
stroke:#000000; stroke-width:39.3701; stroke-opacity:1; 
stroke-linecap:round; stroke-linejoin:round;">
</g>
<g style="fill:#000000; fill-opacity:0.0; 
stroke:#000000; stroke-width:59.0551; stroke-opacity:1; 
stroke-linecap:round; stroke-linejoin:round;">
<path d="M92914 78069
L92671 78069
L92646 78312
L92671 78288
L92719 78263
L92841 78263
L92890 78288
L92914 78312
L92939 78361
L92939 78483
L92914 78532
L92890 78556
L92841 78580
L92719 78580
L92671 78556
L92646 78532
" />
</g>
<g style="fill:#000000; fill-opacity:0.0; 
stroke:#000000; stroke-width:39.3701; stroke-opacity:1; 
stroke-linecap:round; stroke-linejoin:round;">
</g>
<g style="fill:#000000; fill-opacity:0.0; 
stroke:#000000; stroke-width:59.0551; stroke-opacity:1; 
stroke-linecap:round; stroke-linejoin:round;">
<path d="M112575 78069
L112477 78069
L112429 78093
L112404 78117
L112356 78190
L112331 78288
L112331 78483
L112356 78532
L112380 78556
L112429 78580
L112526 78580
L112575 78556
L112599 78532
L112624 78483
L112624 78361
L112599 78312
L112575 78288
L112526 78263
L112429 78263
L112380 78288
L112356 78312
L112331 78361
" />
</g>
<g style="fill:#000000; fill-opacity:0.0; 
stroke:#000000; stroke-width:39.3701; stroke-opacity:1; 
stroke-linecap:round; stroke-linejoin:round;">
</g>
<g style="fill:#000000; fill-opacity:0.0; 
stroke:#000000; stroke-width:59.0551; stroke-opacity:1; 
stroke-linecap:round; stroke-linejoin:round;">
<path d="M3937 23622
L4724 23622
" />
</g>
<g style="fill:#000000; fill-opacity:0.0; 
stroke:#000000; stroke-width:39.3701; stroke-opacity:1; 
stroke-linecap:round; stroke-linejoin:round;">
</g>
<g style="fill:#000000; fill-opacity:0.0; 
stroke:#000000; stroke-width:59.0551; stroke-opacity:1; 
stroke-linecap:round; stroke-linejoin:round;">
<path d="M3937 43307
L4724 43307
" />
</g>
<g style="fill:#000000; fill-opacity:0.0; 
stroke:#000000; stroke-width:39.3701; stroke-opacity:1; 
stroke-linecap:round; stroke-linejoin:round;">
</g>
<g style="fill:#000000; fill-opacity:0.0; 
stroke:#000000; stroke-width:59.0551; stroke-opacity:1; 
stroke-linecap:round; stroke-linejoin:round;">
<path d="M3937 62992
L4724 62992
" />
</g>
<g style="fill:#000000; fill-opacity:0.0; 
stroke:#000000; stroke-width:39.3701; stroke-opacity:1; 
stroke-linecap:round; stroke-linejoin:round;">
</g>
<g style="fill:#000000; fill-opacity:0.0; 
stroke:#000000; stroke-width:59.0551; stroke-opacity:1; 
stroke-linecap:round; stroke-linejoin:round;">
<path d="M4208 13864
L4452 13864
" />
<path d="M4160 14011
L4330 13499
L4501 14011
" />
</g>
<g style="fill:#000000; fill-opacity:0.0; 
stroke:#000000; stroke-width:39.3701; stroke-opacity:1; 
stroke-linecap:round; stroke-linejoin:round;">
</g>
<g style="fill:#000000; fill-opacity:0.0; 
stroke:#000000; stroke-width:59.0551; stroke-opacity:1; 
stroke-linecap:round; stroke-linejoin:round;">
<path d="M4367 33428
L4440 33452
L4464 33476
L4489 33525
L4489 33598
L4464 33647
L4440 33671
L4391 33696
L4196 33696
L4196 33184
L4367 33184
L4416 33208
L4440 33233
L4464 33281
L4464 33330
L4440 33379
L4416 33403
L4367 33428
L4196 33428
" />
</g>
<g style="fill:#000000; fill-opacity:0.0; 
stroke:#000000; stroke-width:39.3701; stroke-opacity:1; 
stroke-linecap:round; stroke-linejoin:round;">
</g>
<g style="fill:#000000; fill-opacity:0.0; 
stroke:#000000; stroke-width:59.0551; stroke-opacity:1; 
stroke-linecap:round; stroke-linejoin:round;">
<path d="M4489 53332
L4464 53356
L4391 53381
L4342 53381
L4269 53356
L4221 53308
L4196 53259
L4172 53161
L4172 53088
L4196 52991
L4221 52942
L4269 52893
L4342 52869
L4391 52869
L4464 52893
L4489 52918
" />
</g>
<g style="fill:#000000; fill-opacity:0.0; 
stroke:#000000; stroke-width:39.3701; stroke-opacity:1; 
stroke-linecap:round; stroke-linejoin:round;">
</g>
<g style="fill:#000000; fill-opacity:0.0; 
stroke:#000000; stroke-width:59.0551; stroke-opacity:1; 
stroke-linecap:round; stroke-linejoin:round;">
<path d="M4196 73066
L4196 72554
L4318 72554
L4391 72578
L4440 72627
L4464 72676
L4489 72773
L4489 72846
L4464 72944
L4440 72993
L4391 73041
L4318 73066
L4196 73066
" />
</g>
<g style="fill:#000000; fill-opacity:0.0; 
stroke:#000000; stroke-width:39.3701; stroke-opacity:1; 
stroke-linecap:round; stroke-linejoin:round;">
</g>
<g style="fill:#000000; fill-opacity:0.0; 
stroke:#000000; stroke-width:59.0551; stroke-opacity:1; 
stroke-linecap:round; stroke-linejoin:round;">
<path d="M112992 23622
L112205 23622
" />
</g>
<g style="fill:#000000; fill-opacity:0.0; 
stroke:#000000; stroke-width:39.3701; stroke-opacity:1; 
stroke-linecap:round; stroke-linejoin:round;">
</g>
<g style="fill:#000000; fill-opacity:0.0; 
stroke:#000000; stroke-width:59.0551; stroke-opacity:1; 
stroke-linecap:round; stroke-linejoin:round;">
<path d="M112992 43307
L112205 43307
" />
</g>
<g style="fill:#000000; fill-opacity:0.0; 
stroke:#000000; stroke-width:39.3701; stroke-opacity:1; 
stroke-linecap:round; stroke-linejoin:round;">
</g>
<g style="fill:#000000; fill-opacity:0.0; 
stroke:#000000; stroke-width:59.0551; stroke-opacity:1; 
stroke-linecap:round; stroke-linejoin:round;">
<path d="M112992 62992
L112205 62992
" />
</g>
<g style="fill:#000000; fill-opacity:0.0; 
stroke:#000000; stroke-width:39.3701; stroke-opacity:1; 
stroke-linecap:round; stroke-linejoin:round;">
</g>
<g style="fill:#000000; fill-opacity:0.0; 
stroke:#000000; stroke-width:59.0551; stroke-opacity:1; 
stroke-linecap:round; stroke-linejoin:round;">
<path d="M112477 13864
L112721 13864
" />
<path d="M112428 14011
L112599 13499
L112769 14011
" />
</g>
<g style="fill:#000000; fill-opacity:0.0; 
stroke:#000000; stroke-width:39.3701; stroke-opacity:1; 
stroke-linecap:round; stroke-linejoin:round;">
</g>
<g style="fill:#000000; fill-opacity:0.0; 
stroke:#000000; stroke-width:59.0551; stroke-opacity:1; 
stroke-linecap:round; stroke-linejoin:round;">
<path d="M112635 33428
L112708 33452
L112733 33476
L112757 33525
L112757 33598
L112733 33647
L112708 33671
L112660 33696
L112465 33696
L112465 33184
L112635 33184
L112684 33208
L112708 33233
L112733 33281
L112733 33330
L112708 33379
L112684 33403
L112635 33428
L112465 33428
" />
</g>
<g style="fill:#000000; fill-opacity:0.0; 
stroke:#000000; stroke-width:39.3701; stroke-opacity:1; 
stroke-linecap:round; stroke-linejoin:round;">
</g>
<g style="fill:#000000; fill-opacity:0.0; 
stroke:#000000; stroke-width:59.0551; stroke-opacity:1; 
stroke-linecap:round; stroke-linejoin:round;">
<path d="M112757 53332
L112733 53356
L112660 53381
L112611 53381
L112538 53356
L112489 53308
L112465 53259
L112440 53161
L112440 53088
L112465 52991
L112489 52942
L112538 52893
L112611 52869
L112660 52869
L112733 52893
L112757 52918
" />
</g>
<g style="fill:#000000; fill-opacity:0.0; 
stroke:#000000; stroke-width:39.3701; stroke-opacity:1; 
stroke-linecap:round; stroke-linejoin:round;">
</g>
<g style="fill:#000000; fill-opacity:0.0; 
stroke:#000000; stroke-width:59.0551; stroke-opacity:1; 
stroke-linecap:round; stroke-linejoin:round;">
<path d="M112465 73066
L112465 72554
L112587 72554
L112660 72578
L112708 72627
L112733 72676
L112757 72773
L112757 72846
L112733 72944
L112708 72993
L112660 73041
L112587 73066
L112465 73066
" />
</g>
<g style="fill:#000000; fill-opacity:0.0; 
stroke:#000000; stroke-width:39.3701; stroke-opacity:1; 
stroke-linecap:round; stroke-linejoin:round;">
</g>
<g style="fill:#000000; fill-opacity:0.0; 
stroke:#000000; stroke-width:59.0551; stroke-opacity:1; 
stroke-linecap:round; stroke-linejoin:round;">
<path d="M78911 76293
L78911 75703
L79051 75703
L79136 75731
L79192 75787
L79220 75843
L79248 75956
L79248 76040
L79220 76153
L79192 76209
L79136 76265
L79051 76293
L78911 76293
" />
<path d="M79754 76293
L79754 75984
L79726 75928
L79670 75899
L79557 75899
L79501 75928
" />
<path d="M79754 76265
L79698 76293
L79557 76293
L79501 76265
L79473 76209
L79473 76153
L79501 76096
L79557 76068
L79698 76068
L79754 76040
" />
<path d="M79951 75899
L80176 75899
" />
<path d="M80036 75703
L80036 76209
L80064 76265
L80120 76293
L80176 76293
" />
<path d="M80598 76265
L80542 76293
L80429 76293
L80373 76265
L80345 76209
L80345 75984
L80373 75928
L80429 75899
L80542 75899
L80598 75928
L80626 75984
L80626 76040
L80345 76096
" />
<path d="M80879 76237
L80907 76265
L80879 76293
L80851 76265
L80879 76237
L80879 76293
" />
<path d="M80879 75928
L80907 75956
L80879 75984
L80851 75956
L80879 75928
L80879 75984
" />
<path d="M81582 75759
L81610 75731
L81667 75703
L81807 75703
L81863 75731
L81892 75759
L81920 75815
L81920 75871
L81892 75956
L81554 76293
L81920 76293
" />
<path d="M82285 75703
L82341 75703
L82398 75731
L82426 75759
L82454 75815
L82482 75928
L82482 76068
L82454 76181
L82426 76237
L82398 76265
L82341 76293
L82285 76293
L82229 76265
L82201 76237
L82173 76181
L82145 76068
L82145 75928
L82173 75815
L82201 75759
L82229 75731
L82285 75703
" />
<path d="M83045 76293
L82707 76293
" />
<path d="M82876 76293
L82876 75703
L82820 75787
L82763 75843
L82707 75871
" />
<path d="M83241 75703
L83635 75703
L83382 76293
" />
<path d="M83860 76068
L84310 76068
" />
<path d="M84901 76293
L84563 76293
" />
<path d="M84732 76293
L84732 75703
L84676 75787
L84619 75843
L84563 75871
" />
<path d="M85463 76293
L85126 76293
" />
<path d="M85294 76293
L85294 75703
L85238 75787
L85182 75843
L85126 75871
" />
<path d="M85716 76068
L86166 76068
" />
<path d="M86560 75703
L86616 75703
L86672 75731
L86700 75759
L86728 75815
L86757 75928
L86757 76068
L86728 76181
L86700 76237
L86672 76265
L86616 76293
L86560 76293
L86503 76265
L86475 76237
L86447 76181
L86419 76068
L86419 75928
L86447 75815
L86475 75759
L86503 75731
L86560 75703
" />
<path d="M86953 75703
L87319 75703
L87122 75928
L87206 75928
L87263 75956
L87291 75984
L87319 76040
L87319 76181
L87291 76237
L87263 76265
L87206 76293
L87038 76293
L86982 76265
L86953 76237
" />
</g>
<g style="fill:#000000; fill-opacity:0.0; 
stroke:#000000; stroke-width:39.3701; stroke-opacity:1; 
stroke-linecap:round; stroke-linejoin:round;">
</g>
<g style="fill:#000000; fill-opacity:0.0; 
stroke:#000000; stroke-width:59.0551; stroke-opacity:1; 
stroke-linecap:round; stroke-linejoin:round;">
<path d="M69685 76577
L112205 76577
" />
</g>
<g style="fill:#000000; fill-opacity:0.0; 
stroke:#000000; stroke-width:39.3701; stroke-opacity:1; 
stroke-linecap:round; stroke-linejoin:round;">
</g>
<g style="fill:#000000; fill-opacity:0.0; 
stroke:#000000; stroke-width:59.0551; stroke-opacity:1; 
stroke-linecap:round; stroke-linejoin:round;">
<path d="M70249 77395
L70249 76805
" />
<path d="M70587 77395
L70334 77058
" />
<path d="M70587 76805
L70249 77142
" />
<path d="M70840 77395
L70840 77002
" />
<path d="M70840 76805
L70812 76833
L70840 76861
L70868 76833
L70840 76805
L70840 76861
" />
<path d="M71458 77339
L71430 77367
L71346 77395
L71290 77395
L71205 77367
L71149 77311
L71121 77255
L71093 77142
L71093 77058
L71121 76946
L71149 76889
L71205 76833
L71290 76805
L71346 76805
L71430 76833
L71458 76861
" />
<path d="M71965 77395
L71965 77086
L71937 77030
L71880 77002
L71768 77002
L71712 77030
" />
<path d="M71965 77367
L71908 77395
L71768 77395
L71712 77367
L71683 77311
L71683 77255
L71712 77199
L71768 77171
L71908 77171
L71965 77142
" />
<path d="M72499 77395
L72499 76805
" />
<path d="M72499 77367
L72443 77395
L72330 77395
L72274 77367
L72246 77339
L72218 77283
L72218 77114
L72246 77058
L72274 77030
L72330 77002
L72443 77002
L72499 77030
" />
<path d="M73230 77086
L73427 77086
" />
<path d="M73511 77395
L73230 77395
L73230 76805
L73511 76805
" />
<path d="M73764 77339
L73793 77367
L73764 77395
L73736 77367
L73764 77339
L73764 77395
" />
<path d="M74046 77395
L74046 76805
L74186 76805
L74271 76833
L74327 76889
L74355 76946
L74383 77058
L74383 77142
L74355 77255
L74327 77311
L74271 77367
L74186 77395
L74046 77395
" />
<path d="M74636 77339
L74664 77367
L74636 77395
L74608 77367
L74636 77339
L74636 77395
" />
<path d="M74889 77227
L75171 77227
" />
<path d="M74833 77395
L75030 76805
L75227 77395
" />
<path d="M75424 77339
L75452 77367
L75424 77395
L75395 77367
L75424 77339
L75424 77395
" />
<path d="M76605 77395
L76605 76805
" />
<path d="M76661 77171
L76830 77395
" />
<path d="M76830 77002
L76605 77227
" />
<path d="M77083 77395
L77083 77002
" />
<path d="M77083 76805
L77055 76833
L77083 76861
L77111 76833
L77083 76805
L77083 76861
" />
<path d="M77617 77367
L77561 77395
L77448 77395
L77392 77367
L77364 77339
L77336 77283
L77336 77114
L77364 77058
L77392 77030
L77448 77002
L77561 77002
L77617 77030
" />
<path d="M78123 77395
L78123 77086
L78095 77030
L78039 77002
L77926 77002
L77870 77030
" />
<path d="M78123 77367
L78067 77395
L77926 77395
L77870 77367
L77842 77311
L77842 77255
L77870 77199
L77926 77171
L78067 77171
L78123 77142
" />
<path d="M78658 77395
L78658 76805
" />
<path d="M78658 77367
L78601 77395
L78489 77395
L78433 77367
L78404 77339
L78376 77283
L78376 77114
L78404 77058
L78433 77030
L78489 77002
L78601 77002
L78658 77030
" />
<path d="M79389 77002
L79389 77395
" />
<path d="M79389 77058
L79417 77030
L79473 77002
L79557 77002
L79614 77030
L79642 77086
L79642 77395
" />
<path d="M80007 77395
L79951 77367
L79923 77339
L79895 77283
L79895 77114
L79923 77058
L79951 77030
L80007 77002
L80092 77002
L80148 77030
L80176 77058
L80204 77114
L80204 77283
L80176 77339
L80148 77367
L80092 77395
L80007 77395
" />
<path d="M80457 77171
L80907 77171
" />
<path d="M81132 77002
L81273 77395
L81413 77002
" />
<path d="M81892 77367
L81835 77395
L81723 77395
L81667 77367
L81638 77339
L81610 77283
L81610 77114
L81638 77058
L81667 77030
L81723 77002
L81835 77002
L81892 77030
" />
<path d="M82117 77367
L82173 77395
L82285 77395
L82341 77367
L82370 77311
L82370 77283
L82341 77227
L82285 77199
L82201 77199
L82145 77171
L82117 77114
L82117 77086
L82145 77030
L82201 77002
L82285 77002
L82341 77030
" />
<path d="M82623 77171
L83073 77171
" />
<path d="M83269 77002
L83494 77002
" />
<path d="M83354 77395
L83354 76889
L83382 76833
L83438 76805
L83494 76805
" />
<path d="M83776 77395
L83719 77367
L83691 77339
L83663 77283
L83663 77114
L83691 77058
L83719 77030
L83776 77002
L83860 77002
L83916 77030
L83944 77058
L83973 77114
L83973 77283
L83944 77339
L83916 77367
L83860 77395
L83776 77395
" />
<path d="M84479 77002
L84479 77395
" />
<path d="M84226 77002
L84226 77311
L84254 77367
L84310 77395
L84394 77395
L84451 77367
L84479 77339
" />
<path d="M84760 77002
L84760 77395
" />
<path d="M84760 77058
L84788 77030
L84844 77002
L84929 77002
L84985 77030
L85013 77086
L85013 77395
" />
<path d="M85547 77395
L85547 76805
" />
<path d="M85547 77367
L85491 77395
L85379 77395
L85322 77367
L85294 77339
L85266 77283
L85266 77114
L85294 77058
L85322 77030
L85379 77002
L85491 77002
L85547 77030
" />
<path d="M85829 77171
L86278 77171
" />
<path d="M86785 77367
L86728 77395
L86616 77395
L86560 77367
L86532 77311
L86532 77086
L86560 77030
L86616 77002
L86728 77002
L86785 77030
L86813 77086
L86813 77142
L86532 77199
" />
<path d="M87347 76805
L87066 76805
L87038 77086
L87066 77058
L87122 77030
L87263 77030
L87319 77058
L87347 77086
L87375 77142
L87375 77283
L87347 77339
L87319 77367
L87263 77395
L87122 77395
L87066 77367
L87038 77339
" />
<path d="M87881 77367
L87825 77395
L87713 77395
L87656 77367
L87628 77339
L87600 77283
L87600 77114
L87628 77058
L87656 77030
L87713 77002
L87825 77002
L87881 77030
" />
<path d="M88388 77002
L88388 77395
" />
<path d="M88247 76777
L88106 77199
L88472 77199
" />
<path d="M88950 77367
L88894 77395
L88781 77395
L88725 77367
L88697 77339
L88669 77283
L88669 77114
L88697 77058
L88725 77030
L88781 77002
L88894 77002
L88950 77030
" />
<path d="M89119 77002
L89344 77002
" />
<path d="M89203 77395
L89203 76889
L89231 76833
L89287 76805
L89344 76805
" />
<path d="M89794 77367
L89737 77395
L89625 77395
L89569 77367
L89541 77339
L89512 77283
L89512 77114
L89541 77058
L89569 77030
L89625 77002
L89737 77002
L89794 77030
" />
<path d="M90004 76644
L90469 76644
" />
<path d="M90300 76805
L90187 76805
L90131 76833
L90103 76861
L90047 76946
L90019 77058
L90019 77283
L90047 77339
L90075 77367
L90131 77395
L90244 77395
L90300 77367
L90328 77339
L90356 77283
L90356 77142
L90328 77086
L90300 77058
L90244 77030
L90131 77030
L90075 77058
L90047 77086
L90019 77142
" />
<path d="M90469 76644
L91031 76644
" />
<path d="M90919 77395
L90581 77395
" />
<path d="M90750 77395
L90750 76805
L90694 76889
L90637 76946
L90581 76974
" />
<path d="M91425 77002
L91425 77395
" />
<path d="M91172 77002
L91172 77311
L91200 77367
L91256 77395
L91340 77395
L91397 77367
L91425 77339
" />
<path d="M91706 77395
L91706 76805
" />
<path d="M91706 77030
L91762 77002
L91875 77002
L91931 77030
L91959 77058
L91987 77114
L91987 77283
L91959 77339
L91931 77367
L91875 77395
L91762 77395
L91706 77367
" />
<path d="M92493 77002
L92493 77395
" />
<path d="M92240 77002
L92240 77311
L92268 77367
L92325 77395
L92409 77395
L92465 77367
L92493 77339
" />
<path d="M92775 77002
L92775 77395
" />
<path d="M92775 77058
L92803 77030
L92859 77002
L92943 77002
L93000 77030
L93028 77086
L93028 77395
" />
<path d="M93224 77002
L93449 77002
" />
<path d="M93309 76805
L93309 77311
L93337 77367
L93393 77395
L93449 77395
" />
<path d="M93899 77002
L93899 77395
" />
<path d="M93646 77002
L93646 77311
L93674 77367
L93731 77395
L93815 77395
L93871 77367
L93899 77339
" />
<path d="M94490 77395
L94153 77395
" />
<path d="M94321 77395
L94321 76805
L94265 76889
L94209 76946
L94153 76974
" />
<path d="M94996 76805
L94884 76805
L94827 76833
L94799 76861
L94743 76946
L94715 77058
L94715 77283
L94743 77339
L94771 77367
L94827 77395
L94940 77395
L94996 77367
L95024 77339
L95052 77283
L95052 77142
L95024 77086
L94996 77058
L94940 77030
L94827 77030
L94771 77058
L94743 77086
L94715 77142
" />
<path d="M95305 77339
L95334 77367
L95305 77395
L95277 77367
L95305 77339
L95305 77395
" />
<path d="M95699 76805
L95755 76805
L95812 76833
L95840 76861
L95868 76917
L95896 77030
L95896 77171
L95868 77283
L95840 77339
L95812 77367
L95755 77395
L95699 77395
L95643 77367
L95615 77339
L95587 77283
L95559 77171
L95559 77030
L95587 76917
L95615 76861
L95643 76833
L95699 76805
" />
<path d="M96402 77002
L96402 77395
" />
<path d="M96262 76777
L96121 77199
L96487 77199
" />
<path d="M96712 77339
L96740 77367
L96712 77395
L96683 77367
L96712 77339
L96712 77395
" />
<path d="M97302 77395
L96965 77395
" />
<path d="M97133 77395
L97133 76805
L97077 76889
L97021 76946
L96965 76974
" />
</g>
<g style="fill:#000000; fill-opacity:0.0; 
stroke:#000000; stroke-width:39.3701; stroke-opacity:1; 
stroke-linecap:round; stroke-linejoin:round;">
</g>
<g style="fill:#000000; fill-opacity:0.0; 
stroke:#000000; stroke-width:59.0551; stroke-opacity:1; 
stroke-linecap:round; stroke-linejoin:round;">
<path d="M69685 75396
L112205 75396
" />
</g>
<g style="fill:#000000; fill-opacity:0.0; 
stroke:#000000; stroke-width:39.3701; stroke-opacity:1; 
stroke-linecap:round; stroke-linejoin:round;">
</g>
<g style="fill:#000000; fill-opacity:0.0; 
stroke:#000000; stroke-width:118.11; stroke-opacity:1; 
stroke-linecap:round; stroke-linejoin:round;">
<path d="M104099 76293
L103902 76012
" />
<path d="M103761 76293
L103761 75703
L103986 75703
L104042 75731
L104070 75759
L104099 75815
L104099 75899
L104070 75956
L104042 75984
L103986 76012
L103761 76012
" />
<path d="M104577 76265
L104520 76293
L104408 76293
L104352 76265
L104323 76209
L104323 75984
L104352 75928
L104408 75899
L104520 75899
L104577 75928
L104605 75984
L104605 76040
L104323 76096
" />
<path d="M104802 75899
L104942 76293
L105083 75899
" />
<path d="M105308 76237
L105336 76265
L105308 76293
L105280 76265
L105308 76237
L105308 76293
" />
<path d="M105308 75928
L105336 75956
L105308 75984
L105280 75956
L105308 75928
L105308 75984
" />
<path d="M105955 75703
L106151 76293
L106348 75703
" />
<path d="M106854 76293
L106517 76293
" />
<path d="M106686 76293
L106686 75703
L106629 75787
L106573 75843
L106517 75871
" />
<path d="M107108 76237
L107136 76265
L107108 76293
L107079 76265
L107108 76237
L107108 76293
" />
<path d="M107698 76293
L107361 76293
" />
<path d="M107529 76293
L107529 75703
L107473 75787
L107417 75843
L107361 75871
" />
<path d="M107951 76293
L107951 75703
" />
<path d="M108289 76293
L108036 75956
" />
<path d="M108289 75703
L107951 76040
" />
</g>
<g style="fill:#000000; fill-opacity:0.0; 
stroke:#000000; stroke-width:39.3701; stroke-opacity:1; 
stroke-linecap:round; stroke-linejoin:round;">
</g>
<g style="fill:#000000; fill-opacity:0.0; 
stroke:#000000; stroke-width:59.0551; stroke-opacity:1; 
stroke-linecap:round; stroke-linejoin:round;">
<path d="M70221 76265
L70305 76293
L70446 76293
L70502 76265
L70530 76237
L70559 76181
L70559 76124
L70530 76068
L70502 76040
L70446 76012
L70334 75984
L70277 75956
L70249 75928
L70221 75871
L70221 75815
L70249 75759
L70277 75731
L70334 75703
L70474 75703
L70559 75731
" />
<path d="M70812 76293
L70812 75899
" />
<path d="M70812 75703
L70784 75731
L70812 75759
L70840 75731
L70812 75703
L70812 75759
" />
<path d="M71037 75899
L71346 75899
L71037 76293
L71346 76293
" />
<path d="M71796 76265
L71740 76293
L71627 76293
L71571 76265
L71543 76209
L71543 75984
L71571 75928
L71627 75899
L71740 75899
L71796 75928
L71824 75984
L71824 76040
L71543 76096
" />
<path d="M72077 76237
L72105 76265
L72077 76293
L72049 76265
L72077 76237
L72077 76293
" />
<path d="M72077 75928
L72105 75956
L72077 75984
L72049 75956
L72077 75928
L72077 75984
" />
<path d="M72780 76124
L73061 76124
" />
<path d="M72724 76293
L72921 75703
L73118 76293
" />
<path d="M73568 75899
L73568 76293
" />
<path d="M73427 75674
L73286 76096
L73652 76096
" />
</g>
<g style="fill:#000000; fill-opacity:0.0; 
stroke:#000000; stroke-width:39.3701; stroke-opacity:1; 
stroke-linecap:round; stroke-linejoin:round;">
</g>
<g style="fill:#000000; fill-opacity:0.0; 
stroke:#000000; stroke-width:59.0551; stroke-opacity:1; 
stroke-linecap:round; stroke-linejoin:round;">
<path d="M103714 77395
L103714 76805
" />
<path d="M104248 77395
L104248 76805
" />
<path d="M104248 77367
L104192 77395
L104079 77395
L104023 77367
L103995 77339
L103967 77283
L103967 77114
L103995 77058
L104023 77030
L104079 77002
L104192 77002
L104248 77030
" />
<path d="M104529 77339
L104557 77367
L104529 77395
L104501 77367
L104529 77339
L104529 77395
" />
<path d="M104529 77030
L104557 77058
L104529 77086
L104501 77058
L104529 77030
L104529 77086
" />
<path d="M105570 77395
L105232 77395
" />
<path d="M105401 77395
L105401 76805
L105345 76889
L105289 76946
L105232 76974
" />
<path d="M106245 76777
L105739 77536
" />
<path d="M106751 77395
L106413 77395
" />
<path d="M106582 77395
L106582 76805
L106526 76889
L106470 76946
L106413 76974
" />
</g>
<g style="fill:#000000; fill-opacity:0.0; 
stroke:#000000; stroke-width:39.3701; stroke-opacity:1; 
stroke-linecap:round; stroke-linejoin:round;">
</g>
<g style="fill:#000000; fill-opacity:0.0; 
stroke:#000000; stroke-width:59.0551; stroke-opacity:1; 
stroke-linecap:round; stroke-linejoin:round;">
<path d="M69685 73821
L112205 73821
" />
</g>
<g style="fill:#000000; fill-opacity:0.0; 
stroke:#000000; stroke-width:39.3701; stroke-opacity:1; 
stroke-linecap:round; stroke-linejoin:round;">
</g>
<g style="fill:#000000; fill-opacity:0.0; 
stroke:#000000; stroke-width:157.48; stroke-opacity:1; 
stroke-linecap:round; stroke-linejoin:round;">
<path d="M70360 74099
L70810 74099
" />
<path d="M70486 74886
L70585 74099
" />
<path d="M70974 74886
L71039 74361
" />
<path d="M71072 74099
L71030 74136
L71063 74174
L71105 74136
L71072 74099
L71063 74174
" />
<path d="M71302 74361
L71602 74361
" />
<path d="M71447 74099
L71363 74774
L71391 74849
L71461 74886
L71536 74886
" />
<path d="M71911 74886
L71841 74849
L71813 74774
L71897 74099
" />
<path d="M72516 74849
L72436 74886
L72286 74886
L72216 74849
L72187 74774
L72225 74474
L72272 74399
L72352 74361
L72501 74361
L72572 74399
L72600 74474
L72591 74549
L72206 74624
" />
<path d="M72895 74811
L72928 74849
L72886 74886
L72853 74849
L72895 74811
L72886 74886
" />
<path d="M72947 74399
L72980 74436
L72937 74474
L72905 74436
L72947 74399
L72937 74474
" />
<path d="M73861 74886
L73959 74099
" />
<path d="M74578 74849
L74498 74886
L74348 74886
L74278 74849
L74245 74811
L74217 74736
L74245 74511
L74292 74436
L74334 74399
L74414 74361
L74564 74361
L74634 74399
" />
<path d="M75215 74849
L75136 74886
L74986 74886
L74915 74849
L74887 74774
L74925 74474
L74971 74399
L75051 74361
L75201 74361
L75271 74399
L75300 74474
L75290 74549
L74906 74624
" />
<path d="M75609 74099
L76134 74099
L75510 74886
L76035 74886
" />
<path d="M76434 74099
L76354 74736
L76382 74811
L76415 74849
L76485 74886
L76635 74886
L76715 74849
L76757 74811
L76804 74736
L76884 74099
" />
<path d="M77160 74886
L77259 74099
L77451 74661
L77784 74099
L77685 74886
" />
<path d="M78651 74661
L79026 74661
" />
<path d="M78548 74886
L78909 74099
L79073 74886
" />
<path d="M79447 74886
L79377 74849
L79349 74774
L79433 74099
" />
<path d="M79747 74886
L79846 74099
" />
<path d="M80085 74886
L80136 74474
L80108 74399
L80038 74361
L79926 74361
L79846 74399
L79804 74436
" />
<path d="M80797 74886
L80849 74474
L80821 74399
L80750 74361
L80600 74361
L80521 74399
" />
<path d="M80802 74849
L80722 74886
L80535 74886
L80465 74849
L80436 74774
L80446 74699
L80493 74624
L80572 74586
L80760 74586
L80840 74549
" />
<path d="M81172 74886
L81238 74361
" />
<path d="M81229 74436
L81271 74399
L81350 74361
L81463 74361
L81533 74399
L81561 74474
L81510 74886
" />
<path d="M81561 74474
L81608 74399
L81688 74361
L81800 74361
L81871 74399
L81899 74474
L81847 74886
" />
<path d="M82222 74886
L82321 74099
" />
<path d="M82283 74399
L82363 74361
L82513 74361
L82583 74399
L82616 74436
L82644 74511
L82616 74736
L82569 74811
L82527 74849
L82447 74886
L82297 74886
L82227 74849
" />
<path d="M82935 74886
L83000 74361
" />
<path d="M82981 74511
L83028 74436
L83070 74399
L83150 74361
L83225 74361
" />
<path d="M83759 74886
L83811 74474
L83783 74399
L83713 74361
L83563 74361
L83483 74399
" />
<path d="M83764 74849
L83684 74886
L83497 74886
L83427 74849
L83399 74774
L83408 74699
L83455 74624
L83534 74586
L83722 74586
L83802 74549
" />
<path d="M85048 74474
L84786 74474
" />
<path d="M84734 74886
L84833 74099
L85208 74099
" />
<path d="M85409 74886
L85508 74099
L85808 74099
L85878 74136
L85911 74174
L85939 74249
L85925 74361
L85878 74436
L85836 74474
L85756 74511
L85456 74511
" />
<path d="M86703 74136
L86633 74099
L86520 74099
L86403 74136
L86319 74211
L86272 74286
L86215 74436
L86201 74549
L86220 74699
L86248 74774
L86314 74849
L86422 74886
L86497 74886
L86614 74849
L86656 74811
L86689 74549
L86539 74549
" />
<path d="M86975 74661
L87350 74661
" />
<path d="M86872 74886
L87232 74099
L87397 74886
" />
<path d="M88259 74886
L88357 74099
" />
<path d="M88320 74399
L88400 74361
L88549 74361
L88620 74399
L88653 74436
L88681 74511
L88653 74736
L88606 74811
L88564 74849
L88484 74886
L88334 74886
L88264 74849
" />
<path d="M89084 74886
L89013 74849
L88981 74811
L88953 74736
L88981 74511
L89028 74436
L89070 74399
L89149 74361
L89262 74361
L89332 74399
L89365 74436
L89393 74511
L89365 74736
L89318 74811
L89276 74849
L89196 74886
L89084 74886
" />
<path d="M90021 74886
L90073 74474
L90045 74399
L89974 74361
L89824 74361
L89745 74399
" />
<path d="M90026 74849
L89946 74886
L89759 74886
L89688 74849
L89660 74774
L89670 74699
L89717 74624
L89796 74586
L89984 74586
L90063 74549
" />
<path d="M90396 74886
L90462 74361
" />
<path d="M90443 74511
L90490 74436
L90532 74399
L90612 74361
L90687 74361
" />
<path d="M91221 74886
L91319 74099
" />
<path d="M91226 74849
L91146 74886
L90996 74886
L90926 74849
L90893 74811
L90865 74736
L90893 74511
L90940 74436
L90982 74399
L91062 74361
L91212 74361
L91282 74399
" />
<path d="M92383 75186
L92351 75149
L92290 75036
L92262 74961
L92238 74849
L92224 74661
L92243 74511
L92304 74324
L92355 74211
L92402 74136
L92491 74024
L92533 73986
" />
<path d="M92721 74886
L92819 74099
L93119 74099
L93190 74136
L93222 74174
L93250 74249
L93236 74361
L93190 74436
L93147 74474
L93068 74511
L92768 74511
" />
<path d="M93968 74811
L93925 74849
L93808 74886
L93733 74886
L93625 74849
L93560 74774
L93532 74699
L93513 74549
L93527 74436
L93583 74286
L93630 74211
L93714 74136
L93832 74099
L93907 74099
L94014 74136
L94047 74174
" />
<path d="M94610 74474
L94717 74511
L94750 74549
L94778 74624
L94764 74736
L94717 74811
L94675 74849
L94596 74886
L94296 74886
L94394 74099
L94657 74099
L94727 74136
L94760 74174
L94788 74249
L94778 74324
L94732 74399
L94689 74436
L94610 74474
L94347 74474
" />
<path d="M94971 75186
L95013 75149
L95102 75036
L95149 74961
L95200 74849
L95261 74661
L95280 74511
L95266 74324
L95242 74211
L95214 74136
L95153 74024
L95121 73986
" />
</g>
<g style="fill:#000000; fill-opacity:0.0; 
stroke:#000000; stroke-width:39.3701; stroke-opacity:1; 
stroke-linecap:round; stroke-linejoin:round;">
</g>
<g style="fill:#000000; fill-opacity:0.0; 
stroke:#000000; stroke-width:59.0551; stroke-opacity:1; 
stroke-linecap:round; stroke-linejoin:round;">
<path d="M70446 73070
L70249 73070
" />
<path d="M70249 73380
L70249 72789
L70530 72789
" />
<path d="M70755 73380
L70755 72986
" />
<path d="M70755 72789
L70727 72817
L70755 72845
L70784 72817
L70755 72789
L70755 72845
" />
<path d="M71121 73380
L71065 73352
L71037 73295
L71037 72789
" />
<path d="M71571 73352
L71515 73380
L71402 73380
L71346 73352
L71318 73295
L71318 73070
L71346 73014
L71402 72986
L71515 72986
L71571 73014
L71599 73070
L71599 73127
L71318 73183
" />
<path d="M71852 73323
L71880 73352
L71852 73380
L71824 73352
L71852 73323
L71852 73380
" />
<path d="M71852 73014
L71880 73042
L71852 73070
L71824 73042
L71852 73014
L71852 73070
" />
<path d="M72583 73380
L72583 72986
" />
<path d="M72583 72789
L72555 72817
L72583 72845
L72611 72817
L72583 72789
L72583 72845
" />
<path d="M73118 73352
L73061 73380
L72949 73380
L72893 73352
L72865 73323
L72836 73267
L72836 73099
L72865 73042
L72893 73014
L72949 72986
L73061 72986
L73118 73014
" />
<path d="M73596 73352
L73539 73380
L73427 73380
L73371 73352
L73343 73295
L73343 73070
L73371 73014
L73427 72986
L73539 72986
L73596 73014
L73624 73070
L73624 73127
L73343 73183
" />
<path d="M73821 72986
L74130 72986
L73821 73380
L74130 73380
" />
<path d="M74608 72986
L74608 73380
" />
<path d="M74355 72986
L74355 73295
L74383 73352
L74439 73380
L74524 73380
L74580 73352
L74608 73323
" />
<path d="M74889 73380
L74889 72986
" />
<path d="M74889 73042
L74917 73014
L74974 72986
L75058 72986
L75114 73014
L75142 73070
L75142 73380
" />
<path d="M75142 73070
L75171 73014
L75227 72986
L75311 72986
L75367 73014
L75395 73070
L75395 73380
" />
<path d="M75677 73323
L75705 73352
L75677 73380
L75649 73352
L75677 73323
L75677 73380
" />
<path d="M75958 73380
L75958 72789
" />
<path d="M76014 73155
L76183 73380
" />
<path d="M76183 72986
L75958 73211
" />
<path d="M76436 73380
L76436 72986
" />
<path d="M76436 72789
L76408 72817
L76436 72845
L76464 72817
L76436 72789
L76436 72845
" />
<path d="M76970 73352
L76914 73380
L76802 73380
L76745 73352
L76717 73323
L76689 73267
L76689 73099
L76717 73042
L76745 73014
L76802 72986
L76914 72986
L76970 73014
" />
<path d="M77476 73380
L77476 73070
L77448 73014
L77392 72986
L77280 72986
L77223 73014
" />
<path d="M77476 73352
L77420 73380
L77280 73380
L77223 73352
L77195 73295
L77195 73239
L77223 73183
L77280 73155
L77420 73155
L77476 73127
" />
<path d="M78011 73380
L78011 72789
" />
<path d="M78011 73352
L77955 73380
L77842 73380
L77786 73352
L77758 73323
L77730 73267
L77730 73099
L77758 73042
L77786 73014
L77842 72986
L77955 72986
L78011 73014
" />
<path d="M78151 73436
L78601 73436
" />
<path d="M78742 72986
L78742 73577
" />
<path d="M78742 73014
L78798 72986
L78911 72986
L78967 73014
L78995 73042
L79023 73099
L79023 73267
L78995 73323
L78967 73352
L78911 73380
L78798 73380
L78742 73352
" />
<path d="M79529 73352
L79473 73380
L79361 73380
L79304 73352
L79276 73323
L79248 73267
L79248 73099
L79276 73042
L79304 73014
L79361 72986
L79473 72986
L79529 73014
" />
<path d="M79782 73380
L79782 72789
" />
<path d="M79782 73014
L79839 72986
L79951 72986
L80007 73014
L80036 73042
L80064 73099
L80064 73267
L80036 73323
L80007 73352
L79951 73380
L79839 73380
L79782 73352
" />
</g>
<g style="fill:#000000; fill-opacity:0.0; 
stroke:#000000; stroke-width:39.3701; stroke-opacity:1; 
stroke-linecap:round; stroke-linejoin:round;">
</g>
<g style="fill:#000000; fill-opacity:0.0; 
stroke:#000000; stroke-width:59.0551; stroke-opacity:1; 
stroke-linecap:round; stroke-linejoin:round;">
<path d="M69685 71459
L112205 71459
" />
</g>
<g style="fill:#000000; fill-opacity:0.0; 
stroke:#000000; stroke-width:39.3701; stroke-opacity:1; 
stroke-linecap:round; stroke-linejoin:round;">
</g>
<g style="fill:#000000; fill-opacity:0.0; 
stroke:#000000; stroke-width:59.0551; stroke-opacity:1; 
stroke-linecap:round; stroke-linejoin:round;">
<path d="M70221 72289
L70305 72317
L70446 72317
L70502 72289
L70530 72260
L70559 72204
L70559 72148
L70530 72092
L70502 72064
L70446 72036
L70334 72007
L70277 71979
L70249 71951
L70221 71895
L70221 71839
L70249 71782
L70277 71754
L70334 71726
L70474 71726
L70559 71754
" />
<path d="M70812 72317
L70812 71726
" />
<path d="M71065 72317
L71065 72007
L71037 71951
L70980 71923
L70896 71923
L70840 71951
L70812 71979
" />
<path d="M71571 72289
L71515 72317
L71402 72317
L71346 72289
L71318 72232
L71318 72007
L71346 71951
L71402 71923
L71515 71923
L71571 71951
L71599 72007
L71599 72064
L71318 72120
" />
<path d="M72077 72289
L72021 72317
L71908 72317
L71852 72289
L71824 72232
L71824 72007
L71852 71951
L71908 71923
L72021 71923
L72077 71951
L72105 72007
L72105 72064
L71824 72120
" />
<path d="M72274 71923
L72499 71923
" />
<path d="M72358 71726
L72358 72232
L72386 72289
L72443 72317
L72499 72317
" />
<path d="M72696 72260
L72724 72289
L72696 72317
L72668 72289
L72696 72260
L72696 72317
" />
<path d="M72696 71951
L72724 71979
L72696 72007
L72668 71979
L72696 71951
L72696 72007
" />
</g>
<g style="fill:#000000; fill-opacity:0.0; 
stroke:#000000; stroke-width:39.3701; stroke-opacity:1; 
stroke-linecap:round; stroke-linejoin:round;">
</g>
<g style="fill:#000000; fill-opacity:0.0; 
stroke:#000000; stroke-width:118.11; stroke-opacity:1; 
stroke-linecap:round; stroke-linejoin:round;">
<path d="M70493 70826
L70296 70826
" />
<path d="M70296 71136
L70296 70545
L70578 70545
" />
<path d="M70803 71136
L70803 70545
L71028 70545
L71084 70573
L71112 70601
L71140 70658
L71140 70742
L71112 70798
L71084 70826
L71028 70854
L70803 70854
" />
<path d="M71703 70573
L71646 70545
L71562 70545
L71478 70573
L71421 70629
L71393 70686
L71365 70798
L71365 70883
L71393 70995
L71421 71051
L71478 71108
L71562 71136
L71618 71136
L71703 71108
L71731 71079
L71731 70883
L71618 70883
" />
<path d="M71956 70967
L72237 70967
" />
<path d="M71899 71136
L72096 70545
L72293 71136
" />
<path d="M72434 70742
L72546 71136
L72659 70854
L72771 71136
L72884 70742
" />
<path d="M73362 71136
L73362 70826
L73334 70770
L73277 70742
L73165 70742
L73109 70770
" />
<path d="M73362 71108
L73305 71136
L73165 71136
L73109 71108
L73081 71051
L73081 70995
L73109 70939
L73165 70911
L73305 70911
L73362 70883
" />
<path d="M73643 71136
L73643 70742
" />
<path d="M73643 70854
L73671 70798
L73699 70770
L73755 70742
L73812 70742
" />
<path d="M73980 71108
L74037 71136
L74149 71136
L74205 71108
L74233 71051
L74233 71023
L74205 70967
L74149 70939
L74065 70939
L74009 70911
L73980 70854
L73980 70826
L74009 70770
L74065 70742
L74149 70742
L74205 70770
" />
</g>
<g style="fill:#000000; fill-opacity:0.0; 
stroke:#000000; stroke-width:39.3701; stroke-opacity:1; 
stroke-linecap:round; stroke-linejoin:round;">
</g>
<g style="fill:#000000; fill-opacity:0.0; 
stroke:#000000; stroke-width:59.0551; stroke-opacity:1; 
stroke-linecap:round; stroke-linejoin:round;">
<path d="M70249 69955
L70249 69364
L70390 69364
L70474 69392
L70530 69448
L70559 69505
L70587 69617
L70587 69701
L70559 69814
L70530 69870
L70474 69926
L70390 69955
L70249 69955
" />
<path d="M71065 69926
L71009 69955
L70896 69955
L70840 69926
L70812 69870
L70812 69645
L70840 69589
L70896 69561
L71009 69561
L71065 69589
L71093 69645
L71093 69701
L70812 69758
" />
<path d="M71346 69955
L71346 69561
" />
<path d="M71346 69673
L71374 69617
L71402 69589
L71458 69561
L71515 69561
" />
<path d="M71712 69955
L71712 69561
" />
<path d="M71712 69364
L71683 69392
L71712 69420
L71740 69392
L71712 69364
L71712 69420
" />
<path d="M71937 69561
L72077 69955
L72218 69561
" />
<path d="M72668 69926
L72611 69955
L72499 69955
L72443 69926
L72415 69870
L72415 69645
L72443 69589
L72499 69561
L72611 69561
L72668 69589
L72696 69645
L72696 69701
L72415 69758
" />
<path d="M73202 69955
L73202 69364
" />
<path d="M73202 69926
L73146 69955
L73033 69955
L72977 69926
L72949 69898
L72921 69842
L72921 69673
L72949 69617
L72977 69589
L73033 69561
L73146 69561
L73202 69589
" />
<path d="M73849 69561
L74074 69561
" />
<path d="M73933 69955
L73933 69448
L73961 69392
L74018 69364
L74074 69364
" />
<path d="M74271 69955
L74271 69561
" />
<path d="M74271 69673
L74299 69617
L74327 69589
L74383 69561
L74439 69561
" />
<path d="M74721 69955
L74664 69926
L74636 69898
L74608 69842
L74608 69673
L74636 69617
L74664 69589
L74721 69561
L74805 69561
L74861 69589
L74889 69617
L74917 69673
L74917 69842
L74889 69898
L74861 69926
L74805 69955
L74721 69955
" />
<path d="M75171 69955
L75171 69561
" />
<path d="M75171 69617
L75199 69589
L75255 69561
L75339 69561
L75395 69589
L75424 69645
L75424 69955
" />
<path d="M75424 69645
L75452 69589
L75508 69561
L75592 69561
L75649 69589
L75677 69645
L75677 69955
" />
<path d="M76605 69645
L76689 69673
L76717 69701
L76745 69758
L76745 69842
L76717 69898
L76689 69926
L76633 69955
L76408 69955
L76408 69364
L76605 69364
L76661 69392
L76689 69420
L76717 69476
L76717 69533
L76689 69589
L76661 69617
L76605 69645
L76408 69645
" />
<path d="M77392 70011
L77336 69983
L77280 69926
L77195 69842
L77139 69814
L77083 69814
" />
<path d="M77111 69955
L77055 69926
L76998 69870
L76970 69758
L76970 69561
L76998 69448
L77055 69392
L77111 69364
L77223 69364
L77280 69392
L77336 69448
L77364 69561
L77364 69758
L77336 69870
L77280 69926
L77223 69955
L77111 69955
" />
<path d="M78067 69955
L78067 69364
" />
<path d="M78601 69926
L78545 69955
L78433 69955
L78376 69926
L78348 69898
L78320 69842
L78320 69673
L78348 69617
L78376 69589
L78433 69561
L78545 69561
L78601 69589
" />
<path d="M79079 69926
L79023 69955
L78911 69955
L78854 69926
L78826 69870
L78826 69645
L78854 69589
L78911 69561
L79023 69561
L79079 69589
L79108 69645
L79108 69701
L78826 69758
" />
<path d="M79304 69561
L79614 69561
L79304 69955
L79614 69955
" />
<path d="M80092 69561
L80092 69955
" />
<path d="M79839 69561
L79839 69870
L79867 69926
L79923 69955
L80007 69955
L80064 69926
L80092 69898
" />
<path d="M80373 69955
L80373 69561
" />
<path d="M80373 69617
L80401 69589
L80457 69561
L80542 69561
L80598 69589
L80626 69645
L80626 69955
" />
<path d="M80626 69645
L80654 69589
L80710 69561
L80795 69561
L80851 69589
L80879 69645
L80879 69955
" />
<path d="M81526 69364
L81723 69955
L81920 69364
" />
<path d="M82426 69955
L82088 69955
" />
<path d="M82257 69955
L82257 69364
L82201 69448
L82145 69505
L82088 69533
" />
<path d="M82679 69898
L82707 69926
L82679 69955
L82651 69926
L82679 69898
L82679 69955
" />
<path d="M83073 69364
L83129 69364
L83185 69392
L83213 69420
L83241 69476
L83269 69589
L83269 69730
L83241 69842
L83213 69898
L83185 69926
L83129 69955
L83073 69955
L83016 69926
L82988 69898
L82960 69842
L82932 69730
L82932 69589
L82960 69476
L82988 69420
L83016 69392
L83073 69364
" />
</g>
<g style="fill:#000000; fill-opacity:0.0; 
stroke:#000000; stroke-width:39.3701; stroke-opacity:1; 
stroke-linecap:round; stroke-linejoin:round;">
</g>
<g style="fill:#000000; fill-opacity:0.0; 
stroke:#000000; stroke-width:59.0551; stroke-opacity:1; 
stroke-linecap:round; stroke-linejoin:round;">
<path d="M70249 68773
L70249 68183
L70446 68605
L70643 68183
L70643 68773
" />
<path d="M70924 68773
L70924 68380
" />
<path d="M70924 68183
L70896 68211
L70924 68239
L70952 68211
L70924 68183
L70924 68239
" />
<path d="M71458 68380
L71458 68858
L71430 68914
L71402 68942
L71346 68970
L71262 68970
L71205 68942
" />
<path d="M71458 68745
L71402 68773
L71290 68773
L71233 68745
L71205 68717
L71177 68661
L71177 68492
L71205 68436
L71233 68408
L71290 68380
L71402 68380
L71458 68408
" />
<path d="M71740 68773
L71740 68380
" />
<path d="M71740 68492
L71768 68436
L71796 68408
L71852 68380
L71908 68380
" />
<path d="M72358 68773
L72358 68464
L72330 68408
L72274 68380
L72162 68380
L72105 68408
" />
<path d="M72358 68745
L72302 68773
L72162 68773
L72105 68745
L72077 68689
L72077 68633
L72105 68577
L72162 68548
L72302 68548
L72358 68520
" />
<path d="M72555 68380
L72780 68380
" />
<path d="M72640 68183
L72640 68689
L72668 68745
L72724 68773
L72780 68773
" />
<path d="M72977 68773
L72977 68380
" />
<path d="M72977 68183
L72949 68211
L72977 68239
L73005 68211
L72977 68183
L72977 68239
" />
<path d="M73343 68773
L73286 68745
L73258 68717
L73230 68661
L73230 68492
L73258 68436
L73286 68408
L73343 68380
L73427 68380
L73483 68408
L73511 68436
L73539 68492
L73539 68661
L73511 68717
L73483 68745
L73427 68773
L73343 68773
" />
<path d="M73793 68380
L73793 68773
" />
<path d="M73793 68436
L73821 68408
L73877 68380
L73961 68380
L74018 68408
L74046 68464
L74046 68773
" />
<path d="M74692 68380
L74917 68380
" />
<path d="M74777 68183
L74777 68689
L74805 68745
L74861 68773
L74917 68773
" />
<path d="M75199 68773
L75142 68745
L75114 68717
L75086 68661
L75086 68492
L75114 68436
L75142 68408
L75199 68380
L75283 68380
L75339 68408
L75367 68436
L75395 68492
L75395 68661
L75367 68717
L75339 68745
L75283 68773
L75199 68773
" />
<path d="M76099 68773
L76099 68183
" />
<path d="M76155 68548
L76323 68773
" />
<path d="M76323 68380
L76099 68605
" />
<path d="M76577 68773
L76577 68380
" />
<path d="M76577 68183
L76548 68211
L76577 68239
L76605 68211
L76577 68183
L76577 68239
" />
<path d="M77111 68745
L77055 68773
L76942 68773
L76886 68745
L76858 68717
L76830 68661
L76830 68492
L76858 68436
L76886 68408
L76942 68380
L77055 68380
L77111 68408
" />
<path d="M77617 68773
L77617 68464
L77589 68408
L77533 68380
L77420 68380
L77364 68408
" />
<path d="M77617 68745
L77561 68773
L77420 68773
L77364 68745
L77336 68689
L77336 68633
L77364 68577
L77420 68548
L77561 68548
L77617 68520
" />
<path d="M78151 68773
L78151 68183
" />
<path d="M78151 68745
L78095 68773
L77983 68773
L77926 68745
L77898 68717
L77870 68661
L77870 68492
L77898 68436
L77926 68408
L77983 68380
L78095 68380
L78151 68408
" />
<path d="M78433 68717
L78461 68745
L78433 68773
L78404 68745
L78433 68717
L78433 68773
" />
<path d="M78433 68408
L78461 68436
L78433 68464
L78404 68436
L78433 68408
L78433 68464
" />
<path d="M79782 68183
L79782 68605
L79754 68689
L79698 68745
L79614 68773
L79557 68773
" />
<path d="M80317 68380
L80317 68773
" />
<path d="M80064 68380
L80064 68689
L80092 68745
L80148 68773
L80232 68773
L80289 68745
L80317 68717
" />
<path d="M80851 68773
L80851 68464
L80823 68408
L80767 68380
L80654 68380
L80598 68408
" />
<path d="M80851 68745
L80795 68773
L80654 68773
L80598 68745
L80570 68689
L80570 68633
L80598 68577
L80654 68548
L80795 68548
L80851 68520
" />
<path d="M81132 68380
L81132 68773
" />
<path d="M81132 68436
L81160 68408
L81217 68380
L81301 68380
L81357 68408
L81385 68464
L81385 68773
" />
<path d="M82426 68211
L82370 68183
L82285 68183
L82201 68211
L82145 68267
L82117 68323
L82088 68436
L82088 68520
L82117 68633
L82145 68689
L82201 68745
L82285 68773
L82341 68773
L82426 68745
L82454 68717
L82454 68520
L82341 68520
" />
<path d="M82791 68773
L82735 68745
L82707 68717
L82679 68661
L82679 68492
L82707 68436
L82735 68408
L82791 68380
L82876 68380
L82932 68408
L82960 68436
L82988 68492
L82988 68661
L82960 68717
L82932 68745
L82876 68773
L82791 68773
" />
<path d="M83241 68380
L83241 68773
" />
<path d="M83241 68436
L83269 68408
L83326 68380
L83410 68380
L83466 68408
L83494 68464
L83494 68773
" />
<path d="M83719 68380
L84029 68380
L83719 68773
L84029 68773
" />
<path d="M84507 68773
L84507 68464
L84479 68408
L84422 68380
L84310 68380
L84254 68408
" />
<path d="M84507 68745
L84451 68773
L84310 68773
L84254 68745
L84226 68689
L84226 68633
L84254 68577
L84310 68548
L84451 68548
L84507 68520
" />
<path d="M84872 68773
L84816 68745
L84788 68689
L84788 68183
" />
<path d="M85322 68745
L85266 68773
L85154 68773
L85097 68745
L85069 68689
L85069 68464
L85097 68408
L85154 68380
L85266 68380
L85322 68408
L85350 68464
L85350 68520
L85069 68577
" />
<path d="M85547 68380
L85857 68380
L85547 68773
L85857 68773
" />
<path d="M86700 68998
L86672 68970
L86616 68886
L86588 68830
L86560 68745
L86532 68605
L86532 68492
L86560 68352
L86588 68267
L86616 68211
L86672 68127
L86700 68099
" />
<path d="M87038 68183
L87150 68183
L87206 68211
L87263 68267
L87291 68380
L87291 68577
L87263 68689
L87206 68745
L87150 68773
L87038 68773
L86982 68745
L86925 68689
L86897 68577
L86897 68380
L86925 68267
L86982 68211
L87038 68183
" />
<path d="M87544 68773
L87544 68183
" />
<path d="M87544 68408
L87600 68380
L87713 68380
L87769 68408
L87797 68436
L87825 68492
L87825 68661
L87797 68717
L87769 68745
L87713 68773
L87600 68773
L87544 68745
" />
<path d="M88078 68773
L88078 68380
" />
<path d="M88078 68183
L88050 68211
L88078 68239
L88106 68211
L88078 68183
L88078 68239
" />
<path d="M88359 68380
L88359 68886
L88331 68942
L88275 68970
L88247 68970
" />
<path d="M88359 68183
L88331 68211
L88359 68239
L88388 68211
L88359 68183
L88359 68239
" />
<path d="M88894 68380
L88894 68773
" />
<path d="M88641 68380
L88641 68689
L88669 68745
L88725 68773
L88809 68773
L88866 68745
L88894 68717
" />
<path d="M89428 68773
L89428 68464
L89400 68408
L89344 68380
L89231 68380
L89175 68408
" />
<path d="M89428 68745
L89372 68773
L89231 68773
L89175 68745
L89147 68689
L89147 68633
L89175 68577
L89231 68548
L89372 68548
L89428 68520
" />
<path d="M89709 68380
L89709 68773
" />
<path d="M89709 68436
L89737 68408
L89794 68380
L89878 68380
L89934 68408
L89962 68464
L89962 68773
" />
<path d="M90187 68998
L90215 68970
L90272 68886
L90300 68830
L90328 68745
L90356 68605
L90356 68492
L90328 68352
L90300 68267
L90272 68211
L90215 68127
L90187 68099
" />
</g>
<g style="fill:#000000; fill-opacity:0.0; 
stroke:#000000; stroke-width:39.3701; stroke-opacity:1; 
stroke-linecap:round; stroke-linejoin:round;">
</g>
<g style="fill:#000000; fill-opacity:0.0; 
stroke:#000000; stroke-width:59.0551; stroke-opacity:1; 
stroke-linecap:round; stroke-linejoin:round;">
<path d="M70221 67424
L70502 67424
" />
<path d="M70165 67592
L70362 67002
L70559 67592
" />
<path d="M71009 67199
L71009 67592
" />
<path d="M70755 67199
L70755 67508
L70784 67564
L70840 67592
L70924 67592
L70980 67564
L71009 67536
" />
<path d="M71205 67199
L71430 67199
" />
<path d="M71290 67002
L71290 67508
L71318 67564
L71374 67592
L71430 67592
" />
<path d="M71627 67592
L71627 67002
" />
<path d="M71880 67592
L71880 67283
L71852 67227
L71796 67199
L71712 67199
L71655 67227
L71627 67255
" />
<path d="M72246 67592
L72190 67564
L72162 67536
L72133 67480
L72133 67311
L72162 67255
L72190 67227
L72246 67199
L72330 67199
L72386 67227
L72415 67255
L72443 67311
L72443 67480
L72415 67536
L72386 67564
L72330 67592
L72246 67592
" />
<path d="M72696 67592
L72696 67199
" />
<path d="M72696 67311
L72724 67255
L72752 67227
L72808 67199
L72865 67199
" />
<path d="M73061 67536
L73090 67564
L73061 67592
L73033 67564
L73061 67536
L73061 67592
" />
<path d="M73061 67227
L73090 67255
L73061 67283
L73033 67255
L73061 67227
L73061 67283
" />
<path d="M74242 67283
L74439 67283
" />
<path d="M74524 67592
L74242 67592
L74242 67002
L74524 67002
" />
<path d="M74861 67592
L74805 67564
L74777 67508
L74777 67002
" />
<path d="M75339 67592
L75339 67283
L75311 67227
L75255 67199
L75142 67199
L75086 67227
" />
<path d="M75339 67564
L75283 67592
L75142 67592
L75086 67564
L75058 67508
L75058 67452
L75086 67395
L75142 67367
L75283 67367
L75339 67339
" />
<path d="M75874 67592
L75874 67002
" />
<path d="M75874 67564
L75817 67592
L75705 67592
L75649 67564
L75620 67536
L75592 67480
L75592 67311
L75620 67255
L75649 67227
L75705 67199
L75817 67199
L75874 67227
" />
<path d="M76155 67592
L76155 67199
" />
<path d="M76155 67002
L76127 67030
L76155 67058
L76183 67030
L76155 67002
L76155 67058
" />
<path d="M76520 67592
L76464 67564
L76436 67536
L76408 67480
L76408 67311
L76436 67255
L76464 67227
L76520 67199
L76605 67199
L76661 67227
L76689 67255
L76717 67311
L76717 67480
L76689 67536
L76661 67564
L76605 67592
L76520 67592
" />
<path d="M77420 67592
L77420 67002
L77561 67002
L77645 67030
L77701 67086
L77730 67142
L77758 67255
L77758 67339
L77730 67452
L77701 67508
L77645 67564
L77561 67592
L77420 67592
" />
<path d="M78236 67564
L78180 67592
L78067 67592
L78011 67564
L77983 67508
L77983 67283
L78011 67227
L78067 67199
L78180 67199
L78236 67227
L78264 67283
L78264 67339
L77983 67395
" />
<path d="M78601 67592
L78545 67564
L78517 67508
L78517 67002
" />
<path d="M79079 67592
L79079 67283
L79051 67227
L78995 67199
L78883 67199
L78826 67227
" />
<path d="M79079 67564
L79023 67592
L78883 67592
L78826 67564
L78798 67508
L78798 67452
L78826 67395
L78883 67367
L79023 67367
L79079 67339
" />
<path d="M79614 67199
L79614 67677
L79586 67733
L79557 67761
L79501 67789
L79417 67789
L79361 67761
" />
<path d="M79614 67564
L79557 67592
L79445 67592
L79389 67564
L79361 67536
L79332 67480
L79332 67311
L79361 67255
L79389 67227
L79445 67199
L79557 67199
L79614 67227
" />
<path d="M80148 67592
L80148 67283
L80120 67227
L80064 67199
L79951 67199
L79895 67227
" />
<path d="M80148 67564
L80092 67592
L79951 67592
L79895 67564
L79867 67508
L79867 67452
L79895 67395
L79951 67367
L80092 67367
L80148 67339
" />
<path d="M80682 67592
L80682 67002
" />
<path d="M80682 67564
L80626 67592
L80514 67592
L80457 67564
L80429 67536
L80401 67480
L80401 67311
L80429 67255
L80457 67227
L80514 67199
L80626 67199
L80682 67227
" />
<path d="M81048 67592
L80992 67564
L80964 67536
L80935 67480
L80935 67311
L80964 67255
L80992 67227
L81048 67199
L81132 67199
L81188 67227
L81217 67255
L81245 67311
L81245 67480
L81217 67536
L81188 67564
L81132 67592
L81048 67592
" />
<path d="M81948 67592
L81948 67002
L82145 67424
L82341 67002
L82341 67592
" />
<path d="M82623 67592
L82623 67199
" />
<path d="M82623 67002
L82595 67030
L82623 67058
L82651 67030
L82623 67002
L82623 67058
" />
<path d="M82904 67199
L82904 67592
" />
<path d="M82904 67255
L82932 67227
L82988 67199
L83073 67199
L83129 67227
L83157 67283
L83157 67592
" />
<path d="M83691 67199
L83691 67677
L83663 67733
L83635 67761
L83579 67789
L83494 67789
L83438 67761
" />
<path d="M83691 67564
L83635 67592
L83523 67592
L83466 67564
L83438 67536
L83410 67480
L83410 67311
L83438 67255
L83466 67227
L83523 67199
L83635 67199
L83691 67227
" />
<path d="M84057 67592
L84001 67564
L83973 67536
L83944 67480
L83944 67311
L83973 67255
L84001 67227
L84057 67199
L84141 67199
L84197 67227
L84226 67255
L84254 67311
L84254 67480
L84226 67536
L84197 67564
L84141 67592
L84057 67592
" />
<path d="M84507 67592
L84507 67199
" />
<path d="M84507 67311
L84535 67255
L84563 67227
L84619 67199
L84676 67199
" />
<path d="M85126 67592
L85126 67283
L85097 67227
L85041 67199
L84929 67199
L84872 67227
" />
<path d="M85126 67564
L85069 67592
L84929 67592
L84872 67564
L84844 67508
L84844 67452
L84872 67395
L84929 67367
L85069 67367
L85126 67339
" />
<path d="M85407 67199
L85407 67592
" />
<path d="M85407 67255
L85435 67227
L85491 67199
L85575 67199
L85632 67227
L85660 67283
L85660 67592
" />
<path d="M86194 67564
L86138 67592
L86025 67592
L85969 67564
L85941 67536
L85913 67480
L85913 67311
L85941 67255
L85969 67227
L86025 67199
L86138 67199
L86194 67227
" />
<path d="M86672 67564
L86616 67592
L86503 67592
L86447 67564
L86419 67508
L86419 67283
L86447 67227
L86503 67199
L86616 67199
L86672 67227
L86700 67283
L86700 67339
L86419 67395
" />
</g>
<g style="fill:#000000; fill-opacity:0.0; 
stroke:#000000; stroke-width:39.3701; stroke-opacity:1; 
stroke-linecap:round; stroke-linejoin:round;">
</g>
<g style="fill:#000000; fill-opacity:0.0; 
stroke:#000000; stroke-width:59.0551; stroke-opacity:1; 
stroke-linecap:round; stroke-linejoin:round;">
<path d="M70530 66411
L70249 66411
L70249 65821
" />
<path d="M70727 66411
L70727 66018
" />
<path d="M70727 65821
L70699 65849
L70727 65877
L70755 65849
L70727 65821
L70727 65877
" />
<path d="M71262 66383
L71205 66411
L71093 66411
L71037 66383
L71009 66355
L70980 66299
L70980 66130
L71009 66074
L71037 66046
L71093 66018
L71205 66018
L71262 66046
" />
<path d="M71740 66383
L71683 66411
L71571 66411
L71515 66383
L71487 66327
L71487 66102
L71515 66046
L71571 66018
L71683 66018
L71740 66046
L71768 66102
L71768 66158
L71487 66214
" />
<path d="M72021 66018
L72021 66411
" />
<path d="M72021 66074
L72049 66046
L72105 66018
L72190 66018
L72246 66046
L72274 66102
L72274 66411
" />
<path d="M72527 66383
L72583 66411
L72696 66411
L72752 66383
L72780 66327
L72780 66299
L72752 66242
L72696 66214
L72611 66214
L72555 66186
L72527 66130
L72527 66102
L72555 66046
L72611 66018
L72696 66018
L72752 66046
" />
<path d="M73258 66383
L73202 66411
L73090 66411
L73033 66383
L73005 66327
L73005 66102
L73033 66046
L73090 66018
L73202 66018
L73258 66046
L73286 66102
L73286 66158
L73005 66214
" />
<path d="M73539 66355
L73568 66383
L73539 66411
L73511 66383
L73539 66355
L73539 66411
" />
<path d="M73539 66046
L73568 66074
L73539 66102
L73511 66074
L73539 66046
L73539 66102
" />
<path d="M74608 66355
L74580 66383
L74496 66411
L74439 66411
L74355 66383
L74299 66327
L74271 66271
L74242 66158
L74242 66074
L74271 65961
L74299 65905
L74355 65849
L74439 65821
L74496 65821
L74580 65849
L74608 65877
" />
<path d="M74861 66411
L74861 66018
" />
<path d="M74861 66130
L74889 66074
L74917 66046
L74974 66018
L75030 66018
" />
<path d="M75452 66383
L75395 66411
L75283 66411
L75227 66383
L75199 66327
L75199 66102
L75227 66046
L75283 66018
L75395 66018
L75452 66046
L75480 66102
L75480 66158
L75199 66214
" />
<path d="M75986 66411
L75986 66102
L75958 66046
L75902 66018
L75789 66018
L75733 66046
" />
<path d="M75986 66383
L75930 66411
L75789 66411
L75733 66383
L75705 66327
L75705 66271
L75733 66214
L75789 66186
L75930 66186
L75986 66158
" />
<path d="M76183 66018
L76408 66018
" />
<path d="M76267 65821
L76267 66327
L76295 66383
L76352 66411
L76408 66411
" />
<path d="M76605 66411
L76605 66018
" />
<path d="M76605 65821
L76577 65849
L76605 65877
L76633 65849
L76605 65821
L76605 65877
" />
<path d="M76830 66018
L76970 66411
L77111 66018
" />
<path d="M77561 66383
L77505 66411
L77392 66411
L77336 66383
L77308 66327
L77308 66102
L77336 66046
L77392 66018
L77505 66018
L77561 66046
L77589 66102
L77589 66158
L77308 66214
" />
<path d="M78545 66383
L78489 66411
L78376 66411
L78320 66383
L78292 66355
L78264 66299
L78264 66130
L78292 66074
L78320 66046
L78376 66018
L78489 66018
L78545 66046
" />
<path d="M78883 66411
L78826 66383
L78798 66355
L78770 66299
L78770 66130
L78798 66074
L78826 66046
L78883 66018
L78967 66018
L79023 66046
L79051 66074
L79079 66130
L79079 66299
L79051 66355
L79023 66383
L78967 66411
L78883 66411
" />
<path d="M79332 66411
L79332 66018
" />
<path d="M79332 66074
L79361 66046
L79417 66018
L79501 66018
L79557 66046
L79586 66102
L79586 66411
" />
<path d="M79586 66102
L79614 66046
L79670 66018
L79754 66018
L79811 66046
L79839 66102
L79839 66411
" />
<path d="M80120 66411
L80120 66018
" />
<path d="M80120 66074
L80148 66046
L80204 66018
L80289 66018
L80345 66046
L80373 66102
L80373 66411
" />
<path d="M80373 66102
L80401 66046
L80457 66018
L80542 66018
L80598 66046
L80626 66102
L80626 66411
" />
<path d="M80992 66411
L80935 66383
L80907 66355
L80879 66299
L80879 66130
L80907 66074
L80935 66046
L80992 66018
L81076 66018
L81132 66046
L81160 66074
L81188 66130
L81188 66299
L81160 66355
L81132 66383
L81076 66411
L80992 66411
" />
<path d="M81442 66018
L81442 66411
" />
<path d="M81442 66074
L81470 66046
L81526 66018
L81610 66018
L81667 66046
L81695 66102
L81695 66411
" />
<path d="M81948 66383
L82004 66411
L82117 66411
L82173 66383
L82201 66327
L82201 66299
L82173 66242
L82117 66214
L82032 66214
L81976 66186
L81948 66130
L81948 66102
L81976 66046
L82032 66018
L82117 66018
L82173 66046
" />
<path d="M82876 66242
L83157 66242
" />
<path d="M82820 66411
L83016 65821
L83213 66411
" />
<path d="M83326 66018
L83551 66018
" />
<path d="M83410 65821
L83410 66327
L83438 66383
L83494 66411
L83551 66411
" />
<path d="M83663 66018
L83888 66018
" />
<path d="M83748 65821
L83748 66327
L83776 66383
L83832 66411
L83888 66411
" />
<path d="M84085 66411
L84085 66018
" />
<path d="M84085 66130
L84113 66074
L84141 66046
L84197 66018
L84254 66018
" />
<path d="M84451 66411
L84451 66018
" />
<path d="M84451 65821
L84422 65849
L84451 65877
L84479 65849
L84451 65821
L84451 65877
" />
<path d="M84732 66411
L84732 65821
" />
<path d="M84732 66046
L84788 66018
L84901 66018
L84957 66046
L84985 66074
L85013 66130
L85013 66299
L84985 66355
L84957 66383
L84901 66411
L84788 66411
L84732 66383
" />
<path d="M85519 66018
L85519 66411
" />
<path d="M85266 66018
L85266 66327
L85294 66383
L85350 66411
L85435 66411
L85491 66383
L85519 66355
" />
<path d="M85716 66018
L85941 66018
" />
<path d="M85800 65821
L85800 66327
L85829 66383
L85885 66411
L85941 66411
" />
<path d="M86138 66411
L86138 66018
" />
<path d="M86138 65821
L86110 65849
L86138 65877
L86166 65849
L86138 65821
L86138 65877
" />
<path d="M86503 66411
L86447 66383
L86419 66355
L86391 66299
L86391 66130
L86419 66074
L86447 66046
L86503 66018
L86588 66018
L86644 66046
L86672 66074
L86700 66130
L86700 66299
L86672 66355
L86644 66383
L86588 66411
L86503 66411
" />
<path d="M86953 66018
L86953 66411
" />
<path d="M86953 66074
L86982 66046
L87038 66018
L87122 66018
L87178 66046
L87206 66102
L87206 66411
" />
<path d="M87910 66383
L87994 66411
L88135 66411
L88191 66383
L88219 66355
L88247 66299
L88247 66242
L88219 66186
L88191 66158
L88135 66130
L88022 66102
L87966 66074
L87938 66046
L87910 65989
L87910 65933
L87938 65877
L87966 65849
L88022 65821
L88163 65821
L88247 65849
" />
<path d="M88500 66411
L88500 65821
" />
<path d="M88753 66411
L88753 66102
L88725 66046
L88669 66018
L88584 66018
L88528 66046
L88500 66074
" />
<path d="M89287 66411
L89287 66102
L89259 66046
L89203 66018
L89091 66018
L89034 66046
" />
<path d="M89287 66383
L89231 66411
L89091 66411
L89034 66383
L89006 66327
L89006 66271
L89034 66214
L89091 66186
L89231 66186
L89287 66158
" />
<path d="M89569 66411
L89569 66018
" />
<path d="M89569 66130
L89597 66074
L89625 66046
L89681 66018
L89737 66018
" />
<path d="M90159 66383
L90103 66411
L89991 66411
L89934 66383
L89906 66327
L89906 66102
L89934 66046
L89991 66018
L90103 66018
L90159 66046
L90187 66102
L90187 66158
L89906 66214
" />
<path d="M90412 66242
L90694 66242
" />
<path d="M90356 66411
L90553 65821
L90750 66411
" />
<path d="M91031 66411
L90975 66383
L90947 66327
L90947 65821
" />
<path d="M91256 66411
L91256 66018
" />
<path d="M91256 65821
L91228 65849
L91256 65877
L91284 65849
L91256 65821
L91256 65877
" />
<path d="M91537 66411
L91537 65821
" />
<path d="M91593 66186
L91762 66411
" />
<path d="M91762 66018
L91537 66242
" />
<path d="M92240 66383
L92184 66411
L92072 66411
L92015 66383
L91987 66327
L91987 66102
L92015 66046
L92072 66018
L92184 66018
L92240 66046
L92268 66102
L92268 66158
L91987 66214
" />
</g>
<g style="fill:#000000; fill-opacity:0.0; 
stroke:#000000; stroke-width:39.3701; stroke-opacity:1; 
stroke-linecap:round; stroke-linejoin:round;">
</g>
<g style="fill:#000000; fill-opacity:0.0; 
stroke:#000000; stroke-width:59.0551; stroke-opacity:1; 
stroke-linecap:round; stroke-linejoin:round;">
<path d="M77559 75396
L77559 76577
" />
</g>
<g style="fill:#000000; fill-opacity:0.0; 
stroke:#000000; stroke-width:39.3701; stroke-opacity:1; 
stroke-linecap:round; stroke-linejoin:round;">
</g>
<g style="fill:#000000; fill-opacity:0.0; 
stroke:#000000; stroke-width:59.0551; stroke-opacity:1; 
stroke-linecap:round; stroke-linejoin:round;">
<path d="M102756 75396
L102756 77955
" />
</g>
<g style="fill:#000000; fill-opacity:0.0; 
stroke:#000000; stroke-width:267.717; stroke-opacity:1; 
stroke-linecap:round; stroke-linejoin:round;">
<path d="M65000 41000
L65000 54000
" />
<path d="M64000 40000
L64000 36000
" />
<path d="M65000 41000 A500 500 0.0 0 0 64500 40500 " />
<path d="M64000 40000 A500 500 0.0 0 0 64500 40500 " />
<path d="M64500 54500 A500 500 0.0 0 0 65000 54000 " />
<path d="M64500 54500 A500 500 0.0 0 0 64000 55000 " />
<path d="M39000 35000
L63000 35000
" />
<path d="M38000 55000
L38000 36000
" />
<path d="M39000 56000
L63000 56000
" />
<path d="M64000 36000 A1000 1000 0.0 0 0 63000 35000 " />
<path d="M63000 56000 A1000 1000 0.0 0 0 64000 55000 " />
<path d="M39000 35000 A1000 1000 0.0 0 0 38000 36000 " />
<path d="M38000 55000 A1000 1000 0.0 0 0 39000 56000 " />
</g> 
</svg>
