M48
;Layer_Color=9474304
;FILE_FORMAT=4:4
METRIC,LZ
;TYPE=PLATED
T1F00S00C0.3000
T2F00S00C0.4000
T3F00S00C0.6500
T4F00S00C0.8500
T5F00S00C0.9000
T6F00S00C1.0000
T7F00S00C1.3000
T8F00S00C3.0500
T9F00S00C3.5600
;TYPE=NON_PLATED
T10F00S00C3.2000
%
T01
X00333779Y0005325
X00336Y00082
X00348121
X00364
Y00103
X00374632Y00099368
X00374068Y00112068
X00374Y00125
X0036725Y0013475
X00358Y00131
X00341967Y00140033
X0035177Y0017477
X0033177Y0017573
X0033175Y0019575
X00342Y00195
X00354
X0038275Y0017875
X0040006Y0014194
X0042387Y0014187
X00438621Y00131621
X00448068Y00112068
X00479Y0014125
X00472Y00177
X004782Y00193
X0045725Y0018525
X00445Y00187
X0044725Y0019725
X0044625Y001755
X0051075Y0016375
X005105Y0015425
X00549Y001655
X0056
X00571
Y001765
X0056
X00549
X0052675Y0018925
X00526Y00222
X00517Y00231
X00521Y0024325
X00524Y00257
X00539596Y00264597
X00557718Y00266879
Y00256879
X00567718
Y00266879
X00562718Y00261879
X00557Y00236435
X0057325Y00221
X00596Y00191
X0059Y00171
X00609282Y00174432
X00584Y0029
X00558745Y00295599
X00561999Y00311999
X00551999
X00552999Y00321999
X00543Y00322
X00534Y00329
X0052375Y0032575
X0052375Y0031625
X00517Y00294
X0054625Y0028325
X00572Y00311
X00578218Y00320783
X00586Y00327
X0047275Y002795
X004755Y00266
X00475Y00249
X004848Y002492
X00475Y00232
X00485999Y00215
X00437Y00255
X00406939Y00281117
X00415Y00289178
Y003053
X00414859Y00320998
X0040708Y0031322
X00406939Y00328918
X00398Y00339
X00406939Y00297239
X00407Y00077
X00417
X00397
X00313037Y00059787
X00277005
X002433Y00015
X00233Y001
X0021914Y0011528
X0021414Y0012028
X0020914Y0011528
Y0012528
X0021914
X0019939Y0013261
X002Y0014275
X0023075Y0014225
X00246Y0015
X00255Y00167
X00254Y00209
X00254Y00224
X0023425Y0022325
X00218Y00223
X0022925Y0025175
X00231999Y00261999
X00251Y00254
X00239Y00291
X0023Y00319
X002335Y00331
X0020814Y0033814
X0017542Y0033842
X0015058
X0015Y00315
X0013796Y0031604
X0012985Y0029885
X0013185Y0027585
X0013066Y0026625
X0013185Y0025685
X0013065Y0024735
X0015125Y00247
X0016796Y0024779
X0019275Y0024875
X002Y00255
X00199Y00289
X0018175Y00315
X0016975Y0031475
X00091Y00315
X00091Y00303999
X00091Y00291
X0006087Y0029113
X00058Y0030374
X00073Y00311
X00071Y00335
X0006209Y0027009
X0007155Y0025555
X0007Y0023
X000906Y00222832
X001Y00222
X0012025Y0022025
X0011775Y0023
X001135Y002395
X0013366Y0021734
X0014316Y0021716
X0015425Y00223
X00097295Y0019825
X0008Y00198
X0005525Y0018325
X00031Y00169
X0009675Y0016725
X0013147Y0013347
X00207Y00096
X00308Y00121
Y00134
X003165Y00178
X00324Y0018425
X0026975Y0020225
Y0021725
X00305Y00292
X0026219Y0032619
X0026269Y0033569
X00194Y00345
X0017215Y0036785
X00165Y00360999
X00167567Y003775
X0016375Y00387
X0012985Y0039025
X00109Y0039
X00121Y00377
Y0035625
X00125Y00346
X00136
X00088Y00381
X00074Y00376
X00078788Y0039131
X000865Y00399291
X00078788Y00407344
X000865Y00415183
X00078788Y00423379
X00078Y0046625
Y0047825
X0012146Y00481
X00154148Y00427492
X00194879Y00422
X00211Y00421
X002204Y004206
X00221Y0041
X00218Y0043
X00228Y00441
X00229Y00457
X0024
X00251109Y00456109
X00262Y00457
X00272Y00456
X00267217Y00426217
X00253217Y00430379
Y00419379
X00242217
Y00430379
X00234Y00396999
X00273Y00409
X00249Y0048175
X00218Y0048125
X0021082Y0046325
X00208Y00448
X0032677Y0035923
X00017527Y003475
X000115Y004355
Y0051075
X00437Y00519
X00546Y00521
X0054125Y0039725
X0052575
X0052275Y0036975
X00541Y00366
X00543467Y00353532
X00531Y00354
X00554717Y00359379
X00565718
X00576717
Y00348379
X00565718
X00554717
X00597379Y00346379
X0059225Y0039725
X0057675Y0039725
X0062675Y0039725
X00641Y00397
X00505Y0038475
X0047375Y00397
X0046425Y0039675
X0043725Y0039725
X00411Y00398
X0040095Y0039795
X0035995
X00349999Y00397999
X0036725Y0036025
X00420587Y00353061
X00428648Y00345
X00436709Y00353061
X00452831
X00468953
X00460892Y00345
X0044477
X00481999Y00358999
T02
X003635Y000595
X0036375Y0007
X00348121Y00112129
X00336Y00112
X00346Y00124
X002455Y0009475
X0021396Y0007675
X00188Y00076
X00169323Y0009375
X00153Y00101
X00144Y00109
X0014725Y00132174
X00041Y0021
X0003039Y0020439
X00043Y00242
X000175Y00277067
Y00301067
X00044Y00336
X000245Y0036475
T03
X00025032Y00523842
X00065532
X00083032Y00523871
X00123532
T04
X0018542Y0005207
X0021082
X0023622
T05
X003556Y000254
X00381
X004064
X004318
X004572
X00508
X005334
X005588
X005842
X006096
X00635
X005969Y0006985
X005715
X005461
X005207
X004953
X004699
Y0009525
X004953
X005207
X005461
X005715
X005969
Y0012065
X005715
X005461
X005207
X004953
X004699
X006166Y00208
Y002334
Y002588
Y002842
X00642
X006674
Y002588
Y002334
Y00208
X00642
Y002334
Y002588
X006157Y00317879
X00234079Y00203682
Y00178282
X00208679
Y00203682
X00183279
X00157879
Y00178282
X00183279
X002794Y000254
X003048
X003302
X0031496Y0041275
X0028956
Y0043815
Y0046355
X0031496
Y0043815
Y00508
X0028956
X0026416
X0023876
X0021336
X0018796
X0034036
X0036576
X0039116
X0041656
X004572
X004826
X00508
X005334
X005588
X005842
X006096
X00635
Y0046355
X006096
X005842
X005588
X005334
X00508
X004826
X004572
Y0043815
Y0041275
X004826
X00508
X005334
X005588
X005842
X006096
X00635
Y0043815
X006096
X005842
X005588
X005334
X00508
X004826
X0041656
Y0041275
X0039116
X0036576
X0034036
Y0043815
Y0046355
X0036576
X0039116
X0041656
X0039116Y0043815
X0036576
X006157Y00368679
Y00343279
T06
X0065659Y0012391
Y0016891
T07
X0063159Y0011141
Y0018141
T08
X0008684Y0003582
X0005434Y0008382
T09
X0011684Y0008382
T10
X006604Y000762
X001397Y000254
X001524Y00508
X006604Y003556
M30
