G04 #@! TF.FileFunction,Soldermask,Bot*
%FSLAX46Y46*%
G04 Gerber Fmt 4.6, Leading zero omitted, Abs format (unit mm)*
G04 Created by KiCad (PCBNEW 4.0.2+e4-6225~38~ubuntu16.04.1-stable) date jue 21 jul 2016 12:33:19 CEST*
%MOMM*%
G01*
G04 APERTURE LIST*
%ADD10C,0.100000*%
%ADD11C,4.770000*%
%ADD12C,5.530000*%
%ADD13R,1.650000X1.650000*%
%ADD14C,1.650000*%
%ADD15R,1.520000X1.520000*%
%ADD16C,1.520000*%
%ADD17C,1.690000*%
%ADD18C,2.080000*%
%ADD19R,1.850000X1.850000*%
%ADD20C,1.850000*%
%ADD21C,3.350000*%
%ADD22C,0.890000*%
G04 APERTURE END LIST*
D10*
D11*
X5410200Y8356600D03*
D12*
X11658600Y8356600D03*
D11*
X8661400Y3556000D03*
D13*
X41656000Y50800000D03*
D14*
X39116000Y50800000D03*
X36576000Y50800000D03*
X34036000Y50800000D03*
X31496000Y50800000D03*
X28956000Y50800000D03*
X26416000Y50800000D03*
X23876000Y50800000D03*
X21336000Y50800000D03*
X18796000Y50800000D03*
D13*
X41656000Y46355000D03*
D14*
X39116000Y46355000D03*
X36576000Y46355000D03*
X34036000Y46355000D03*
X31496000Y46355000D03*
X28956000Y46355000D03*
D13*
X41656000Y43815000D03*
D14*
X39116000Y43815000D03*
X36576000Y43815000D03*
X34036000Y43815000D03*
X31496000Y43815000D03*
X28956000Y43815000D03*
D13*
X41656000Y41275000D03*
D14*
X39116000Y41275000D03*
X36576000Y41275000D03*
X34036000Y41275000D03*
X31496000Y41275000D03*
X28956000Y41275000D03*
D13*
X63500000Y50800000D03*
D14*
X60960000Y50800000D03*
X58420000Y50800000D03*
X55880000Y50800000D03*
X53340000Y50800000D03*
X50800000Y50800000D03*
X48260000Y50800000D03*
X45720000Y50800000D03*
D13*
X63500000Y46355000D03*
D14*
X60960000Y46355000D03*
X58420000Y46355000D03*
X55880000Y46355000D03*
X53340000Y46355000D03*
X50800000Y46355000D03*
X48260000Y46355000D03*
X45720000Y46355000D03*
D13*
X63500000Y43815000D03*
D14*
X60960000Y43815000D03*
X58420000Y43815000D03*
X55880000Y43815000D03*
X53340000Y43815000D03*
X50800000Y43815000D03*
X48260000Y43815000D03*
X45720000Y43815000D03*
D13*
X63500000Y41275000D03*
D14*
X60960000Y41275000D03*
X58420000Y41275000D03*
X55880000Y41275000D03*
X53340000Y41275000D03*
X50800000Y41275000D03*
X48260000Y41275000D03*
X45720000Y41275000D03*
D15*
X18554700Y5207000D03*
D16*
X21094700Y5207000D03*
X23634700Y5207000D03*
D13*
X46990000Y6985000D03*
D14*
X49530000Y6985000D03*
X52070000Y6985000D03*
X54610000Y6985000D03*
X57150000Y6985000D03*
X59690000Y6985000D03*
D13*
X46990000Y12065000D03*
D14*
X49530000Y12065000D03*
X52070000Y12065000D03*
X54610000Y12065000D03*
X57150000Y12065000D03*
X59690000Y12065000D03*
D13*
X46990000Y9525000D03*
D14*
X49530000Y9525000D03*
X52070000Y9525000D03*
X54610000Y9525000D03*
X57150000Y9525000D03*
X59690000Y9525000D03*
D17*
X65659000Y16891000D03*
X65659000Y12382500D03*
D18*
X63157100Y18148300D03*
X63157100Y11137900D03*
D19*
X61569600Y31788100D03*
D20*
X61569600Y34328100D03*
X61569600Y36868100D03*
D13*
X66738500Y28422600D03*
D14*
X66738500Y25882600D03*
X66738500Y23342600D03*
X66738500Y20802600D03*
D13*
X64198500Y28422600D03*
D14*
X64198500Y25882600D03*
X64198500Y23342600D03*
X64198500Y20802600D03*
D13*
X61658500Y28422600D03*
D14*
X61658500Y25882600D03*
X61658500Y23342600D03*
X61658500Y20802600D03*
D13*
X27940000Y2540000D03*
D14*
X30480000Y2540000D03*
X33020000Y2540000D03*
X35560000Y2540000D03*
X38100000Y2540000D03*
X40640000Y2540000D03*
X43180000Y2540000D03*
X45720000Y2540000D03*
D13*
X50800000Y2540000D03*
D14*
X53340000Y2540000D03*
X55880000Y2540000D03*
X58420000Y2540000D03*
X60960000Y2540000D03*
X63500000Y2540000D03*
D19*
X15786100Y17830800D03*
D20*
X15786100Y20370800D03*
X18326100Y17830800D03*
X18326100Y20370800D03*
X20866100Y17830800D03*
X20866100Y20370800D03*
X23406100Y17830800D03*
X23406100Y20370800D03*
D21*
X15240000Y50800000D03*
X66040000Y35560000D03*
X66040000Y7620000D03*
X13970000Y2540000D03*
D22*
X23990000Y43000000D03*
X25500000Y43000000D03*
X24000000Y41900000D03*
X25500000Y41900000D03*
X20910000Y12530000D03*
X21910000Y12530000D03*
X21420000Y12030000D03*
X20910000Y11530000D03*
X21910000Y11530000D03*
X55470000Y35940000D03*
X56570000Y35940000D03*
X57670000Y35950000D03*
X55470000Y34840000D03*
X56570000Y34840000D03*
X57670000Y34840000D03*
X54900000Y17650000D03*
X56000000Y17640000D03*
X57090000Y17650000D03*
X54900000Y16550000D03*
X56000000Y16550000D03*
X57100000Y16550000D03*
X55770000Y26610000D03*
X56770000Y26620000D03*
X56280000Y26190000D03*
X55770000Y25690000D03*
X56770000Y25690000D03*
M02*
