M48
;DRILL file {KiCad no-vcs-found-e5c4cfc~61~ubuntu16.04.1} date Fri Nov  3 17:54:32 2017
;FORMAT={-:-/ absolute / metric / decimal}
FMAT,2
METRIC,TZ
T1C0.300
T2C0.400
T3C0.650
T4C0.850
T5C0.900
T6C1.000
T7C1.300
T8C3.050
T9C3.560
T10C3.200
%
G90
G05
M71
T1
X1.157Y51.075
X1.157Y43.55
X1.759Y34.75
X3.107Y16.9
X4.307Y24.199
X4.407Y33.601
X5.532Y18.324
X5.807Y30.373
X6.094Y29.113
X6.216Y27.009
X7.007Y23.
X7.107Y33.5
X7.162Y25.555
X7.307Y31.1
X7.407Y37.6
X7.807Y47.825
X7.807Y46.625
X7.865Y39.131
X7.886Y42.338
X7.886Y40.729
X8.007Y19.8
X8.635Y41.529
X8.657Y39.929
X8.807Y38.1
X9.067Y22.283
X9.107Y31.5
X9.107Y30.4
X9.107Y29.1
X9.651Y16.724
X9.736Y19.825
X10.007Y22.2
X10.907Y39.025
X11.357Y23.95
X11.782Y23.
X12.032Y22.025
X12.107Y37.7
X12.107Y35.625
X12.153Y48.099
X12.507Y34.6
X12.992Y29.885
X13.016Y39.05
X13.072Y24.735
X13.073Y26.625
X13.154Y13.347
X13.192Y27.585
X13.192Y25.685
X13.373Y21.734
X13.373Y21.734
X13.607Y34.6
X13.803Y31.504
X14.323Y21.716
X14.407Y10.9
X15.007Y31.5
X15.065Y33.842
X15.132Y24.7
X15.307Y10.1
X15.422Y42.749
X15.432Y22.3
X16.407Y38.7
X16.507Y36.1
X16.764Y37.75
X16.803Y24.779
X16.939Y9.379
X16.982Y31.475
X17.222Y36.785
X17.549Y33.842
X18.182Y31.5
X18.807Y7.6
X19.282Y24.875
X19.407Y34.499
X19.497Y42.2
X19.907Y28.9
X19.946Y13.261
X20.007Y25.5
X20.007Y14.275
X20.707Y9.6
X20.807Y44.8
X20.821Y33.814
X21.089Y46.325
X21.107Y42.1
X21.403Y7.675
X21.807Y48.125
X21.807Y43.
X21.807Y22.3
X22.047Y42.06
X22.107Y41.
X22.807Y44.1
X22.907Y45.7
X22.932Y25.175
X23.007Y31.9
X23.082Y14.225
X23.207Y26.2
X23.307Y10.
X23.407Y39.7
X23.432Y22.325
X23.907Y29.1
X24.007Y45.7
X24.337Y1.5
X24.557Y9.474
X24.607Y15.
X24.907Y48.175
X25.107Y25.4
X25.118Y45.611
X25.407Y22.4
X25.407Y20.9
X25.507Y16.7
X26.207Y45.7
X26.226Y32.619
X26.276Y33.569
X26.729Y42.622
X26.982Y21.725
X26.982Y20.225
X27.207Y45.6
X27.307Y40.9
X27.707Y5.979
X30.507Y29.2
X31.311Y5.979
X31.657Y17.8
X32.407Y18.425
X32.684Y35.923
X33.182Y19.575
X33.184Y17.573
X33.385Y5.325
X34.203Y14.004
X34.207Y19.5
X35.007Y39.8
X35.184Y17.477
X35.407Y19.5
X35.807Y13.1
X36.002Y39.795
X36.406Y8.2
X36.732Y36.025
X36.732Y13.475
X37.407Y12.5
X37.414Y11.207
X37.47Y9.937
X38.282Y17.875
X38.282Y17.875
X39.707Y7.7
X39.807Y33.9
X40.013Y14.194
X40.102Y39.795
X40.7Y32.892
X40.701Y29.724
X40.701Y28.112
X40.707Y7.7
X40.715Y31.323
X41.107Y39.8
X41.493Y32.1
X41.507Y30.53
X41.507Y28.918
X41.707Y7.7
X42.066Y35.306
X42.394Y14.187
X42.872Y34.499
X43.678Y35.306
X43.707Y51.9
X43.707Y25.5
X43.732Y39.725
X43.869Y13.162
X44.484Y34.5
X44.507Y18.7
X44.632Y17.55
X44.732Y19.725
X44.814Y11.207
X44.814Y11.207
X45.29Y35.306
X45.732Y18.525
X46.096Y34.5
X46.432Y39.675
X46.902Y35.306
X47.207Y17.7
X47.282Y27.95
X47.282Y27.95
X47.382Y39.7
X47.507Y24.9
X47.507Y23.2
X47.557Y26.6
X47.827Y19.3
X47.907Y14.125
X48.207Y35.9
X48.487Y24.92
X48.607Y21.5
X50.507Y38.475
X51.057Y15.425
X51.082Y16.375
X51.707Y29.4
X51.707Y23.1
X52.107Y24.325
X52.282Y36.975
X52.382Y32.575
X52.382Y31.625
X52.407Y25.7
X52.582Y39.725
X52.607Y22.2
X52.682Y18.925
X53.107Y35.4
X53.407Y32.9
X53.966Y26.46
X54.107Y36.6
X54.132Y39.725
X54.307Y32.2
X54.354Y35.353
X54.607Y52.1
X54.632Y28.325
X55.207Y31.2
X55.307Y32.2
X55.707Y23.643
X55.881Y29.56
X56.207Y31.2
X57.207Y31.1
X57.532Y22.1
X57.682Y39.725
X57.829Y32.078
X58.407Y29.
X58.607Y32.7
X59.007Y17.1
X59.232Y39.725
X59.607Y19.1
X59.745Y34.638
X60.935Y17.443
X62.682Y39.725
X64.107Y39.7
X55.799Y26.668
X55.799Y25.708
X56.279Y26.188
X56.759Y26.668
X56.759Y25.708
X55.479Y35.945
X55.479Y34.831
X56.579Y35.945
X56.579Y34.831
X57.679Y35.945
X57.679Y34.831
X36.382Y7.
X20.941Y12.508
X20.941Y11.548
X21.421Y12.028
X21.901Y12.508
X21.901Y11.548
X30.81Y13.426
X30.81Y12.126
X54.907Y17.657
X54.907Y16.543
X56.007Y17.657
X56.007Y16.543
X57.107Y17.657
X57.107Y16.543
X23.999Y42.998
X23.999Y41.978
X25.559Y42.998
X25.559Y41.978
T2
X2.457Y36.478
X33.607Y8.2
X34.819Y8.2
X36.382Y5.956
X36.407Y10.3
X14.732Y13.217
X33.607Y11.199
X23.357Y33.1
X34.607Y12.399
X4.107Y20.999
X34.819Y11.188
X3.046Y20.438
T3
X2.51Y52.384
X2.51Y52.384
X6.56Y52.384
X6.56Y52.384
X8.31Y52.384
X8.31Y52.384
X12.36Y52.384
X12.36Y52.384
T4
X18.555Y5.207
X21.095Y5.207
X23.635Y5.207
T5
X28.956Y43.815
X31.496Y43.815
X34.036Y43.815
X36.576Y43.815
X39.116Y43.815
X41.656Y43.815
X64.198Y28.423
X64.198Y25.883
X64.198Y23.343
X64.198Y20.803
X28.956Y41.275
X31.496Y41.275
X34.036Y41.275
X36.576Y41.275
X39.116Y41.275
X41.656Y41.275
X45.72Y43.815
X48.26Y43.815
X50.8Y43.815
X53.34Y43.815
X55.88Y43.815
X58.42Y43.815
X60.96Y43.815
X63.5Y43.815
X66.739Y28.423
X66.739Y25.883
X66.739Y23.343
X66.739Y20.803
X46.99Y6.985
X49.53Y6.985
X52.07Y6.985
X54.61Y6.985
X57.15Y6.985
X59.69Y6.985
X46.99Y12.065
X49.53Y12.065
X52.07Y12.065
X54.61Y12.065
X57.15Y12.065
X59.69Y12.065
X50.8Y2.54
X53.34Y2.54
X55.88Y2.54
X58.42Y2.54
X60.96Y2.54
X63.5Y2.54
X46.99Y9.525
X49.53Y9.525
X52.07Y9.525
X54.61Y9.525
X57.15Y9.525
X59.69Y9.525
X45.72Y50.8
X48.26Y50.8
X50.8Y50.8
X53.34Y50.8
X55.88Y50.8
X58.42Y50.8
X60.96Y50.8
X63.5Y50.8
X28.956Y46.355
X31.496Y46.355
X34.036Y46.355
X36.576Y46.355
X39.116Y46.355
X41.656Y46.355
X61.57Y36.868
X61.57Y34.328
X61.57Y31.788
X45.72Y41.275
X48.26Y41.275
X50.8Y41.275
X53.34Y41.275
X55.88Y41.275
X58.42Y41.275
X60.96Y41.275
X63.5Y41.275
X27.94Y2.54
X30.48Y2.54
X33.02Y2.54
X35.56Y2.54
X38.1Y2.54
X40.64Y2.54
X43.18Y2.54
X45.72Y2.54
X61.658Y28.423
X61.658Y25.883
X61.658Y23.343
X61.658Y20.803
X15.786Y20.371
X15.786Y17.831
X18.326Y20.371
X18.326Y17.831
X20.866Y20.371
X20.866Y17.831
X23.406Y20.371
X23.406Y17.831
X18.796Y50.8
X21.336Y50.8
X23.876Y50.8
X26.416Y50.8
X28.956Y50.8
X31.496Y50.8
X34.036Y50.8
X36.576Y50.8
X39.116Y50.8
X41.656Y50.8
X45.72Y46.355
X48.26Y46.355
X50.8Y46.355
X53.34Y46.355
X55.88Y46.355
X58.42Y46.355
X60.96Y46.355
X63.5Y46.355
T6
X65.659Y16.891
X65.659Y12.383
T7
X63.157Y18.148
X63.157Y11.138
T8
X5.41Y8.357
X8.661Y3.556
T9
X11.659Y8.357
T10
X66.203Y7.765
X13.977Y2.54
X15.403Y50.945
X66.203Y35.705
T0
M30
