%TF.GenerationSoftware,KiCad,Pcbnew,no-vcs-found-e5c4cfc~61~ubuntu16.04.1*%
%TF.CreationDate,2017-11-03T17:54:14+01:00*%
%TF.ProjectId,icezum,6963657A756D2E6B696361645F706362,V1.1K*%
%TF.SameCoordinates,PX5c0c740PY87a6900*%
%TF.FileFunction,Soldermask,Bot*%
%TF.FilePolarity,Negative*%
%FSLAX46Y46*%
G04 Gerber Fmt 4.6, Leading zero omitted, Abs format (unit mm)*
G04 Created by KiCad (PCBNEW no-vcs-found-e5c4cfc~61~ubuntu16.04.1) date Fri Nov  3 17:54:14 2017*
%MOMM*%
%LPD*%
G01*
G04 APERTURE LIST*
%ADD10C,3.350000*%
%ADD11C,0.890000*%
%ADD12C,0.950000*%
%ADD13C,1.150000*%
%ADD14C,0.790000*%
%ADD15R,1.650000X1.650000*%
%ADD16C,1.650000*%
%ADD17C,4.770000*%
%ADD18C,5.530000*%
%ADD19R,1.520000X1.520000*%
%ADD20C,1.520000*%
%ADD21C,1.690000*%
%ADD22C,2.080000*%
G04 APERTURE END LIST*
D10*
%TO.C,REF\002A\002A*%
X66203000Y7765000D03*
%TD*%
%TO.C,REF\002A\002A*%
X66203000Y35705000D03*
%TD*%
%TO.C,REF\002A\002A*%
X15403000Y50945000D03*
%TD*%
%TO.C,REF\002A\002A*%
X13977000Y2540000D03*
%TD*%
D11*
%TO.C,U6*%
X25558700Y41977900D03*
X23998700Y41977900D03*
X25558700Y42997900D03*
X23998700Y42997900D03*
%TD*%
%TO.C,U12*%
X20941000Y12508000D03*
X21901000Y12508000D03*
X20941000Y11548000D03*
X21901000Y11548000D03*
X21421000Y12028000D03*
%TD*%
%TO.C,U7*%
X56758800Y25707900D03*
X55798800Y25707900D03*
X56758800Y26667900D03*
X55798800Y26667900D03*
X56278800Y26187900D03*
%TD*%
%TO.C,U8*%
X54907000Y17657000D03*
X56007000Y17657000D03*
X57107000Y17657000D03*
X54907000Y16543000D03*
X56007000Y16543000D03*
X57107000Y16543000D03*
%TD*%
%TO.C,U9*%
X57678800Y34830900D03*
X56578800Y34830900D03*
X55478800Y34830900D03*
X57678800Y35944900D03*
X56578800Y35944900D03*
X55478800Y35944900D03*
%TD*%
%TO.C,U10*%
X30810200Y13426200D03*
X30810200Y12126200D03*
%TD*%
D12*
%TO.C,SW1*%
X2510200Y52384200D03*
X6560200Y52384200D03*
D13*
X2510200Y52384200D03*
X6560200Y52384200D03*
%TD*%
D12*
%TO.C,SW2*%
X8310200Y52384200D03*
X12360200Y52384200D03*
D13*
X8310200Y52384200D03*
X12360200Y52384200D03*
%TD*%
D11*
%TO.C,TP7*%
X3046000Y20438000D03*
%TD*%
%TO.C,TP4*%
X34819100Y11187900D03*
%TD*%
%TO.C,TP1*%
X4107000Y20999000D03*
%TD*%
%TO.C,TP2*%
X34607000Y12399000D03*
%TD*%
%TO.C,TP3*%
X33607000Y11199000D03*
%TD*%
D14*
%TO.C,TP5*%
X36382000Y7000000D03*
%TD*%
D11*
%TO.C,TP6*%
X14732000Y13217000D03*
%TD*%
%TO.C,TP8*%
X23357000Y33100000D03*
%TD*%
D15*
%TO.C,J4*%
X41656000Y50800000D03*
D16*
X39116000Y50800000D03*
X36576000Y50800000D03*
X34036000Y50800000D03*
X31496000Y50800000D03*
X28956000Y50800000D03*
X26416000Y50800000D03*
X23876000Y50800000D03*
X21336000Y50800000D03*
X18796000Y50800000D03*
%TD*%
D15*
%TO.C,J3*%
X41656000Y46355000D03*
D16*
X39116000Y46355000D03*
X36576000Y46355000D03*
X34036000Y46355000D03*
X31496000Y46355000D03*
X28956000Y46355000D03*
%TD*%
D15*
%TO.C,J14*%
X46990000Y6985000D03*
D16*
X49530000Y6985000D03*
X52070000Y6985000D03*
X54610000Y6985000D03*
X57150000Y6985000D03*
X59690000Y6985000D03*
%TD*%
D15*
%TO.C,J6*%
X41656000Y41275000D03*
D16*
X39116000Y41275000D03*
X36576000Y41275000D03*
X34036000Y41275000D03*
X31496000Y41275000D03*
X28956000Y41275000D03*
%TD*%
D15*
%TO.C,J12*%
X46990000Y12065000D03*
D16*
X49530000Y12065000D03*
X52070000Y12065000D03*
X54610000Y12065000D03*
X57150000Y12065000D03*
X59690000Y12065000D03*
%TD*%
D15*
%TO.C,J2*%
X41656000Y43815000D03*
D16*
X39116000Y43815000D03*
X36576000Y43815000D03*
X34036000Y43815000D03*
X31496000Y43815000D03*
X28956000Y43815000D03*
%TD*%
D15*
%TO.C,J13*%
X46990000Y9525000D03*
D16*
X49530000Y9525000D03*
X52070000Y9525000D03*
X54610000Y9525000D03*
X57150000Y9525000D03*
X59690000Y9525000D03*
%TD*%
D15*
%TO.C,J10*%
X63500000Y50800000D03*
D16*
X60960000Y50800000D03*
X58420000Y50800000D03*
X55880000Y50800000D03*
X53340000Y50800000D03*
X50800000Y50800000D03*
X48260000Y50800000D03*
X45720000Y50800000D03*
%TD*%
D15*
%TO.C,J8*%
X63500000Y46355000D03*
D16*
X60960000Y46355000D03*
X58420000Y46355000D03*
X55880000Y46355000D03*
X53340000Y46355000D03*
X50800000Y46355000D03*
X48260000Y46355000D03*
X45720000Y46355000D03*
%TD*%
D15*
%TO.C,J7*%
X63500000Y43815000D03*
D16*
X60960000Y43815000D03*
X58420000Y43815000D03*
X55880000Y43815000D03*
X53340000Y43815000D03*
X50800000Y43815000D03*
X48260000Y43815000D03*
X45720000Y43815000D03*
%TD*%
D15*
%TO.C,J9*%
X63500000Y41275000D03*
D16*
X60960000Y41275000D03*
X58420000Y41275000D03*
X55880000Y41275000D03*
X53340000Y41275000D03*
X50800000Y41275000D03*
X48260000Y41275000D03*
X45720000Y41275000D03*
%TD*%
D15*
%TO.C,J5*%
X27940000Y2540000D03*
D16*
X30480000Y2540000D03*
X33020000Y2540000D03*
X35560000Y2540000D03*
X38100000Y2540000D03*
X40640000Y2540000D03*
X43180000Y2540000D03*
X45720000Y2540000D03*
%TD*%
D15*
%TO.C,J11*%
X50800000Y2540000D03*
D16*
X53340000Y2540000D03*
X55880000Y2540000D03*
X58420000Y2540000D03*
X60960000Y2540000D03*
X63500000Y2540000D03*
%TD*%
D15*
%TO.C,J16*%
X66738500Y28422600D03*
D16*
X66738500Y25882600D03*
X66738500Y23342600D03*
X66738500Y20802600D03*
%TD*%
D15*
%TO.C,J15*%
X64198500Y28422600D03*
D16*
X64198500Y25882600D03*
X64198500Y23342600D03*
X64198500Y20802600D03*
%TD*%
D15*
%TO.C,J17*%
X61658500Y28422600D03*
D16*
X61658500Y25882600D03*
X61658500Y23342600D03*
X61658500Y20802600D03*
%TD*%
D15*
%TO.C,J19*%
X15786100Y17830800D03*
D16*
X15786100Y20370800D03*
X18326100Y17830800D03*
X18326100Y20370800D03*
X20866100Y17830800D03*
X20866100Y20370800D03*
X23406100Y17830800D03*
X23406100Y20370800D03*
%TD*%
D17*
%TO.C,J18*%
X5410200Y8356600D03*
D18*
X11658600Y8356600D03*
D17*
X8661400Y3556000D03*
%TD*%
D19*
%TO.C,SW3*%
X18554700Y5207000D03*
D20*
X21094700Y5207000D03*
X23634700Y5207000D03*
%TD*%
D21*
%TO.C,SW4*%
X65659000Y16891000D03*
X65659000Y12382500D03*
D22*
X63157100Y18148300D03*
X63157100Y11137900D03*
%TD*%
D15*
%TO.C,JP1*%
X61569600Y31788100D03*
D16*
X61569600Y34328100D03*
X61569600Y36868100D03*
%TD*%
M02*
