G04 #@! TF.FileFunction,Legend,Bot*
%FSLAX46Y46*%
G04 Gerber Fmt 4.6, Leading zero omitted, Abs format (unit mm)*
G04 Created by KiCad (PCBNEW 4.0.2+e4-6225~38~ubuntu16.04.1-stable) date jue 21 jul 2016 15:57:36 CEST*
%MOMM*%
G01*
G04 APERTURE LIST*
%ADD10C,0.100000*%
%ADD11C,0.200000*%
%ADD12C,0.010000*%
%ADD13C,0.300000*%
%ADD14C,0.700000*%
%ADD15C,0.254000*%
G04 APERTURE END LIST*
D10*
D11*
X14685238Y32877619D02*
X14685238Y33877619D01*
X14351904Y33163333D01*
X14018571Y33877619D01*
X14018571Y32877619D01*
X13113809Y32877619D02*
X13113809Y33401429D01*
X13161428Y33496667D01*
X13256666Y33544286D01*
X13447143Y33544286D01*
X13542381Y33496667D01*
X13113809Y32925238D02*
X13209047Y32877619D01*
X13447143Y32877619D01*
X13542381Y32925238D01*
X13590000Y33020476D01*
X13590000Y33115714D01*
X13542381Y33210952D01*
X13447143Y33258571D01*
X13209047Y33258571D01*
X13113809Y33306190D01*
X12209047Y32877619D02*
X12209047Y33877619D01*
X12209047Y32925238D02*
X12304285Y32877619D01*
X12494762Y32877619D01*
X12590000Y32925238D01*
X12637619Y32972857D01*
X12685238Y33068095D01*
X12685238Y33353810D01*
X12637619Y33449048D01*
X12590000Y33496667D01*
X12494762Y33544286D01*
X12304285Y33544286D01*
X12209047Y33496667D01*
X11351904Y32925238D02*
X11447142Y32877619D01*
X11637619Y32877619D01*
X11732857Y32925238D01*
X11780476Y33020476D01*
X11780476Y33401429D01*
X11732857Y33496667D01*
X11637619Y33544286D01*
X11447142Y33544286D01*
X11351904Y33496667D01*
X11304285Y33401429D01*
X11304285Y33306190D01*
X11780476Y33210952D01*
X10209047Y33544286D02*
X10018571Y32877619D01*
X9828094Y33353810D01*
X9637618Y32877619D01*
X9447142Y33544286D01*
X9066190Y32877619D02*
X9066190Y33544286D01*
X9066190Y33877619D02*
X9113809Y33830000D01*
X9066190Y33782381D01*
X9018571Y33830000D01*
X9066190Y33877619D01*
X9066190Y33782381D01*
X8732857Y33544286D02*
X8351905Y33544286D01*
X8590000Y33877619D02*
X8590000Y33020476D01*
X8542381Y32925238D01*
X8447143Y32877619D01*
X8351905Y32877619D01*
X8018571Y32877619D02*
X8018571Y33877619D01*
X7589999Y32877619D02*
X7589999Y33401429D01*
X7637618Y33496667D01*
X7732856Y33544286D01*
X7875714Y33544286D01*
X7970952Y33496667D01*
X8018571Y33449048D01*
X6351904Y32877619D02*
X6351904Y33877619D01*
X5780475Y32877619D02*
X6209047Y33449048D01*
X5780475Y33877619D02*
X6351904Y33306190D01*
X5351904Y32877619D02*
X5351904Y33544286D01*
X5351904Y33877619D02*
X5399523Y33830000D01*
X5351904Y33782381D01*
X5304285Y33830000D01*
X5351904Y33877619D01*
X5351904Y33782381D01*
X4304285Y32972857D02*
X4351904Y32925238D01*
X4494761Y32877619D01*
X4589999Y32877619D01*
X4732857Y32925238D01*
X4828095Y33020476D01*
X4875714Y33115714D01*
X4923333Y33306190D01*
X4923333Y33449048D01*
X4875714Y33639524D01*
X4828095Y33734762D01*
X4732857Y33830000D01*
X4589999Y33877619D01*
X4494761Y33877619D01*
X4351904Y33830000D01*
X4304285Y33782381D01*
X3923333Y33163333D02*
X3447142Y33163333D01*
X4018571Y32877619D02*
X3685238Y33877619D01*
X3351904Y32877619D01*
X3018571Y32877619D02*
X3018571Y33877619D01*
X2780476Y33877619D01*
X2637618Y33830000D01*
X2542380Y33734762D01*
X2494761Y33639524D01*
X2447142Y33449048D01*
X2447142Y33306190D01*
X2494761Y33115714D01*
X2542380Y33020476D01*
X2637618Y32925238D01*
X2780476Y32877619D01*
X3018571Y32877619D01*
D12*
X460000Y11000000D02*
X470000Y11000000D01*
D10*
X460000Y6670000D02*
X460000Y11000000D01*
X2190000Y6670000D02*
X460000Y6670000D01*
X2190000Y11000000D02*
X2190000Y6670000D01*
X470000Y11000000D02*
X2190000Y11000000D01*
D11*
X1847619Y7486667D02*
X1847619Y7296190D01*
X1800000Y7200952D01*
X1752381Y7153333D01*
X1609524Y7058095D01*
X1419048Y7010476D01*
X1038095Y7010476D01*
X942857Y7058095D01*
X895238Y7105714D01*
X847619Y7200952D01*
X847619Y7391429D01*
X895238Y7486667D01*
X942857Y7534286D01*
X1038095Y7581905D01*
X1276190Y7581905D01*
X1371429Y7534286D01*
X1419048Y7486667D01*
X1466667Y7391429D01*
X1466667Y7200952D01*
X1419048Y7105714D01*
X1371429Y7058095D01*
X1276190Y7010476D01*
X1228571Y8010476D02*
X1228571Y8772381D01*
X1847619Y9153333D02*
X1847619Y9820000D01*
X847619Y9391428D01*
X1847619Y10058095D02*
X847619Y10391428D01*
X1847619Y10724762D01*
X31894762Y3937619D02*
X31894762Y4937619D01*
X31228096Y4937619D02*
X31037619Y4937619D01*
X30942381Y4890000D01*
X30847143Y4794762D01*
X30799524Y4604286D01*
X30799524Y4270952D01*
X30847143Y4080476D01*
X30942381Y3985238D01*
X31037619Y3937619D01*
X31228096Y3937619D01*
X31323334Y3985238D01*
X31418572Y4080476D01*
X31466191Y4270952D01*
X31466191Y4604286D01*
X31418572Y4794762D01*
X31323334Y4890000D01*
X31228096Y4937619D01*
X29799524Y3937619D02*
X30132858Y4413810D01*
X30370953Y3937619D02*
X30370953Y4937619D01*
X29990000Y4937619D01*
X29894762Y4890000D01*
X29847143Y4842381D01*
X29799524Y4747143D01*
X29799524Y4604286D01*
X29847143Y4509048D01*
X29894762Y4461429D01*
X29990000Y4413810D01*
X30370953Y4413810D01*
X29370953Y4461429D02*
X29037619Y4461429D01*
X28894762Y3937619D02*
X29370953Y3937619D01*
X29370953Y4937619D01*
X28894762Y4937619D01*
X28132857Y4461429D02*
X28466191Y4461429D01*
X28466191Y3937619D02*
X28466191Y4937619D01*
X27990000Y4937619D01*
X24720953Y2861905D02*
X24473334Y2861905D01*
X24349525Y2800000D01*
X24225715Y2676190D01*
X24163810Y2428571D01*
X24163810Y1995238D01*
X24225715Y1747619D01*
X24349525Y1623810D01*
X24473334Y1561905D01*
X24720953Y1561905D01*
X24844763Y1623810D01*
X24968572Y1747619D01*
X25030477Y1995238D01*
X25030477Y2428571D01*
X24968572Y2676190D01*
X24844763Y2800000D01*
X24720953Y2861905D01*
X23173334Y2242857D02*
X23606667Y2242857D01*
X23606667Y1561905D02*
X23606667Y2861905D01*
X22987620Y2861905D01*
X22059048Y2242857D02*
X22492381Y2242857D01*
X22492381Y1561905D02*
X22492381Y2861905D01*
X21873334Y2861905D01*
X20449524Y2923810D02*
X21563809Y1252381D01*
X19768571Y2861905D02*
X19520952Y2861905D01*
X19397143Y2800000D01*
X19273333Y2676190D01*
X19211428Y2428571D01*
X19211428Y1995238D01*
X19273333Y1747619D01*
X19397143Y1623810D01*
X19520952Y1561905D01*
X19768571Y1561905D01*
X19892381Y1623810D01*
X20016190Y1747619D01*
X20078095Y1995238D01*
X20078095Y2428571D01*
X20016190Y2676190D01*
X19892381Y2800000D01*
X19768571Y2861905D01*
X18654285Y1561905D02*
X18654285Y2861905D01*
X17911428Y1561905D01*
X17911428Y2861905D01*
D13*
X54497142Y17254286D02*
X53282857Y17254286D01*
X54011428Y17982857D02*
X54497142Y15797143D01*
X53444762Y16525714D02*
X54659047Y16525714D01*
X53930476Y15797143D02*
X53444762Y17982857D01*
X52149523Y17011429D02*
X52716190Y17011429D01*
X52716190Y16120952D02*
X52716190Y17820952D01*
X51906666Y17820952D01*
X51259047Y16120952D02*
X51259047Y17820952D01*
X50611428Y17820952D01*
X50449523Y17740000D01*
X50368571Y17659048D01*
X50287619Y17497143D01*
X50287619Y17254286D01*
X50368571Y17092381D01*
X50449523Y17011429D01*
X50611428Y16930476D01*
X51259047Y16930476D01*
X48668571Y17740000D02*
X48830476Y17820952D01*
X49073333Y17820952D01*
X49316190Y17740000D01*
X49478095Y17578095D01*
X49559047Y17416190D01*
X49639999Y17092381D01*
X49639999Y16849524D01*
X49559047Y16525714D01*
X49478095Y16363810D01*
X49316190Y16201905D01*
X49073333Y16120952D01*
X48911428Y16120952D01*
X48668571Y16201905D01*
X48587619Y16282857D01*
X48587619Y16849524D01*
X48911428Y16849524D01*
X47939999Y16606667D02*
X47130476Y16606667D01*
X48101904Y16120952D02*
X47535238Y17820952D01*
X46968571Y16120952D01*
X46563809Y17254286D02*
X46239999Y16120952D01*
X45916190Y16930476D01*
X45592380Y16120952D01*
X45268571Y17254286D01*
X43892381Y16120952D02*
X43892381Y17011429D01*
X43973333Y17173333D01*
X44135238Y17254286D01*
X44459047Y17254286D01*
X44620952Y17173333D01*
X43892381Y16201905D02*
X44054285Y16120952D01*
X44459047Y16120952D01*
X44620952Y16201905D01*
X44701904Y16363810D01*
X44701904Y16525714D01*
X44620952Y16687619D01*
X44459047Y16768571D01*
X44054285Y16768571D01*
X43892381Y16849524D01*
X43082857Y16120952D02*
X43082857Y17254286D01*
X43082857Y16930476D02*
X43001905Y17092381D01*
X42920952Y17173333D01*
X42759048Y17254286D01*
X42597143Y17254286D01*
X42111428Y16201905D02*
X41949524Y16120952D01*
X41625714Y16120952D01*
X41463809Y16201905D01*
X41382857Y16363810D01*
X41382857Y16444762D01*
X41463809Y16606667D01*
X41625714Y16687619D01*
X41868571Y16687619D01*
X42030476Y16768571D01*
X42111428Y16930476D01*
X42111428Y17011429D01*
X42030476Y17173333D01*
X41868571Y17254286D01*
X41625714Y17254286D01*
X41463809Y17173333D01*
X54690475Y20544286D02*
X53476190Y20544286D01*
X54204761Y21272857D02*
X54690475Y19087143D01*
X53638095Y19815714D02*
X54852380Y19815714D01*
X54123809Y19087143D02*
X53638095Y21272857D01*
X52585714Y21110952D02*
X52261904Y21110952D01*
X52099999Y21030000D01*
X51938095Y20868095D01*
X51857142Y20544286D01*
X51857142Y19977619D01*
X51938095Y19653810D01*
X52099999Y19491905D01*
X52261904Y19410952D01*
X52585714Y19410952D01*
X52747618Y19491905D01*
X52909523Y19653810D01*
X52990475Y19977619D01*
X52990475Y20544286D01*
X52909523Y20868095D01*
X52747618Y21030000D01*
X52585714Y21110952D01*
X51128571Y20544286D02*
X51128571Y18844286D01*
X51128571Y20463333D02*
X50966666Y20544286D01*
X50642857Y20544286D01*
X50480952Y20463333D01*
X50400000Y20382381D01*
X50319047Y20220476D01*
X50319047Y19734762D01*
X50400000Y19572857D01*
X50480952Y19491905D01*
X50642857Y19410952D01*
X50966666Y19410952D01*
X51128571Y19491905D01*
X48942857Y19491905D02*
X49104762Y19410952D01*
X49428571Y19410952D01*
X49590476Y19491905D01*
X49671428Y19653810D01*
X49671428Y20301429D01*
X49590476Y20463333D01*
X49428571Y20544286D01*
X49104762Y20544286D01*
X48942857Y20463333D01*
X48861905Y20301429D01*
X48861905Y20139524D01*
X49671428Y19977619D01*
X48133333Y20544286D02*
X48133333Y19410952D01*
X48133333Y20382381D02*
X48052381Y20463333D01*
X47890476Y20544286D01*
X47647619Y20544286D01*
X47485714Y20463333D01*
X47404762Y20301429D01*
X47404762Y19410952D01*
X46028571Y20301429D02*
X46595238Y20301429D01*
X46595238Y19410952D02*
X46595238Y21110952D01*
X45785714Y21110952D01*
X45138095Y19410952D02*
X45138095Y21110952D01*
X44490476Y21110952D01*
X44328571Y21030000D01*
X44247619Y20949048D01*
X44166667Y20787143D01*
X44166667Y20544286D01*
X44247619Y20382381D01*
X44328571Y20301429D01*
X44490476Y20220476D01*
X45138095Y20220476D01*
X42547619Y21030000D02*
X42709524Y21110952D01*
X42952381Y21110952D01*
X43195238Y21030000D01*
X43357143Y20868095D01*
X43438095Y20706190D01*
X43519047Y20382381D01*
X43519047Y20139524D01*
X43438095Y19815714D01*
X43357143Y19653810D01*
X43195238Y19491905D01*
X42952381Y19410952D01*
X42790476Y19410952D01*
X42547619Y19491905D01*
X42466667Y19572857D01*
X42466667Y20139524D01*
X42790476Y20139524D01*
X41819047Y19896667D02*
X41009524Y19896667D01*
X41980952Y19410952D02*
X41414286Y21110952D01*
X40847619Y19410952D01*
D11*
X54792859Y22931429D02*
X54792859Y24431429D01*
X54150002Y22931429D02*
X54150002Y23717143D01*
X54221431Y23860000D01*
X54364288Y23931429D01*
X54578573Y23931429D01*
X54721431Y23860000D01*
X54792859Y23788571D01*
X53650002Y23931429D02*
X53078573Y23931429D01*
X53435716Y24431429D02*
X53435716Y23145714D01*
X53364288Y23002857D01*
X53221430Y22931429D01*
X53078573Y22931429D01*
X52792859Y23931429D02*
X52221430Y23931429D01*
X52578573Y24431429D02*
X52578573Y23145714D01*
X52507145Y23002857D01*
X52364287Y22931429D01*
X52221430Y22931429D01*
X51721430Y23931429D02*
X51721430Y22431429D01*
X51721430Y23860000D02*
X51578573Y23931429D01*
X51292859Y23931429D01*
X51150002Y23860000D01*
X51078573Y23788571D01*
X51007144Y23645714D01*
X51007144Y23217143D01*
X51078573Y23074286D01*
X51150002Y23002857D01*
X51292859Y22931429D01*
X51578573Y22931429D01*
X51721430Y23002857D01*
X50435716Y23002857D02*
X50292859Y22931429D01*
X50007144Y22931429D01*
X49864287Y23002857D01*
X49792859Y23145714D01*
X49792859Y23217143D01*
X49864287Y23360000D01*
X50007144Y23431429D01*
X50221430Y23431429D01*
X50364287Y23502857D01*
X50435716Y23645714D01*
X50435716Y23717143D01*
X50364287Y23860000D01*
X50221430Y23931429D01*
X50007144Y23931429D01*
X49864287Y23860000D01*
X49150001Y23074286D02*
X49078573Y23002857D01*
X49150001Y22931429D01*
X49221430Y23002857D01*
X49150001Y23074286D01*
X49150001Y22931429D01*
X49150001Y23860000D02*
X49078573Y23788571D01*
X49150001Y23717143D01*
X49221430Y23788571D01*
X49150001Y23860000D01*
X49150001Y23717143D01*
X47364287Y24502857D02*
X48650001Y22574286D01*
X45792858Y24502857D02*
X47078572Y22574286D01*
X44650000Y23931429D02*
X44650000Y22717143D01*
X44721429Y22574286D01*
X44792857Y22502857D01*
X44935714Y22431429D01*
X45150000Y22431429D01*
X45292857Y22502857D01*
X44650000Y23002857D02*
X44792857Y22931429D01*
X45078571Y22931429D01*
X45221429Y23002857D01*
X45292857Y23074286D01*
X45364286Y23217143D01*
X45364286Y23645714D01*
X45292857Y23788571D01*
X45221429Y23860000D01*
X45078571Y23931429D01*
X44792857Y23931429D01*
X44650000Y23860000D01*
X43935714Y22931429D02*
X43935714Y23931429D01*
X43935714Y24431429D02*
X44007143Y24360000D01*
X43935714Y24288571D01*
X43864286Y24360000D01*
X43935714Y24431429D01*
X43935714Y24288571D01*
X43435714Y23931429D02*
X42864285Y23931429D01*
X43221428Y24431429D02*
X43221428Y23145714D01*
X43150000Y23002857D01*
X43007142Y22931429D01*
X42864285Y22931429D01*
X42364285Y22931429D02*
X42364285Y24431429D01*
X41721428Y22931429D02*
X41721428Y23717143D01*
X41792857Y23860000D01*
X41935714Y23931429D01*
X42149999Y23931429D01*
X42292857Y23860000D01*
X42364285Y23788571D01*
X40364285Y23931429D02*
X40364285Y22931429D01*
X41007142Y23931429D02*
X41007142Y23145714D01*
X40935714Y23002857D01*
X40792856Y22931429D01*
X40578571Y22931429D01*
X40435714Y23002857D01*
X40364285Y23074286D01*
X39649999Y22931429D02*
X39649999Y24431429D01*
X39649999Y23860000D02*
X39507142Y23931429D01*
X39221428Y23931429D01*
X39078571Y23860000D01*
X39007142Y23788571D01*
X38935713Y23645714D01*
X38935713Y23217143D01*
X39007142Y23074286D01*
X39078571Y23002857D01*
X39221428Y22931429D01*
X39507142Y22931429D01*
X39649999Y23002857D01*
X38292856Y23074286D02*
X38221428Y23002857D01*
X38292856Y22931429D01*
X38364285Y23002857D01*
X38292856Y23074286D01*
X38292856Y22931429D01*
X36935713Y23002857D02*
X37078570Y22931429D01*
X37364284Y22931429D01*
X37507142Y23002857D01*
X37578570Y23074286D01*
X37649999Y23217143D01*
X37649999Y23645714D01*
X37578570Y23788571D01*
X37507142Y23860000D01*
X37364284Y23931429D01*
X37078570Y23931429D01*
X36935713Y23860000D01*
X36078570Y22931429D02*
X36221428Y23002857D01*
X36292856Y23074286D01*
X36364285Y23217143D01*
X36364285Y23645714D01*
X36292856Y23788571D01*
X36221428Y23860000D01*
X36078570Y23931429D01*
X35864285Y23931429D01*
X35721428Y23860000D01*
X35649999Y23788571D01*
X35578570Y23645714D01*
X35578570Y23217143D01*
X35649999Y23074286D01*
X35721428Y23002857D01*
X35864285Y22931429D01*
X36078570Y22931429D01*
X34935713Y22931429D02*
X34935713Y23931429D01*
X34935713Y23788571D02*
X34864285Y23860000D01*
X34721427Y23931429D01*
X34507142Y23931429D01*
X34364285Y23860000D01*
X34292856Y23717143D01*
X34292856Y22931429D01*
X34292856Y23717143D02*
X34221427Y23860000D01*
X34078570Y23931429D01*
X33864285Y23931429D01*
X33721427Y23860000D01*
X33649999Y23717143D01*
X33649999Y22931429D01*
X31864285Y24502857D02*
X33149999Y22574286D01*
X30864284Y23717143D02*
X31364284Y23717143D01*
X31364284Y22931429D02*
X31364284Y24431429D01*
X30649998Y24431429D01*
X30078570Y22931429D02*
X30078570Y24431429D01*
X29507142Y24431429D01*
X29364284Y24360000D01*
X29292856Y24288571D01*
X29221427Y24145714D01*
X29221427Y23931429D01*
X29292856Y23788571D01*
X29364284Y23717143D01*
X29507142Y23645714D01*
X30078570Y23645714D01*
X27792856Y24360000D02*
X27935713Y24431429D01*
X28149999Y24431429D01*
X28364284Y24360000D01*
X28507142Y24217143D01*
X28578570Y24074286D01*
X28649999Y23788571D01*
X28649999Y23574286D01*
X28578570Y23288571D01*
X28507142Y23145714D01*
X28364284Y23002857D01*
X28149999Y22931429D01*
X28007142Y22931429D01*
X27792856Y23002857D01*
X27721427Y23074286D01*
X27721427Y23574286D01*
X28007142Y23574286D01*
X27149999Y23360000D02*
X26435713Y23360000D01*
X27292856Y22931429D02*
X26792856Y24431429D01*
X26292856Y22931429D01*
X25935713Y23931429D02*
X25649999Y22931429D01*
X25364285Y23645714D01*
X25078570Y22931429D01*
X24792856Y23931429D01*
X23578570Y22931429D02*
X23578570Y23717143D01*
X23649999Y23860000D01*
X23792856Y23931429D01*
X24078570Y23931429D01*
X24221427Y23860000D01*
X23578570Y23002857D02*
X23721427Y22931429D01*
X24078570Y22931429D01*
X24221427Y23002857D01*
X24292856Y23145714D01*
X24292856Y23288571D01*
X24221427Y23431429D01*
X24078570Y23502857D01*
X23721427Y23502857D01*
X23578570Y23574286D01*
X22864284Y22931429D02*
X22864284Y23931429D01*
X22864284Y23645714D02*
X22792856Y23788571D01*
X22721427Y23860000D01*
X22578570Y23931429D01*
X22435713Y23931429D01*
X22007142Y23002857D02*
X21864285Y22931429D01*
X21578570Y22931429D01*
X21435713Y23002857D01*
X21364285Y23145714D01*
X21364285Y23217143D01*
X21435713Y23360000D01*
X21578570Y23431429D01*
X21792856Y23431429D01*
X21935713Y23502857D01*
X22007142Y23645714D01*
X22007142Y23717143D01*
X21935713Y23860000D01*
X21792856Y23931429D01*
X21578570Y23931429D01*
X21435713Y23860000D01*
X19649999Y24502857D02*
X20935713Y22574286D01*
X19149998Y22931429D02*
X19149998Y23931429D01*
X19149998Y24431429D02*
X19221427Y24360000D01*
X19149998Y24288571D01*
X19078570Y24360000D01*
X19149998Y24431429D01*
X19149998Y24288571D01*
X17792855Y23002857D02*
X17935712Y22931429D01*
X18221426Y22931429D01*
X18364284Y23002857D01*
X18435712Y23074286D01*
X18507141Y23217143D01*
X18507141Y23645714D01*
X18435712Y23788571D01*
X18364284Y23860000D01*
X18221426Y23931429D01*
X17935712Y23931429D01*
X17792855Y23860000D01*
X16578570Y23002857D02*
X16721427Y22931429D01*
X17007141Y22931429D01*
X17149998Y23002857D01*
X17221427Y23145714D01*
X17221427Y23717143D01*
X17149998Y23860000D01*
X17007141Y23931429D01*
X16721427Y23931429D01*
X16578570Y23860000D01*
X16507141Y23717143D01*
X16507141Y23574286D01*
X17221427Y23431429D01*
X16007141Y23931429D02*
X15221427Y23931429D01*
X16007141Y22931429D01*
X15221427Y22931429D01*
X14007141Y23931429D02*
X14007141Y22931429D01*
X14649998Y23931429D02*
X14649998Y23145714D01*
X14578570Y23002857D01*
X14435712Y22931429D01*
X14221427Y22931429D01*
X14078570Y23002857D01*
X14007141Y23074286D01*
X13292855Y22931429D02*
X13292855Y23931429D01*
X13292855Y23788571D02*
X13221427Y23860000D01*
X13078569Y23931429D01*
X12864284Y23931429D01*
X12721427Y23860000D01*
X12649998Y23717143D01*
X12649998Y22931429D01*
X12649998Y23717143D02*
X12578569Y23860000D01*
X12435712Y23931429D01*
X12221427Y23931429D01*
X12078569Y23860000D01*
X12007141Y23717143D01*
X12007141Y22931429D01*
X54741429Y25551429D02*
X54741429Y27051429D01*
X54384286Y27051429D01*
X54170001Y26980000D01*
X54027143Y26837143D01*
X53955715Y26694286D01*
X53884286Y26408571D01*
X53884286Y26194286D01*
X53955715Y25908571D01*
X54027143Y25765714D01*
X54170001Y25622857D01*
X54384286Y25551429D01*
X54741429Y25551429D01*
X52670001Y25622857D02*
X52812858Y25551429D01*
X53098572Y25551429D01*
X53241429Y25622857D01*
X53312858Y25765714D01*
X53312858Y26337143D01*
X53241429Y26480000D01*
X53098572Y26551429D01*
X52812858Y26551429D01*
X52670001Y26480000D01*
X52598572Y26337143D01*
X52598572Y26194286D01*
X53312858Y26051429D01*
X52027144Y25622857D02*
X51884287Y25551429D01*
X51598572Y25551429D01*
X51455715Y25622857D01*
X51384287Y25765714D01*
X51384287Y25837143D01*
X51455715Y25980000D01*
X51598572Y26051429D01*
X51812858Y26051429D01*
X51955715Y26122857D01*
X52027144Y26265714D01*
X52027144Y26337143D01*
X51955715Y26480000D01*
X51812858Y26551429D01*
X51598572Y26551429D01*
X51455715Y26480000D01*
X50741429Y25551429D02*
X50741429Y26551429D01*
X50741429Y27051429D02*
X50812858Y26980000D01*
X50741429Y26908571D01*
X50670001Y26980000D01*
X50741429Y27051429D01*
X50741429Y26908571D01*
X49384286Y26551429D02*
X49384286Y25337143D01*
X49455715Y25194286D01*
X49527143Y25122857D01*
X49670000Y25051429D01*
X49884286Y25051429D01*
X50027143Y25122857D01*
X49384286Y25622857D02*
X49527143Y25551429D01*
X49812857Y25551429D01*
X49955715Y25622857D01*
X50027143Y25694286D01*
X50098572Y25837143D01*
X50098572Y26265714D01*
X50027143Y26408571D01*
X49955715Y26480000D01*
X49812857Y26551429D01*
X49527143Y26551429D01*
X49384286Y26480000D01*
X48670000Y26551429D02*
X48670000Y25551429D01*
X48670000Y26408571D02*
X48598572Y26480000D01*
X48455714Y26551429D01*
X48241429Y26551429D01*
X48098572Y26480000D01*
X48027143Y26337143D01*
X48027143Y25551429D01*
X46741429Y25622857D02*
X46884286Y25551429D01*
X47170000Y25551429D01*
X47312857Y25622857D01*
X47384286Y25765714D01*
X47384286Y26337143D01*
X47312857Y26480000D01*
X47170000Y26551429D01*
X46884286Y26551429D01*
X46741429Y26480000D01*
X46670000Y26337143D01*
X46670000Y26194286D01*
X47384286Y26051429D01*
X45384286Y25551429D02*
X45384286Y27051429D01*
X45384286Y25622857D02*
X45527143Y25551429D01*
X45812857Y25551429D01*
X45955715Y25622857D01*
X46027143Y25694286D01*
X46098572Y25837143D01*
X46098572Y26265714D01*
X46027143Y26408571D01*
X45955715Y26480000D01*
X45812857Y26551429D01*
X45527143Y26551429D01*
X45384286Y26480000D01*
X42884286Y25551429D02*
X42884286Y26337143D01*
X42955715Y26480000D01*
X43098572Y26551429D01*
X43384286Y26551429D01*
X43527143Y26480000D01*
X42884286Y25622857D02*
X43027143Y25551429D01*
X43384286Y25551429D01*
X43527143Y25622857D01*
X43598572Y25765714D01*
X43598572Y25908571D01*
X43527143Y26051429D01*
X43384286Y26122857D01*
X43027143Y26122857D01*
X42884286Y26194286D01*
X42170000Y26551429D02*
X42170000Y25551429D01*
X42170000Y26408571D02*
X42098572Y26480000D01*
X41955714Y26551429D01*
X41741429Y26551429D01*
X41598572Y26480000D01*
X41527143Y26337143D01*
X41527143Y25551429D01*
X40170000Y25551429D02*
X40170000Y27051429D01*
X40170000Y25622857D02*
X40312857Y25551429D01*
X40598571Y25551429D01*
X40741429Y25622857D01*
X40812857Y25694286D01*
X40884286Y25837143D01*
X40884286Y26265714D01*
X40812857Y26408571D01*
X40741429Y26480000D01*
X40598571Y26551429D01*
X40312857Y26551429D01*
X40170000Y26480000D01*
X37670000Y25551429D02*
X37670000Y26337143D01*
X37741429Y26480000D01*
X37884286Y26551429D01*
X38170000Y26551429D01*
X38312857Y26480000D01*
X37670000Y25622857D02*
X37812857Y25551429D01*
X38170000Y25551429D01*
X38312857Y25622857D01*
X38384286Y25765714D01*
X38384286Y25908571D01*
X38312857Y26051429D01*
X38170000Y26122857D01*
X37812857Y26122857D01*
X37670000Y26194286D01*
X37027143Y25622857D02*
X36884286Y25551429D01*
X36598571Y25551429D01*
X36455714Y25622857D01*
X36384286Y25765714D01*
X36384286Y25837143D01*
X36455714Y25980000D01*
X36598571Y26051429D01*
X36812857Y26051429D01*
X36955714Y26122857D01*
X37027143Y26265714D01*
X37027143Y26337143D01*
X36955714Y26480000D01*
X36812857Y26551429D01*
X36598571Y26551429D01*
X36455714Y26480000D01*
X35812857Y25622857D02*
X35670000Y25551429D01*
X35384285Y25551429D01*
X35241428Y25622857D01*
X35170000Y25765714D01*
X35170000Y25837143D01*
X35241428Y25980000D01*
X35384285Y26051429D01*
X35598571Y26051429D01*
X35741428Y26122857D01*
X35812857Y26265714D01*
X35812857Y26337143D01*
X35741428Y26480000D01*
X35598571Y26551429D01*
X35384285Y26551429D01*
X35241428Y26480000D01*
X33955714Y25622857D02*
X34098571Y25551429D01*
X34384285Y25551429D01*
X34527142Y25622857D01*
X34598571Y25765714D01*
X34598571Y26337143D01*
X34527142Y26480000D01*
X34384285Y26551429D01*
X34098571Y26551429D01*
X33955714Y26480000D01*
X33884285Y26337143D01*
X33884285Y26194286D01*
X34598571Y26051429D01*
X33241428Y25551429D02*
X33241428Y26551429D01*
X33241428Y26408571D02*
X33170000Y26480000D01*
X33027142Y26551429D01*
X32812857Y26551429D01*
X32670000Y26480000D01*
X32598571Y26337143D01*
X32598571Y25551429D01*
X32598571Y26337143D02*
X32527142Y26480000D01*
X32384285Y26551429D01*
X32170000Y26551429D01*
X32027142Y26480000D01*
X31955714Y26337143D01*
X31955714Y25551429D01*
X31241428Y25551429D02*
X31241428Y27051429D01*
X31241428Y26480000D02*
X31098571Y26551429D01*
X30812857Y26551429D01*
X30670000Y26480000D01*
X30598571Y26408571D01*
X30527142Y26265714D01*
X30527142Y25837143D01*
X30598571Y25694286D01*
X30670000Y25622857D01*
X30812857Y25551429D01*
X31098571Y25551429D01*
X31241428Y25622857D01*
X29669999Y25551429D02*
X29812857Y25622857D01*
X29884285Y25765714D01*
X29884285Y27051429D01*
X28527143Y25622857D02*
X28670000Y25551429D01*
X28955714Y25551429D01*
X29098571Y25622857D01*
X29170000Y25765714D01*
X29170000Y26337143D01*
X29098571Y26480000D01*
X28955714Y26551429D01*
X28670000Y26551429D01*
X28527143Y26480000D01*
X28455714Y26337143D01*
X28455714Y26194286D01*
X29170000Y26051429D01*
X27170000Y25551429D02*
X27170000Y27051429D01*
X27170000Y25622857D02*
X27312857Y25551429D01*
X27598571Y25551429D01*
X27741429Y25622857D01*
X27812857Y25694286D01*
X27884286Y25837143D01*
X27884286Y26265714D01*
X27812857Y26408571D01*
X27741429Y26480000D01*
X27598571Y26551429D01*
X27312857Y26551429D01*
X27170000Y26480000D01*
X25312857Y25551429D02*
X25312857Y26551429D01*
X25312857Y27051429D02*
X25384286Y26980000D01*
X25312857Y26908571D01*
X25241429Y26980000D01*
X25312857Y27051429D01*
X25312857Y26908571D01*
X24598571Y26551429D02*
X24598571Y25551429D01*
X24598571Y26408571D02*
X24527143Y26480000D01*
X24384285Y26551429D01*
X24170000Y26551429D01*
X24027143Y26480000D01*
X23955714Y26337143D01*
X23955714Y25551429D01*
X22170000Y25622857D02*
X21955714Y25551429D01*
X21598571Y25551429D01*
X21455714Y25622857D01*
X21384285Y25694286D01*
X21312857Y25837143D01*
X21312857Y25980000D01*
X21384285Y26122857D01*
X21455714Y26194286D01*
X21598571Y26265714D01*
X21884285Y26337143D01*
X22027143Y26408571D01*
X22098571Y26480000D01*
X22170000Y26622857D01*
X22170000Y26765714D01*
X22098571Y26908571D01*
X22027143Y26980000D01*
X21884285Y27051429D01*
X21527143Y27051429D01*
X21312857Y26980000D01*
X20670000Y26551429D02*
X20670000Y25051429D01*
X20670000Y26480000D02*
X20527143Y26551429D01*
X20241429Y26551429D01*
X20098572Y26480000D01*
X20027143Y26408571D01*
X19955714Y26265714D01*
X19955714Y25837143D01*
X20027143Y25694286D01*
X20098572Y25622857D01*
X20241429Y25551429D01*
X20527143Y25551429D01*
X20670000Y25622857D01*
X18670000Y25551429D02*
X18670000Y26337143D01*
X18741429Y26480000D01*
X18884286Y26551429D01*
X19170000Y26551429D01*
X19312857Y26480000D01*
X18670000Y25622857D02*
X18812857Y25551429D01*
X19170000Y25551429D01*
X19312857Y25622857D01*
X19384286Y25765714D01*
X19384286Y25908571D01*
X19312857Y26051429D01*
X19170000Y26122857D01*
X18812857Y26122857D01*
X18670000Y26194286D01*
X17955714Y25551429D02*
X17955714Y26551429D01*
X17955714Y27051429D02*
X18027143Y26980000D01*
X17955714Y26908571D01*
X17884286Y26980000D01*
X17955714Y27051429D01*
X17955714Y26908571D01*
X17241428Y26551429D02*
X17241428Y25551429D01*
X17241428Y26408571D02*
X17170000Y26480000D01*
X17027142Y26551429D01*
X16812857Y26551429D01*
X16670000Y26480000D01*
X16598571Y26337143D01*
X16598571Y25551429D01*
D14*
X51491428Y35230476D02*
X51158095Y37897143D01*
X50991428Y39230476D02*
X51205714Y39040000D01*
X51039047Y38849524D01*
X50824762Y39040000D01*
X50991428Y39230476D01*
X51039047Y38849524D01*
X47253333Y35611429D02*
X47467619Y35420952D01*
X48062857Y35230476D01*
X48443809Y35230476D01*
X48991428Y35420952D01*
X49324762Y35801905D01*
X49467619Y36182857D01*
X49562857Y36944762D01*
X49491428Y37516190D01*
X49205714Y38278095D01*
X48967619Y38659048D01*
X48539047Y39040000D01*
X47943809Y39230476D01*
X47562857Y39230476D01*
X47015238Y39040000D01*
X46848571Y38849524D01*
X45324762Y37325714D02*
X43991429Y37325714D01*
X43681904Y35230476D02*
X45586666Y35230476D01*
X45086666Y39230476D01*
X43181904Y39230476D01*
X41848570Y39230476D02*
X39181904Y39230476D01*
X42348570Y35230476D01*
X39681904Y35230476D01*
X37658094Y39230476D02*
X38062856Y35992381D01*
X37919999Y35611429D01*
X37753333Y35420952D01*
X37396189Y35230476D01*
X36634285Y35230476D01*
X36229523Y35420952D01*
X36015237Y35611429D01*
X35777142Y35992381D01*
X35372380Y39230476D01*
X33967618Y35230476D02*
X33467618Y39230476D01*
X32491428Y36373333D01*
X30800951Y39230476D01*
X31300951Y35230476D01*
X54396190Y30073333D02*
X52491428Y30073333D01*
X54920000Y28930476D02*
X53086666Y32930476D01*
X52253333Y28930476D01*
X50348571Y28930476D02*
X50705715Y29120952D01*
X50848572Y29501905D01*
X50420000Y32930476D01*
X48824762Y28930476D02*
X48324762Y32930476D01*
X47110476Y28930476D02*
X46848572Y31025714D01*
X46991430Y31406667D01*
X47348572Y31597143D01*
X47920000Y31597143D01*
X48324763Y31406667D01*
X48539048Y31216190D01*
X43491428Y28930476D02*
X43229524Y31025714D01*
X43372382Y31406667D01*
X43729524Y31597143D01*
X44491429Y31597143D01*
X44896191Y31406667D01*
X43467619Y29120952D02*
X43872381Y28930476D01*
X44824762Y28930476D01*
X45181905Y29120952D01*
X45324762Y29501905D01*
X45277143Y29882857D01*
X45039048Y30263810D01*
X44634286Y30454286D01*
X43681905Y30454286D01*
X43277143Y30644762D01*
X41586666Y28930476D02*
X41253333Y31597143D01*
X41300952Y31216190D02*
X41086667Y31406667D01*
X40681904Y31597143D01*
X40110476Y31597143D01*
X39753334Y31406667D01*
X39610476Y31025714D01*
X39872380Y28930476D01*
X39610476Y31025714D02*
X39372381Y31406667D01*
X38967619Y31597143D01*
X38396190Y31597143D01*
X38039048Y31406667D01*
X37896191Y31025714D01*
X38158095Y28930476D01*
X36253333Y28930476D02*
X35753333Y32930476D01*
X35943810Y31406667D02*
X35539048Y31597143D01*
X34777143Y31597143D01*
X34420001Y31406667D01*
X34253333Y31216190D01*
X34110476Y30835238D01*
X34253333Y29692381D01*
X34491428Y29311429D01*
X34705715Y29120952D01*
X35110476Y28930476D01*
X35872381Y28930476D01*
X36229524Y29120952D01*
X32634285Y28930476D02*
X32300952Y31597143D01*
X32396190Y30835238D02*
X32158095Y31216190D01*
X31943810Y31406667D01*
X31539047Y31597143D01*
X31158095Y31597143D01*
X28443809Y28930476D02*
X28181905Y31025714D01*
X28324763Y31406667D01*
X28681905Y31597143D01*
X29443810Y31597143D01*
X29848572Y31406667D01*
X28420000Y29120952D02*
X28824762Y28930476D01*
X29777143Y28930476D01*
X30134286Y29120952D01*
X30277143Y29501905D01*
X30229524Y29882857D01*
X29991429Y30263810D01*
X29586667Y30454286D01*
X28634286Y30454286D01*
X28229524Y30644762D01*
D12*
G36*
X2348858Y35115143D02*
X14794857Y35115143D01*
X14794857Y35205858D01*
X14758572Y35205858D01*
X14740429Y35187715D01*
X14722286Y35205858D01*
X2421429Y35205858D01*
X2403286Y35187715D01*
X2385143Y35205858D01*
X2403286Y35224000D01*
X2421429Y35205858D01*
X14722286Y35205858D01*
X14740429Y35224000D01*
X14758572Y35205858D01*
X14794857Y35205858D01*
X14794857Y40159725D01*
X13628407Y40159725D01*
X13625130Y40133066D01*
X13611582Y40082233D01*
X13582111Y39970745D01*
X13539229Y39808137D01*
X13485448Y39603944D01*
X13423282Y39367703D01*
X13355243Y39108947D01*
X13342390Y39060048D01*
X13077444Y38051952D01*
X12694903Y38062191D01*
X12312362Y38072429D01*
X12144792Y38761857D01*
X12089111Y38994792D01*
X12046426Y39169796D01*
X12012655Y39285406D01*
X11983719Y39340156D01*
X11955537Y39332582D01*
X11924030Y39261219D01*
X11885116Y39124602D01*
X11834716Y38921267D01*
X11768750Y38649747D01*
X11762581Y38624641D01*
X11621663Y38051997D01*
X10863257Y38072429D01*
X10692666Y38715698D01*
X10014541Y38715698D01*
X9987656Y38490842D01*
X9906179Y38300916D01*
X9775017Y38156110D01*
X9730202Y38125128D01*
X9517583Y38024707D01*
X9302005Y37989700D01*
X9067622Y38018218D01*
X8995450Y38037632D01*
X8815330Y38117537D01*
X8680436Y38220270D01*
X8553715Y38346991D01*
X8553715Y38054286D01*
X7858152Y38054286D01*
X7870621Y38843500D01*
X7875264Y39106034D01*
X7880503Y39306779D01*
X7887378Y39456519D01*
X7896932Y39566035D01*
X7910206Y39646109D01*
X7928242Y39707524D01*
X7952080Y39761062D01*
X7960871Y39777858D01*
X8064443Y39937508D01*
X8187589Y40055500D01*
X8342168Y40137548D01*
X8540042Y40189368D01*
X8593555Y40195143D01*
X7247429Y40195143D01*
X7247429Y38054286D01*
X6563995Y38054286D01*
X6551926Y38680215D01*
X6546809Y38910766D01*
X6540637Y39081176D01*
X6531870Y39203873D01*
X6518965Y39291286D01*
X6500379Y39355842D01*
X6474570Y39409971D01*
X6457894Y39437945D01*
X6344574Y39565489D01*
X6194155Y39638489D01*
X6001076Y39658639D01*
X5805072Y39636556D01*
X5650857Y39608193D01*
X5650857Y39651126D01*
X5456422Y39651126D01*
X5450855Y39437742D01*
X5436068Y39371433D01*
X5358859Y39208161D01*
X5222312Y39076168D01*
X5024171Y38974154D01*
X4762179Y38900822D01*
X4562286Y38868635D01*
X4394462Y38843300D01*
X4286785Y38813558D01*
X4226870Y38772635D01*
X4202333Y38713758D01*
X4199429Y38670190D01*
X4210364Y38591843D01*
X4256134Y38540868D01*
X4335500Y38501680D01*
X4484315Y38467639D01*
X4678795Y38464578D01*
X4899654Y38491102D01*
X5127607Y38545817D01*
X5180618Y38562783D01*
X5295463Y38600504D01*
X5380384Y38626593D01*
X5413856Y38634857D01*
X5423404Y38601651D01*
X5430301Y38514331D01*
X5433133Y38391342D01*
X5433143Y38383303D01*
X5432714Y38268607D01*
X5423736Y38189307D01*
X5394675Y38136524D01*
X5333998Y38101383D01*
X5230169Y38075005D01*
X5071656Y38048513D01*
X4979572Y38034215D01*
X4769291Y38004276D01*
X4604508Y37989562D01*
X4459862Y37989618D01*
X4309995Y38003992D01*
X4200734Y38020318D01*
X3947609Y38084500D01*
X3755129Y38186303D01*
X3620547Y38328023D01*
X3541115Y38511954D01*
X3526324Y38583629D01*
X3524279Y38766804D01*
X3568810Y38947682D01*
X3651844Y39099072D01*
X3692756Y39144097D01*
X3810943Y39221799D01*
X3991676Y39291082D01*
X4238482Y39353080D01*
X4481469Y39397488D01*
X4671622Y39438109D01*
X4791519Y39488484D01*
X4843046Y39550506D01*
X4828092Y39626066D01*
X4775239Y39691905D01*
X4731075Y39729283D01*
X4679221Y39750486D01*
X4601559Y39758192D01*
X4479969Y39755079D01*
X4385167Y39749559D01*
X4208153Y39730832D01*
X4028323Y39699474D01*
X3880769Y39661779D01*
X3863786Y39656038D01*
X3655143Y39582195D01*
X3655143Y40117427D01*
X3863786Y40165355D01*
X3986436Y40184840D01*
X4157083Y40200512D01*
X4351183Y40210546D01*
X4507857Y40213285D01*
X4701708Y40211659D01*
X4840937Y40205121D01*
X4943456Y40191185D01*
X5027174Y40167362D01*
X5110002Y40131166D01*
X5114275Y40129069D01*
X5283189Y40008425D01*
X5398886Y39845232D01*
X5456422Y39651126D01*
X5650857Y39651126D01*
X5650857Y40231429D01*
X5823215Y40231227D01*
X6055476Y40209717D01*
X6245307Y40141461D01*
X6410670Y40019952D01*
X6413231Y40017524D01*
X6558000Y39879808D01*
X6558000Y40195143D01*
X7247429Y40195143D01*
X8593555Y40195143D01*
X8793071Y40216674D01*
X8880286Y40220894D01*
X9103275Y40222432D01*
X9325829Y40211990D01*
X9514205Y40191265D01*
X9533429Y40188077D01*
X9805572Y40140715D01*
X9816324Y39873116D01*
X9820366Y39736773D01*
X9816777Y39659462D01*
X9802518Y39627787D01*
X9774548Y39628354D01*
X9761896Y39633289D01*
X9464796Y39722259D01*
X9128241Y39753929D01*
X9031358Y39752517D01*
X8880043Y39745171D01*
X8782064Y39732773D01*
X8718187Y39709761D01*
X8669179Y39670578D01*
X8641287Y39639762D01*
X8580522Y39562983D01*
X8557273Y39508785D01*
X8578672Y39472323D01*
X8651855Y39448750D01*
X8783956Y39433221D01*
X8961929Y39421966D01*
X9204121Y39405124D01*
X9389317Y39381929D01*
X9533037Y39348856D01*
X9650802Y39302378D01*
X9753450Y39242141D01*
X9897795Y39109308D01*
X9983380Y38941263D01*
X10014333Y38729682D01*
X10014541Y38715698D01*
X10692666Y38715698D01*
X10598631Y39070286D01*
X10530158Y39330506D01*
X10468185Y39569899D01*
X10415104Y39778911D01*
X10373308Y39947990D01*
X10345188Y40067583D01*
X10333137Y40128136D01*
X10332860Y40131643D01*
X10340374Y40162190D01*
X10373259Y40181121D01*
X10445013Y40191104D01*
X10569134Y40194810D01*
X10653941Y40195143D01*
X10976167Y40195143D01*
X11335065Y38761857D01*
X11680333Y40195143D01*
X12251446Y40195143D01*
X12283689Y40077215D01*
X12303337Y40001868D01*
X12336427Y39871227D01*
X12379150Y39700489D01*
X12427694Y39504850D01*
X12456202Y39389261D01*
X12504348Y39199359D01*
X12547817Y39038617D01*
X12583342Y38918284D01*
X12607660Y38849610D01*
X12616166Y38838196D01*
X12630688Y38877816D01*
X12659248Y38976629D01*
X12698789Y39123301D01*
X12746258Y39306494D01*
X12798597Y39514872D01*
X12799143Y39517078D01*
X12962429Y40177000D01*
X13302676Y40187494D01*
X13461172Y40191283D01*
X13559849Y40189343D01*
X13611373Y40179536D01*
X13628407Y40159725D01*
X14794857Y40159725D01*
X14794857Y44876000D01*
X13452286Y44876000D01*
X13452286Y42372286D01*
X12799143Y42372286D01*
X12799143Y43424572D01*
X11783143Y43424572D01*
X11783143Y43932572D01*
X12799143Y43932572D01*
X12799143Y44368000D01*
X11710572Y44368000D01*
X11710572Y44876000D01*
X11130000Y44876000D01*
X11130000Y42372286D01*
X10440572Y42372286D01*
X10440572Y43243143D01*
X10101624Y43243143D01*
X9801810Y43258276D01*
X9561090Y43305909D01*
X9372097Y43389392D01*
X9227465Y43512076D01*
X9142130Y43643075D01*
X8717000Y43643075D01*
X8707639Y43396014D01*
X8678189Y43202662D01*
X8650943Y43108152D01*
X8535620Y42881705D01*
X8362465Y42679316D01*
X8145024Y42511939D01*
X7896846Y42390526D01*
X7695540Y42335649D01*
X7465318Y42315095D01*
X7197814Y42324504D01*
X6920592Y42361264D01*
X6814553Y42386406D01*
X6050000Y42386406D01*
X6016418Y42380107D01*
X5926351Y42377205D01*
X5795821Y42378010D01*
X5717293Y42379996D01*
X5384585Y42390429D01*
X5314801Y42600048D01*
X5245016Y42809666D01*
X4734271Y42799619D01*
X4223525Y42789572D01*
X4154025Y42580929D01*
X4084524Y42372286D01*
X3760977Y42372286D01*
X3617896Y42375539D01*
X3507203Y42384247D01*
X3445158Y42396835D01*
X3437429Y42403642D01*
X3449631Y42443807D01*
X3484334Y42544080D01*
X3538689Y42696569D01*
X3609843Y42893385D01*
X3694944Y43126635D01*
X3791142Y43388428D01*
X3886520Y43646427D01*
X4335611Y44857857D01*
X5134955Y44878303D01*
X5171186Y44777366D01*
X5192250Y44719771D01*
X5235283Y44602974D01*
X5297016Y44435816D01*
X5374180Y44227137D01*
X5463508Y43985778D01*
X5561730Y43720579D01*
X5628709Y43539839D01*
X5729071Y43268590D01*
X5820877Y43019527D01*
X5901195Y42800684D01*
X5967089Y42620094D01*
X6015626Y42485789D01*
X6043872Y42405802D01*
X6050000Y42386406D01*
X6814553Y42386406D01*
X6661221Y42422761D01*
X6612429Y42438297D01*
X6322143Y42535572D01*
X6322143Y43769286D01*
X7338143Y43769286D01*
X7338143Y43333858D01*
X6957143Y43311922D01*
X6957143Y43081843D01*
X6961822Y42946207D01*
X6978106Y42867860D01*
X7009367Y42831991D01*
X7014540Y42829740D01*
X7109752Y42812080D01*
X7247554Y42807690D01*
X7399432Y42815301D01*
X7536877Y42833644D01*
X7621090Y42856738D01*
X7755688Y42942973D01*
X7881667Y43074514D01*
X7976698Y43225401D01*
X8007247Y43305651D01*
X8042603Y43524091D01*
X8035807Y43750510D01*
X7990390Y43963898D01*
X7909884Y44143245D01*
X7853988Y44217540D01*
X7701920Y44332416D01*
X7504219Y44405902D01*
X7275366Y44437260D01*
X7029844Y44425753D01*
X6782135Y44370644D01*
X6568874Y44282938D01*
X6486989Y44243173D01*
X6436336Y44223357D01*
X6432802Y44222858D01*
X6423181Y44256152D01*
X6416106Y44344090D01*
X6412918Y44468755D01*
X6412858Y44489488D01*
X6412858Y44756119D01*
X6603358Y44817882D01*
X6941628Y44899373D01*
X7279580Y44927991D01*
X7605412Y44905291D01*
X7907321Y44832830D01*
X8173505Y44712165D01*
X8345982Y44588013D01*
X8431359Y44493588D01*
X8523679Y44361667D01*
X8598326Y44229613D01*
X8655101Y44107956D01*
X8690231Y44007643D01*
X8708831Y43903388D01*
X8716019Y43769906D01*
X8717000Y43643075D01*
X9142130Y43643075D01*
X9119828Y43677310D01*
X9112298Y43693104D01*
X9037509Y43932292D01*
X9035272Y44172068D01*
X9105586Y44411324D01*
X9112298Y44426039D01*
X9184075Y44557295D01*
X9269352Y44661213D01*
X9376871Y44740739D01*
X9515372Y44798824D01*
X9693597Y44838414D01*
X9920286Y44862458D01*
X10204181Y44873904D01*
X10446339Y44876000D01*
X11130000Y44876000D01*
X11710572Y44876000D01*
X13452286Y44876000D01*
X14794857Y44876000D01*
X14794857Y47434143D01*
X14758572Y47434143D01*
X14740429Y47416000D01*
X14722286Y47434143D01*
X2421429Y47434143D01*
X2403286Y47416000D01*
X2385143Y47434143D01*
X2403286Y47452286D01*
X2421429Y47434143D01*
X14722286Y47434143D01*
X14740429Y47452286D01*
X14758572Y47434143D01*
X14794857Y47434143D01*
X14794857Y47524857D01*
X2348858Y47524857D01*
X2348858Y35115143D01*
X2348858Y35115143D01*
G37*
X2348858Y35115143D02*
X14794857Y35115143D01*
X14794857Y35205858D01*
X14758572Y35205858D01*
X14740429Y35187715D01*
X14722286Y35205858D01*
X2421429Y35205858D01*
X2403286Y35187715D01*
X2385143Y35205858D01*
X2403286Y35224000D01*
X2421429Y35205858D01*
X14722286Y35205858D01*
X14740429Y35224000D01*
X14758572Y35205858D01*
X14794857Y35205858D01*
X14794857Y40159725D01*
X13628407Y40159725D01*
X13625130Y40133066D01*
X13611582Y40082233D01*
X13582111Y39970745D01*
X13539229Y39808137D01*
X13485448Y39603944D01*
X13423282Y39367703D01*
X13355243Y39108947D01*
X13342390Y39060048D01*
X13077444Y38051952D01*
X12694903Y38062191D01*
X12312362Y38072429D01*
X12144792Y38761857D01*
X12089111Y38994792D01*
X12046426Y39169796D01*
X12012655Y39285406D01*
X11983719Y39340156D01*
X11955537Y39332582D01*
X11924030Y39261219D01*
X11885116Y39124602D01*
X11834716Y38921267D01*
X11768750Y38649747D01*
X11762581Y38624641D01*
X11621663Y38051997D01*
X10863257Y38072429D01*
X10692666Y38715698D01*
X10014541Y38715698D01*
X9987656Y38490842D01*
X9906179Y38300916D01*
X9775017Y38156110D01*
X9730202Y38125128D01*
X9517583Y38024707D01*
X9302005Y37989700D01*
X9067622Y38018218D01*
X8995450Y38037632D01*
X8815330Y38117537D01*
X8680436Y38220270D01*
X8553715Y38346991D01*
X8553715Y38054286D01*
X7858152Y38054286D01*
X7870621Y38843500D01*
X7875264Y39106034D01*
X7880503Y39306779D01*
X7887378Y39456519D01*
X7896932Y39566035D01*
X7910206Y39646109D01*
X7928242Y39707524D01*
X7952080Y39761062D01*
X7960871Y39777858D01*
X8064443Y39937508D01*
X8187589Y40055500D01*
X8342168Y40137548D01*
X8540042Y40189368D01*
X8593555Y40195143D01*
X7247429Y40195143D01*
X7247429Y38054286D01*
X6563995Y38054286D01*
X6551926Y38680215D01*
X6546809Y38910766D01*
X6540637Y39081176D01*
X6531870Y39203873D01*
X6518965Y39291286D01*
X6500379Y39355842D01*
X6474570Y39409971D01*
X6457894Y39437945D01*
X6344574Y39565489D01*
X6194155Y39638489D01*
X6001076Y39658639D01*
X5805072Y39636556D01*
X5650857Y39608193D01*
X5650857Y39651126D01*
X5456422Y39651126D01*
X5450855Y39437742D01*
X5436068Y39371433D01*
X5358859Y39208161D01*
X5222312Y39076168D01*
X5024171Y38974154D01*
X4762179Y38900822D01*
X4562286Y38868635D01*
X4394462Y38843300D01*
X4286785Y38813558D01*
X4226870Y38772635D01*
X4202333Y38713758D01*
X4199429Y38670190D01*
X4210364Y38591843D01*
X4256134Y38540868D01*
X4335500Y38501680D01*
X4484315Y38467639D01*
X4678795Y38464578D01*
X4899654Y38491102D01*
X5127607Y38545817D01*
X5180618Y38562783D01*
X5295463Y38600504D01*
X5380384Y38626593D01*
X5413856Y38634857D01*
X5423404Y38601651D01*
X5430301Y38514331D01*
X5433133Y38391342D01*
X5433143Y38383303D01*
X5432714Y38268607D01*
X5423736Y38189307D01*
X5394675Y38136524D01*
X5333998Y38101383D01*
X5230169Y38075005D01*
X5071656Y38048513D01*
X4979572Y38034215D01*
X4769291Y38004276D01*
X4604508Y37989562D01*
X4459862Y37989618D01*
X4309995Y38003992D01*
X4200734Y38020318D01*
X3947609Y38084500D01*
X3755129Y38186303D01*
X3620547Y38328023D01*
X3541115Y38511954D01*
X3526324Y38583629D01*
X3524279Y38766804D01*
X3568810Y38947682D01*
X3651844Y39099072D01*
X3692756Y39144097D01*
X3810943Y39221799D01*
X3991676Y39291082D01*
X4238482Y39353080D01*
X4481469Y39397488D01*
X4671622Y39438109D01*
X4791519Y39488484D01*
X4843046Y39550506D01*
X4828092Y39626066D01*
X4775239Y39691905D01*
X4731075Y39729283D01*
X4679221Y39750486D01*
X4601559Y39758192D01*
X4479969Y39755079D01*
X4385167Y39749559D01*
X4208153Y39730832D01*
X4028323Y39699474D01*
X3880769Y39661779D01*
X3863786Y39656038D01*
X3655143Y39582195D01*
X3655143Y40117427D01*
X3863786Y40165355D01*
X3986436Y40184840D01*
X4157083Y40200512D01*
X4351183Y40210546D01*
X4507857Y40213285D01*
X4701708Y40211659D01*
X4840937Y40205121D01*
X4943456Y40191185D01*
X5027174Y40167362D01*
X5110002Y40131166D01*
X5114275Y40129069D01*
X5283189Y40008425D01*
X5398886Y39845232D01*
X5456422Y39651126D01*
X5650857Y39651126D01*
X5650857Y40231429D01*
X5823215Y40231227D01*
X6055476Y40209717D01*
X6245307Y40141461D01*
X6410670Y40019952D01*
X6413231Y40017524D01*
X6558000Y39879808D01*
X6558000Y40195143D01*
X7247429Y40195143D01*
X8593555Y40195143D01*
X8793071Y40216674D01*
X8880286Y40220894D01*
X9103275Y40222432D01*
X9325829Y40211990D01*
X9514205Y40191265D01*
X9533429Y40188077D01*
X9805572Y40140715D01*
X9816324Y39873116D01*
X9820366Y39736773D01*
X9816777Y39659462D01*
X9802518Y39627787D01*
X9774548Y39628354D01*
X9761896Y39633289D01*
X9464796Y39722259D01*
X9128241Y39753929D01*
X9031358Y39752517D01*
X8880043Y39745171D01*
X8782064Y39732773D01*
X8718187Y39709761D01*
X8669179Y39670578D01*
X8641287Y39639762D01*
X8580522Y39562983D01*
X8557273Y39508785D01*
X8578672Y39472323D01*
X8651855Y39448750D01*
X8783956Y39433221D01*
X8961929Y39421966D01*
X9204121Y39405124D01*
X9389317Y39381929D01*
X9533037Y39348856D01*
X9650802Y39302378D01*
X9753450Y39242141D01*
X9897795Y39109308D01*
X9983380Y38941263D01*
X10014333Y38729682D01*
X10014541Y38715698D01*
X10692666Y38715698D01*
X10598631Y39070286D01*
X10530158Y39330506D01*
X10468185Y39569899D01*
X10415104Y39778911D01*
X10373308Y39947990D01*
X10345188Y40067583D01*
X10333137Y40128136D01*
X10332860Y40131643D01*
X10340374Y40162190D01*
X10373259Y40181121D01*
X10445013Y40191104D01*
X10569134Y40194810D01*
X10653941Y40195143D01*
X10976167Y40195143D01*
X11335065Y38761857D01*
X11680333Y40195143D01*
X12251446Y40195143D01*
X12283689Y40077215D01*
X12303337Y40001868D01*
X12336427Y39871227D01*
X12379150Y39700489D01*
X12427694Y39504850D01*
X12456202Y39389261D01*
X12504348Y39199359D01*
X12547817Y39038617D01*
X12583342Y38918284D01*
X12607660Y38849610D01*
X12616166Y38838196D01*
X12630688Y38877816D01*
X12659248Y38976629D01*
X12698789Y39123301D01*
X12746258Y39306494D01*
X12798597Y39514872D01*
X12799143Y39517078D01*
X12962429Y40177000D01*
X13302676Y40187494D01*
X13461172Y40191283D01*
X13559849Y40189343D01*
X13611373Y40179536D01*
X13628407Y40159725D01*
X14794857Y40159725D01*
X14794857Y44876000D01*
X13452286Y44876000D01*
X13452286Y42372286D01*
X12799143Y42372286D01*
X12799143Y43424572D01*
X11783143Y43424572D01*
X11783143Y43932572D01*
X12799143Y43932572D01*
X12799143Y44368000D01*
X11710572Y44368000D01*
X11710572Y44876000D01*
X11130000Y44876000D01*
X11130000Y42372286D01*
X10440572Y42372286D01*
X10440572Y43243143D01*
X10101624Y43243143D01*
X9801810Y43258276D01*
X9561090Y43305909D01*
X9372097Y43389392D01*
X9227465Y43512076D01*
X9142130Y43643075D01*
X8717000Y43643075D01*
X8707639Y43396014D01*
X8678189Y43202662D01*
X8650943Y43108152D01*
X8535620Y42881705D01*
X8362465Y42679316D01*
X8145024Y42511939D01*
X7896846Y42390526D01*
X7695540Y42335649D01*
X7465318Y42315095D01*
X7197814Y42324504D01*
X6920592Y42361264D01*
X6814553Y42386406D01*
X6050000Y42386406D01*
X6016418Y42380107D01*
X5926351Y42377205D01*
X5795821Y42378010D01*
X5717293Y42379996D01*
X5384585Y42390429D01*
X5314801Y42600048D01*
X5245016Y42809666D01*
X4734271Y42799619D01*
X4223525Y42789572D01*
X4154025Y42580929D01*
X4084524Y42372286D01*
X3760977Y42372286D01*
X3617896Y42375539D01*
X3507203Y42384247D01*
X3445158Y42396835D01*
X3437429Y42403642D01*
X3449631Y42443807D01*
X3484334Y42544080D01*
X3538689Y42696569D01*
X3609843Y42893385D01*
X3694944Y43126635D01*
X3791142Y43388428D01*
X3886520Y43646427D01*
X4335611Y44857857D01*
X5134955Y44878303D01*
X5171186Y44777366D01*
X5192250Y44719771D01*
X5235283Y44602974D01*
X5297016Y44435816D01*
X5374180Y44227137D01*
X5463508Y43985778D01*
X5561730Y43720579D01*
X5628709Y43539839D01*
X5729071Y43268590D01*
X5820877Y43019527D01*
X5901195Y42800684D01*
X5967089Y42620094D01*
X6015626Y42485789D01*
X6043872Y42405802D01*
X6050000Y42386406D01*
X6814553Y42386406D01*
X6661221Y42422761D01*
X6612429Y42438297D01*
X6322143Y42535572D01*
X6322143Y43769286D01*
X7338143Y43769286D01*
X7338143Y43333858D01*
X6957143Y43311922D01*
X6957143Y43081843D01*
X6961822Y42946207D01*
X6978106Y42867860D01*
X7009367Y42831991D01*
X7014540Y42829740D01*
X7109752Y42812080D01*
X7247554Y42807690D01*
X7399432Y42815301D01*
X7536877Y42833644D01*
X7621090Y42856738D01*
X7755688Y42942973D01*
X7881667Y43074514D01*
X7976698Y43225401D01*
X8007247Y43305651D01*
X8042603Y43524091D01*
X8035807Y43750510D01*
X7990390Y43963898D01*
X7909884Y44143245D01*
X7853988Y44217540D01*
X7701920Y44332416D01*
X7504219Y44405902D01*
X7275366Y44437260D01*
X7029844Y44425753D01*
X6782135Y44370644D01*
X6568874Y44282938D01*
X6486989Y44243173D01*
X6436336Y44223357D01*
X6432802Y44222858D01*
X6423181Y44256152D01*
X6416106Y44344090D01*
X6412918Y44468755D01*
X6412858Y44489488D01*
X6412858Y44756119D01*
X6603358Y44817882D01*
X6941628Y44899373D01*
X7279580Y44927991D01*
X7605412Y44905291D01*
X7907321Y44832830D01*
X8173505Y44712165D01*
X8345982Y44588013D01*
X8431359Y44493588D01*
X8523679Y44361667D01*
X8598326Y44229613D01*
X8655101Y44107956D01*
X8690231Y44007643D01*
X8708831Y43903388D01*
X8716019Y43769906D01*
X8717000Y43643075D01*
X9142130Y43643075D01*
X9119828Y43677310D01*
X9112298Y43693104D01*
X9037509Y43932292D01*
X9035272Y44172068D01*
X9105586Y44411324D01*
X9112298Y44426039D01*
X9184075Y44557295D01*
X9269352Y44661213D01*
X9376871Y44740739D01*
X9515372Y44798824D01*
X9693597Y44838414D01*
X9920286Y44862458D01*
X10204181Y44873904D01*
X10446339Y44876000D01*
X11130000Y44876000D01*
X11710572Y44876000D01*
X13452286Y44876000D01*
X14794857Y44876000D01*
X14794857Y47434143D01*
X14758572Y47434143D01*
X14740429Y47416000D01*
X14722286Y47434143D01*
X2421429Y47434143D01*
X2403286Y47416000D01*
X2385143Y47434143D01*
X2403286Y47452286D01*
X2421429Y47434143D01*
X14722286Y47434143D01*
X14740429Y47452286D01*
X14758572Y47434143D01*
X14794857Y47434143D01*
X14794857Y47524857D01*
X2348858Y47524857D01*
X2348858Y35115143D01*
G36*
X8569723Y38869329D02*
X8632318Y38684528D01*
X8740644Y38555630D01*
X8832109Y38502907D01*
X8981898Y38460126D01*
X9110852Y38471382D01*
X9134286Y38479171D01*
X9243134Y38550576D01*
X9304854Y38654994D01*
X9314459Y38771957D01*
X9266962Y38880997D01*
X9239360Y38910448D01*
X9180764Y38947747D01*
X9093199Y38972015D01*
X8959843Y38986833D01*
X8853586Y38992563D01*
X8544167Y39005554D01*
X8569723Y38869329D01*
X8569723Y38869329D01*
G37*
X8569723Y38869329D02*
X8632318Y38684528D01*
X8740644Y38555630D01*
X8832109Y38502907D01*
X8981898Y38460126D01*
X9110852Y38471382D01*
X9134286Y38479171D01*
X9243134Y38550576D01*
X9304854Y38654994D01*
X9314459Y38771957D01*
X9266962Y38880997D01*
X9239360Y38910448D01*
X9180764Y38947747D01*
X9093199Y38972015D01*
X8959843Y38986833D01*
X8853586Y38992563D01*
X8544167Y39005554D01*
X8569723Y38869329D01*
G36*
X10164510Y44398278D02*
X10019350Y44388370D01*
X9926015Y44372244D01*
X9863762Y44343335D01*
X9811844Y44295077D01*
X9801653Y44283431D01*
X9727798Y44147580D01*
X9720939Y44001242D01*
X9781077Y43861826D01*
X9801653Y43835713D01*
X9853937Y43783128D01*
X9912695Y43751115D01*
X9998674Y43733108D01*
X10132617Y43722540D01*
X10164510Y43720866D01*
X10440572Y43706925D01*
X10440572Y44412218D01*
X10164510Y44398278D01*
X10164510Y44398278D01*
G37*
X10164510Y44398278D02*
X10019350Y44388370D01*
X9926015Y44372244D01*
X9863762Y44343335D01*
X9811844Y44295077D01*
X9801653Y44283431D01*
X9727798Y44147580D01*
X9720939Y44001242D01*
X9781077Y43861826D01*
X9801653Y43835713D01*
X9853937Y43783128D01*
X9912695Y43751115D01*
X9998674Y43733108D01*
X10132617Y43722540D01*
X10164510Y43720866D01*
X10440572Y43706925D01*
X10440572Y44412218D01*
X10164510Y44398278D01*
G36*
X4739465Y44174514D02*
X4702674Y44105661D01*
X4652611Y43992037D01*
X4594159Y43845664D01*
X4532197Y43678566D01*
X4471607Y43502767D01*
X4437707Y43397358D01*
X4428514Y43358810D01*
X4438780Y43334828D01*
X4481327Y43321955D01*
X4568978Y43316738D01*
X4714555Y43315719D01*
X4740683Y43315715D01*
X5069113Y43315715D01*
X4924220Y43723929D01*
X4865643Y43888529D01*
X4814604Y44031144D01*
X4776749Y44136056D01*
X4758103Y44186572D01*
X4739465Y44174514D01*
X4739465Y44174514D01*
G37*
X4739465Y44174514D02*
X4702674Y44105661D01*
X4652611Y43992037D01*
X4594159Y43845664D01*
X4532197Y43678566D01*
X4471607Y43502767D01*
X4437707Y43397358D01*
X4428514Y43358810D01*
X4438780Y43334828D01*
X4481327Y43321955D01*
X4568978Y43316738D01*
X4714555Y43315719D01*
X4740683Y43315715D01*
X5069113Y43315715D01*
X4924220Y43723929D01*
X4865643Y43888529D01*
X4814604Y44031144D01*
X4776749Y44136056D01*
X4758103Y44186572D01*
X4739465Y44174514D01*
G36*
X41650809Y12900507D02*
X41543153Y12900062D01*
X41463078Y12898857D01*
X41406231Y12896516D01*
X41368261Y12892660D01*
X41344813Y12886911D01*
X41331537Y12878891D01*
X41324079Y12868223D01*
X41320315Y12859750D01*
X41312176Y12830559D01*
X41298875Y12771338D01*
X41281576Y12687784D01*
X41261443Y12585597D01*
X41239639Y12470477D01*
X41228767Y12411454D01*
X41206767Y12293187D01*
X41186052Y12186093D01*
X41167739Y12095617D01*
X41152946Y12027205D01*
X41142790Y11986305D01*
X41139760Y11977799D01*
X41119860Y11964271D01*
X41072723Y11940226D01*
X41004872Y11908447D01*
X40922831Y11871719D01*
X40833123Y11832826D01*
X40742269Y11794553D01*
X40656794Y11759683D01*
X40583220Y11731001D01*
X40528071Y11711291D01*
X40497868Y11703338D01*
X40496664Y11703293D01*
X40476692Y11713209D01*
X40431202Y11741005D01*
X40364492Y11783886D01*
X40280862Y11839058D01*
X40184613Y11903724D01*
X40105972Y11957293D01*
X40003054Y12027276D01*
X39909529Y12089872D01*
X39829690Y12142288D01*
X39767829Y12181732D01*
X39728242Y12205410D01*
X39715706Y12211143D01*
X39696280Y12198633D01*
X39656319Y12164000D01*
X39600113Y12111587D01*
X39531947Y12045740D01*
X39456110Y11970801D01*
X39376890Y11891116D01*
X39298573Y11811028D01*
X39225448Y11734881D01*
X39161801Y11667021D01*
X39111922Y11611791D01*
X39080096Y11573535D01*
X39070429Y11557346D01*
X39078751Y11534307D01*
X39104247Y11488674D01*
X39147713Y11419224D01*
X39209945Y11324735D01*
X39291741Y11203985D01*
X39393894Y11055751D01*
X39444292Y10983236D01*
X39491064Y10913784D01*
X39528811Y10853367D01*
X39553227Y10809163D01*
X39560286Y10789821D01*
X39553424Y10766728D01*
X39534661Y10716912D01*
X39506734Y10646853D01*
X39472376Y10563032D01*
X39434325Y10471930D01*
X39395316Y10380027D01*
X39358083Y10293802D01*
X39325363Y10219737D01*
X39299892Y10164311D01*
X39284404Y10134005D01*
X39282066Y10130733D01*
X39262300Y10124872D01*
X39211911Y10113514D01*
X39135971Y10097699D01*
X39039550Y10078465D01*
X38927719Y10056853D01*
X38852134Y10042578D01*
X38732116Y10019905D01*
X38623281Y9998957D01*
X38530951Y9980790D01*
X38460450Y9966459D01*
X38417100Y9957022D01*
X38406316Y9954139D01*
X38398347Y9945292D01*
X38392172Y9923049D01*
X38387585Y9883574D01*
X38384381Y9823030D01*
X38382352Y9737578D01*
X38381294Y9623383D01*
X38381000Y9482435D01*
X38381169Y9340519D01*
X38381864Y9230696D01*
X38383367Y9148774D01*
X38385961Y9090560D01*
X38389927Y9051864D01*
X38395549Y9028492D01*
X38403108Y9016254D01*
X38412750Y9010996D01*
X38444195Y9003695D01*
X38501286Y8992204D01*
X38573917Y8978523D01*
X38607786Y8972398D01*
X38784569Y8940456D01*
X38928466Y8913527D01*
X39042431Y8890950D01*
X39129415Y8872061D01*
X39192373Y8856199D01*
X39234257Y8842699D01*
X39258021Y8830901D01*
X39264272Y8825119D01*
X39276716Y8801096D01*
X39299482Y8750311D01*
X39329968Y8679159D01*
X39365575Y8594031D01*
X39403699Y8501322D01*
X39441739Y8407425D01*
X39477094Y8318733D01*
X39507164Y8241639D01*
X39529345Y8182536D01*
X39541037Y8147818D01*
X39542195Y8142106D01*
X39532320Y8123736D01*
X39504660Y8079946D01*
X39462115Y8015126D01*
X39407585Y7933668D01*
X39343973Y7839962D01*
X39306286Y7784971D01*
X39238650Y7685185D01*
X39178588Y7593860D01*
X39129039Y7515688D01*
X39092940Y7455359D01*
X39073228Y7417565D01*
X39070429Y7408330D01*
X39083048Y7385806D01*
X39118900Y7341531D01*
X39174978Y7278817D01*
X39248272Y7200972D01*
X39335775Y7111309D01*
X39386162Y7060845D01*
X39484728Y6963147D01*
X39561121Y6888456D01*
X39618714Y6834011D01*
X39660880Y6797052D01*
X39690992Y6774815D01*
X39712424Y6764541D01*
X39728548Y6763468D01*
X39742737Y6768833D01*
X39742803Y6768868D01*
X39769724Y6785503D01*
X39821332Y6819340D01*
X39892479Y6866930D01*
X39978019Y6924825D01*
X40072802Y6989574D01*
X40097167Y7006310D01*
X40191867Y7070708D01*
X40277288Y7127431D01*
X40348661Y7173423D01*
X40401219Y7205628D01*
X40430193Y7220989D01*
X40433511Y7221858D01*
X40458569Y7213930D01*
X40507564Y7192584D01*
X40572415Y7161476D01*
X40617958Y7138416D01*
X40690766Y7103095D01*
X40749086Y7079222D01*
X40786269Y7069328D01*
X40795412Y7070869D01*
X40806104Y7091067D01*
X40828715Y7140581D01*
X40861406Y7215150D01*
X40902339Y7310515D01*
X40949673Y7422415D01*
X41001570Y7546589D01*
X41021346Y7594275D01*
X41079404Y7734471D01*
X41137807Y7875345D01*
X41193763Y8010169D01*
X41244477Y8132215D01*
X41287154Y8234754D01*
X41319002Y8311060D01*
X41321121Y8316124D01*
X41355077Y8399057D01*
X41383142Y8471085D01*
X41402608Y8525003D01*
X41410767Y8553602D01*
X41410858Y8554924D01*
X41396991Y8576520D01*
X41360309Y8611386D01*
X41308183Y8652660D01*
X41297465Y8660430D01*
X41139195Y8791236D01*
X41015194Y8933303D01*
X40924945Y9087561D01*
X40867933Y9254940D01*
X40843642Y9436370D01*
X40842628Y9480643D01*
X40857746Y9662092D01*
X40905131Y9828806D01*
X40985962Y9983730D01*
X41101414Y10129813D01*
X41102318Y10130780D01*
X41237964Y10250707D01*
X41389225Y10340223D01*
X41551641Y10399147D01*
X41720750Y10427293D01*
X41892091Y10424477D01*
X42061204Y10390517D01*
X42223628Y10325228D01*
X42374901Y10228427D01*
X42426314Y10185342D01*
X42552576Y10049331D01*
X42646064Y9897797D01*
X42706516Y9731327D01*
X42733670Y9550507D01*
X42735286Y9491615D01*
X42722350Y9310354D01*
X42682202Y9147840D01*
X42612832Y9000300D01*
X42512231Y8863959D01*
X42378391Y8735043D01*
X42299446Y8672981D01*
X42242244Y8627800D01*
X42198495Y8587962D01*
X42175033Y8559913D01*
X42172858Y8553586D01*
X42179583Y8531303D01*
X42198689Y8479588D01*
X42228573Y8402491D01*
X42267630Y8304064D01*
X42314256Y8188355D01*
X42366847Y8059417D01*
X42411066Y7952053D01*
X42470059Y7809310D01*
X42527061Y7671203D01*
X42579958Y7542862D01*
X42626639Y7429421D01*
X42664991Y7336009D01*
X42692902Y7267759D01*
X42704170Y7240000D01*
X42738485Y7156194D01*
X42765755Y7102707D01*
X42793432Y7076593D01*
X42828969Y7074907D01*
X42879819Y7094705D01*
X42953433Y7133041D01*
X42962551Y7137896D01*
X43032324Y7173804D01*
X43091526Y7202047D01*
X43131995Y7218844D01*
X43143891Y7221858D01*
X43165039Y7212014D01*
X43211490Y7184411D01*
X43278715Y7141941D01*
X43362182Y7087497D01*
X43457359Y7023972D01*
X43513363Y6986000D01*
X43612402Y6918845D01*
X43701490Y6859131D01*
X43776258Y6809728D01*
X43832336Y6773510D01*
X43865354Y6753349D01*
X43872167Y6750143D01*
X43888065Y6762411D01*
X43925926Y6796888D01*
X43982096Y6850086D01*
X44052922Y6918513D01*
X44134749Y6998681D01*
X44199147Y7062429D01*
X44286454Y7150469D01*
X44364434Y7231492D01*
X44429540Y7301620D01*
X44478229Y7356971D01*
X44506954Y7393666D01*
X44513286Y7406258D01*
X44503329Y7429751D01*
X44475422Y7478241D01*
X44432514Y7547061D01*
X44377551Y7631544D01*
X44313482Y7727023D01*
X44277962Y7778865D01*
X44210460Y7877612D01*
X44150474Y7967115D01*
X44100940Y8042846D01*
X44064798Y8100279D01*
X44044982Y8134886D01*
X44042105Y8142391D01*
X44048584Y8168170D01*
X44066756Y8220794D01*
X44093994Y8293765D01*
X44127673Y8380586D01*
X44165167Y8474760D01*
X44203850Y8569790D01*
X44241097Y8659178D01*
X44274283Y8736428D01*
X44300780Y8795042D01*
X44317965Y8828524D01*
X44321204Y8833012D01*
X44345070Y8842959D01*
X44399296Y8857803D01*
X44478474Y8876314D01*
X44577198Y8897263D01*
X44690064Y8919421D01*
X44750767Y8930689D01*
X44868671Y8952740D01*
X44975154Y8973767D01*
X45064819Y8992614D01*
X45132269Y9008126D01*
X45172107Y9019145D01*
X45180036Y9022649D01*
X45187932Y9046340D01*
X45194314Y9099737D01*
X45199196Y9176869D01*
X45202593Y9271763D01*
X45204520Y9378449D01*
X45204993Y9490955D01*
X45204026Y9603311D01*
X45201633Y9709543D01*
X45197831Y9803683D01*
X45192634Y9879757D01*
X45186056Y9931794D01*
X45178114Y9953824D01*
X45177705Y9954022D01*
X45153389Y9959953D01*
X45098699Y9971399D01*
X45018950Y9987309D01*
X44919457Y10006633D01*
X44805533Y10028320D01*
X44731542Y10042202D01*
X44612152Y10065003D01*
X44504671Y10086529D01*
X44414248Y10105667D01*
X44346037Y10121303D01*
X44305188Y10132325D01*
X44295858Y10136357D01*
X44282129Y10160139D01*
X44257965Y10210799D01*
X44226154Y10281688D01*
X44189482Y10366160D01*
X44150736Y10457565D01*
X44112703Y10549256D01*
X44078170Y10634584D01*
X44049923Y10706903D01*
X44030749Y10759563D01*
X44023436Y10785917D01*
X44023429Y10786241D01*
X44033351Y10809799D01*
X44061176Y10858444D01*
X44103991Y10927540D01*
X44158883Y11012452D01*
X44222942Y11108545D01*
X44261651Y11165394D01*
X44330066Y11265956D01*
X44391611Y11358010D01*
X44443244Y11436876D01*
X44481922Y11497875D01*
X44504605Y11536327D01*
X44509157Y11546159D01*
X44505175Y11564474D01*
X44484890Y11595850D01*
X44446243Y11642637D01*
X44387175Y11707186D01*
X44305624Y11791849D01*
X44203094Y11895409D01*
X44115009Y11982717D01*
X44034571Y12060767D01*
X43965532Y12126053D01*
X43911647Y12175067D01*
X43876668Y12204304D01*
X43865165Y12211143D01*
X43844461Y12201214D01*
X43798430Y12173331D01*
X43731469Y12130351D01*
X43647976Y12075128D01*
X43552350Y12010519D01*
X43483971Y11963601D01*
X43382287Y11893876D01*
X43289492Y11831125D01*
X43210070Y11778311D01*
X43148504Y11738394D01*
X43109278Y11714336D01*
X43097844Y11708593D01*
X43073173Y11712851D01*
X43021832Y11728825D01*
X42950482Y11753890D01*
X42865785Y11785426D01*
X42774405Y11820809D01*
X42683002Y11857416D01*
X42598240Y11892626D01*
X42526780Y11923815D01*
X42475285Y11948361D01*
X42450724Y11963332D01*
X42441560Y11986379D01*
X42427184Y12040028D01*
X42408747Y12119157D01*
X42387404Y12218645D01*
X42364306Y12333371D01*
X42346652Y12425651D01*
X42323464Y12548052D01*
X42301951Y12658774D01*
X42283137Y12752767D01*
X42268049Y12824978D01*
X42257710Y12870355D01*
X42253679Y12883758D01*
X42233127Y12888604D01*
X42180730Y12892842D01*
X42100925Y12896311D01*
X41998151Y12898848D01*
X41876845Y12900294D01*
X41790398Y12900572D01*
X41650809Y12900507D01*
X41650809Y12900507D01*
G37*
X41650809Y12900507D02*
X41543153Y12900062D01*
X41463078Y12898857D01*
X41406231Y12896516D01*
X41368261Y12892660D01*
X41344813Y12886911D01*
X41331537Y12878891D01*
X41324079Y12868223D01*
X41320315Y12859750D01*
X41312176Y12830559D01*
X41298875Y12771338D01*
X41281576Y12687784D01*
X41261443Y12585597D01*
X41239639Y12470477D01*
X41228767Y12411454D01*
X41206767Y12293187D01*
X41186052Y12186093D01*
X41167739Y12095617D01*
X41152946Y12027205D01*
X41142790Y11986305D01*
X41139760Y11977799D01*
X41119860Y11964271D01*
X41072723Y11940226D01*
X41004872Y11908447D01*
X40922831Y11871719D01*
X40833123Y11832826D01*
X40742269Y11794553D01*
X40656794Y11759683D01*
X40583220Y11731001D01*
X40528071Y11711291D01*
X40497868Y11703338D01*
X40496664Y11703293D01*
X40476692Y11713209D01*
X40431202Y11741005D01*
X40364492Y11783886D01*
X40280862Y11839058D01*
X40184613Y11903724D01*
X40105972Y11957293D01*
X40003054Y12027276D01*
X39909529Y12089872D01*
X39829690Y12142288D01*
X39767829Y12181732D01*
X39728242Y12205410D01*
X39715706Y12211143D01*
X39696280Y12198633D01*
X39656319Y12164000D01*
X39600113Y12111587D01*
X39531947Y12045740D01*
X39456110Y11970801D01*
X39376890Y11891116D01*
X39298573Y11811028D01*
X39225448Y11734881D01*
X39161801Y11667021D01*
X39111922Y11611791D01*
X39080096Y11573535D01*
X39070429Y11557346D01*
X39078751Y11534307D01*
X39104247Y11488674D01*
X39147713Y11419224D01*
X39209945Y11324735D01*
X39291741Y11203985D01*
X39393894Y11055751D01*
X39444292Y10983236D01*
X39491064Y10913784D01*
X39528811Y10853367D01*
X39553227Y10809163D01*
X39560286Y10789821D01*
X39553424Y10766728D01*
X39534661Y10716912D01*
X39506734Y10646853D01*
X39472376Y10563032D01*
X39434325Y10471930D01*
X39395316Y10380027D01*
X39358083Y10293802D01*
X39325363Y10219737D01*
X39299892Y10164311D01*
X39284404Y10134005D01*
X39282066Y10130733D01*
X39262300Y10124872D01*
X39211911Y10113514D01*
X39135971Y10097699D01*
X39039550Y10078465D01*
X38927719Y10056853D01*
X38852134Y10042578D01*
X38732116Y10019905D01*
X38623281Y9998957D01*
X38530951Y9980790D01*
X38460450Y9966459D01*
X38417100Y9957022D01*
X38406316Y9954139D01*
X38398347Y9945292D01*
X38392172Y9923049D01*
X38387585Y9883574D01*
X38384381Y9823030D01*
X38382352Y9737578D01*
X38381294Y9623383D01*
X38381000Y9482435D01*
X38381169Y9340519D01*
X38381864Y9230696D01*
X38383367Y9148774D01*
X38385961Y9090560D01*
X38389927Y9051864D01*
X38395549Y9028492D01*
X38403108Y9016254D01*
X38412750Y9010996D01*
X38444195Y9003695D01*
X38501286Y8992204D01*
X38573917Y8978523D01*
X38607786Y8972398D01*
X38784569Y8940456D01*
X38928466Y8913527D01*
X39042431Y8890950D01*
X39129415Y8872061D01*
X39192373Y8856199D01*
X39234257Y8842699D01*
X39258021Y8830901D01*
X39264272Y8825119D01*
X39276716Y8801096D01*
X39299482Y8750311D01*
X39329968Y8679159D01*
X39365575Y8594031D01*
X39403699Y8501322D01*
X39441739Y8407425D01*
X39477094Y8318733D01*
X39507164Y8241639D01*
X39529345Y8182536D01*
X39541037Y8147818D01*
X39542195Y8142106D01*
X39532320Y8123736D01*
X39504660Y8079946D01*
X39462115Y8015126D01*
X39407585Y7933668D01*
X39343973Y7839962D01*
X39306286Y7784971D01*
X39238650Y7685185D01*
X39178588Y7593860D01*
X39129039Y7515688D01*
X39092940Y7455359D01*
X39073228Y7417565D01*
X39070429Y7408330D01*
X39083048Y7385806D01*
X39118900Y7341531D01*
X39174978Y7278817D01*
X39248272Y7200972D01*
X39335775Y7111309D01*
X39386162Y7060845D01*
X39484728Y6963147D01*
X39561121Y6888456D01*
X39618714Y6834011D01*
X39660880Y6797052D01*
X39690992Y6774815D01*
X39712424Y6764541D01*
X39728548Y6763468D01*
X39742737Y6768833D01*
X39742803Y6768868D01*
X39769724Y6785503D01*
X39821332Y6819340D01*
X39892479Y6866930D01*
X39978019Y6924825D01*
X40072802Y6989574D01*
X40097167Y7006310D01*
X40191867Y7070708D01*
X40277288Y7127431D01*
X40348661Y7173423D01*
X40401219Y7205628D01*
X40430193Y7220989D01*
X40433511Y7221858D01*
X40458569Y7213930D01*
X40507564Y7192584D01*
X40572415Y7161476D01*
X40617958Y7138416D01*
X40690766Y7103095D01*
X40749086Y7079222D01*
X40786269Y7069328D01*
X40795412Y7070869D01*
X40806104Y7091067D01*
X40828715Y7140581D01*
X40861406Y7215150D01*
X40902339Y7310515D01*
X40949673Y7422415D01*
X41001570Y7546589D01*
X41021346Y7594275D01*
X41079404Y7734471D01*
X41137807Y7875345D01*
X41193763Y8010169D01*
X41244477Y8132215D01*
X41287154Y8234754D01*
X41319002Y8311060D01*
X41321121Y8316124D01*
X41355077Y8399057D01*
X41383142Y8471085D01*
X41402608Y8525003D01*
X41410767Y8553602D01*
X41410858Y8554924D01*
X41396991Y8576520D01*
X41360309Y8611386D01*
X41308183Y8652660D01*
X41297465Y8660430D01*
X41139195Y8791236D01*
X41015194Y8933303D01*
X40924945Y9087561D01*
X40867933Y9254940D01*
X40843642Y9436370D01*
X40842628Y9480643D01*
X40857746Y9662092D01*
X40905131Y9828806D01*
X40985962Y9983730D01*
X41101414Y10129813D01*
X41102318Y10130780D01*
X41237964Y10250707D01*
X41389225Y10340223D01*
X41551641Y10399147D01*
X41720750Y10427293D01*
X41892091Y10424477D01*
X42061204Y10390517D01*
X42223628Y10325228D01*
X42374901Y10228427D01*
X42426314Y10185342D01*
X42552576Y10049331D01*
X42646064Y9897797D01*
X42706516Y9731327D01*
X42733670Y9550507D01*
X42735286Y9491615D01*
X42722350Y9310354D01*
X42682202Y9147840D01*
X42612832Y9000300D01*
X42512231Y8863959D01*
X42378391Y8735043D01*
X42299446Y8672981D01*
X42242244Y8627800D01*
X42198495Y8587962D01*
X42175033Y8559913D01*
X42172858Y8553586D01*
X42179583Y8531303D01*
X42198689Y8479588D01*
X42228573Y8402491D01*
X42267630Y8304064D01*
X42314256Y8188355D01*
X42366847Y8059417D01*
X42411066Y7952053D01*
X42470059Y7809310D01*
X42527061Y7671203D01*
X42579958Y7542862D01*
X42626639Y7429421D01*
X42664991Y7336009D01*
X42692902Y7267759D01*
X42704170Y7240000D01*
X42738485Y7156194D01*
X42765755Y7102707D01*
X42793432Y7076593D01*
X42828969Y7074907D01*
X42879819Y7094705D01*
X42953433Y7133041D01*
X42962551Y7137896D01*
X43032324Y7173804D01*
X43091526Y7202047D01*
X43131995Y7218844D01*
X43143891Y7221858D01*
X43165039Y7212014D01*
X43211490Y7184411D01*
X43278715Y7141941D01*
X43362182Y7087497D01*
X43457359Y7023972D01*
X43513363Y6986000D01*
X43612402Y6918845D01*
X43701490Y6859131D01*
X43776258Y6809728D01*
X43832336Y6773510D01*
X43865354Y6753349D01*
X43872167Y6750143D01*
X43888065Y6762411D01*
X43925926Y6796888D01*
X43982096Y6850086D01*
X44052922Y6918513D01*
X44134749Y6998681D01*
X44199147Y7062429D01*
X44286454Y7150469D01*
X44364434Y7231492D01*
X44429540Y7301620D01*
X44478229Y7356971D01*
X44506954Y7393666D01*
X44513286Y7406258D01*
X44503329Y7429751D01*
X44475422Y7478241D01*
X44432514Y7547061D01*
X44377551Y7631544D01*
X44313482Y7727023D01*
X44277962Y7778865D01*
X44210460Y7877612D01*
X44150474Y7967115D01*
X44100940Y8042846D01*
X44064798Y8100279D01*
X44044982Y8134886D01*
X44042105Y8142391D01*
X44048584Y8168170D01*
X44066756Y8220794D01*
X44093994Y8293765D01*
X44127673Y8380586D01*
X44165167Y8474760D01*
X44203850Y8569790D01*
X44241097Y8659178D01*
X44274283Y8736428D01*
X44300780Y8795042D01*
X44317965Y8828524D01*
X44321204Y8833012D01*
X44345070Y8842959D01*
X44399296Y8857803D01*
X44478474Y8876314D01*
X44577198Y8897263D01*
X44690064Y8919421D01*
X44750767Y8930689D01*
X44868671Y8952740D01*
X44975154Y8973767D01*
X45064819Y8992614D01*
X45132269Y9008126D01*
X45172107Y9019145D01*
X45180036Y9022649D01*
X45187932Y9046340D01*
X45194314Y9099737D01*
X45199196Y9176869D01*
X45202593Y9271763D01*
X45204520Y9378449D01*
X45204993Y9490955D01*
X45204026Y9603311D01*
X45201633Y9709543D01*
X45197831Y9803683D01*
X45192634Y9879757D01*
X45186056Y9931794D01*
X45178114Y9953824D01*
X45177705Y9954022D01*
X45153389Y9959953D01*
X45098699Y9971399D01*
X45018950Y9987309D01*
X44919457Y10006633D01*
X44805533Y10028320D01*
X44731542Y10042202D01*
X44612152Y10065003D01*
X44504671Y10086529D01*
X44414248Y10105667D01*
X44346037Y10121303D01*
X44305188Y10132325D01*
X44295858Y10136357D01*
X44282129Y10160139D01*
X44257965Y10210799D01*
X44226154Y10281688D01*
X44189482Y10366160D01*
X44150736Y10457565D01*
X44112703Y10549256D01*
X44078170Y10634584D01*
X44049923Y10706903D01*
X44030749Y10759563D01*
X44023436Y10785917D01*
X44023429Y10786241D01*
X44033351Y10809799D01*
X44061176Y10858444D01*
X44103991Y10927540D01*
X44158883Y11012452D01*
X44222942Y11108545D01*
X44261651Y11165394D01*
X44330066Y11265956D01*
X44391611Y11358010D01*
X44443244Y11436876D01*
X44481922Y11497875D01*
X44504605Y11536327D01*
X44509157Y11546159D01*
X44505175Y11564474D01*
X44484890Y11595850D01*
X44446243Y11642637D01*
X44387175Y11707186D01*
X44305624Y11791849D01*
X44203094Y11895409D01*
X44115009Y11982717D01*
X44034571Y12060767D01*
X43965532Y12126053D01*
X43911647Y12175067D01*
X43876668Y12204304D01*
X43865165Y12211143D01*
X43844461Y12201214D01*
X43798430Y12173331D01*
X43731469Y12130351D01*
X43647976Y12075128D01*
X43552350Y12010519D01*
X43483971Y11963601D01*
X43382287Y11893876D01*
X43289492Y11831125D01*
X43210070Y11778311D01*
X43148504Y11738394D01*
X43109278Y11714336D01*
X43097844Y11708593D01*
X43073173Y11712851D01*
X43021832Y11728825D01*
X42950482Y11753890D01*
X42865785Y11785426D01*
X42774405Y11820809D01*
X42683002Y11857416D01*
X42598240Y11892626D01*
X42526780Y11923815D01*
X42475285Y11948361D01*
X42450724Y11963332D01*
X42441560Y11986379D01*
X42427184Y12040028D01*
X42408747Y12119157D01*
X42387404Y12218645D01*
X42364306Y12333371D01*
X42346652Y12425651D01*
X42323464Y12548052D01*
X42301951Y12658774D01*
X42283137Y12752767D01*
X42268049Y12824978D01*
X42257710Y12870355D01*
X42253679Y12883758D01*
X42233127Y12888604D01*
X42180730Y12892842D01*
X42100925Y12896311D01*
X41998151Y12898848D01*
X41876845Y12900294D01*
X41790398Y12900572D01*
X41650809Y12900507D01*
D15*
G36*
X25987361Y2180000D02*
X25557000Y1642048D01*
X25557000Y2717951D01*
X25987361Y2180000D01*
X25987361Y2180000D01*
G37*
X25987361Y2180000D02*
X25557000Y1642048D01*
X25557000Y2717951D01*
X25987361Y2180000D01*
G36*
X17213000Y1626650D02*
X16799267Y2170414D01*
X17213000Y2720089D01*
X17213000Y1626650D01*
X17213000Y1626650D01*
G37*
X17213000Y1626650D02*
X16799267Y2170414D01*
X17213000Y2720089D01*
X17213000Y1626650D01*
M02*
