%TF.GenerationSoftware,KiCad,Pcbnew,no-vcs-found-e5c4cfc~61~ubuntu16.04.1*%
%TF.CreationDate,2017-11-03T17:54:14+01:00*%
%TF.ProjectId,icezum,6963657A756D2E6B696361645F706362,V1.1K*%
%TF.SameCoordinates,PX5c0c740PY87a6900*%
%TF.FileFunction,Soldermask,Top*%
%TF.FilePolarity,Negative*%
%FSLAX46Y46*%
G04 Gerber Fmt 4.6, Leading zero omitted, Abs format (unit mm)*
G04 Created by KiCad (PCBNEW no-vcs-found-e5c4cfc~61~ubuntu16.04.1) date Fri Nov  3 17:54:14 2017*
%MOMM*%
%LPD*%
G01*
G04 APERTURE LIST*
%ADD10C,3.350000*%
%ADD11C,0.890000*%
%ADD12R,2.702700X2.194700*%
%ADD13O,0.850000X0.450000*%
%ADD14O,0.450000X0.850000*%
%ADD15R,1.851800X1.851800*%
%ADD16O,0.429400X1.000900*%
%ADD17O,1.000900X0.429400*%
%ADD18O,0.998360X0.429400*%
%ADD19R,1.000900X0.429400*%
%ADD20R,0.429400X1.000900*%
%ADD21R,3.198000X2.194700*%
%ADD22R,1.750200X2.397900*%
%ADD23R,0.797700X0.454800*%
%ADD24C,0.950000*%
%ADD25C,1.150000*%
%ADD26R,1.750000X1.150000*%
%ADD27C,0.790000*%
%ADD28R,1.166000X1.547000*%
%ADD29R,1.050000X0.950000*%
%ADD30R,0.950100X0.950100*%
%ADD31R,1.650000X1.650000*%
%ADD32C,1.650000*%
%ADD33R,1.750200X2.258200*%
%ADD34R,1.496200X0.556400*%
%ADD35R,2.055000X1.953400*%
%ADD36R,2.055000X2.055000*%
%ADD37C,4.770000*%
%ADD38C,5.530000*%
%ADD39R,1.520000X1.520000*%
%ADD40C,1.520000*%
%ADD41R,1.166000X1.356500*%
%ADD42O,1.953400X0.594500*%
%ADD43R,0.658000X0.454800*%
%ADD44R,1.547000X1.166000*%
%ADD45R,0.710000X0.840000*%
%ADD46R,2.385200X2.385200*%
%ADD47R,0.797700X0.556400*%
%ADD48R,1.445400X1.851800*%
%ADD49O,0.950100X0.429400*%
%ADD50O,0.429400X0.950100*%
%ADD51R,4.645800X4.645800*%
%ADD52R,3.845700X1.127900*%
%ADD53O,1.800000X0.450000*%
%ADD54O,0.450000X1.800000*%
%ADD55R,0.899300X0.429400*%
%ADD56R,0.840000X0.710000*%
%ADD57C,1.690000*%
%ADD58C,2.080000*%
%ADD59R,0.950100X1.039000*%
%ADD60R,1.039000X0.950100*%
%ADD61R,1.267600X1.420000*%
%ADD62R,1.267600X1.394600*%
%ADD63R,1.343800X1.775600*%
%ADD64R,1.343800X1.750200*%
%ADD65R,1.775600X1.343800*%
%ADD66R,1.750200X1.343800*%
%ADD67R,0.810400X0.962800*%
%ADD68R,0.962800X0.810400*%
%ADD69R,0.658000X0.607200*%
%ADD70R,0.607200X0.658000*%
%ADD71C,3.000000*%
%ADD72R,1.150000X1.650000*%
%ADD73R,1.770000X1.340000*%
%ADD74C,0.100000*%
%ADD75C,0.594500*%
%ADD76R,3.756800X4.455300*%
G04 APERTURE END LIST*
D10*
%TO.C,REF\002A\002A*%
X66203000Y7765000D03*
%TD*%
%TO.C,REF\002A\002A*%
X66203000Y35705000D03*
%TD*%
%TO.C,REF\002A\002A*%
X15403000Y50945000D03*
%TD*%
%TO.C,REF\002A\002A*%
X13977000Y2540000D03*
%TD*%
D11*
%TO.C,U6*%
X25558700Y41977900D03*
X23998700Y41977900D03*
X25558700Y42997900D03*
X23998700Y42997900D03*
D12*
X24778700Y42487900D03*
D13*
X22828700Y41737900D03*
D14*
X23528700Y40657900D03*
X24028700Y40657900D03*
X24528700Y40657900D03*
X25028700Y40657900D03*
X25528700Y40657900D03*
X26028700Y40657900D03*
D13*
X26728700Y41737900D03*
X22828700Y43237900D03*
X26728700Y43237900D03*
D14*
X26028700Y44317900D03*
X25528700Y44317900D03*
X25028700Y44317900D03*
X24528700Y44317900D03*
X24028700Y44317900D03*
X23528700Y44317900D03*
%TD*%
D11*
%TO.C,U12*%
X20941000Y12508000D03*
X21901000Y12508000D03*
X20941000Y11548000D03*
X21901000Y11548000D03*
X21421000Y12028000D03*
D15*
X21421000Y12028000D03*
D16*
X22170300Y10547180D03*
X21675000Y10547180D03*
X21167000Y10547180D03*
X20671700Y10547180D03*
D17*
X19940180Y11278700D03*
X19940180Y11774000D03*
X19940180Y12282000D03*
X19940180Y12777300D03*
D16*
X20671700Y13508820D03*
X21167000Y13513900D03*
X21675000Y13508820D03*
X22170300Y13508820D03*
D17*
X22901820Y12777300D03*
X22901820Y12282000D03*
X22901820Y11774000D03*
D18*
X22901820Y11278700D03*
%TD*%
D11*
%TO.C,U7*%
X56758800Y25707900D03*
X55798800Y25707900D03*
X56758800Y26667900D03*
X55798800Y26667900D03*
X56278800Y26187900D03*
D15*
X56278800Y26187900D03*
D16*
X55529500Y27668720D03*
X56024800Y27668720D03*
X56532800Y27668720D03*
X57028100Y27668720D03*
D17*
X57759620Y26937200D03*
X57759620Y26441900D03*
X57759620Y25933900D03*
X57759620Y25438600D03*
D16*
X57028100Y24707080D03*
X56532800Y24702000D03*
X56024800Y24707080D03*
X55529500Y24707080D03*
D17*
X54797980Y25438600D03*
X54797980Y25933900D03*
X54797980Y26441900D03*
D18*
X54797980Y26937200D03*
%TD*%
D11*
%TO.C,U8*%
X54907000Y17657000D03*
X56007000Y17657000D03*
X57107000Y17657000D03*
X54907000Y16543000D03*
X56007000Y16543000D03*
X57107000Y16543000D03*
D19*
X58229500Y17849300D03*
D20*
X57759600Y18814500D03*
X57251600Y18814500D03*
X56756300Y18814500D03*
X56254650Y18814500D03*
X55759350Y18814500D03*
X55257700Y18814500D03*
D19*
X53784500Y17849300D03*
X58229500Y16350700D03*
X53784500Y16350700D03*
D20*
X55257700Y15385500D03*
X55759350Y15385500D03*
X56254650Y15385500D03*
X56756300Y15385500D03*
X57251600Y15385500D03*
X57759600Y15385500D03*
X54762400Y18814500D03*
X54254400Y18814500D03*
X54254400Y15385500D03*
X54762400Y15385500D03*
D21*
X56007000Y17100000D03*
%TD*%
D11*
%TO.C,U9*%
X57678800Y34830900D03*
X56578800Y34830900D03*
X55478800Y34830900D03*
X57678800Y35944900D03*
X56578800Y35944900D03*
X55478800Y35944900D03*
D19*
X54356300Y34638600D03*
D20*
X54826200Y33673400D03*
X55334200Y33673400D03*
X55829500Y33673400D03*
X56331150Y33673400D03*
X56826450Y33673400D03*
X57328100Y33673400D03*
D19*
X58801300Y34638600D03*
X54356300Y36137200D03*
X58801300Y36137200D03*
D20*
X57328100Y37102400D03*
X56826450Y37102400D03*
X56331150Y37102400D03*
X55829500Y37102400D03*
X55334200Y37102400D03*
X54826200Y37102400D03*
X57823400Y33673400D03*
X58331400Y33673400D03*
X58331400Y37102400D03*
X57823400Y37102400D03*
D21*
X56578800Y35387900D03*
%TD*%
D11*
%TO.C,U10*%
X30810200Y13426200D03*
X30810200Y12126200D03*
D22*
X30810200Y12776200D03*
D23*
X29438600Y11804650D03*
X29438600Y12452350D03*
X29438600Y13100050D03*
X29438600Y13747750D03*
X32181800Y13747750D03*
X32181800Y13100050D03*
X32181800Y12452350D03*
X32181800Y11804650D03*
%TD*%
D24*
%TO.C,SW1*%
X2510200Y52384200D03*
X6560200Y52384200D03*
D25*
X2510200Y52384200D03*
D26*
X2635200Y52284200D03*
X6435200Y52284200D03*
X2635200Y50884200D03*
X6435200Y50884200D03*
D25*
X6560200Y52384200D03*
%TD*%
D24*
%TO.C,SW2*%
X8310200Y52384200D03*
X12360200Y52384200D03*
D25*
X8310200Y52384200D03*
D26*
X8435200Y52284200D03*
X12235200Y52284200D03*
X8435200Y50884200D03*
X12235200Y50884200D03*
D25*
X12360200Y52384200D03*
%TD*%
D11*
%TO.C,TP7*%
X3046000Y20438000D03*
%TD*%
%TO.C,TP4*%
X34819100Y11187900D03*
%TD*%
%TO.C,TP1*%
X4107000Y20999000D03*
%TD*%
%TO.C,TP2*%
X34607000Y12399000D03*
%TD*%
%TO.C,TP3*%
X33607000Y11199000D03*
%TD*%
D27*
%TO.C,TP5*%
X36382000Y7000000D03*
%TD*%
D11*
%TO.C,TP6*%
X14732000Y13217000D03*
%TD*%
%TO.C,TP8*%
X23357000Y33100000D03*
%TD*%
D28*
%TO.C,U13*%
X28520000Y5939240D03*
X30420000Y5939240D03*
X29470000Y8184600D03*
%TD*%
D29*
%TO.C,C22*%
X6201000Y31284000D03*
X6201000Y32664000D03*
%TD*%
D30*
%TO.C,LD0*%
X3707100Y38300000D03*
X2106900Y38300000D03*
%TD*%
%TO.C,LD1*%
X3707100Y39800000D03*
X2106900Y39800000D03*
%TD*%
%TO.C,LD2*%
X3707100Y41300000D03*
X2106900Y41300000D03*
%TD*%
%TO.C,LD3*%
X3707100Y42800000D03*
X2106900Y42800000D03*
%TD*%
%TO.C,LD4*%
X3707100Y44300000D03*
X2106900Y44300000D03*
%TD*%
%TO.C,LD5*%
X3707100Y45800000D03*
X2106900Y45800000D03*
%TD*%
%TO.C,LD6*%
X3707100Y47300000D03*
X2106900Y47300000D03*
%TD*%
%TO.C,LD7*%
X3707100Y48800000D03*
X2106900Y48800000D03*
%TD*%
%TO.C,D12*%
X26836600Y6961000D03*
X25236400Y6961000D03*
%TD*%
D31*
%TO.C,J4*%
X41656000Y50800000D03*
D32*
X39116000Y50800000D03*
X36576000Y50800000D03*
X34036000Y50800000D03*
X31496000Y50800000D03*
X28956000Y50800000D03*
X26416000Y50800000D03*
X23876000Y50800000D03*
X21336000Y50800000D03*
X18796000Y50800000D03*
%TD*%
D31*
%TO.C,J3*%
X41656000Y46355000D03*
D32*
X39116000Y46355000D03*
X36576000Y46355000D03*
X34036000Y46355000D03*
X31496000Y46355000D03*
X28956000Y46355000D03*
%TD*%
D31*
%TO.C,J14*%
X46990000Y6985000D03*
D32*
X49530000Y6985000D03*
X52070000Y6985000D03*
X54610000Y6985000D03*
X57150000Y6985000D03*
X59690000Y6985000D03*
%TD*%
D31*
%TO.C,J6*%
X41656000Y41275000D03*
D32*
X39116000Y41275000D03*
X36576000Y41275000D03*
X34036000Y41275000D03*
X31496000Y41275000D03*
X28956000Y41275000D03*
%TD*%
D31*
%TO.C,J12*%
X46990000Y12065000D03*
D32*
X49530000Y12065000D03*
X52070000Y12065000D03*
X54610000Y12065000D03*
X57150000Y12065000D03*
X59690000Y12065000D03*
%TD*%
D31*
%TO.C,J2*%
X41656000Y43815000D03*
D32*
X39116000Y43815000D03*
X36576000Y43815000D03*
X34036000Y43815000D03*
X31496000Y43815000D03*
X28956000Y43815000D03*
%TD*%
D31*
%TO.C,J13*%
X46990000Y9525000D03*
D32*
X49530000Y9525000D03*
X52070000Y9525000D03*
X54610000Y9525000D03*
X57150000Y9525000D03*
X59690000Y9525000D03*
%TD*%
D31*
%TO.C,J10*%
X63500000Y50800000D03*
D32*
X60960000Y50800000D03*
X58420000Y50800000D03*
X55880000Y50800000D03*
X53340000Y50800000D03*
X50800000Y50800000D03*
X48260000Y50800000D03*
X45720000Y50800000D03*
%TD*%
D31*
%TO.C,J8*%
X63500000Y46355000D03*
D32*
X60960000Y46355000D03*
X58420000Y46355000D03*
X55880000Y46355000D03*
X53340000Y46355000D03*
X50800000Y46355000D03*
X48260000Y46355000D03*
X45720000Y46355000D03*
%TD*%
D31*
%TO.C,J7*%
X63500000Y43815000D03*
D32*
X60960000Y43815000D03*
X58420000Y43815000D03*
X55880000Y43815000D03*
X53340000Y43815000D03*
X50800000Y43815000D03*
X48260000Y43815000D03*
X45720000Y43815000D03*
%TD*%
D31*
%TO.C,J9*%
X63500000Y41275000D03*
D32*
X60960000Y41275000D03*
X58420000Y41275000D03*
X55880000Y41275000D03*
X53340000Y41275000D03*
X50800000Y41275000D03*
X48260000Y41275000D03*
X45720000Y41275000D03*
%TD*%
D31*
%TO.C,J5*%
X27940000Y2540000D03*
D32*
X30480000Y2540000D03*
X33020000Y2540000D03*
X35560000Y2540000D03*
X38100000Y2540000D03*
X40640000Y2540000D03*
X43180000Y2540000D03*
X45720000Y2540000D03*
%TD*%
D31*
%TO.C,J11*%
X50800000Y2540000D03*
D32*
X53340000Y2540000D03*
X55880000Y2540000D03*
X58420000Y2540000D03*
X60960000Y2540000D03*
X63500000Y2540000D03*
%TD*%
D31*
%TO.C,J16*%
X66738500Y28422600D03*
D32*
X66738500Y25882600D03*
X66738500Y23342600D03*
X66738500Y20802600D03*
%TD*%
D31*
%TO.C,J15*%
X64198500Y28422600D03*
D32*
X64198500Y25882600D03*
X64198500Y23342600D03*
X64198500Y20802600D03*
%TD*%
D31*
%TO.C,J17*%
X61658500Y28422600D03*
D32*
X61658500Y25882600D03*
X61658500Y23342600D03*
X61658500Y20802600D03*
%TD*%
D31*
%TO.C,J19*%
X15786100Y17830800D03*
D32*
X15786100Y20370800D03*
X18326100Y17830800D03*
X18326100Y20370800D03*
X20866100Y17830800D03*
X20866100Y20370800D03*
X23406100Y17830800D03*
X23406100Y20370800D03*
%TD*%
D33*
%TO.C,J1*%
X4319500Y25821200D03*
D34*
X4433800Y27624600D03*
X4433800Y28272300D03*
X4433800Y30215400D03*
X4433800Y29567700D03*
X4433800Y28920000D03*
D33*
X4319500Y32018800D03*
D35*
X1779500Y24906800D03*
D36*
X1779500Y27713500D03*
X1779500Y30126500D03*
D35*
X1779500Y32933200D03*
%TD*%
D37*
%TO.C,J18*%
X5410200Y8356600D03*
D38*
X11658600Y8356600D03*
D37*
X8661400Y3556000D03*
%TD*%
D39*
%TO.C,SW3*%
X18554700Y5207000D03*
D40*
X21094700Y5207000D03*
X23634700Y5207000D03*
%TD*%
D41*
%TO.C,U4*%
X10697500Y36552100D03*
X10697500Y34443900D03*
X8792500Y34443900D03*
X8792500Y36552100D03*
%TD*%
D42*
%TO.C,U5*%
X18503900Y35471100D03*
X18503900Y36131500D03*
X18503900Y36791900D03*
X18503900Y37452300D03*
X14363700Y37452300D03*
X14363700Y36791900D03*
X14363700Y36131500D03*
X14363700Y35471100D03*
%TD*%
D43*
%TO.C,F2*%
X6869800Y28605000D03*
X8292200Y28605000D03*
X8292200Y29621000D03*
X6869800Y29113000D03*
X8292200Y29113000D03*
X6869800Y29621000D03*
%TD*%
D44*
%TO.C,Q3*%
X1699240Y23050000D03*
X1699240Y21150000D03*
X3944600Y22100000D03*
%TD*%
%TO.C,Q5*%
X1699240Y19450000D03*
X1699240Y17550000D03*
X3944600Y18500000D03*
%TD*%
D28*
%TO.C,D11*%
X9057000Y21099240D03*
X10957000Y21099240D03*
X10007000Y23344600D03*
%TD*%
D45*
%TO.C,D2*%
X5612600Y23520400D03*
X8052600Y23520400D03*
%TD*%
D46*
%TO.C,D10*%
X2323800Y14906000D03*
X6286200Y14906000D03*
%TD*%
D47*
%TO.C,Q1*%
X10845800Y14249400D03*
X10845800Y14897100D03*
X10845800Y15544800D03*
X8813800Y15544800D03*
X8813800Y14897100D03*
X8813800Y14249400D03*
D48*
X9626600Y14897100D03*
%TD*%
D47*
%TO.C,Q2*%
X13157200Y15582900D03*
X13157200Y14935200D03*
X13157200Y14287500D03*
X15189200Y14287500D03*
X15189200Y14935200D03*
X15189200Y15582900D03*
D48*
X14376400Y14935200D03*
%TD*%
D49*
%TO.C,U3*%
X12141200Y31889700D03*
X12141200Y31381700D03*
X12141200Y30886400D03*
X12141200Y30391100D03*
X12141200Y29893200D03*
X12141200Y29387800D03*
X12141200Y28892500D03*
X12141200Y28397200D03*
X12141200Y27896820D03*
X12141200Y27391360D03*
X12141200Y26898600D03*
X12141200Y26394410D03*
X12141200Y25890220D03*
X12141200Y25394920D03*
X12141200Y24904700D03*
X12141200Y24396700D03*
D50*
X12798100Y23736300D03*
X13298100Y23736300D03*
X13798100Y23736300D03*
X14298100Y23736300D03*
X14798100Y23736300D03*
X15298100Y23736300D03*
X15798100Y23736300D03*
X16298100Y23736300D03*
X16798100Y23736300D03*
X17298100Y23736300D03*
X17798100Y23736300D03*
X18298100Y23736300D03*
X18798100Y23736300D03*
X19298100Y23736300D03*
X19798100Y23736300D03*
X20298100Y23736300D03*
D49*
X20955000Y24396700D03*
X20955000Y24904700D03*
X20955000Y25400000D03*
X20955000Y25893200D03*
X20955000Y26394410D03*
X20955000Y26898600D03*
X20955000Y27393200D03*
X20952460Y27896820D03*
X20955000Y28397200D03*
X20955000Y28892500D03*
X20955000Y29387800D03*
X20955000Y29883100D03*
X20955000Y30391100D03*
X20955000Y30886400D03*
X20955000Y31381700D03*
X20955000Y31889700D03*
D50*
X20307300Y32550100D03*
X19799300Y32550100D03*
X19291300Y32550100D03*
X18796000Y32550100D03*
X18288000Y32550100D03*
X17792700Y32550100D03*
X17297400Y32550100D03*
X16802100Y32550100D03*
X16294100Y32550100D03*
X15798800Y32550100D03*
X15303500Y32550100D03*
X14808200Y32550100D03*
X14300200Y32550100D03*
X13804900Y32550100D03*
X13309600Y32550100D03*
X12801600Y32550100D03*
D51*
X16548100Y28143200D03*
%TD*%
D52*
%TO.C,L5*%
X26279000Y12815450D03*
X26279000Y10440550D03*
%TD*%
D47*
%TO.C,Q4*%
X33375600Y7251700D03*
X33375600Y6604000D03*
X33375600Y5956300D03*
X35407600Y5956300D03*
X35407600Y6604000D03*
X35407600Y7251700D03*
D48*
X34594800Y6604000D03*
%TD*%
D53*
%TO.C,U1*%
X28834000Y35420000D03*
X28834000Y34920000D03*
X28834000Y34420000D03*
X28834000Y33920000D03*
X28834000Y33420000D03*
X28834000Y32920000D03*
X28834000Y32420000D03*
X28834000Y31920000D03*
X28834000Y31420000D03*
X28834000Y30920000D03*
X28834000Y30420000D03*
X28834000Y29920000D03*
X28834000Y29420000D03*
X28834000Y28920000D03*
X28834000Y28420000D03*
X28834000Y27920000D03*
X28834000Y27420000D03*
X28834000Y26920000D03*
X28834000Y26420000D03*
X28834000Y25920000D03*
X28834000Y25420000D03*
X28834000Y24920000D03*
X28834000Y24420000D03*
X28834000Y23920000D03*
X28834000Y23420000D03*
X28834000Y22920000D03*
X28834000Y22420000D03*
X28834000Y21920000D03*
X28834000Y21420000D03*
X28834000Y20920000D03*
X28834000Y20420000D03*
X28834000Y19920000D03*
X28834000Y19420000D03*
X28834000Y18920000D03*
X28834000Y18420000D03*
X28834000Y17920000D03*
D54*
X30684000Y16070000D03*
X31184000Y16070000D03*
X31684000Y16070000D03*
X32184000Y16070000D03*
X32684000Y16070000D03*
X33184000Y16070000D03*
X33684000Y16070000D03*
X34184000Y16070000D03*
X34684000Y16070000D03*
X35184000Y16070000D03*
X35684000Y16070000D03*
X36184000Y16070000D03*
X36684000Y16070000D03*
X37184000Y16070000D03*
X37684000Y16070000D03*
X38184000Y16070000D03*
X38684000Y16070000D03*
X39184000Y16070000D03*
X39684000Y16070000D03*
X40184000Y16070000D03*
X40684000Y16070000D03*
X41184000Y16070000D03*
X41684000Y16070000D03*
X42184000Y16070000D03*
X42684000Y16070000D03*
X43184000Y16070000D03*
X43684000Y16070000D03*
X44184000Y16070000D03*
X44684000Y16070000D03*
X45184000Y16070000D03*
X45684000Y16070000D03*
X46184000Y16070000D03*
X46684000Y16070000D03*
X47184000Y16070000D03*
X47684000Y16070000D03*
X48184000Y16070000D03*
D53*
X50034000Y17920000D03*
X50034000Y18420000D03*
X50034000Y18920000D03*
X50034000Y19420000D03*
X50034000Y19920000D03*
X50034000Y20420000D03*
X50034000Y20920000D03*
X50034000Y21420000D03*
X50034000Y21920000D03*
X50034000Y22420000D03*
X50034000Y22920000D03*
X50034000Y23420000D03*
X50034000Y23920000D03*
X50034000Y24420000D03*
X50034000Y24920000D03*
X50034000Y25420000D03*
X50034000Y25920000D03*
X50034000Y26420000D03*
X50034000Y26920000D03*
X50034000Y27420000D03*
X50034000Y27920000D03*
X50034000Y28420000D03*
X50034000Y28920000D03*
X50034000Y29420000D03*
X50034000Y29920000D03*
X50034000Y30420000D03*
X50034000Y30920000D03*
X50034000Y31420000D03*
X50034000Y31920000D03*
X50034000Y32420000D03*
X50034000Y32920000D03*
X50034000Y33420000D03*
X50034000Y33920000D03*
X50034000Y34420000D03*
X50034000Y34920000D03*
X50034000Y35420000D03*
D54*
X48184000Y37270000D03*
X47684000Y37270000D03*
X47184000Y37270000D03*
X46684000Y37270000D03*
X46184000Y37270000D03*
X45684000Y37270000D03*
X45184000Y37270000D03*
X44684000Y37270000D03*
X44184000Y37270000D03*
X43684000Y37270000D03*
X43184000Y37270000D03*
X42684000Y37270000D03*
X42184000Y37270000D03*
X41684000Y37270000D03*
X41184000Y37270000D03*
X40684000Y37270000D03*
X40184000Y37270000D03*
X39684000Y37270000D03*
X39184000Y37270000D03*
X38684000Y37270000D03*
X38184000Y37270000D03*
X37684000Y37270000D03*
X37184000Y37270000D03*
X36684000Y37270000D03*
X36184000Y37270000D03*
X35684000Y37270000D03*
X35184000Y37270000D03*
X34684000Y37270000D03*
X34184000Y37270000D03*
X33684000Y37270000D03*
X33184000Y37270000D03*
X32684000Y37270000D03*
X32184000Y37270000D03*
X31684000Y37270000D03*
X31184000Y37270000D03*
X30684000Y37270000D03*
%TD*%
D55*
%TO.C,U11*%
X32250250Y10354100D03*
X32250250Y9846100D03*
X32250250Y9338100D03*
X31107250Y9338100D03*
X31107250Y9846100D03*
D19*
X31158050Y10354100D03*
%TD*%
D56*
%TO.C,D1*%
X51819100Y35991700D03*
X51819100Y33551700D03*
%TD*%
D57*
%TO.C,SW4*%
X65659000Y16891000D03*
X65659000Y12382500D03*
D58*
X63157100Y18148300D03*
X63157100Y11137900D03*
%TD*%
D59*
%TO.C,L2*%
X3657500Y34784000D03*
X5054500Y34784000D03*
%TD*%
D60*
%TO.C,L3*%
X7989000Y31073300D03*
X7989000Y32470300D03*
%TD*%
D61*
%TO.C,L1*%
X6149900Y25555000D03*
D62*
X8258100Y25555000D03*
%TD*%
D63*
%TO.C,C69*%
X23271200Y7628000D03*
D64*
X20070800Y7628000D03*
%TD*%
D65*
%TO.C,C67*%
X17403000Y11339200D03*
D66*
X17403000Y8138800D03*
%TD*%
D67*
%TO.C,C24*%
X10767100Y32418000D03*
X9420900Y32418000D03*
%TD*%
%TO.C,C17*%
X8417100Y27009000D03*
X7070900Y27009000D03*
%TD*%
%TO.C,C62*%
X11602900Y19100000D03*
X12949100Y19100000D03*
%TD*%
%TO.C,C60*%
X5473700Y17399000D03*
X6819900Y17399000D03*
%TD*%
D68*
%TO.C,C66*%
X15307000Y12273100D03*
X15307000Y10926900D03*
%TD*%
D67*
%TO.C,C70*%
X19633900Y15300000D03*
X20980100Y15300000D03*
%TD*%
%TO.C,C71*%
X22433900Y15000000D03*
X23780100Y15000000D03*
%TD*%
D68*
%TO.C,C11*%
X26007000Y17626900D03*
X26007000Y18973100D03*
%TD*%
%TO.C,C64*%
X33619100Y10244800D03*
X33619100Y8898600D03*
%TD*%
%TO.C,C65*%
X34819100Y10244800D03*
X34819100Y8898600D03*
%TD*%
%TO.C,C41*%
X59507000Y29426900D03*
X59507000Y30773100D03*
%TD*%
%TO.C,C31*%
X22251000Y32719100D03*
X22251000Y31372900D03*
%TD*%
%TO.C,C59*%
X33494900Y12655200D03*
X33494900Y14001400D03*
%TD*%
D69*
%TO.C,C23*%
X6201000Y34783600D03*
X6201000Y33818400D03*
%TD*%
%TO.C,C33*%
X12607000Y36117400D03*
X12607000Y37082600D03*
%TD*%
D70*
%TO.C,C21*%
X13190600Y33958000D03*
X12225400Y33958000D03*
%TD*%
%TO.C,C26*%
X16830600Y33842000D03*
X15865400Y33842000D03*
%TD*%
%TO.C,C30*%
X20089600Y33814000D03*
X19124400Y33814000D03*
%TD*%
D69*
%TO.C,C35*%
X19982000Y43017400D03*
X19982000Y43982600D03*
%TD*%
%TO.C,C36*%
X21094700Y41282600D03*
X21094700Y40317400D03*
%TD*%
%TO.C,C34*%
X19982000Y41282600D03*
X19982000Y40317400D03*
%TD*%
%TO.C,C37*%
X21094700Y43982600D03*
X21094700Y43017400D03*
%TD*%
%TO.C,C44*%
X21807000Y46517400D03*
X21807000Y47482600D03*
%TD*%
%TO.C,C39*%
X22807000Y46517400D03*
X22807000Y47482600D03*
%TD*%
%TO.C,C43*%
X23807000Y46517400D03*
X23807000Y47482600D03*
%TD*%
%TO.C,C38*%
X24807000Y46517400D03*
X24807000Y47482600D03*
%TD*%
%TO.C,C42*%
X25807000Y46517400D03*
X25807000Y47482600D03*
%TD*%
%TO.C,C40*%
X26807000Y46517400D03*
X26807000Y47482600D03*
%TD*%
D70*
%TO.C,C25*%
X10789600Y31300000D03*
X9824400Y31300000D03*
%TD*%
%TO.C,C18*%
X9817100Y27305000D03*
X10782300Y27305000D03*
%TD*%
%TO.C,C19*%
X10782300Y26403300D03*
X9817100Y26403300D03*
%TD*%
D69*
%TO.C,C12*%
X27107000Y17617400D03*
X27107000Y18582600D03*
%TD*%
D70*
%TO.C,C5*%
X26989600Y20900000D03*
X26024400Y20900000D03*
%TD*%
%TO.C,C14*%
X26989600Y22400000D03*
X26024400Y22400000D03*
%TD*%
D69*
%TO.C,C20*%
X22307000Y26282600D03*
X22307000Y25317400D03*
%TD*%
D70*
%TO.C,C27*%
X22224400Y28900000D03*
X23189600Y28900000D03*
%TD*%
D69*
%TO.C,C6*%
X26945000Y32611400D03*
X26945000Y33576600D03*
%TD*%
D70*
%TO.C,C28*%
X20180300Y22402800D03*
X21145500Y22402800D03*
%TD*%
%TO.C,C29*%
X14325600Y22428200D03*
X13360400Y22428200D03*
%TD*%
%TO.C,C68*%
X23277600Y9270000D03*
X22312400Y9270000D03*
%TD*%
D69*
%TO.C,C3*%
X35269000Y14280600D03*
X35269000Y13315400D03*
%TD*%
D70*
%TO.C,C13*%
X37689600Y14200000D03*
X36724400Y14200000D03*
%TD*%
D69*
%TO.C,C9*%
X36407000Y8717400D03*
X36407000Y9682600D03*
%TD*%
D70*
%TO.C,C4*%
X40683400Y14187000D03*
X41648600Y14187000D03*
%TD*%
D69*
%TO.C,C10*%
X50382000Y16382600D03*
X50382000Y15417400D03*
%TD*%
%TO.C,C48*%
X59607000Y15517400D03*
X59607000Y16482600D03*
%TD*%
%TO.C,C47*%
X59607000Y17417400D03*
X59607000Y18382600D03*
%TD*%
%TO.C,C7*%
X51707000Y25682600D03*
X51707000Y24717400D03*
%TD*%
%TO.C,C16*%
X51707000Y27717400D03*
X51707000Y28682600D03*
%TD*%
D70*
%TO.C,C45*%
X55589600Y29000000D03*
X54624400Y29000000D03*
%TD*%
%TO.C,C46*%
X57489600Y29000000D03*
X56524400Y29000000D03*
%TD*%
D69*
%TO.C,C8*%
X51707000Y31617400D03*
X51707000Y32582600D03*
%TD*%
%TO.C,C49*%
X53107000Y34782600D03*
X53107000Y33817400D03*
%TD*%
%TO.C,C50*%
X53107000Y36982600D03*
X53107000Y36017400D03*
%TD*%
D70*
%TO.C,C54*%
X65289600Y39000000D03*
X64324400Y39000000D03*
%TD*%
%TO.C,C55*%
X61724400Y39000000D03*
X62689600Y39000000D03*
%TD*%
%TO.C,C51*%
X60189600Y39000000D03*
X59224400Y39000000D03*
%TD*%
%TO.C,C56*%
X56724400Y39000000D03*
X57689600Y39000000D03*
%TD*%
%TO.C,C52*%
X55089600Y39000000D03*
X54124400Y39000000D03*
%TD*%
%TO.C,C57*%
X51624400Y39000000D03*
X52589600Y39000000D03*
%TD*%
%TO.C,C53*%
X49024400Y39000000D03*
X49989600Y39000000D03*
%TD*%
%TO.C,C15*%
X47389600Y39000000D03*
X46424400Y39000000D03*
%TD*%
%TO.C,C58*%
X44689600Y39000000D03*
X43724400Y39000000D03*
%TD*%
%TO.C,C1*%
X41059600Y39000000D03*
X40094400Y39000000D03*
%TD*%
%TO.C,C2*%
X35044400Y39100000D03*
X36009600Y39100000D03*
%TD*%
D69*
%TO.C,R15*%
X20307000Y36730100D03*
X20307000Y37669900D03*
%TD*%
%TO.C,R13*%
X21307000Y37669900D03*
X21307000Y36730100D03*
%TD*%
%TO.C,R12*%
X22307000Y37669900D03*
X22307000Y36730100D03*
%TD*%
%TO.C,R14*%
X23307000Y36730100D03*
X23307000Y37669900D03*
%TD*%
D70*
%TO.C,R11*%
X9837100Y30300000D03*
X10776900Y30300000D03*
%TD*%
%TO.C,R10*%
X9830100Y25000000D03*
X10769900Y25000000D03*
%TD*%
%TO.C,R29*%
X6476900Y22200000D03*
X5537100Y22200000D03*
%TD*%
%TO.C,R39*%
X6476900Y21200000D03*
X5537100Y21200000D03*
%TD*%
D69*
%TO.C,R28*%
X7707000Y21230100D03*
X7707000Y22169900D03*
%TD*%
D70*
%TO.C,R37*%
X8801900Y18999000D03*
X7862100Y18999000D03*
%TD*%
%TO.C,R27*%
X10626900Y19000000D03*
X9687100Y19000000D03*
%TD*%
%TO.C,R24*%
X8801900Y17399000D03*
X7862100Y17399000D03*
%TD*%
%TO.C,R25*%
X9687100Y17400000D03*
X10626900Y17400000D03*
%TD*%
%TO.C,R26*%
X12112800Y20595000D03*
X13052600Y20595000D03*
%TD*%
D69*
%TO.C,R34*%
X26922000Y4850100D03*
X26922000Y5789900D03*
%TD*%
D70*
%TO.C,R9*%
X26976900Y16400000D03*
X26037100Y16400000D03*
%TD*%
%TO.C,R16*%
X26037100Y25400000D03*
X26976900Y25400000D03*
%TD*%
%TO.C,R1*%
X44676900Y14200000D03*
X43737100Y14200000D03*
%TD*%
D69*
%TO.C,R7*%
X39707000Y6130100D03*
X39707000Y7069900D03*
%TD*%
%TO.C,R5*%
X40707000Y6130100D03*
X40707000Y7069900D03*
%TD*%
%TO.C,R8*%
X41707000Y6130100D03*
X41707000Y7069900D03*
%TD*%
%TO.C,R6*%
X42707000Y6130100D03*
X42707000Y7069900D03*
%TD*%
%TO.C,R22*%
X61707000Y9369900D03*
X61707000Y8430100D03*
%TD*%
%TO.C,R23*%
X61707000Y6330100D03*
X61707000Y7269900D03*
%TD*%
D70*
%TO.C,R4*%
X51737100Y19800000D03*
X52676900Y19800000D03*
%TD*%
D69*
%TO.C,R30*%
X60916800Y15516600D03*
X60916800Y16456400D03*
%TD*%
%TO.C,R21*%
X53407000Y25269900D03*
X53407000Y24330100D03*
%TD*%
%TO.C,R20*%
X53407000Y27330100D03*
X53407000Y28269900D03*
%TD*%
%TO.C,R19*%
X59507000Y31830100D03*
X59507000Y32769900D03*
%TD*%
D70*
%TO.C,R36*%
X6476900Y19000000D03*
X5537100Y19000000D03*
%TD*%
%TO.C,R38*%
X5537100Y20200000D03*
X6476900Y20200000D03*
%TD*%
%TO.C,R2*%
X17170400Y22402800D03*
X16230600Y22402800D03*
%TD*%
%TO.C,R3*%
X18122900Y22402800D03*
X19062700Y22402800D03*
%TD*%
D71*
%TO.C,FID1*%
X18936000Y46721000D03*
%TD*%
%TO.C,FID2*%
X2547000Y2159000D03*
%TD*%
%TO.C,FID3*%
X66069000Y31746000D03*
%TD*%
D31*
%TO.C,JP1*%
X61569600Y31788100D03*
D32*
X61569600Y34328100D03*
X61569600Y36868100D03*
%TD*%
D67*
%TO.C,C61*%
X12949100Y17392400D03*
X11602900Y17392400D03*
%TD*%
D69*
%TO.C,C63*%
X37465000Y6092400D03*
X37465000Y7057600D03*
%TD*%
D56*
%TO.C,D4*%
X57322300Y20512000D03*
X57322300Y22952000D03*
%TD*%
D30*
%TO.C,LD8*%
X13016200Y40241000D03*
X14616400Y40241000D03*
%TD*%
%TO.C,LD9*%
X14616400Y41829000D03*
X13016200Y41829000D03*
%TD*%
%TO.C,LD10*%
X13015900Y47210700D03*
X14616100Y47210700D03*
%TD*%
D70*
%TO.C,R17*%
X7011700Y38329000D03*
X6071900Y38329000D03*
%TD*%
%TO.C,R18*%
X6071900Y39131000D03*
X7011700Y39131000D03*
%TD*%
D69*
%TO.C,R31*%
X18982000Y41269900D03*
X18982000Y40330100D03*
%TD*%
%TO.C,R32*%
X18982000Y43030100D03*
X18982000Y43969900D03*
%TD*%
%TO.C,R33*%
X31944100Y4633100D03*
X31944100Y5572900D03*
%TD*%
%TO.C,R35*%
X38255000Y6105100D03*
X38255000Y7044900D03*
%TD*%
D70*
%TO.C,R40*%
X6071900Y39929100D03*
X7011700Y39929100D03*
%TD*%
%TO.C,R41*%
X7011700Y40728800D03*
X6071900Y40728800D03*
%TD*%
%TO.C,R42*%
X6071900Y41528500D03*
X7011700Y41528500D03*
%TD*%
%TO.C,R43*%
X7011700Y42328300D03*
X6071900Y42328300D03*
%TD*%
%TO.C,R44*%
X6100100Y46830000D03*
X7039900Y46830000D03*
%TD*%
%TO.C,R45*%
X7039900Y47635000D03*
X6100100Y47635000D03*
%TD*%
%TO.C,R46*%
X17361500Y42403000D03*
X16421700Y42403000D03*
%TD*%
D69*
%TO.C,R47*%
X16385000Y41269900D03*
X16385000Y40330100D03*
%TD*%
%TO.C,R48*%
X17485000Y40330100D03*
X17485000Y41269900D03*
%TD*%
D67*
%TO.C,C32*%
X10880100Y38034000D03*
X9533900Y38034000D03*
%TD*%
D72*
%TO.C,F1*%
X6014200Y36459700D03*
X3794200Y36459700D03*
%TD*%
D73*
%TO.C,L4*%
X17403000Y15050000D03*
X17403000Y13050000D03*
%TD*%
D74*
%TO.C,U2*%
G36*
X44336643Y8963334D02*
X44351070Y8961194D01*
X44365219Y8957650D01*
X44378951Y8952737D01*
X44392136Y8946501D01*
X44404647Y8939002D01*
X44416362Y8930314D01*
X44427169Y8920519D01*
X44436964Y8909712D01*
X44445652Y8897997D01*
X44453151Y8885486D01*
X44459387Y8872301D01*
X44464300Y8858569D01*
X44467844Y8844420D01*
X44469984Y8829993D01*
X44470700Y8815425D01*
X44470700Y8518175D01*
X44469984Y8503607D01*
X44467844Y8489180D01*
X44464300Y8475031D01*
X44459387Y8461299D01*
X44453151Y8448114D01*
X44445652Y8435603D01*
X44436964Y8423888D01*
X44427169Y8413081D01*
X44416362Y8403286D01*
X44404647Y8394598D01*
X44392136Y8387099D01*
X44378951Y8380863D01*
X44365219Y8375950D01*
X44351070Y8372406D01*
X44336643Y8370266D01*
X44322075Y8369550D01*
X43427925Y8369550D01*
X43413357Y8370266D01*
X43398930Y8372406D01*
X43384781Y8375950D01*
X43371049Y8380863D01*
X43357864Y8387099D01*
X43345353Y8394598D01*
X43333638Y8403286D01*
X43322831Y8413081D01*
X43313036Y8423888D01*
X43304348Y8435603D01*
X43296849Y8448114D01*
X43290613Y8461299D01*
X43285700Y8475031D01*
X43282156Y8489180D01*
X43280016Y8503607D01*
X43279300Y8518175D01*
X43279300Y8815425D01*
X43280016Y8829993D01*
X43282156Y8844420D01*
X43285700Y8858569D01*
X43290613Y8872301D01*
X43296849Y8885486D01*
X43304348Y8897997D01*
X43313036Y8909712D01*
X43322831Y8920519D01*
X43333638Y8930314D01*
X43345353Y8939002D01*
X43357864Y8946501D01*
X43371049Y8952737D01*
X43384781Y8957650D01*
X43398930Y8961194D01*
X43413357Y8963334D01*
X43427925Y8964050D01*
X44322075Y8964050D01*
X44336643Y8963334D01*
X44336643Y8963334D01*
G37*
D75*
X43875000Y8666800D03*
D74*
G36*
X44336643Y10233334D02*
X44351070Y10231194D01*
X44365219Y10227650D01*
X44378951Y10222737D01*
X44392136Y10216501D01*
X44404647Y10209002D01*
X44416362Y10200314D01*
X44427169Y10190519D01*
X44436964Y10179712D01*
X44445652Y10167997D01*
X44453151Y10155486D01*
X44459387Y10142301D01*
X44464300Y10128569D01*
X44467844Y10114420D01*
X44469984Y10099993D01*
X44470700Y10085425D01*
X44470700Y9788175D01*
X44469984Y9773607D01*
X44467844Y9759180D01*
X44464300Y9745031D01*
X44459387Y9731299D01*
X44453151Y9718114D01*
X44445652Y9705603D01*
X44436964Y9693888D01*
X44427169Y9683081D01*
X44416362Y9673286D01*
X44404647Y9664598D01*
X44392136Y9657099D01*
X44378951Y9650863D01*
X44365219Y9645950D01*
X44351070Y9642406D01*
X44336643Y9640266D01*
X44322075Y9639550D01*
X43427925Y9639550D01*
X43413357Y9640266D01*
X43398930Y9642406D01*
X43384781Y9645950D01*
X43371049Y9650863D01*
X43357864Y9657099D01*
X43345353Y9664598D01*
X43333638Y9673286D01*
X43322831Y9683081D01*
X43313036Y9693888D01*
X43304348Y9705603D01*
X43296849Y9718114D01*
X43290613Y9731299D01*
X43285700Y9745031D01*
X43282156Y9759180D01*
X43280016Y9773607D01*
X43279300Y9788175D01*
X43279300Y10085425D01*
X43280016Y10099993D01*
X43282156Y10114420D01*
X43285700Y10128569D01*
X43290613Y10142301D01*
X43296849Y10155486D01*
X43304348Y10167997D01*
X43313036Y10179712D01*
X43322831Y10190519D01*
X43333638Y10200314D01*
X43345353Y10209002D01*
X43357864Y10216501D01*
X43371049Y10222737D01*
X43384781Y10227650D01*
X43398930Y10231194D01*
X43413357Y10233334D01*
X43427925Y10234050D01*
X44322075Y10234050D01*
X44336643Y10233334D01*
X44336643Y10233334D01*
G37*
D75*
X43875000Y9936800D03*
D74*
G36*
X44336643Y11503334D02*
X44351070Y11501194D01*
X44365219Y11497650D01*
X44378951Y11492737D01*
X44392136Y11486501D01*
X44404647Y11479002D01*
X44416362Y11470314D01*
X44427169Y11460519D01*
X44436964Y11449712D01*
X44445652Y11437997D01*
X44453151Y11425486D01*
X44459387Y11412301D01*
X44464300Y11398569D01*
X44467844Y11384420D01*
X44469984Y11369993D01*
X44470700Y11355425D01*
X44470700Y11058175D01*
X44469984Y11043607D01*
X44467844Y11029180D01*
X44464300Y11015031D01*
X44459387Y11001299D01*
X44453151Y10988114D01*
X44445652Y10975603D01*
X44436964Y10963888D01*
X44427169Y10953081D01*
X44416362Y10943286D01*
X44404647Y10934598D01*
X44392136Y10927099D01*
X44378951Y10920863D01*
X44365219Y10915950D01*
X44351070Y10912406D01*
X44336643Y10910266D01*
X44322075Y10909550D01*
X43427925Y10909550D01*
X43413357Y10910266D01*
X43398930Y10912406D01*
X43384781Y10915950D01*
X43371049Y10920863D01*
X43357864Y10927099D01*
X43345353Y10934598D01*
X43333638Y10943286D01*
X43322831Y10953081D01*
X43313036Y10963888D01*
X43304348Y10975603D01*
X43296849Y10988114D01*
X43290613Y11001299D01*
X43285700Y11015031D01*
X43282156Y11029180D01*
X43280016Y11043607D01*
X43279300Y11058175D01*
X43279300Y11355425D01*
X43280016Y11369993D01*
X43282156Y11384420D01*
X43285700Y11398569D01*
X43290613Y11412301D01*
X43296849Y11425486D01*
X43304348Y11437997D01*
X43313036Y11449712D01*
X43322831Y11460519D01*
X43333638Y11470314D01*
X43345353Y11479002D01*
X43357864Y11486501D01*
X43371049Y11492737D01*
X43384781Y11497650D01*
X43398930Y11501194D01*
X43413357Y11503334D01*
X43427925Y11504050D01*
X44322075Y11504050D01*
X44336643Y11503334D01*
X44336643Y11503334D01*
G37*
D75*
X43875000Y11206800D03*
D74*
G36*
X44336643Y12773334D02*
X44351070Y12771194D01*
X44365219Y12767650D01*
X44378951Y12762737D01*
X44392136Y12756501D01*
X44404647Y12749002D01*
X44416362Y12740314D01*
X44427169Y12730519D01*
X44436964Y12719712D01*
X44445652Y12707997D01*
X44453151Y12695486D01*
X44459387Y12682301D01*
X44464300Y12668569D01*
X44467844Y12654420D01*
X44469984Y12639993D01*
X44470700Y12625425D01*
X44470700Y12328175D01*
X44469984Y12313607D01*
X44467844Y12299180D01*
X44464300Y12285031D01*
X44459387Y12271299D01*
X44453151Y12258114D01*
X44445652Y12245603D01*
X44436964Y12233888D01*
X44427169Y12223081D01*
X44416362Y12213286D01*
X44404647Y12204598D01*
X44392136Y12197099D01*
X44378951Y12190863D01*
X44365219Y12185950D01*
X44351070Y12182406D01*
X44336643Y12180266D01*
X44322075Y12179550D01*
X43427925Y12179550D01*
X43413357Y12180266D01*
X43398930Y12182406D01*
X43384781Y12185950D01*
X43371049Y12190863D01*
X43357864Y12197099D01*
X43345353Y12204598D01*
X43333638Y12213286D01*
X43322831Y12223081D01*
X43313036Y12233888D01*
X43304348Y12245603D01*
X43296849Y12258114D01*
X43290613Y12271299D01*
X43285700Y12285031D01*
X43282156Y12299180D01*
X43280016Y12313607D01*
X43279300Y12328175D01*
X43279300Y12625425D01*
X43280016Y12639993D01*
X43282156Y12654420D01*
X43285700Y12668569D01*
X43290613Y12682301D01*
X43296849Y12695486D01*
X43304348Y12707997D01*
X43313036Y12719712D01*
X43322831Y12730519D01*
X43333638Y12740314D01*
X43345353Y12749002D01*
X43357864Y12756501D01*
X43371049Y12762737D01*
X43384781Y12767650D01*
X43398930Y12771194D01*
X43413357Y12773334D01*
X43427925Y12774050D01*
X44322075Y12774050D01*
X44336643Y12773334D01*
X44336643Y12773334D01*
G37*
D75*
X43875000Y12476800D03*
D74*
G36*
X38824843Y12773334D02*
X38839270Y12771194D01*
X38853419Y12767650D01*
X38867151Y12762737D01*
X38880336Y12756501D01*
X38892847Y12749002D01*
X38904562Y12740314D01*
X38915369Y12730519D01*
X38925164Y12719712D01*
X38933852Y12707997D01*
X38941351Y12695486D01*
X38947587Y12682301D01*
X38952500Y12668569D01*
X38956044Y12654420D01*
X38958184Y12639993D01*
X38958900Y12625425D01*
X38958900Y12328175D01*
X38958184Y12313607D01*
X38956044Y12299180D01*
X38952500Y12285031D01*
X38947587Y12271299D01*
X38941351Y12258114D01*
X38933852Y12245603D01*
X38925164Y12233888D01*
X38915369Y12223081D01*
X38904562Y12213286D01*
X38892847Y12204598D01*
X38880336Y12197099D01*
X38867151Y12190863D01*
X38853419Y12185950D01*
X38839270Y12182406D01*
X38824843Y12180266D01*
X38810275Y12179550D01*
X37916125Y12179550D01*
X37901557Y12180266D01*
X37887130Y12182406D01*
X37872981Y12185950D01*
X37859249Y12190863D01*
X37846064Y12197099D01*
X37833553Y12204598D01*
X37821838Y12213286D01*
X37811031Y12223081D01*
X37801236Y12233888D01*
X37792548Y12245603D01*
X37785049Y12258114D01*
X37778813Y12271299D01*
X37773900Y12285031D01*
X37770356Y12299180D01*
X37768216Y12313607D01*
X37767500Y12328175D01*
X37767500Y12625425D01*
X37768216Y12639993D01*
X37770356Y12654420D01*
X37773900Y12668569D01*
X37778813Y12682301D01*
X37785049Y12695486D01*
X37792548Y12707997D01*
X37801236Y12719712D01*
X37811031Y12730519D01*
X37821838Y12740314D01*
X37833553Y12749002D01*
X37846064Y12756501D01*
X37859249Y12762737D01*
X37872981Y12767650D01*
X37887130Y12771194D01*
X37901557Y12773334D01*
X37916125Y12774050D01*
X38810275Y12774050D01*
X38824843Y12773334D01*
X38824843Y12773334D01*
G37*
D75*
X38363200Y12476800D03*
D74*
G36*
X38824843Y11503334D02*
X38839270Y11501194D01*
X38853419Y11497650D01*
X38867151Y11492737D01*
X38880336Y11486501D01*
X38892847Y11479002D01*
X38904562Y11470314D01*
X38915369Y11460519D01*
X38925164Y11449712D01*
X38933852Y11437997D01*
X38941351Y11425486D01*
X38947587Y11412301D01*
X38952500Y11398569D01*
X38956044Y11384420D01*
X38958184Y11369993D01*
X38958900Y11355425D01*
X38958900Y11058175D01*
X38958184Y11043607D01*
X38956044Y11029180D01*
X38952500Y11015031D01*
X38947587Y11001299D01*
X38941351Y10988114D01*
X38933852Y10975603D01*
X38925164Y10963888D01*
X38915369Y10953081D01*
X38904562Y10943286D01*
X38892847Y10934598D01*
X38880336Y10927099D01*
X38867151Y10920863D01*
X38853419Y10915950D01*
X38839270Y10912406D01*
X38824843Y10910266D01*
X38810275Y10909550D01*
X37916125Y10909550D01*
X37901557Y10910266D01*
X37887130Y10912406D01*
X37872981Y10915950D01*
X37859249Y10920863D01*
X37846064Y10927099D01*
X37833553Y10934598D01*
X37821838Y10943286D01*
X37811031Y10953081D01*
X37801236Y10963888D01*
X37792548Y10975603D01*
X37785049Y10988114D01*
X37778813Y11001299D01*
X37773900Y11015031D01*
X37770356Y11029180D01*
X37768216Y11043607D01*
X37767500Y11058175D01*
X37767500Y11355425D01*
X37768216Y11369993D01*
X37770356Y11384420D01*
X37773900Y11398569D01*
X37778813Y11412301D01*
X37785049Y11425486D01*
X37792548Y11437997D01*
X37801236Y11449712D01*
X37811031Y11460519D01*
X37821838Y11470314D01*
X37833553Y11479002D01*
X37846064Y11486501D01*
X37859249Y11492737D01*
X37872981Y11497650D01*
X37887130Y11501194D01*
X37901557Y11503334D01*
X37916125Y11504050D01*
X38810275Y11504050D01*
X38824843Y11503334D01*
X38824843Y11503334D01*
G37*
D75*
X38363200Y11206800D03*
D74*
G36*
X38824843Y10233334D02*
X38839270Y10231194D01*
X38853419Y10227650D01*
X38867151Y10222737D01*
X38880336Y10216501D01*
X38892847Y10209002D01*
X38904562Y10200314D01*
X38915369Y10190519D01*
X38925164Y10179712D01*
X38933852Y10167997D01*
X38941351Y10155486D01*
X38947587Y10142301D01*
X38952500Y10128569D01*
X38956044Y10114420D01*
X38958184Y10099993D01*
X38958900Y10085425D01*
X38958900Y9788175D01*
X38958184Y9773607D01*
X38956044Y9759180D01*
X38952500Y9745031D01*
X38947587Y9731299D01*
X38941351Y9718114D01*
X38933852Y9705603D01*
X38925164Y9693888D01*
X38915369Y9683081D01*
X38904562Y9673286D01*
X38892847Y9664598D01*
X38880336Y9657099D01*
X38867151Y9650863D01*
X38853419Y9645950D01*
X38839270Y9642406D01*
X38824843Y9640266D01*
X38810275Y9639550D01*
X37916125Y9639550D01*
X37901557Y9640266D01*
X37887130Y9642406D01*
X37872981Y9645950D01*
X37859249Y9650863D01*
X37846064Y9657099D01*
X37833553Y9664598D01*
X37821838Y9673286D01*
X37811031Y9683081D01*
X37801236Y9693888D01*
X37792548Y9705603D01*
X37785049Y9718114D01*
X37778813Y9731299D01*
X37773900Y9745031D01*
X37770356Y9759180D01*
X37768216Y9773607D01*
X37767500Y9788175D01*
X37767500Y10085425D01*
X37768216Y10099993D01*
X37770356Y10114420D01*
X37773900Y10128569D01*
X37778813Y10142301D01*
X37785049Y10155486D01*
X37792548Y10167997D01*
X37801236Y10179712D01*
X37811031Y10190519D01*
X37821838Y10200314D01*
X37833553Y10209002D01*
X37846064Y10216501D01*
X37859249Y10222737D01*
X37872981Y10227650D01*
X37887130Y10231194D01*
X37901557Y10233334D01*
X37916125Y10234050D01*
X38810275Y10234050D01*
X38824843Y10233334D01*
X38824843Y10233334D01*
G37*
D75*
X38363200Y9936800D03*
D74*
G36*
X38824843Y8963334D02*
X38839270Y8961194D01*
X38853419Y8957650D01*
X38867151Y8952737D01*
X38880336Y8946501D01*
X38892847Y8939002D01*
X38904562Y8930314D01*
X38915369Y8920519D01*
X38925164Y8909712D01*
X38933852Y8897997D01*
X38941351Y8885486D01*
X38947587Y8872301D01*
X38952500Y8858569D01*
X38956044Y8844420D01*
X38958184Y8829993D01*
X38958900Y8815425D01*
X38958900Y8518175D01*
X38958184Y8503607D01*
X38956044Y8489180D01*
X38952500Y8475031D01*
X38947587Y8461299D01*
X38941351Y8448114D01*
X38933852Y8435603D01*
X38925164Y8423888D01*
X38915369Y8413081D01*
X38904562Y8403286D01*
X38892847Y8394598D01*
X38880336Y8387099D01*
X38867151Y8380863D01*
X38853419Y8375950D01*
X38839270Y8372406D01*
X38824843Y8370266D01*
X38810275Y8369550D01*
X37916125Y8369550D01*
X37901557Y8370266D01*
X37887130Y8372406D01*
X37872981Y8375950D01*
X37859249Y8380863D01*
X37846064Y8387099D01*
X37833553Y8394598D01*
X37821838Y8403286D01*
X37811031Y8413081D01*
X37801236Y8423888D01*
X37792548Y8435603D01*
X37785049Y8448114D01*
X37778813Y8461299D01*
X37773900Y8475031D01*
X37770356Y8489180D01*
X37768216Y8503607D01*
X37767500Y8518175D01*
X37767500Y8815425D01*
X37768216Y8829993D01*
X37770356Y8844420D01*
X37773900Y8858569D01*
X37778813Y8872301D01*
X37785049Y8885486D01*
X37792548Y8897997D01*
X37801236Y8909712D01*
X37811031Y8920519D01*
X37821838Y8930314D01*
X37833553Y8939002D01*
X37846064Y8946501D01*
X37859249Y8952737D01*
X37872981Y8957650D01*
X37887130Y8961194D01*
X37901557Y8963334D01*
X37916125Y8964050D01*
X38810275Y8964050D01*
X38824843Y8963334D01*
X38824843Y8963334D01*
G37*
D75*
X38363200Y8666800D03*
D76*
X41119100Y10571800D03*
%TD*%
M02*
