M48
;DRILL file {KiCad 4.0.2+e4-6225~38~ubuntu16.04.1-stable} date jue 21 jul 2016 15:39:09 CEST
;FORMAT={-:-/ absolute / inch / decimal}
FMAT,2
INCH,TZ
T1C0.012
T2C0.016
T3C0.033
T4C0.035
T5C0.039
T6C0.051
T7C0.120
T8C0.140
T9C0.126
%
G90
G05
M72
T1
X0.0551Y1.815
X0.0591Y1.3787
X0.1217Y0.6654
X0.2177Y0.7236
X0.2209Y1.2074
X0.2398Y1.1461
X0.2445Y1.0642
X0.2709Y1.0063
X0.2756Y0.9055
X0.2874Y1.224
X0.2992Y1.3228
X0.315Y0.7811
X0.3268Y2.048
X0.3543Y1.6795
X0.3579Y1.1976
X0.3583Y1.9646
X0.3583Y1.8976
X0.3583Y1.7402
X0.3583Y1.2402
X0.3583Y1.1437
X0.3622Y1.5
X0.3819Y1.9291
X0.3819Y1.8657
X0.3819Y1.7087
X0.3819Y1.6535
X0.3862Y0.6587
X0.3902Y0.7748
X0.3941Y0.8772
X0.4409Y1.5039
X0.4469Y0.9429
X0.4634Y0.9055
X0.4732Y0.8673
X0.4764Y1.4843
X0.4764Y1.4024
X0.4925Y1.3622
X0.5114Y1.1764
X0.5146Y1.048
X0.5181Y0.526
X0.5189Y1.0862
X0.5189Y0.9736
X0.5213Y1.011
X0.5264Y0.8559
X0.5354Y1.3622
X0.5437Y1.2441
X0.5571Y1.6125
X0.5638Y0.8551
X0.5669Y0.5201
X0.5906Y1.2394
X0.5945Y1.3319
X0.5953Y0.9728
X0.6067Y0.878
X0.6496Y1.4213
X0.661Y0.9756
X0.6732Y1.8106
X0.678Y1.4488
X0.6906Y1.3323
X0.7602Y0.9772
X0.7638Y1.3583
X0.7831Y1.1382
X0.785Y0.5217
X0.7858Y1.0043
X0.7874Y0.5622
X0.7915Y1.6693
X0.815Y0.3752
X0.8185Y1.7638
X0.8189Y1.3319
X0.8224Y1.8205
X0.8232Y0.4933
X0.8232Y0.4539
X0.8303Y1.6504
X0.8413Y1.6937
X0.8433Y0.4736
X0.8575Y1.8945
X0.8583Y0.878
X0.8626Y0.4933
X0.8626Y0.4539
X0.8701Y1.6039
X0.8709Y1.6602
X0.8941Y1.7339
X0.9016Y1.7992
X0.9055Y1.2559
X0.9091Y0.5559
X0.9094Y1.2953
X0.9157Y0.3937
X0.9165Y1.0012
X0.9197Y1.5622
X0.9224Y0.8791
X0.9346Y1.1453
X0.9445Y1.6929
X0.9449Y1.7992
X0.9449Y1.6496
X0.9465Y1.0315
X0.9669Y0.3732
X0.978Y1.8969
X0.9831Y0.5783
X0.9882Y1.0004
X0.9886Y1.7953
X1.Y0.8815
X1.0013Y0.823
X1.0039Y1.6929
X1.0039Y1.6496
X1.0039Y0.6575
X1.0118Y0.0583
X1.0303Y1.7992
X1.0339Y1.3165
X1.0343Y1.2787
X1.052Y1.678
X1.0618Y0.8559
X1.0618Y0.7965
X1.0709Y1.7953
X1.0748Y1.6102
X1.1496Y0.324
X1.1614Y0.5709
X1.1937Y1.2283
X1.2008Y1.1496
X1.2008Y0.4291
X1.2126Y0.5276
X1.2126Y0.4764
X1.2461Y0.7012
X1.2756Y0.7256
X1.3055Y0.7709
X1.3055Y0.6917
X1.3217Y1.4039
X1.322Y0.3228
X1.3228Y0.1929
X1.323Y0.4408
X1.3465Y0.7677
X1.3465Y0.5516
X1.3709Y0.3228
X1.378Y1.5669
X1.3846Y0.6882
X1.3854Y0.7677
X1.4094Y0.5157
X1.4173Y1.5669
X1.433Y0.3228
X1.4331Y0.4055
X1.4461Y0.5307
X1.4579Y1.4126
X1.4724Y0.4913
X1.4724Y0.4413
X1.4744Y0.3913
X1.5067Y0.7024
X1.563Y0.3031
X1.5673Y1.335
X1.5752Y0.5583
X1.5787Y1.5669
X1.598Y1.2319
X1.602Y1.1705
X1.602Y1.1067
X1.6024Y0.3031
X1.6028Y1.2953
X1.6181Y1.5669
X1.6303Y1.2622
X1.6335Y1.202
X1.6335Y1.1386
X1.6417Y0.3031
X1.6535Y1.3898
X1.6689Y0.5626
X1.6878Y1.3571
X1.7154Y1.0295
X1.7201Y1.3902
X1.7209Y2.0441
X1.7217Y1.5642
X1.7272Y0.5181
X1.75Y1.3547
X1.752Y0.7362
X1.7524Y0.6909
X1.7606Y0.7768
X1.7638Y0.4415
X1.785Y1.3819
X1.7976Y0.7295
X1.8157Y1.3551
X1.8276Y1.5618
X1.8465Y1.3894
X1.8583Y0.6969
X1.8587Y1.1035
X1.8654Y1.5634
X1.8697Y0.9807
X1.872Y1.0472
X1.8811Y0.9138
X1.8827Y0.7598
X1.8839Y0.5563
X1.8976Y1.4122
X1.9087Y0.9819
X1.9122Y0.8457
X1.9803Y1.5232
X2.0106Y0.6075
X2.011Y0.6449
X2.0354Y1.1591
X2.0354Y0.9094
X2.0504Y0.9575
X2.052Y1.0063
X2.0583Y1.4559
X2.0606Y1.2476
X2.0622Y1.2846
X2.0697Y1.5642
X2.0709Y0.8776
X2.0736Y0.7449
X2.0905Y1.3937
X2.1024Y1.2953
X2.1232Y1.0429
X2.1303Y1.5567
X2.1315Y1.4346
X2.1382Y1.2665
X2.1394Y1.3917
X2.1496Y2.0472
X2.1504Y1.1154
X2.1614Y0.6949
X2.1614Y0.6516
X2.1764Y1.2283
X2.1772Y1.2677
X2.1839Y1.415
X2.1839Y1.3717
X2.1941Y1.1591
X2.1945Y0.9311
X2.1957Y1.0476
X2.1957Y1.0114
X2.2047Y0.6945
X2.2047Y0.6516
X2.2142Y1.2283
X2.2157Y1.0311
X2.2272Y1.415
X2.2272Y1.3717
X2.235Y1.048
X2.235Y1.0114
X2.2476Y0.6949
X2.248Y0.6516
X2.2524Y1.224
X2.2705Y1.4154
X2.2705Y1.3717
X2.2713Y1.5638
X2.2839Y1.263
X2.296Y1.142
X2.3067Y1.2925
X2.3228Y0.6732
X2.3311Y1.5559
X2.3469Y0.7539
X2.352Y1.3638
X2.4016Y0.5709
X2.4102Y0.7445
X2.4673Y1.5642
X2.5236Y1.563
T2
X0.0695Y1.1855
X0.0695Y1.0905
X0.115Y1.4858
X0.1197Y0.8047
X0.1634Y0.8335
X0.166Y1.3228
X0.1693Y0.9528
X0.5669Y0.4319
X0.6012Y0.3976
X0.6295Y0.3382
X0.6614Y0.2874
X0.6764Y0.5831
X0.713Y0.2874
X1.3642Y0.4862
X1.3701Y0.4406
X1.437Y0.248
X1.4724Y0.2244
T3
X0.7305Y0.205
X0.8305Y0.205
X0.9305Y0.205
T4
X0.6215Y0.802
X0.6215Y0.702
X0.7215Y0.802
X0.7215Y0.702
X0.74Y2.
X0.8215Y0.802
X0.8215Y0.702
X0.84Y2.
X0.9215Y0.802
X0.9215Y0.702
X0.94Y2.
X1.04Y2.
X1.1Y0.1
X1.14Y2.
X1.14Y1.825
X1.14Y1.725
X1.14Y1.625
X1.2Y0.1
X1.24Y2.
X1.24Y1.825
X1.24Y1.725
X1.24Y1.625
X1.3Y0.1
X1.34Y2.
X1.34Y1.825
X1.34Y1.725
X1.34Y1.625
X1.4Y0.1
X1.44Y2.
X1.44Y1.825
X1.44Y1.725
X1.44Y1.625
X1.5Y0.1
X1.54Y2.
X1.54Y1.825
X1.54Y1.725
X1.54Y1.625
X1.6Y0.1
X1.64Y2.
X1.64Y1.825
X1.64Y1.725
X1.64Y1.625
X1.7Y0.1
X1.8Y2.
X1.8Y1.825
X1.8Y1.725
X1.8Y1.625
X1.8Y0.1
X1.85Y0.475
X1.85Y0.375
X1.85Y0.275
X1.9Y2.
X1.9Y1.825
X1.9Y1.725
X1.9Y1.625
X1.95Y0.475
X1.95Y0.375
X1.95Y0.275
X2.Y2.
X2.Y1.825
X2.Y1.725
X2.Y1.625
X2.Y0.1
X2.05Y0.475
X2.05Y0.375
X2.05Y0.275
X2.1Y2.
X2.1Y1.825
X2.1Y1.725
X2.1Y1.625
X2.1Y0.1
X2.15Y0.475
X2.15Y0.375
X2.15Y0.275
X2.2Y2.
X2.2Y1.825
X2.2Y1.725
X2.2Y1.625
X2.2Y0.1
X2.25Y0.475
X2.25Y0.375
X2.25Y0.275
X2.3Y2.
X2.3Y1.825
X2.3Y1.725
X2.3Y1.625
X2.3Y0.1
X2.35Y0.475
X2.35Y0.375
X2.35Y0.275
X2.4Y2.
X2.4Y1.825
X2.4Y1.725
X2.4Y1.625
X2.4Y0.1
X2.424Y1.4515
X2.424Y1.3515
X2.424Y1.2515
X2.4275Y1.119
X2.4275Y1.019
X2.4275Y0.919
X2.4275Y0.819
X2.5Y2.
X2.5Y1.825
X2.5Y1.725
X2.5Y1.625
X2.5Y0.1
X2.5275Y1.119
X2.5275Y1.019
X2.5275Y0.919
X2.5275Y0.819
X2.6275Y1.119
X2.6275Y1.019
X2.6275Y0.919
X2.6275Y0.819
T5
X2.585Y0.665
X2.585Y0.4875
T6
X2.4865Y0.7145
X2.4865Y0.4385
T7
X0.213Y0.329
X0.341Y0.14
T8
X0.459Y0.329
T9
X0.55Y0.1
X0.6Y2.
X2.6Y1.4
X2.6Y0.3
T0
M30
