M48
;Layer_Color=9474304
;FILE_FORMAT=4:4
METRIC,LZ
;TYPE=PLATED
T1F00S00C0.3000
T2F00S00C0.4000
T3F00S00C0.8500
T4F00S00C0.9000
T5F00S00C1.0000
T6F00S00C1.1000
T7F00S00C1.2000
T8F00S00C1.3000
T9F00S00C3.0500
T10F00S00C3.5600
;TYPE=NON_PLATED
T11F00S00C3.2000
%
T01
X00336Y00049
Y00082
X00348121
X00364
Y00103
X00374632Y00099368
X00374068Y00112068
X00374Y00125
X0036725Y0013475
X00358Y00131
X00341967Y00140033
X00336Y00112
X0033177Y0017573
X0033175Y0019575
X00342Y00195
X00354
X0035177Y0017477
X0038275Y0017875
X0040006Y0014194
X0042387Y0014187
X00438621Y00131621
X00448068Y00112068
X00479Y0014125
X00472Y00177
X004782Y00193
X0045725Y0018525
X00445Y00187
X0044725Y0019725
X0044625Y001755
X0051075Y0016375
X005105Y0015425
X00549Y001655
X0056
X00571
Y001765
X0056
X00549
X0052675Y0018925
X00526Y00222
X00517Y00231
X00521Y0024325
X00524Y00257
X00539596Y00264597
X00557718Y00266879
Y00256879
X00567718
Y00266879
X00562718Y00261879
X00557Y00236435
X0054625Y0028325
X00558745Y00295599
X00561999Y00311999
X00551999
X00552999Y00321999
X00543Y00322
X00534Y00329
X0052375Y0032575
X0052375Y0031625
X00517Y00294
X0047275Y002795
X004755Y00266
X00475Y00249
X004848Y002492
X00475Y00232
X00485999Y00215
X00437Y00255
X00406939Y00281117
X00415Y00289178
X00406939Y00297239
X0040708Y0031322
X00414859Y00320998
X00406939Y00328918
X00398Y00339
X00415Y003053
X00572Y00311
X00578218Y00320783
X00586Y00327
X00584Y0029
X00596Y00191
X0061
X0059Y00171
X0061Y00145
X00417Y00077
X00407
X00397
X00292Y0008225
X00305Y00109
X00308Y00121
Y00134
X00295Y00145
X00246Y0015
X0023075Y0014225
X0021914Y0012528
X0021414Y0012028
X0020914Y0011528
X0021914
X0020914Y0012528
X0019939Y0013261
X002Y0014275
X00207Y00096
X00233Y001
X00255Y00167
X00254Y00209
X00254Y00224
X0023425Y0022325
X00218Y00223
X0022925Y0025175
X00231999Y00261999
X00251Y00254
X00237Y00289
X0023Y00319
X00231Y00328999
X0020814Y0033814
X0017542Y0033842
X0015058
X0015Y00315
X0013796Y0031604
X0012985Y0029885
X0013185Y0027585
X0013066Y0026625
X0013185Y0025685
X0013065Y0024735
X0015125Y00247
X0016796Y0024779
X0019275Y0024875
X002Y00255
X00199Y00289
X0026219Y0032619
X0026269Y0033569
X0030325Y00312
X00305Y00292
X0026975Y0021725
Y0020225
X003165Y00178
X00324Y0018425
X0015425Y00223
X0014316Y0021716
X0013366Y0021734
X0012025Y0022025
X0011775Y0023
X001135Y002395
X001Y00222
X0009925Y0019725
X0008Y00198
X0005525Y0018325
X00031Y00169
X0009825Y0016725
X0013147Y0013347
X00144Y00132
X0007Y0023
X0007155Y0025555
X0006209Y0027009
X0006087Y0029113
X00058Y0030374
X00073Y00311
X00091Y00315
X00091Y00303999
X00091Y00291
X00076Y00336
X00257Y00015
X00194Y00345
X0017215Y0036785
X00165Y00360999
X00136Y00346
X00125
X00121Y0035625
Y00377
X00112Y00382
X00092Y00381
X00097Y0042
X0009Y0042662
X00097Y00434
X00091Y00442
X00097Y00474
X00091Y00482
X00097Y0049
X00091Y00499
X00083Y0052
X00014Y00461
X00015Y0035
X001415Y0040975
X00201Y00422
X00211Y00421
X002204Y004206
X00221Y0041
X00218Y0043
X00228Y00441
X00229Y00457
X0024
X00251109Y00456109
X00262Y00457
X00272Y00456
X00267217Y00426217
X00255Y0043
Y00419
X0024
Y0043
X00234Y00396999
X00273Y00409
X00249Y0048175
X00218Y0048125
X00209Y00463
X00208Y00448
X00171Y0046
X0032677Y0035923
X0036725Y0036025
X0035995Y0039795
X00349999Y00397999
X0040095Y0039795
X00411Y00398
X0043725Y0039725
X0046425Y0039675
X0047375Y00397
X00505Y0038475
X0052275Y0036975
X00541Y00366
X00543467Y00353532
X00531Y00354
X00554717Y00359379
X00565718
X00576717
Y00348379
X00565718
X00554717
X00597379Y00346379
X0059225Y0039725
X0057675Y0039725
X0054125
X0052575
X00481999Y00358999
X00468953Y00353061
X00460892Y00345
X00452831Y00353061
X00436709
X00428648Y00345
X00420587Y00353061
X0044477Y00345
X00437Y00519
X00546Y00521
X0062675Y0039725
X00641Y00397
T02
X00365Y00063
X00374Y00057
X00348121Y00111879
X00346Y00124
X002455Y0009475
X00181Y00073
X00168
X0016Y00086
X00153Y00101
X00144Y00109
X001725Y0014875
X00041Y0021
X0003039Y0020439
X00043Y00242
X000175Y00277067
Y00301067
X00044Y00336
X0003039Y0037761
T03
X0018542Y0005207
X0021082
X0023622
T04
X003556Y000254
X00381
X004064
X004318
X004572
X00508
X005334
X005588
X005842
X006096
X00635
X005969Y0006985
X005715
X005461
X005207
X004953
X004699
Y0009525
Y0012065
X004953
X005207
X005461
X005715
X005969
Y0009525
X005715
X005461
X005207
X004953
X006166Y00208
X00642
Y002334
Y002588
Y002842
X006674
Y002588
Y002334
Y00208
X006166Y002334
Y002588
Y002842
X003302Y000254
X003048
X002794
X0028956Y0041275
X0031496
Y0043815
Y0046355
X0028956
Y0043815
Y00508
X0026416
X0023876
X0021336
X0018796
X0031496
X0034036
X0036576
X0039116
X0041656
X004572
X004826
X00508
X005334
X005588
X005842
X006096
X00635
Y0046355
X006096
X005842
X005588
X005334
X00508
X004826
X004572
Y0043815
Y0041275
X004826
X00508
X005334
X005588
X005842
X006096
X00635
Y0043815
X006096
X005842
X005588
X005334
X00508
X004826
X0041656
Y0041275
X0039116
X0036576
X0034036
Y0043815
Y0046355
X0036576
X0039116
X0041656
X0039116Y0043815
X0036576
T05
X0065659Y0012391
Y0016891
T06
X00157879Y00178282
X00183279
X00208679
Y00203682
X00183279
X00157879
X00234079
Y00178282
T07
X006157Y00317879
Y00343279
Y00368679
T08
X0063159Y0011141
Y0018141
T09
X0008684Y0003582
X0005434Y0008382
T10
X0011684Y0008382
T11
X006604Y000762
X001397Y000254
X001524Y00508
X006604Y003556
M30
