G04 Layer_Color=32896*
%FSLAX44Y44*%
%MOMM*%
G71*
G01*
G75*
%ADD10R,0.5588X0.6858*%
%ADD11R,0.6858X0.5588*%
%ADD12O,0.3000X1.6500*%
%ADD13O,1.6500X0.3000*%
%ADD14R,1.0000X1.2000*%
%ADD15R,2.2000X2.2000*%
%ADD16R,1.6000X2.1000*%
%ADD17R,1.3500X0.4000*%
%ADD18R,1.9000X1.8000*%
%ADD19R,1.9000X1.9000*%
%ADD20R,1.6000X1.2000*%
%ADD21R,1.1000X1.2500*%
%ADD22R,0.8000X0.9000*%
%ADD23R,0.9000X0.8000*%
%ADD24R,1.0000X1.4000*%
%ADD25R,0.8000X0.8000*%
%ADD26R,1.4000X1.0000*%
G04:AMPARAMS|DCode=27|XSize=0.28mm|YSize=0.85mm|CornerRadius=0.098mm|HoleSize=0mm|Usage=FLASHONLY|Rotation=0.000|XOffset=0mm|YOffset=0mm|HoleType=Round|Shape=RoundedRectangle|*
%AMROUNDEDRECTD27*
21,1,0.2800,0.6540,0,0,0.0*
21,1,0.0840,0.8500,0,0,0.0*
1,1,0.1960,0.0420,-0.3270*
1,1,0.1960,-0.0420,-0.3270*
1,1,0.1960,-0.0420,0.3270*
1,1,0.1960,0.0420,0.3270*
%
%ADD27ROUNDEDRECTD27*%
G04:AMPARAMS|DCode=28|XSize=0.28mm|YSize=0.85mm|CornerRadius=0.098mm|HoleSize=0mm|Usage=FLASHONLY|Rotation=90.000|XOffset=0mm|YOffset=0mm|HoleType=Round|Shape=RoundedRectangle|*
%AMROUNDEDRECTD28*
21,1,0.2800,0.6540,0,0,90.0*
21,1,0.0840,0.8500,0,0,90.0*
1,1,0.1960,0.3270,0.0420*
1,1,0.1960,0.3270,-0.0420*
1,1,0.1960,-0.3270,-0.0420*
1,1,0.1960,-0.3270,0.0420*
%
%ADD28ROUNDEDRECTD28*%
%ADD30R,0.5000X0.3000*%
G04:AMPARAMS|DCode=32|XSize=0.45mm|YSize=1.05mm|CornerRadius=0.0675mm|HoleSize=0mm|Usage=FLASHONLY|Rotation=90.000|XOffset=0mm|YOffset=0mm|HoleType=Round|Shape=RoundedRectangle|*
%AMROUNDEDRECTD32*
21,1,0.4500,0.9150,0,0,90.0*
21,1,0.3150,1.0500,0,0,90.0*
1,1,0.1350,0.4575,0.1575*
1,1,0.1350,0.4575,-0.1575*
1,1,0.1350,-0.4575,-0.1575*
1,1,0.1350,-0.4575,0.1575*
%
%ADD32ROUNDEDRECTD32*%
%ADD33R,1.6000X1.0000*%
%ADD34R,0.8000X1.0000*%
%ADD35R,0.6500X0.8000*%
%ADD36R,1.0000X1.5000*%
%ADD37R,0.5000X0.4500*%
%ADD39R,0.4500X0.5000*%
%ADD40R,0.8000X0.6500*%
%ADD41R,1.2000X1.6000*%
%ADD42O,1.8000X0.4500*%
%ADD43R,0.4500X0.4000*%
%ADD44R,0.6500X0.4000*%
G04:AMPARAMS|DCode=46|XSize=0.3mm|YSize=0.65mm|CornerRadius=0.045mm|HoleSize=0mm|Usage=FLASHONLY|Rotation=90.000|XOffset=0mm|YOffset=0mm|HoleType=Round|Shape=RoundedRectangle|*
%AMROUNDEDRECTD46*
21,1,0.3000,0.5600,0,0,90.0*
21,1,0.2100,0.6500,0,0,90.0*
1,1,0.0900,0.2800,0.1050*
1,1,0.0900,0.2800,-0.1050*
1,1,0.0900,-0.2800,-0.1050*
1,1,0.0900,-0.2800,0.1050*
%
%ADD46ROUNDEDRECTD46*%
%ADD47R,3.7000X0.9800*%
%ADD48R,0.8500X0.2800*%
%ADD49R,0.7500X0.2800*%
%ADD50O,0.7000X0.3000*%
%ADD51O,0.3000X0.7000*%
%ADD54R,0.2800X0.8500*%
%ADD56O,0.8000X0.2800*%
%ADD57O,0.2800X0.8000*%
%ADD87R,0.7000X0.7000*%
%ADD88R,0.7000X0.7000*%
%ADD89R,1.1000X1.5000*%
%ADD90R,0.8250X1.0000*%
%ADD91R,1.0700X0.8200*%
%ADD92R,1.3200X0.8200*%
%ADD93R,1.5000X1.5000*%
%ADD94R,1.0000X1.6500*%
G36*
X26282Y517842D02*
X17592D01*
X17440Y517810D01*
Y526400D01*
X23700Y527850D01*
X26282D01*
Y517842D01*
D02*
G37*
D10*
X80474Y235121D02*
D03*
X56090D02*
D03*
D11*
X573153Y229456D02*
D03*
Y205072D02*
D03*
X518121Y335525D02*
D03*
Y359909D02*
D03*
D12*
X306770Y372700D02*
D03*
X311770D02*
D03*
X316770D02*
D03*
X321770D02*
D03*
X326770D02*
D03*
X331770D02*
D03*
X336770D02*
D03*
X341770D02*
D03*
X346770D02*
D03*
X351770D02*
D03*
X356770D02*
D03*
X361770D02*
D03*
X366770D02*
D03*
X371770D02*
D03*
X376770D02*
D03*
X381770D02*
D03*
X386770D02*
D03*
X391770D02*
D03*
X396770D02*
D03*
X401770D02*
D03*
X406770D02*
D03*
X411770D02*
D03*
X416770D02*
D03*
X421770D02*
D03*
X426770D02*
D03*
X431770D02*
D03*
X436770D02*
D03*
X441770D02*
D03*
X446770D02*
D03*
X451770D02*
D03*
X456770D02*
D03*
X461770D02*
D03*
X466770D02*
D03*
X471770D02*
D03*
X476770D02*
D03*
X481770D02*
D03*
Y160700D02*
D03*
X476770D02*
D03*
X471770D02*
D03*
X466770D02*
D03*
X461770D02*
D03*
X456770D02*
D03*
X451770D02*
D03*
X446770D02*
D03*
X441770D02*
D03*
X436770D02*
D03*
X431770D02*
D03*
X426770D02*
D03*
X421770D02*
D03*
X416770D02*
D03*
X411770D02*
D03*
X406770D02*
D03*
X401770D02*
D03*
X396770D02*
D03*
X391770D02*
D03*
X386770D02*
D03*
X381770D02*
D03*
X376770D02*
D03*
X371770D02*
D03*
X366770D02*
D03*
X361770D02*
D03*
X356770D02*
D03*
X351770D02*
D03*
X346770D02*
D03*
X341770D02*
D03*
X336770D02*
D03*
X331770D02*
D03*
X326770D02*
D03*
X321770D02*
D03*
X316770D02*
D03*
X311770D02*
D03*
X306770D02*
D03*
D13*
X500270Y354200D02*
D03*
Y349200D02*
D03*
Y344200D02*
D03*
Y339200D02*
D03*
Y334200D02*
D03*
Y329200D02*
D03*
Y324200D02*
D03*
Y319200D02*
D03*
Y314200D02*
D03*
Y309200D02*
D03*
Y304200D02*
D03*
Y299200D02*
D03*
Y294200D02*
D03*
Y289200D02*
D03*
Y284200D02*
D03*
Y279200D02*
D03*
Y274200D02*
D03*
Y269200D02*
D03*
Y264200D02*
D03*
Y259200D02*
D03*
Y254200D02*
D03*
Y249200D02*
D03*
Y244200D02*
D03*
Y239200D02*
D03*
Y234200D02*
D03*
Y229200D02*
D03*
Y224200D02*
D03*
Y219200D02*
D03*
Y214200D02*
D03*
Y209200D02*
D03*
Y204200D02*
D03*
Y199200D02*
D03*
Y194200D02*
D03*
Y189200D02*
D03*
Y184200D02*
D03*
Y179200D02*
D03*
X288270D02*
D03*
Y184200D02*
D03*
Y189200D02*
D03*
Y194200D02*
D03*
Y199200D02*
D03*
Y204200D02*
D03*
Y209200D02*
D03*
Y214200D02*
D03*
Y219200D02*
D03*
Y224200D02*
D03*
Y229200D02*
D03*
Y234200D02*
D03*
Y239200D02*
D03*
Y244200D02*
D03*
Y249200D02*
D03*
Y254200D02*
D03*
Y259200D02*
D03*
Y264200D02*
D03*
Y269200D02*
D03*
Y274200D02*
D03*
Y279200D02*
D03*
Y284200D02*
D03*
Y289200D02*
D03*
Y294200D02*
D03*
Y299200D02*
D03*
Y304200D02*
D03*
Y309200D02*
D03*
Y314200D02*
D03*
Y319200D02*
D03*
Y324200D02*
D03*
Y329200D02*
D03*
Y334200D02*
D03*
Y339200D02*
D03*
Y344200D02*
D03*
Y349200D02*
D03*
Y354200D02*
D03*
D14*
X106880Y365480D02*
D03*
X87880D02*
D03*
X106880Y344480D02*
D03*
X87880D02*
D03*
D15*
X62980Y149060D02*
D03*
X22980D02*
D03*
D16*
X43125Y258192D02*
D03*
Y320192D02*
D03*
D17*
X44375Y276192D02*
D03*
Y282692D02*
D03*
Y289192D02*
D03*
Y295692D02*
D03*
Y302192D02*
D03*
D18*
X17625Y329192D02*
D03*
Y249192D02*
D03*
D19*
Y301192D02*
D03*
Y277192D02*
D03*
D20*
X173960Y150500D02*
D03*
Y130500D02*
D03*
X173960Y81390D02*
D03*
Y113390D02*
D03*
D21*
X61470Y255550D02*
D03*
X82470D02*
D03*
D22*
X50490Y347840D02*
D03*
X36490D02*
D03*
D23*
X79820Y324718D02*
D03*
Y310718D02*
D03*
D24*
X90500Y211000D02*
D03*
X109500D02*
D03*
X100000Y233000D02*
D03*
X285166Y59787D02*
D03*
X304166D02*
D03*
X294666Y81787D02*
D03*
D25*
X37000Y488000D02*
D03*
X21000D02*
D03*
X37000Y443000D02*
D03*
X21000D02*
D03*
X37000Y458000D02*
D03*
X21000D02*
D03*
X37000Y473000D02*
D03*
X21000D02*
D03*
X37230Y428000D02*
D03*
X21230D02*
D03*
X37000Y398000D02*
D03*
X21000D02*
D03*
X37000Y383000D02*
D03*
X21000D02*
D03*
X268295Y69610D02*
D03*
X252295D02*
D03*
X37000Y413000D02*
D03*
X21000D02*
D03*
X146090Y472107D02*
D03*
X130090D02*
D03*
X146093Y418290D02*
D03*
X130093D02*
D03*
X146093Y402410D02*
D03*
X130093D02*
D03*
D26*
X17000Y194500D02*
D03*
Y175500D02*
D03*
X39000Y185000D02*
D03*
X17000Y230500D02*
D03*
Y211500D02*
D03*
X39000Y221000D02*
D03*
D27*
X555218Y276629D02*
D03*
X560218D02*
D03*
X565218D02*
D03*
X570218D02*
D03*
X555218Y247129D02*
D03*
X560218D02*
D03*
X565218D02*
D03*
X570218D02*
D03*
X206640Y135030D02*
D03*
X211640D02*
D03*
X216640D02*
D03*
X221640D02*
D03*
X206640Y105530D02*
D03*
X211640D02*
D03*
X216640D02*
D03*
X221640D02*
D03*
D28*
X547968Y269379D02*
D03*
Y264379D02*
D03*
Y259379D02*
D03*
Y254379D02*
D03*
X577468Y254379D02*
D03*
Y259379D02*
D03*
Y264379D02*
D03*
Y269379D02*
D03*
X199390Y112780D02*
D03*
Y117780D02*
D03*
Y122780D02*
D03*
Y127780D02*
D03*
X228890Y127780D02*
D03*
Y122780D02*
D03*
Y117780D02*
D03*
Y112780D02*
D03*
D30*
X68740Y286130D02*
D03*
Y291130D02*
D03*
Y296130D02*
D03*
X82740D02*
D03*
Y291130D02*
D03*
Y286130D02*
D03*
D32*
X438621Y86668D02*
D03*
Y99368D02*
D03*
Y112068D02*
D03*
Y124768D02*
D03*
X383621D02*
D03*
Y112068D02*
D03*
Y99368D02*
D03*
Y86668D02*
D03*
D33*
X122282Y508871D02*
D03*
X84282D02*
D03*
X122282Y522871D02*
D03*
X84282D02*
D03*
X64282Y508842D02*
D03*
X26282D02*
D03*
X64282Y522842D02*
D03*
D34*
X30280D02*
D03*
D35*
X129439Y173924D02*
D03*
X115939D02*
D03*
X70620Y270090D02*
D03*
X84120D02*
D03*
X94120Y324180D02*
D03*
X107620D02*
D03*
X95250Y380340D02*
D03*
X108750D02*
D03*
X68250Y174000D02*
D03*
X54750D02*
D03*
X115939Y191000D02*
D03*
X129439D02*
D03*
X209750Y153000D02*
D03*
X196250D02*
D03*
X237750Y150000D02*
D03*
X224250D02*
D03*
D36*
X37972Y364597D02*
D03*
X59972D02*
D03*
D37*
X374588Y61000D02*
D03*
Y70500D02*
D03*
X352620Y142730D02*
D03*
Y133230D02*
D03*
X269380Y326190D02*
D03*
Y335690D02*
D03*
X517000Y256750D02*
D03*
Y247250D02*
D03*
Y316250D02*
D03*
Y325750D02*
D03*
X364000Y96750D02*
D03*
Y87250D02*
D03*
X503750Y163750D02*
D03*
Y154250D02*
D03*
X271000Y176250D02*
D03*
Y185750D02*
D03*
X517000Y277250D02*
D03*
Y286750D02*
D03*
X223000Y262750D02*
D03*
Y253250D02*
D03*
X61940Y347760D02*
D03*
Y338260D02*
D03*
X126000Y361250D02*
D03*
Y370750D02*
D03*
X199750Y403250D02*
D03*
Y412750D02*
D03*
X199750Y439750D02*
D03*
Y430250D02*
D03*
X211000Y412750D02*
D03*
Y403250D02*
D03*
X211000Y439750D02*
D03*
Y430250D02*
D03*
X248000Y465250D02*
D03*
Y474750D02*
D03*
X228000Y465250D02*
D03*
Y474750D02*
D03*
X268000Y465250D02*
D03*
Y474750D02*
D03*
X258000Y465250D02*
D03*
Y474750D02*
D03*
X238000Y465250D02*
D03*
Y474750D02*
D03*
X218000Y465250D02*
D03*
Y474750D02*
D03*
X596000Y183750D02*
D03*
Y174250D02*
D03*
Y164750D02*
D03*
Y155250D02*
D03*
X531000Y338250D02*
D03*
Y347750D02*
D03*
Y360250D02*
D03*
Y369750D02*
D03*
X407000Y70750D02*
D03*
Y61250D02*
D03*
X427000Y70750D02*
D03*
Y61250D02*
D03*
X397000Y70750D02*
D03*
Y61250D02*
D03*
X417000Y70750D02*
D03*
Y61250D02*
D03*
X223000Y367250D02*
D03*
Y376750D02*
D03*
X213000Y367250D02*
D03*
Y376750D02*
D03*
X233000D02*
D03*
Y367250D02*
D03*
X203000Y367250D02*
D03*
Y376750D02*
D03*
X595000Y327750D02*
D03*
Y318250D02*
D03*
X534000Y273250D02*
D03*
Y282750D02*
D03*
Y252750D02*
D03*
Y243250D02*
D03*
X617000Y93750D02*
D03*
Y84250D02*
D03*
Y63250D02*
D03*
Y72750D02*
D03*
X77000Y212250D02*
D03*
Y221750D02*
D03*
X609098Y164615D02*
D03*
Y155115D02*
D03*
X189750Y412750D02*
D03*
Y403250D02*
D03*
X189750Y430250D02*
D03*
Y439750D02*
D03*
X319371Y55780D02*
D03*
Y46280D02*
D03*
X269150Y57950D02*
D03*
Y48450D02*
D03*
X382483Y61020D02*
D03*
Y70520D02*
D03*
X163780Y403250D02*
D03*
Y412750D02*
D03*
X174780Y403250D02*
D03*
Y412750D02*
D03*
D39*
X410450Y390000D02*
D03*
X400950D02*
D03*
X350450Y391000D02*
D03*
X359950D02*
D03*
X406840Y141870D02*
D03*
X416340D02*
D03*
X269750Y209000D02*
D03*
X260250D02*
D03*
X376750Y142000D02*
D03*
X367250D02*
D03*
X269750Y224000D02*
D03*
X260250D02*
D03*
X473750Y390000D02*
D03*
X464250D02*
D03*
X98250Y273000D02*
D03*
X107750D02*
D03*
Y264000D02*
D03*
X98250D02*
D03*
X131760Y339580D02*
D03*
X122260D02*
D03*
X107750Y313000D02*
D03*
X98250D02*
D03*
X168160Y338420D02*
D03*
X158660D02*
D03*
X222250Y289000D02*
D03*
X231750D02*
D03*
X201840Y224000D02*
D03*
X211340D02*
D03*
X143160Y224240D02*
D03*
X133660D02*
D03*
X200750Y338140D02*
D03*
X191250D02*
D03*
X555750Y290000D02*
D03*
X546250D02*
D03*
X574750D02*
D03*
X565250D02*
D03*
X601750Y390000D02*
D03*
X592250D02*
D03*
X550750D02*
D03*
X541250D02*
D03*
X490250D02*
D03*
X499750D02*
D03*
X652750D02*
D03*
X643250D02*
D03*
X617250D02*
D03*
X626750D02*
D03*
X567250D02*
D03*
X576750D02*
D03*
X516250D02*
D03*
X525750D02*
D03*
X446750D02*
D03*
X437250D02*
D03*
X232630Y92700D02*
D03*
X223130D02*
D03*
X437250Y142000D02*
D03*
X446750D02*
D03*
X162250Y224000D02*
D03*
X171750D02*
D03*
X190750D02*
D03*
X181250D02*
D03*
X526750Y198000D02*
D03*
X517250D02*
D03*
X269750Y164000D02*
D03*
X260250D02*
D03*
X107750Y250000D02*
D03*
X98250D02*
D03*
X107750Y303000D02*
D03*
X98250D02*
D03*
X260250Y254000D02*
D03*
X269750D02*
D03*
X70140Y383290D02*
D03*
X60640D02*
D03*
X70140Y391310D02*
D03*
X60640D02*
D03*
X88000Y174000D02*
D03*
X78500D02*
D03*
X106250Y174000D02*
D03*
X96750D02*
D03*
X130507Y205950D02*
D03*
X121007D02*
D03*
X96750Y190000D02*
D03*
X106250D02*
D03*
X64750Y222000D02*
D03*
X55250D02*
D03*
X55250Y190000D02*
D03*
X64750D02*
D03*
X78500Y190000D02*
D03*
X88000D02*
D03*
X55250Y202000D02*
D03*
X64750D02*
D03*
Y212000D02*
D03*
X55250D02*
D03*
X70140Y399291D02*
D03*
X60640D02*
D03*
X70140Y407288D02*
D03*
X60640D02*
D03*
X70140Y415285D02*
D03*
X60640D02*
D03*
X70098Y423283D02*
D03*
X60598D02*
D03*
X70348Y468280D02*
D03*
X60848D02*
D03*
X70380Y476277D02*
D03*
X60880D02*
D03*
X173596Y424030D02*
D03*
X164096D02*
D03*
D40*
X260000Y189750D02*
D03*
Y176250D02*
D03*
X61940Y326490D02*
D03*
Y312990D02*
D03*
X222440Y313710D02*
D03*
Y327210D02*
D03*
X595000Y294250D02*
D03*
Y307750D02*
D03*
X334879Y140033D02*
D03*
Y126533D02*
D03*
X336121Y88967D02*
D03*
Y102467D02*
D03*
X348121Y88967D02*
D03*
Y102467D02*
D03*
X153000Y109250D02*
D03*
Y122750D02*
D03*
D41*
X200640Y76280D02*
D03*
X232640D02*
D03*
D42*
X185070Y354850D02*
D03*
Y361350D02*
D03*
Y367850D02*
D03*
Y374350D02*
D03*
X143570Y354850D02*
D03*
Y361350D02*
D03*
Y367850D02*
D03*
Y374350D02*
D03*
D43*
X355250Y72500D02*
D03*
Y66000D02*
D03*
Y59500D02*
D03*
X152970Y142820D02*
D03*
Y149320D02*
D03*
Y155820D02*
D03*
X87030Y142460D02*
D03*
Y148960D02*
D03*
Y155460D02*
D03*
D44*
X333750Y59500D02*
D03*
Y66000D02*
D03*
Y72500D02*
D03*
X131470Y155820D02*
D03*
Y149320D02*
D03*
Y142820D02*
D03*
X108530Y155460D02*
D03*
Y148960D02*
D03*
Y142460D02*
D03*
D46*
X321871Y117968D02*
D03*
Y124468D02*
D03*
Y130968D02*
D03*
Y137468D02*
D03*
X294371D02*
D03*
Y130968D02*
D03*
Y124468D02*
D03*
Y117968D02*
D03*
D47*
X262720Y104430D02*
D03*
Y128130D02*
D03*
D48*
X311467Y103461D02*
D03*
X537750Y163500D02*
D03*
Y178500D02*
D03*
X582250D02*
D03*
Y163500D02*
D03*
X587967Y361379D02*
D03*
Y346379D02*
D03*
X543467D02*
D03*
Y361379D02*
D03*
D49*
X310968Y98461D02*
D03*
Y93461D02*
D03*
X322467Y103461D02*
D03*
Y98461D02*
D03*
Y93461D02*
D03*
D50*
X228217Y432379D02*
D03*
Y417379D02*
D03*
X267217D02*
D03*
Y432379D02*
D03*
D51*
X235217Y406629D02*
D03*
X240217D02*
D03*
X245217D02*
D03*
X250217D02*
D03*
X255217D02*
D03*
X260217D02*
D03*
Y443129D02*
D03*
X255217D02*
D03*
X250217D02*
D03*
X245217D02*
D03*
X240217D02*
D03*
X235217D02*
D03*
D54*
X577500Y153750D02*
D03*
X572500D02*
D03*
X567500D02*
D03*
X562500D02*
D03*
X557500D02*
D03*
X552500D02*
D03*
X547500D02*
D03*
X542500D02*
D03*
Y188250D02*
D03*
X547500D02*
D03*
X552500D02*
D03*
X557500D02*
D03*
X562500D02*
D03*
X567500D02*
D03*
X572500D02*
D03*
X577500D02*
D03*
X548218Y371129D02*
D03*
X553218D02*
D03*
X558218D02*
D03*
X563218D02*
D03*
X568218D02*
D03*
X573218D02*
D03*
X578218D02*
D03*
X583218D02*
D03*
Y336629D02*
D03*
X578218D02*
D03*
X573218D02*
D03*
X568218D02*
D03*
X563218D02*
D03*
X558218D02*
D03*
X553218D02*
D03*
X548218D02*
D03*
D56*
X121460Y318850D02*
D03*
Y313850D02*
D03*
Y253850D02*
D03*
Y258850D02*
D03*
Y263850D02*
D03*
Y268850D02*
D03*
Y273850D02*
D03*
Y278850D02*
D03*
Y283850D02*
D03*
Y288850D02*
D03*
Y293850D02*
D03*
Y298850D02*
D03*
Y303850D02*
D03*
Y308850D02*
D03*
Y248850D02*
D03*
Y243850D02*
D03*
X209460Y318850D02*
D03*
Y313850D02*
D03*
Y308850D02*
D03*
Y303850D02*
D03*
Y298850D02*
D03*
Y293850D02*
D03*
Y288850D02*
D03*
Y283850D02*
D03*
Y278850D02*
D03*
Y273850D02*
D03*
Y268850D02*
D03*
Y263850D02*
D03*
Y258850D02*
D03*
Y253850D02*
D03*
Y248850D02*
D03*
Y243850D02*
D03*
D57*
X127960Y237350D02*
D03*
X132960D02*
D03*
X137960D02*
D03*
X142960D02*
D03*
X147960D02*
D03*
X152960D02*
D03*
X157960D02*
D03*
X162960D02*
D03*
X167960D02*
D03*
X172960D02*
D03*
X177960D02*
D03*
X182960D02*
D03*
X187960D02*
D03*
X202960D02*
D03*
X197960D02*
D03*
X192960D02*
D03*
X167960Y325350D02*
D03*
X202960D02*
D03*
X197960D02*
D03*
X192960D02*
D03*
X187960D02*
D03*
X182960D02*
D03*
X177960D02*
D03*
X172960D02*
D03*
X162960D02*
D03*
X157960D02*
D03*
X152960D02*
D03*
X147960D02*
D03*
X142960D02*
D03*
X137960D02*
D03*
X132960D02*
D03*
X127960D02*
D03*
D87*
X567218Y257379D02*
D03*
X558218D02*
D03*
X209640Y115780D02*
D03*
X218640Y124780D02*
D03*
D88*
X567218Y266379D02*
D03*
X558218D02*
D03*
X218640Y115780D02*
D03*
X209640Y124780D02*
D03*
D89*
X419621Y96218D02*
D03*
Y115218D02*
D03*
X402621D02*
D03*
Y96218D02*
D03*
D90*
X346125Y66000D02*
D03*
X143845Y149320D02*
D03*
X96155Y148960D02*
D03*
D91*
X240867Y430479D02*
D03*
X254567Y419279D02*
D03*
X240867D02*
D03*
X254567Y430479D02*
D03*
D92*
X568100Y165400D02*
D03*
X551900Y176600D02*
D03*
X568100D02*
D03*
X551900Y165400D02*
D03*
X557617Y359479D02*
D03*
X573817Y348279D02*
D03*
X557617D02*
D03*
X573817Y359479D02*
D03*
D93*
X154460Y270350D02*
D03*
X176460D02*
D03*
Y292350D02*
D03*
X154460D02*
D03*
D94*
X308121Y127718D02*
D03*
M02*
