G04 Layer_Color=16711935*
%FSLAX44Y44*%
%MOMM*%
G71*
G01*
G75*
%ADD146C,1.6500*%
%ADD147R,1.6500X1.6500*%
%ADD148R,1.6500X1.6500*%
%ADD149C,4.7700*%
%ADD150C,5.5300*%
%ADD151C,1.6900*%
%ADD152C,2.0800*%
%ADD153C,1.5200*%
%ADD154R,1.5200X1.5200*%
%ADD155C,1.6740*%
%ADD156C,0.8900*%
%ADD157C,0.7900*%
D146*
X635000Y25400D02*
D03*
X609600D02*
D03*
X584200D02*
D03*
X558800D02*
D03*
X533400D02*
D03*
X482600Y508000D02*
D03*
X457200D02*
D03*
X508000D02*
D03*
X533400D02*
D03*
X558800D02*
D03*
X584200D02*
D03*
X609600D02*
D03*
X431800Y25400D02*
D03*
X457200D02*
D03*
X406400D02*
D03*
X381000D02*
D03*
X355600D02*
D03*
X330200D02*
D03*
X304800D02*
D03*
X187960Y508000D02*
D03*
X213360D02*
D03*
X264160D02*
D03*
X238760D02*
D03*
X289560D02*
D03*
X314960D02*
D03*
X340360D02*
D03*
X365760D02*
D03*
X391160D02*
D03*
X596900Y69850D02*
D03*
X571500D02*
D03*
X546100D02*
D03*
X520700D02*
D03*
X495300D02*
D03*
Y95250D02*
D03*
X520700D02*
D03*
X546100D02*
D03*
X571500D02*
D03*
X596900D02*
D03*
X495300Y120650D02*
D03*
X520700D02*
D03*
X546100D02*
D03*
X571500D02*
D03*
X596900D02*
D03*
X609600Y412750D02*
D03*
X584200D02*
D03*
X558800D02*
D03*
X482600D02*
D03*
X508000D02*
D03*
X533400D02*
D03*
X457200D02*
D03*
X609600Y463550D02*
D03*
X584200D02*
D03*
X558800D02*
D03*
X482600D02*
D03*
X508000D02*
D03*
X533400D02*
D03*
X457200D02*
D03*
Y438150D02*
D03*
X533400D02*
D03*
X508000D02*
D03*
X482600D02*
D03*
X558800D02*
D03*
X584200D02*
D03*
X609600D02*
D03*
X391160Y412750D02*
D03*
X365760D02*
D03*
X340360D02*
D03*
X314960D02*
D03*
X289560D02*
D03*
Y463550D02*
D03*
X314960D02*
D03*
X340360D02*
D03*
X365760D02*
D03*
X391160D02*
D03*
Y438150D02*
D03*
X365760D02*
D03*
X340360D02*
D03*
X314960D02*
D03*
X289560D02*
D03*
X234079Y178282D02*
D03*
Y203682D02*
D03*
X208679D02*
D03*
X183279D02*
D03*
X157879D02*
D03*
X183279Y178282D02*
D03*
X208679D02*
D03*
X616600Y258800D02*
D03*
Y233400D02*
D03*
Y208000D02*
D03*
X667400Y258800D02*
D03*
Y233400D02*
D03*
Y208000D02*
D03*
X642000Y258800D02*
D03*
Y233400D02*
D03*
Y208000D02*
D03*
X615700Y343279D02*
D03*
Y368679D02*
D03*
D147*
X508000Y25400D02*
D03*
X635000Y508000D02*
D03*
X279400Y25400D02*
D03*
X416560Y508000D02*
D03*
X469900Y69850D02*
D03*
Y95250D02*
D03*
Y120650D02*
D03*
X635000Y412750D02*
D03*
Y463550D02*
D03*
Y438150D02*
D03*
X416560Y412750D02*
D03*
Y463550D02*
D03*
Y438150D02*
D03*
X157879Y178282D02*
D03*
D148*
X616600Y284200D02*
D03*
X667400D02*
D03*
X642000D02*
D03*
X615700Y317879D02*
D03*
D149*
X54340Y83820D02*
D03*
X86840Y35820D02*
D03*
D150*
X116840Y83820D02*
D03*
D151*
X656590Y168910D02*
D03*
Y123910D02*
D03*
D152*
X631590Y181410D02*
D03*
Y111410D02*
D03*
D153*
X236220Y52070D02*
D03*
X210820D02*
D03*
D154*
X185420D02*
D03*
D155*
X660400Y76200D02*
D03*
Y355600D02*
D03*
X152400Y508000D02*
D03*
X139700Y25400D02*
D03*
D156*
X147250Y132174D02*
D03*
X17500Y301067D02*
D03*
Y277067D02*
D03*
X30390Y204390D02*
D03*
X245500Y94750D02*
D03*
X346000Y124000D02*
D03*
X253217Y419379D02*
D03*
X242217D02*
D03*
X253217Y430379D02*
D03*
X242217D02*
D03*
X571000Y165500D02*
D03*
X560000D02*
D03*
X549000D02*
D03*
X560000Y176500D02*
D03*
X549000D02*
D03*
X571000D02*
D03*
X554717Y359379D02*
D03*
X565718D02*
D03*
X576717D02*
D03*
X565718Y348379D02*
D03*
X576717D02*
D03*
X554717D02*
D03*
D157*
X567718Y256879D02*
D03*
X557718D02*
D03*
Y266879D02*
D03*
X567718D02*
D03*
X562718Y261879D02*
D03*
X308000Y121000D02*
D03*
X269750Y217250D02*
D03*
X308000Y134000D02*
D03*
X214140Y120280D02*
D03*
X209140Y115280D02*
D03*
X219140D02*
D03*
X209140Y125280D02*
D03*
X219140D02*
D03*
X233500Y331000D02*
D03*
M02*
