G04 Layer_Physical_Order=3*
G04 Layer_Color=1291751*
%FSLAX44Y44*%
%MOMM*%
G71*
G01*
G75*
%ADD59C,0.3000*%
%ADD60C,0.2000*%
%ADD61C,0.5000*%
%ADD62C,0.4000*%
%ADD63C,0.7500*%
%ADD64C,1.0000*%
%ADD67C,1.5000*%
%ADD68R,1.5000X1.5000*%
%ADD69R,1.5000X1.5000*%
%ADD70C,4.6200*%
%ADD71C,5.3800*%
%ADD72C,1.5400*%
%ADD74C,1.3700*%
%ADD77C,0.7400*%
%ADD79C,0.8000*%
%ADD80C,0.8400*%
G36*
X680427Y342842D02*
Y88958D01*
X678427Y88693D01*
X675932Y91732D01*
X672604Y94464D01*
X668806Y96494D01*
X666373Y97232D01*
X665725Y97780D01*
X664884Y98619D01*
X664891Y98654D01*
X665037Y99299D01*
X665029Y99349D01*
X665039Y99399D01*
Y114342D01*
X664967Y114704D01*
X664905Y115069D01*
X664890Y115094D01*
X664884Y115122D01*
X664679Y115430D01*
X664482Y115743D01*
X664406Y116070D01*
X664236Y117404D01*
X664256Y117669D01*
X664392Y118144D01*
X665063Y119018D01*
X666040Y121378D01*
X666176Y122410D01*
X656590D01*
Y125410D01*
X666176D01*
X666040Y126442D01*
X665063Y128802D01*
X664392Y129676D01*
X664256Y130151D01*
X664236Y130416D01*
X664406Y131751D01*
X664482Y132077D01*
X664679Y132390D01*
X664884Y132697D01*
X664890Y132726D01*
X664905Y132751D01*
X664967Y133116D01*
X665039Y133478D01*
Y159342D01*
X664967Y159704D01*
X664905Y160069D01*
X664890Y160094D01*
X664884Y160123D01*
X664679Y160430D01*
X664482Y160743D01*
X664406Y161070D01*
X664236Y162404D01*
X664256Y162670D01*
X664392Y163144D01*
X665063Y164018D01*
X666040Y166378D01*
X666374Y168910D01*
X666040Y171442D01*
X665063Y173802D01*
X664392Y174676D01*
X664256Y175151D01*
X664236Y175416D01*
X664406Y176751D01*
X664482Y177077D01*
X664679Y177390D01*
X664884Y177698D01*
X664890Y177726D01*
X664905Y177751D01*
X664967Y178116D01*
X665039Y178478D01*
Y197212D01*
X665900Y197967D01*
Y208000D01*
Y218033D01*
X665039Y218788D01*
Y222612D01*
X665900Y223367D01*
Y233400D01*
Y243433D01*
X665039Y244188D01*
Y248012D01*
X665900Y248767D01*
Y258800D01*
Y268833D01*
X665039Y269588D01*
Y274700D01*
X665900D01*
Y284200D01*
Y293700D01*
X665039D01*
Y332401D01*
X665029Y332451D01*
X665037Y332501D01*
X664891Y333146D01*
X664884Y333181D01*
X665725Y334020D01*
X666373Y334568D01*
X668806Y335306D01*
X672604Y337336D01*
X675932Y340068D01*
X678427Y343107D01*
X680427Y342842D01*
D02*
G37*
G36*
X497296Y378820D02*
X497545Y378653D01*
X497777Y378463D01*
X497874Y378434D01*
X497958Y378378D01*
X498252Y378319D01*
X498495Y378245D01*
X498569Y378002D01*
X498628Y377708D01*
X498684Y377624D01*
X498713Y377527D01*
X498903Y377295D01*
X499070Y377046D01*
X506558Y369558D01*
X507220Y369116D01*
X508000Y368961D01*
X517095D01*
X517381Y367526D01*
X518641Y365640D01*
X520526Y364381D01*
X522750Y363938D01*
X524974Y364381D01*
X526860Y365640D01*
X528119Y367526D01*
X528405Y368961D01*
X533901D01*
X535379Y366961D01*
X535188Y366000D01*
X535631Y363776D01*
X536890Y361890D01*
X538776Y360631D01*
X539897Y360408D01*
X540320Y358284D01*
X539358Y357642D01*
X538098Y355756D01*
X537881Y354663D01*
X537835Y354673D01*
X536540D01*
X536343Y354633D01*
X536142D01*
X535956Y354557D01*
X535760Y354517D01*
X535592Y354406D01*
X535407Y354329D01*
X535265Y354187D01*
X535098Y354075D01*
X534986Y353908D01*
X534844Y353766D01*
X534767Y353581D01*
X534656Y353414D01*
X534617Y353217D01*
X534540Y353031D01*
X534448Y352572D01*
X533639Y351361D01*
X532428Y350552D01*
X531000Y350267D01*
X529572Y350552D01*
X528361Y351361D01*
X527552Y352572D01*
X527267Y354000D01*
X527552Y355428D01*
X528332Y356597D01*
X528409Y356782D01*
X528521Y356949D01*
X528560Y357146D01*
X528637Y357332D01*
Y357533D01*
X528676Y357729D01*
X528637Y357927D01*
Y358128D01*
X528560Y358313D01*
X528521Y358510D01*
X527996Y359780D01*
X527995Y359780D01*
X527995Y359780D01*
X527774Y360112D01*
X527554Y360442D01*
X527553Y360442D01*
X527553Y360442D01*
X527243Y360649D01*
X526892Y360884D01*
X526892Y360884D01*
X526892Y360884D01*
X526517Y360959D01*
X526112Y361039D01*
X526112Y361039D01*
X526111Y361039D01*
X494787D01*
Y378501D01*
X496787Y379329D01*
X497296Y378820D01*
D02*
G37*
G36*
X593077Y363039D02*
X592248Y361039D01*
X582454D01*
X582257Y361000D01*
X582056D01*
X581870Y360923D01*
X581673Y360884D01*
X581506Y360772D01*
X581321Y360695D01*
X581179Y360554D01*
X581012Y360442D01*
X580900Y360275D01*
X580758Y360133D01*
X580681Y359947D01*
X580570Y359780D01*
X580531Y359583D01*
X580454Y359398D01*
X580166Y357951D01*
X579357Y356740D01*
X578756Y356338D01*
X578614Y356196D01*
X578447Y356085D01*
X578335Y355918D01*
X578193Y355776D01*
X578116Y355590D01*
X578005Y355423D01*
X577966Y355226D01*
X577889Y355041D01*
Y354840D01*
X577850Y354643D01*
Y353115D01*
X577889Y352918D01*
Y352718D01*
X577966Y352532D01*
X578005Y352335D01*
X578116Y352168D01*
X578193Y351982D01*
X578335Y351840D01*
X578447Y351673D01*
X578614Y351562D01*
X578756Y351420D01*
X579357Y351018D01*
X580166Y349807D01*
X580450Y348379D01*
X580166Y346951D01*
X579357Y345740D01*
X578146Y344931D01*
X576717Y344646D01*
X575289Y344931D01*
X574078Y345740D01*
X573677Y346341D01*
X573535Y346483D01*
X573423Y346650D01*
X573256Y346761D01*
X573114Y346903D01*
X572929Y346980D01*
X572762Y347092D01*
X572565Y347131D01*
X572379Y347208D01*
X572178D01*
X571981Y347247D01*
X570454D01*
X570257Y347208D01*
X570056D01*
X569870Y347131D01*
X569673Y347092D01*
X569506Y346980D01*
X569321Y346903D01*
X569179Y346761D01*
X569012Y346650D01*
X568900Y346483D01*
X568758Y346341D01*
X568357Y345740D01*
X567146Y344931D01*
X565718Y344646D01*
X564289Y344931D01*
X563078Y345740D01*
X562677Y346341D01*
X562535Y346483D01*
X562423Y346650D01*
X562256Y346761D01*
X562114Y346903D01*
X561928Y346980D01*
X561762Y347092D01*
X561565Y347131D01*
X561379Y347208D01*
X561178D01*
X560981Y347247D01*
X559454D01*
X559257Y347208D01*
X559056D01*
X558870Y347131D01*
X558673Y347092D01*
X558507Y346980D01*
X558321Y346903D01*
X558179Y346761D01*
X558012Y346650D01*
X557900Y346483D01*
X557758Y346341D01*
X557357Y345740D01*
X556146Y344931D01*
X554717Y344646D01*
X553289Y344931D01*
X552078Y345740D01*
X551269Y346951D01*
X550985Y348379D01*
X551117Y349045D01*
Y349245D01*
X551157Y349442D01*
X551117Y349640D01*
Y349840D01*
X551041Y350026D01*
X551001Y350223D01*
X550890Y350390D01*
X550813Y350575D01*
X550671Y350718D01*
X550559Y350884D01*
X550392Y350996D01*
X550250Y351138D01*
X550065Y351215D01*
X549898Y351326D01*
X548921Y351731D01*
X549279Y353532D01*
X548837Y355756D01*
X547577Y357642D01*
X545691Y358902D01*
X544570Y359125D01*
X544148Y361248D01*
X545109Y361890D01*
X546369Y363776D01*
X546812Y366000D01*
X546620Y366961D01*
X548099Y368961D01*
X587155D01*
X593077Y363039D01*
D02*
G37*
G36*
X271784Y214159D02*
X269296Y210578D01*
X265860Y212799D01*
X266146Y213094D01*
X266600Y213623D01*
X266768Y213856D01*
X266898Y214069D01*
X266988Y214262D01*
X267038Y214433D01*
X267050Y214585D01*
X267022Y214715D01*
X266955Y214825D01*
X271784Y214159D01*
D02*
G37*
G36*
X33043Y213344D02*
X27737D01*
X27766Y213448D01*
X27792Y213699D01*
X27835Y214641D01*
X27890Y220989D01*
X32890D01*
X33043Y213344D01*
D02*
G37*
G36*
X62876Y296056D02*
X62964Y295019D01*
X63018Y294734D01*
X63082Y294480D01*
X63159Y294257D01*
X63248Y294065D01*
X63348Y293903D01*
X63460Y293772D01*
X58280D01*
X58392Y293903D01*
X58492Y294065D01*
X58581Y294257D01*
X58658Y294480D01*
X58723Y294734D01*
X58776Y295019D01*
X58817Y295334D01*
X58864Y296056D01*
X58870Y296463D01*
X62870D01*
X62876Y296056D01*
D02*
G37*
G36*
X144091Y84094D02*
X146492Y73886D01*
X147402Y71068D01*
X148367Y68541D01*
X149388Y66307D01*
X150463Y64364D01*
X151593Y62714D01*
X152777Y61355D01*
X146936Y53054D01*
X145330Y54450D01*
X143519Y55631D01*
X141502Y56598D01*
X139280Y57349D01*
X136852Y57886D01*
X134219Y58208D01*
X131380Y58316D01*
X128336Y58209D01*
X125087Y57887D01*
X121632Y57350D01*
X143400Y88081D01*
X144091Y84094D01*
D02*
G37*
G36*
X33731Y342312D02*
X33554Y341842D01*
X33398Y341199D01*
X33264Y340381D01*
X33056Y338221D01*
X32900Y333674D01*
X32890Y331810D01*
X27890D01*
X27880Y333674D01*
X27381Y341199D01*
X27226Y341842D01*
X27049Y342312D01*
X26852Y342607D01*
X33928D01*
X33731Y342312D01*
D02*
G37*
G36*
X205358Y445410D02*
X205319Y445427D01*
X205237Y445442D01*
X205113Y445456D01*
X204485Y445486D01*
X203052Y445500D01*
Y450500D01*
X205358Y450590D01*
Y445410D01*
D02*
G37*
G36*
X55213Y179550D02*
X54779Y179543D01*
X54367Y179513D01*
X53977Y179461D01*
X53609Y179386D01*
X53264Y179287D01*
X52940Y179166D01*
X52639Y179023D01*
X52360Y178856D01*
X52103Y178666D01*
X51868Y178454D01*
X50454Y179868D01*
X50666Y180103D01*
X50856Y180360D01*
X51023Y180639D01*
X51166Y180940D01*
X51287Y181264D01*
X51385Y181609D01*
X51461Y181977D01*
X51514Y182367D01*
X51543Y182779D01*
X51550Y183213D01*
X55213Y179550D01*
D02*
G37*
G36*
X274500Y411500D02*
X280143D01*
X280305Y410270D01*
X281262Y407959D01*
X282785Y405975D01*
X284769Y404452D01*
X287080Y403494D01*
X289560Y403168D01*
X292040Y403494D01*
X294351Y404452D01*
X296335Y405975D01*
X297858Y407959D01*
X298815Y410270D01*
X298977Y411500D01*
X305543D01*
X305704Y410270D01*
X306662Y407959D01*
X308185Y405975D01*
X310169Y404452D01*
X312480Y403494D01*
X314960Y403168D01*
X317440Y403494D01*
X319751Y404452D01*
X321735Y405975D01*
X323258Y407959D01*
X324216Y410270D01*
X324377Y411500D01*
X330943D01*
X331105Y410270D01*
X332062Y407959D01*
X333585Y405975D01*
X335569Y404452D01*
X337880Y403494D01*
X340360Y403168D01*
X342840Y403494D01*
X345151Y404452D01*
X347135Y405975D01*
X348658Y407959D01*
X349616Y410270D01*
X349777Y411500D01*
X356343D01*
X356505Y410270D01*
X357462Y407959D01*
X358984Y405975D01*
X360262Y404995D01*
X360051Y404162D01*
X359817Y403735D01*
X357726Y403319D01*
X355840Y402059D01*
X354581Y400174D01*
X354138Y397950D01*
X354581Y395726D01*
X355840Y393840D01*
X357726Y392581D01*
X359950Y392138D01*
X362174Y392581D01*
X364059Y393840D01*
X365319Y395726D01*
X365762Y397950D01*
X365319Y400174D01*
X364059Y402059D01*
X363963Y402124D01*
X364423Y403344D01*
X365760Y403168D01*
X368240Y403494D01*
X370551Y404452D01*
X372535Y405975D01*
X374058Y407959D01*
X375015Y410270D01*
X375177Y411500D01*
X381743D01*
X381904Y410270D01*
X382862Y407959D01*
X384384Y405975D01*
X386369Y404452D01*
X388680Y403494D01*
X391160Y403168D01*
X393640Y403494D01*
X395951Y404452D01*
X397935Y405975D01*
X399458Y407959D01*
X400415Y410270D01*
X400577Y411500D01*
X407060D01*
Y403250D01*
X426060D01*
Y411500D01*
X444750D01*
Y374250D01*
X460000Y359000D01*
X465296D01*
X465681Y357730D01*
X464844Y357170D01*
X463584Y355285D01*
X463142Y353061D01*
X463439Y351565D01*
X462389Y350514D01*
X460892Y350812D01*
X459396Y350514D01*
X458345Y351565D01*
X458643Y353061D01*
X458200Y355285D01*
X456940Y357170D01*
X455055Y358430D01*
X452831Y358873D01*
X450607Y358430D01*
X448722Y357170D01*
X447462Y355285D01*
X447019Y353061D01*
X447317Y351565D01*
X446267Y350514D01*
X444770Y350812D01*
X443274Y350514D01*
X442223Y351565D01*
X442521Y353061D01*
X442078Y355285D01*
X440818Y357170D01*
X438933Y358430D01*
X436709Y358873D01*
X434485Y358430D01*
X432599Y357170D01*
X431340Y355285D01*
X430897Y353061D01*
X431195Y351565D01*
X430144Y350514D01*
X428648Y350812D01*
X427151Y350514D01*
X426101Y351565D01*
X426399Y353061D01*
X425956Y355285D01*
X424696Y357170D01*
X422811Y358430D01*
X420587Y358873D01*
X418363Y358430D01*
X416477Y357170D01*
X415218Y355285D01*
X414775Y353061D01*
X415218Y350837D01*
X416477Y348952D01*
X418363Y347692D01*
X420587Y347249D01*
X422083Y347547D01*
X423134Y346497D01*
X422836Y345000D01*
X423279Y342776D01*
X424538Y340891D01*
X426424Y339631D01*
X428648Y339188D01*
X430872Y339631D01*
X432757Y340891D01*
X434017Y342776D01*
X434460Y345000D01*
X434162Y346497D01*
X435213Y347547D01*
X436709Y347249D01*
X438205Y347547D01*
X439256Y346497D01*
X438958Y345000D01*
X439401Y342776D01*
X440661Y340891D01*
X442546Y339631D01*
X444770Y339188D01*
X446994Y339631D01*
X448880Y340891D01*
X450139Y342776D01*
X450582Y345000D01*
X450284Y346497D01*
X451335Y347547D01*
X452831Y347249D01*
X454328Y347547D01*
X455378Y346497D01*
X455080Y345000D01*
X455523Y342776D01*
X456783Y340891D01*
X458668Y339631D01*
X460892Y339188D01*
X463116Y339631D01*
X465002Y340891D01*
X466261Y342776D01*
X466704Y345000D01*
X466406Y346497D01*
X467457Y347547D01*
X468953Y347249D01*
X471177Y347692D01*
X473063Y348952D01*
X474322Y350837D01*
X474765Y353061D01*
X474322Y355285D01*
X473063Y357170D01*
X472225Y357730D01*
X472611Y359000D01*
X476187D01*
X476187Y358999D01*
X476630Y356775D01*
X477890Y354890D01*
X479775Y353630D01*
X481999Y353188D01*
X484223Y353630D01*
X484491Y353809D01*
X485611Y353210D01*
Y282600D01*
X478357Y275345D01*
X477370Y276155D01*
X478119Y277276D01*
X478562Y279500D01*
X478119Y281724D01*
X476859Y283610D01*
X474974Y284869D01*
X472750Y285312D01*
X470526Y284869D01*
X468641Y283610D01*
X467381Y281724D01*
X466938Y279500D01*
X467381Y277276D01*
X468641Y275390D01*
X470526Y274131D01*
X472750Y273688D01*
X474974Y274131D01*
X476095Y274880D01*
X476905Y273893D01*
X474655Y271644D01*
X473276Y271369D01*
X471390Y270110D01*
X470131Y268224D01*
X469688Y266000D01*
X470131Y263776D01*
X471390Y261891D01*
X473276Y260631D01*
X475500Y260188D01*
X477724Y260631D01*
X479609Y261891D01*
X480869Y263776D01*
X481139Y265130D01*
X481384Y265395D01*
X493443Y277455D01*
X494438Y278943D01*
X494787Y280699D01*
Y359000D01*
X526111D01*
X526637Y357730D01*
X525631Y356224D01*
X525188Y354000D01*
X525631Y351776D01*
X526890Y349891D01*
X528776Y348631D01*
X531000Y348188D01*
X533224Y348631D01*
X535109Y349891D01*
X536369Y351776D01*
X536540Y352633D01*
X537835D01*
X538098Y351309D01*
X539358Y349423D01*
X541244Y348163D01*
X543467Y347721D01*
X545691Y348163D01*
X547577Y349423D01*
X547921Y349938D01*
X549117Y349442D01*
X548906Y348379D01*
X549348Y346155D01*
X550608Y344270D01*
X552494Y343010D01*
X554717Y342567D01*
X556941Y343010D01*
X558827Y344270D01*
X559454Y345208D01*
X560981D01*
X561608Y344270D01*
X563493Y343010D01*
X565718Y342567D01*
X567942Y343010D01*
X569827Y344270D01*
X570454Y345208D01*
X571981D01*
X572608Y344270D01*
X574493Y343010D01*
X576717Y342567D01*
X578941Y343010D01*
X580827Y344270D01*
X582087Y346155D01*
X582529Y348379D01*
X582087Y350603D01*
X580827Y352489D01*
X579889Y353115D01*
Y354643D01*
X580827Y355270D01*
X582087Y357155D01*
X582454Y359000D01*
X595000D01*
X606971Y347029D01*
X606445Y345759D01*
X606118Y343279D01*
X606445Y340799D01*
X607402Y338488D01*
X608000Y337709D01*
Y328277D01*
X607102Y327379D01*
X606200D01*
Y308379D01*
X608000D01*
X608000Y294598D01*
X607102Y293700D01*
X607100D01*
Y274700D01*
X608000D01*
Y262862D01*
X607345Y261280D01*
X607018Y258800D01*
X607345Y256320D01*
X608000Y254738D01*
Y237462D01*
X607345Y235880D01*
X607018Y233400D01*
X607345Y230920D01*
X608000Y229338D01*
X608000Y212062D01*
X607345Y210480D01*
X607018Y208000D01*
X607345Y205520D01*
X608000Y203938D01*
Y179989D01*
X607058Y179801D01*
X605172Y178541D01*
X603913Y176656D01*
X603470Y174432D01*
X603913Y172208D01*
X605172Y170322D01*
X605984Y169780D01*
X606145Y168145D01*
X595000Y157000D01*
X515518Y157000D01*
X514609Y158359D01*
X512724Y159619D01*
X510500Y160062D01*
X508276Y159619D01*
X506390Y158359D01*
X505482Y157000D01*
X454000D01*
X374750Y77750D01*
X353664D01*
X352985Y79020D01*
X353490Y79776D01*
X353933Y82000D01*
X353490Y84224D01*
X352230Y86110D01*
X350345Y87369D01*
X348121Y87812D01*
X345897Y87369D01*
X344012Y86110D01*
X343080Y84716D01*
X341592Y84408D01*
X340550Y85449D01*
X340109Y86110D01*
X339450Y86550D01*
X311019Y114981D01*
X311143Y116245D01*
X312110Y116890D01*
X313369Y118776D01*
X313812Y121000D01*
X313369Y123224D01*
X312110Y125110D01*
X310224Y126369D01*
X308000Y126812D01*
X305776Y126369D01*
X303890Y125110D01*
X303245Y124143D01*
X301981Y124019D01*
X276252Y149748D01*
X276738Y150922D01*
X296200D01*
X306472Y140650D01*
X306103Y139434D01*
X305776Y139369D01*
X303890Y138110D01*
X302631Y136224D01*
X302188Y134000D01*
X302631Y131776D01*
X303890Y129890D01*
X305776Y128631D01*
X308000Y128188D01*
X310224Y128631D01*
X312110Y129890D01*
X313369Y131776D01*
X313434Y132103D01*
X314650Y132472D01*
X331178Y115943D01*
X330160Y114419D01*
X329678Y112000D01*
X330160Y109581D01*
X331530Y107530D01*
X333581Y106160D01*
X336000Y105679D01*
X338419Y106160D01*
X340470Y107530D01*
X341340Y108832D01*
X342867D01*
X343651Y107659D01*
X345702Y106289D01*
X348121Y105808D01*
X350540Y106289D01*
X352591Y107659D01*
X353961Y109710D01*
X354442Y112129D01*
X353961Y114548D01*
X352591Y116599D01*
X350540Y117969D01*
X348121Y118450D01*
X345702Y117969D01*
X343651Y116599D01*
X342781Y115297D01*
X341254D01*
X340470Y116470D01*
X340078Y116732D01*
Y116889D01*
X340078Y116889D01*
X339768Y118450D01*
X338884Y119773D01*
X338884Y119773D01*
X300773Y157884D01*
X299450Y158768D01*
X297889Y159078D01*
X297889Y159078D01*
X268689D01*
X261054Y166714D01*
X261001Y166774D01*
X260881Y166930D01*
X260803Y167044D01*
X260369Y169224D01*
X259135Y171072D01*
X259118Y171163D01*
X259078Y171623D01*
Y197421D01*
X272634Y210977D01*
X273518Y212300D01*
X273658Y213006D01*
X273859Y213141D01*
X275119Y215026D01*
X275562Y217250D01*
X275119Y219474D01*
X273859Y221360D01*
X271974Y222619D01*
X269750Y223062D01*
X267526Y222619D01*
X265641Y221360D01*
X264381Y219474D01*
X263938Y217250D01*
X264381Y215026D01*
X264688Y214566D01*
X260650Y210528D01*
X259434Y210897D01*
X259369Y211224D01*
X258109Y213109D01*
X256224Y214369D01*
X254000Y214812D01*
X251776Y214369D01*
X249891Y213109D01*
X248631Y211224D01*
X248188Y209000D01*
X248631Y206776D01*
X249891Y204890D01*
X251776Y203631D01*
X252103Y203566D01*
X252472Y202350D01*
X252116Y201994D01*
X251232Y200671D01*
X250922Y199111D01*
X250922Y199110D01*
Y176738D01*
X249748Y176252D01*
X233044Y192956D01*
X233638Y194159D01*
X234079Y194100D01*
X236559Y194427D01*
X238870Y195384D01*
X240855Y196907D01*
X242377Y198891D01*
X243335Y201202D01*
X243661Y203682D01*
X243335Y206162D01*
X242377Y208473D01*
X240855Y210458D01*
X238870Y211981D01*
X236559Y212938D01*
X234079Y213264D01*
X231599Y212938D01*
X229288Y211981D01*
X227304Y210458D01*
X225781Y208473D01*
X224824Y206162D01*
X224497Y203682D01*
X224583Y203028D01*
X223438Y202000D01*
X219003D01*
X218165Y202955D01*
X218261Y203682D01*
X217935Y206162D01*
X216977Y208473D01*
X215455Y210458D01*
X213470Y211981D01*
X211159Y212938D01*
X208679Y213264D01*
X206199Y212938D01*
X203888Y211981D01*
X201904Y210458D01*
X200381Y208473D01*
X199424Y206162D01*
X199097Y203682D01*
X199193Y202955D01*
X198356Y202000D01*
X193603D01*
X192765Y202955D01*
X192861Y203682D01*
X192535Y206162D01*
X191577Y208473D01*
X190055Y210458D01*
X188070Y211981D01*
X185759Y212938D01*
X183279Y213264D01*
X180799Y212938D01*
X178488Y211981D01*
X176504Y210458D01*
X174981Y208473D01*
X174024Y206162D01*
X173697Y203682D01*
X173793Y202955D01*
X172956Y202000D01*
X168203D01*
X167365Y202955D01*
X167461Y203682D01*
X167135Y206162D01*
X166177Y208473D01*
X164655Y210458D01*
X162670Y211981D01*
X160359Y212938D01*
X157879Y213264D01*
X155399Y212938D01*
X153088Y211981D01*
X151104Y210458D01*
X149581Y208473D01*
X148624Y206162D01*
X148297Y203682D01*
X148393Y202955D01*
X147556Y202000D01*
X101644D01*
X101404Y202360D01*
X99518Y203619D01*
X97295Y204062D01*
X95070Y203619D01*
X94058Y202942D01*
X85000Y212000D01*
X73019Y223981D01*
X73143Y225245D01*
X74110Y225891D01*
X75369Y227776D01*
X75812Y230000D01*
X75369Y232224D01*
X74110Y234109D01*
X72224Y235369D01*
X70000Y235812D01*
X67776Y235369D01*
X65890Y234109D01*
X65245Y233143D01*
X63981Y233019D01*
X56288Y240712D01*
Y266227D01*
X57558Y266613D01*
X57980Y265980D01*
X59866Y264721D01*
X62090Y264278D01*
X64314Y264721D01*
X66199Y265980D01*
X67459Y267866D01*
X67902Y270090D01*
X67459Y272314D01*
X66199Y274200D01*
X64314Y275459D01*
X62090Y275902D01*
X59866Y275459D01*
X57980Y274200D01*
X57558Y273567D01*
X56288Y273953D01*
Y285809D01*
X57558Y286488D01*
X58646Y285761D01*
X60870Y285318D01*
X63094Y285761D01*
X64979Y287020D01*
X66239Y288906D01*
X66682Y291130D01*
X66239Y293354D01*
X65005Y295202D01*
X64988Y295293D01*
X64948Y295753D01*
Y300870D01*
X64638Y302431D01*
X63801Y303684D01*
X63812Y303740D01*
X63369Y305964D01*
X62109Y307849D01*
X60224Y309109D01*
X58000Y309552D01*
X55776Y309109D01*
X55508Y308930D01*
X54388Y309529D01*
Y326548D01*
X64155Y336315D01*
X65325Y335689D01*
X65188Y335000D01*
X65631Y332776D01*
X66891Y330891D01*
X68776Y329631D01*
X71000Y329188D01*
X73224Y329631D01*
X75110Y330891D01*
X76369Y332776D01*
X76812Y335000D01*
X76369Y337224D01*
X75110Y339109D01*
X73224Y340369D01*
X71000Y340812D01*
X70311Y340675D01*
X69685Y341845D01*
X102494Y374654D01*
X103489Y376142D01*
X103838Y377898D01*
Y405350D01*
X117489Y419000D01*
X190029D01*
X190770Y417891D01*
X192656Y416631D01*
X194879Y416188D01*
X197104Y416631D01*
X198989Y417891D01*
X199730Y419000D01*
X205586D01*
X205631Y418776D01*
X206891Y416890D01*
X208776Y415631D01*
X211000Y415188D01*
X213224Y415631D01*
X214685Y416607D01*
X216210Y416522D01*
X216345Y416454D01*
X218176Y415231D01*
X220400Y414788D01*
X222624Y415231D01*
X224510Y416491D01*
X225769Y418376D01*
X225893Y419000D01*
X236481D01*
X236848Y417155D01*
X238108Y415270D01*
X239993Y414010D01*
X242217Y413567D01*
X244441Y414010D01*
X246327Y415270D01*
X246954Y416208D01*
X248481D01*
X249108Y415270D01*
X250993Y414010D01*
X253217Y413567D01*
X255441Y414010D01*
X257327Y415270D01*
X258587Y417155D01*
X258954Y419000D01*
X272000D01*
X274500Y411500D01*
D02*
G37*
G36*
X258713Y166791D02*
X258757Y166606D01*
X258830Y166407D01*
X258934Y166195D01*
X259067Y165970D01*
X259231Y165731D01*
X259424Y165479D01*
X259901Y164935D01*
X260185Y164643D01*
X257357Y161815D01*
X257065Y162099D01*
X256269Y162769D01*
X256030Y162933D01*
X255805Y163067D01*
X255593Y163170D01*
X255394Y163243D01*
X255209Y163287D01*
X255037Y163300D01*
X258700Y166963D01*
X258713Y166791D01*
D02*
G37*
G36*
X257006Y171926D02*
X257094Y170889D01*
X257148Y170604D01*
X257212Y170350D01*
X257289Y170127D01*
X257378Y169935D01*
X257478Y169773D01*
X257590Y169642D01*
X252410D01*
X252522Y169773D01*
X252622Y169935D01*
X252711Y170127D01*
X252788Y170350D01*
X252852Y170604D01*
X252906Y170889D01*
X252947Y171204D01*
X252994Y171926D01*
X253000Y172333D01*
X257000D01*
X257006Y171926D01*
D02*
G37*
G36*
X248004Y100172D02*
X248110Y98689D01*
X248158Y98420D01*
X248216Y98191D01*
X248282Y98003D01*
X248356Y97856D01*
X248440Y97749D01*
X242560D01*
X242644Y97856D01*
X242718Y98003D01*
X242784Y98191D01*
X242842Y98420D01*
X242890Y98689D01*
X242960Y99349D01*
X242996Y100172D01*
X243000Y100645D01*
X248000D01*
X248004Y100172D01*
D02*
G37*
G36*
X44044Y207080D02*
X43983Y206938D01*
X43928Y206754D01*
X43881Y206528D01*
X43841Y206262D01*
X43783Y205603D01*
X43754Y204780D01*
X43750Y204305D01*
X38750Y203934D01*
X38745Y204405D01*
X38669Y205576D01*
X38623Y205886D01*
X38568Y206156D01*
X38502Y206385D01*
X38426Y206574D01*
X38340Y206723D01*
X38244Y206831D01*
X44113Y207181D01*
X44044Y207080D01*
D02*
G37*
G36*
X46936Y212401D02*
X46605Y212063D01*
X45631Y210940D01*
X45475Y210715D01*
X45353Y210513D01*
X45267Y210333D01*
X45216Y210177D01*
X45200Y210042D01*
X41042Y214200D01*
X41177Y214216D01*
X41333Y214267D01*
X41513Y214354D01*
X41715Y214475D01*
X41940Y214631D01*
X42456Y215048D01*
X43063Y215605D01*
X43401Y215936D01*
X46936Y212401D01*
D02*
G37*
G36*
X471678Y404439D02*
X471622Y403684D01*
X471162Y402126D01*
X469641Y401110D01*
X468381Y399224D01*
X467938Y397000D01*
X468381Y394776D01*
X469641Y392891D01*
X471526Y391631D01*
X472880Y391361D01*
X473145Y391116D01*
X485611Y378651D01*
Y365663D01*
X483611Y364490D01*
X481999Y364811D01*
X479775Y364369D01*
X477890Y363109D01*
X476630Y361223D01*
X476412Y361027D01*
X476298Y361017D01*
X476187Y361039D01*
X472611D01*
X472511Y361020D01*
X472411Y361029D01*
X472124Y360942D01*
X471830Y360884D01*
X471746Y360828D01*
X471649Y360798D01*
X471418Y360608D01*
X471169Y360442D01*
X471112Y360358D01*
X471034Y360294D01*
X470893Y360029D01*
X470727Y359780D01*
X468985Y358866D01*
X468953Y358873D01*
X468921Y358866D01*
X467180Y359780D01*
X467013Y360029D01*
X466872Y360294D01*
X466794Y360358D01*
X466738Y360442D01*
X466489Y360608D01*
X466257Y360798D01*
X466160Y360828D01*
X466076Y360884D01*
X465782Y360942D01*
X465496Y361029D01*
X465395Y361020D01*
X465296Y361039D01*
X460845D01*
X446789Y375095D01*
Y407833D01*
X448789Y408231D01*
X448902Y407959D01*
X450424Y405975D01*
X452409Y404452D01*
X454720Y403494D01*
X457200Y403168D01*
X459680Y403494D01*
X461991Y404452D01*
X463975Y405975D01*
X465425Y407863D01*
X465826Y408223D01*
X467550Y408566D01*
X471678Y404439D01*
D02*
G37*
G36*
X477465Y396923D02*
X477512Y396855D01*
X477590Y396758D01*
X478013Y396293D01*
X479016Y395269D01*
X475481Y391734D01*
X473787Y393300D01*
X477450Y396963D01*
X477465Y396923D01*
D02*
G37*
G36*
X480766Y267731D02*
X479200Y266037D01*
X475537Y269700D01*
X475577Y269715D01*
X475645Y269762D01*
X475742Y269840D01*
X476207Y270263D01*
X477231Y271266D01*
X480766Y267731D01*
D02*
G37*
G36*
X625500Y498500D02*
X644500D01*
X644500Y498500D01*
Y498500D01*
X646224Y497776D01*
X651000Y493000D01*
X651000Y399000D01*
X663000Y387000D01*
Y378799D01*
X661518Y377456D01*
X660400Y377566D01*
X656115Y377144D01*
X651994Y375894D01*
X648196Y373864D01*
X644868Y371132D01*
X642136Y367804D01*
X640106Y364006D01*
X638856Y359885D01*
X638434Y355600D01*
X638856Y351315D01*
X640106Y347194D01*
X642136Y343396D01*
X644868Y340068D01*
X648196Y337336D01*
X651994Y335306D01*
X656115Y334056D01*
X660400Y333634D01*
X661518Y333744D01*
X663000Y332401D01*
Y293700D01*
X657900D01*
Y274700D01*
X663000D01*
Y267260D01*
X662609Y267098D01*
X660625Y265575D01*
X659102Y263591D01*
X658145Y261280D01*
X657818Y258800D01*
X658145Y256320D01*
X659102Y254009D01*
X660625Y252024D01*
X662609Y250502D01*
X663000Y250340D01*
Y241860D01*
X662609Y241698D01*
X660625Y240175D01*
X659102Y238191D01*
X658145Y235880D01*
X657818Y233400D01*
X658145Y230920D01*
X659102Y228609D01*
X660625Y226625D01*
X662609Y225102D01*
X663000Y224940D01*
Y216460D01*
X662609Y216298D01*
X660625Y214775D01*
X659102Y212791D01*
X658145Y210480D01*
X657818Y208000D01*
X658145Y205520D01*
X659102Y203209D01*
X660625Y201224D01*
X662609Y199702D01*
X663000Y199540D01*
Y178478D01*
X661000Y177582D01*
X659122Y178360D01*
X656590Y178694D01*
X654058Y178360D01*
X651698Y177383D01*
X649672Y175828D01*
X648117Y173802D01*
X647140Y171442D01*
X646806Y168910D01*
X647140Y166378D01*
X648117Y164018D01*
X649672Y161992D01*
X651698Y160437D01*
X654058Y159460D01*
X656590Y159126D01*
X659122Y159460D01*
X661000Y160238D01*
X663000Y159342D01*
Y133478D01*
X661000Y132583D01*
X659122Y133360D01*
X656590Y133694D01*
X654058Y133360D01*
X651698Y132383D01*
X649672Y130828D01*
X648117Y128802D01*
X647140Y126442D01*
X646806Y123910D01*
X647140Y121378D01*
X648117Y119018D01*
X649672Y116992D01*
X651698Y115437D01*
X654058Y114460D01*
X656590Y114126D01*
X659122Y114460D01*
X661000Y115238D01*
X663000Y114342D01*
Y99399D01*
X661518Y98056D01*
X660400Y98166D01*
X656115Y97744D01*
X651994Y96494D01*
X648196Y94464D01*
X644868Y91732D01*
X642136Y88404D01*
X640106Y84606D01*
X638856Y80485D01*
X638434Y76200D01*
X638856Y71915D01*
X640106Y67794D01*
X642136Y63996D01*
X644868Y60668D01*
X648196Y57936D01*
X651994Y55906D01*
X656115Y54656D01*
X659495Y54323D01*
X660261Y52261D01*
X641000Y33000D01*
X640701D01*
X639791Y33698D01*
X637480Y34655D01*
X635000Y34982D01*
X632520Y34655D01*
X630209Y33698D01*
X629299Y33000D01*
X615301D01*
X614391Y33698D01*
X612080Y34655D01*
X609600Y34982D01*
X607120Y34655D01*
X604809Y33698D01*
X603899Y33000D01*
X589901D01*
X588991Y33698D01*
X586680Y34655D01*
X584200Y34982D01*
X581720Y34655D01*
X579409Y33698D01*
X578499Y33000D01*
X564501D01*
X563591Y33698D01*
X561280Y34655D01*
X558800Y34982D01*
X556320Y34655D01*
X554009Y33698D01*
X553099Y33000D01*
X539101D01*
X538191Y33698D01*
X535880Y34655D01*
X533400Y34982D01*
X530920Y34655D01*
X528609Y33698D01*
X527699Y33000D01*
X517500D01*
Y34900D01*
X498500D01*
Y33000D01*
X479000D01*
X468303Y22303D01*
X467590Y22541D01*
X466511Y23339D01*
X466782Y25400D01*
X466455Y27880D01*
X465498Y30191D01*
X463975Y32175D01*
X461991Y33698D01*
X459680Y34655D01*
X457972Y34880D01*
X455303Y37281D01*
X445093Y47492D01*
X443630Y48615D01*
X441927Y49320D01*
X440100Y49560D01*
X358440D01*
X352631Y55369D01*
Y71403D01*
X356939Y75711D01*
X374750D01*
X375530Y75866D01*
X375557Y75884D01*
X377273D01*
X431360Y129971D01*
X432541Y129613D01*
X433397Y129179D01*
X434512Y127512D01*
X436397Y126252D01*
X438621Y125809D01*
X440845Y126252D01*
X442730Y127512D01*
X443990Y129397D01*
X444433Y131621D01*
X443990Y133845D01*
X442730Y135730D01*
X441063Y136845D01*
X440629Y137702D01*
X440271Y138882D01*
X455389Y154000D01*
X504738D01*
X505131Y152026D01*
X506390Y150140D01*
X508276Y148881D01*
X510500Y148438D01*
X512724Y148881D01*
X514609Y150140D01*
X515869Y152026D01*
X516262Y154000D01*
X598000D01*
X612000Y168000D01*
Y169393D01*
X613391Y170322D01*
X614651Y172208D01*
X615093Y174432D01*
X614651Y176656D01*
X613391Y178541D01*
X612000Y179471D01*
Y197823D01*
X613663Y198934D01*
X614120Y198745D01*
X616600Y198418D01*
X619080Y198745D01*
X621391Y199702D01*
X623376Y201224D01*
X624898Y203209D01*
X625855Y205520D01*
X626182Y208000D01*
X625855Y210480D01*
X624898Y212791D01*
X623376Y214775D01*
X621391Y216298D01*
X619080Y217255D01*
X616600Y217582D01*
X614120Y217255D01*
X613663Y217066D01*
X612000Y218177D01*
Y223223D01*
X613663Y224334D01*
X614120Y224144D01*
X616600Y223818D01*
X619080Y224144D01*
X621391Y225102D01*
X623376Y226625D01*
X624898Y228609D01*
X625855Y230920D01*
X626182Y233400D01*
X625855Y235880D01*
X624898Y238191D01*
X623376Y240175D01*
X621391Y241698D01*
X619080Y242655D01*
X616600Y242982D01*
X614120Y242655D01*
X613663Y242466D01*
X612000Y243577D01*
Y248623D01*
X613663Y249734D01*
X614120Y249545D01*
X616600Y249218D01*
X619080Y249545D01*
X621391Y250502D01*
X623376Y252024D01*
X624898Y254009D01*
X625855Y256320D01*
X626182Y258800D01*
X625855Y261280D01*
X624898Y263591D01*
X623376Y265575D01*
X621391Y267098D01*
X619080Y268055D01*
X616600Y268382D01*
X614120Y268055D01*
X613663Y267866D01*
X612000Y268977D01*
Y274700D01*
X626100D01*
Y293700D01*
X612000D01*
Y308379D01*
X625200D01*
Y327379D01*
X612000D01*
Y332594D01*
X614000Y333921D01*
X615700Y333697D01*
X618180Y334024D01*
X620491Y334981D01*
X622476Y336504D01*
X623998Y338488D01*
X624955Y340799D01*
X625282Y343279D01*
X624955Y345759D01*
X623998Y348070D01*
X622476Y350055D01*
X620491Y351577D01*
X618180Y352535D01*
X615700Y352861D01*
X613220Y352535D01*
X610909Y351577D01*
X608936Y350064D01*
X588000Y371000D01*
X543777D01*
X543224Y371369D01*
X541000Y371812D01*
X538776Y371369D01*
X538223Y371000D01*
X528313D01*
X528119Y371974D01*
X526860Y373859D01*
X524974Y375119D01*
X522750Y375562D01*
X520526Y375119D01*
X518641Y373859D01*
X517381Y371974D01*
X517187Y371000D01*
X508000D01*
X500512Y378488D01*
X501787Y380042D01*
X502776Y379381D01*
X505000Y378938D01*
X507224Y379381D01*
X509109Y380640D01*
X510369Y382526D01*
X510812Y384750D01*
X510369Y386974D01*
X509109Y388859D01*
X507224Y390119D01*
X505000Y390562D01*
X502776Y390119D01*
X500891Y388859D01*
X499631Y386974D01*
X499188Y384750D01*
X499631Y382526D01*
X500292Y381537D01*
X498738Y380262D01*
X474629Y404371D01*
X475951Y405878D01*
X477809Y404452D01*
X480120Y403494D01*
X482600Y403168D01*
X485080Y403494D01*
X487391Y404452D01*
X489375Y405975D01*
X490898Y407959D01*
X491856Y410270D01*
X492182Y412750D01*
X491856Y415230D01*
X490898Y417541D01*
X489375Y419525D01*
X487391Y421048D01*
X485080Y422006D01*
X482600Y422332D01*
X480120Y422006D01*
X477809Y421048D01*
X475825Y419525D01*
X474302Y417541D01*
X473344Y415230D01*
X473018Y412750D01*
X473344Y410270D01*
X474302Y407959D01*
X475728Y406101D01*
X474221Y404779D01*
X466720Y412280D01*
X466782Y412750D01*
X466455Y415230D01*
X465498Y417541D01*
X463975Y419525D01*
X461991Y421048D01*
X459680Y422006D01*
X457200Y422332D01*
X454720Y422006D01*
X452409Y421048D01*
X450424Y419525D01*
X448902Y417541D01*
X447944Y415230D01*
X447914Y415000D01*
X426060D01*
Y422250D01*
X407060D01*
Y415000D01*
X400446D01*
X400415Y415230D01*
X399458Y417541D01*
X397935Y419525D01*
X395951Y421048D01*
X393640Y422006D01*
X391160Y422332D01*
X388680Y422006D01*
X386369Y421048D01*
X384384Y419525D01*
X382862Y417541D01*
X381904Y415230D01*
X381874Y415000D01*
X375046D01*
X375015Y415230D01*
X374058Y417541D01*
X372535Y419525D01*
X370551Y421048D01*
X368240Y422006D01*
X365760Y422332D01*
X363280Y422006D01*
X360969Y421048D01*
X358984Y419525D01*
X357462Y417541D01*
X356505Y415230D01*
X356474Y415000D01*
X349646D01*
X349616Y415230D01*
X348658Y417541D01*
X347135Y419525D01*
X345151Y421048D01*
X342840Y422006D01*
X340360Y422332D01*
X337880Y422006D01*
X335569Y421048D01*
X333585Y419525D01*
X332062Y417541D01*
X331105Y415230D01*
X331074Y415000D01*
X324246D01*
X324216Y415230D01*
X323258Y417541D01*
X321735Y419525D01*
X319751Y421048D01*
X317440Y422006D01*
X314960Y422332D01*
X312480Y422006D01*
X310169Y421048D01*
X308185Y419525D01*
X306662Y417541D01*
X305704Y415230D01*
X305674Y415000D01*
X298846D01*
X298815Y415230D01*
X297858Y417541D01*
X296335Y419525D01*
X294351Y421048D01*
X292040Y422006D01*
X289560Y422332D01*
X287080Y422006D01*
X284769Y421048D01*
X282785Y419525D01*
X281273Y417556D01*
X281010Y417214D01*
X279023Y416977D01*
X273000Y423000D01*
Y426072D01*
X273029Y426217D01*
X273000Y426363D01*
Y450387D01*
X274224Y450631D01*
X276110Y451890D01*
X277369Y453776D01*
X277812Y456000D01*
X277369Y458224D01*
X276110Y460109D01*
X274224Y461369D01*
X273000Y461613D01*
Y485000D01*
X286843Y498843D01*
X287080Y498745D01*
X289560Y498418D01*
X292040Y498745D01*
X294351Y499702D01*
X294740Y500000D01*
X309780D01*
X310169Y499702D01*
X312480Y498745D01*
X314960Y498418D01*
X317440Y498745D01*
X319751Y499702D01*
X320140Y500000D01*
X335180D01*
X335569Y499702D01*
X337880Y498745D01*
X340360Y498418D01*
X342840Y498745D01*
X345151Y499702D01*
X345540Y500000D01*
X360580D01*
X360969Y499702D01*
X363280Y498745D01*
X365760Y498418D01*
X368240Y498745D01*
X370551Y499702D01*
X370940Y500000D01*
X385980D01*
X386369Y499702D01*
X388680Y498745D01*
X391160Y498418D01*
X393640Y498745D01*
X395951Y499702D01*
X396340Y500000D01*
X407060D01*
Y498500D01*
X426060D01*
Y500000D01*
X452020D01*
X452409Y499702D01*
X454720Y498745D01*
X457200Y498418D01*
X459680Y498745D01*
X461991Y499702D01*
X462380Y500000D01*
X477420D01*
X477809Y499702D01*
X480120Y498745D01*
X482600Y498418D01*
X485080Y498745D01*
X487391Y499702D01*
X487780Y500000D01*
X502820D01*
X503209Y499702D01*
X505520Y498745D01*
X508000Y498418D01*
X510480Y498745D01*
X512791Y499702D01*
X513180Y500000D01*
X528220D01*
X528609Y499702D01*
X530920Y498745D01*
X533400Y498418D01*
X535880Y498745D01*
X538191Y499702D01*
X538580Y500000D01*
X553620D01*
X554009Y499702D01*
X556320Y498745D01*
X558800Y498418D01*
X561280Y498745D01*
X563591Y499702D01*
X563980Y500000D01*
X579020D01*
X579409Y499702D01*
X581720Y498745D01*
X584200Y498418D01*
X586680Y498745D01*
X588991Y499702D01*
X589380Y500000D01*
X604420D01*
X604809Y499702D01*
X607120Y498745D01*
X609600Y498418D01*
X612080Y498745D01*
X614391Y499702D01*
X614780Y500000D01*
X625500D01*
Y498500D01*
D02*
G37*
G36*
X457125Y32900D02*
X449700Y25475D01*
X449669Y25573D01*
X449575Y25728D01*
X449417Y25939D01*
X448909Y26531D01*
X447133Y28393D01*
X446530Y28999D01*
X453601Y36070D01*
X457125Y32900D01*
D02*
G37*
G36*
X122476Y486466D02*
X122524Y486151D01*
X122603Y485835D01*
X122714Y485521D01*
X122858Y485207D01*
X123032Y484893D01*
X123239Y484580D01*
X123478Y484267D01*
X123748Y483954D01*
X124050Y483642D01*
X118870D01*
X119172Y483954D01*
X119442Y484267D01*
X119681Y484580D01*
X119888Y484893D01*
X120063Y485207D01*
X120206Y485521D01*
X120317Y485835D01*
X120396Y486151D01*
X120444Y486466D01*
X120460Y486782D01*
X122460D01*
X122476Y486466D01*
D02*
G37*
G36*
X638921Y527714D02*
X642692Y526570D01*
X646167Y524712D01*
X649213Y522213D01*
X651712Y519167D01*
X653570Y515692D01*
X654714Y511921D01*
X655076Y508246D01*
X655027Y508000D01*
Y493030D01*
X653039Y493000D01*
X652884Y493780D01*
X652442Y494442D01*
X647666Y499218D01*
X647340Y499436D01*
X647013Y499656D01*
X645289Y500380D01*
X645285Y500381D01*
X645280Y500384D01*
X644885Y500462D01*
X644510Y500539D01*
X644500Y502427D01*
Y517500D01*
X625500D01*
Y502039D01*
X619342D01*
X618242Y504039D01*
X618856Y505520D01*
X619182Y508000D01*
X618856Y510480D01*
X617898Y512791D01*
X616375Y514775D01*
X614391Y516298D01*
X612080Y517256D01*
X609600Y517582D01*
X607120Y517256D01*
X604809Y516298D01*
X602825Y514775D01*
X601302Y512791D01*
X600345Y510480D01*
X600018Y508000D01*
X600345Y505520D01*
X600958Y504039D01*
X599859Y502039D01*
X593941D01*
X592842Y504039D01*
X593456Y505520D01*
X593782Y508000D01*
X593456Y510480D01*
X592498Y512791D01*
X590975Y514775D01*
X588991Y516298D01*
X586680Y517256D01*
X584200Y517582D01*
X581720Y517256D01*
X579409Y516298D01*
X577425Y514775D01*
X575902Y512791D01*
X574944Y510480D01*
X574618Y508000D01*
X574944Y505520D01*
X575558Y504039D01*
X574459Y502039D01*
X568541D01*
X567442Y504039D01*
X568055Y505520D01*
X568382Y508000D01*
X568055Y510480D01*
X567098Y512791D01*
X565575Y514775D01*
X563591Y516298D01*
X561280Y517256D01*
X558800Y517582D01*
X556320Y517256D01*
X554009Y516298D01*
X552025Y514775D01*
X550502Y512791D01*
X549544Y510480D01*
X549218Y508000D01*
X549544Y505520D01*
X550158Y504039D01*
X549058Y502039D01*
X543142D01*
X542042Y504039D01*
X542655Y505520D01*
X542982Y508000D01*
X542655Y510480D01*
X541698Y512791D01*
X540175Y514775D01*
X538191Y516298D01*
X535880Y517256D01*
X533400Y517582D01*
X530920Y517256D01*
X528609Y516298D01*
X526625Y514775D01*
X525102Y512791D01*
X524145Y510480D01*
X523818Y508000D01*
X524145Y505520D01*
X524758Y504039D01*
X523658Y502039D01*
X517742D01*
X516642Y504039D01*
X517256Y505520D01*
X517582Y508000D01*
X517256Y510480D01*
X516298Y512791D01*
X514775Y514775D01*
X512791Y516298D01*
X510480Y517256D01*
X508000Y517582D01*
X505520Y517256D01*
X503209Y516298D01*
X501225Y514775D01*
X499702Y512791D01*
X498745Y510480D01*
X498418Y508000D01*
X498745Y505520D01*
X499358Y504039D01*
X498259Y502039D01*
X492341D01*
X491242Y504039D01*
X491856Y505520D01*
X492182Y508000D01*
X491856Y510480D01*
X490898Y512791D01*
X489375Y514775D01*
X487391Y516298D01*
X485080Y517256D01*
X482600Y517582D01*
X480120Y517256D01*
X477809Y516298D01*
X475825Y514775D01*
X474302Y512791D01*
X473344Y510480D01*
X473018Y508000D01*
X473344Y505520D01*
X473958Y504039D01*
X472859Y502039D01*
X466941D01*
X465842Y504039D01*
X466455Y505520D01*
X466782Y508000D01*
X466455Y510480D01*
X465498Y512791D01*
X463975Y514775D01*
X461991Y516298D01*
X459680Y517256D01*
X457200Y517582D01*
X454720Y517256D01*
X452409Y516298D01*
X450424Y514775D01*
X448902Y512791D01*
X447944Y510480D01*
X447618Y508000D01*
X447944Y505520D01*
X448558Y504039D01*
X447458Y502039D01*
X426060D01*
Y517500D01*
X407060D01*
Y502039D01*
X400901D01*
X399802Y504039D01*
X400415Y505520D01*
X400742Y508000D01*
X400415Y510480D01*
X399458Y512791D01*
X397935Y514775D01*
X395951Y516298D01*
X393640Y517256D01*
X391160Y517582D01*
X388680Y517256D01*
X386369Y516298D01*
X384384Y514775D01*
X382862Y512791D01*
X381904Y510480D01*
X381578Y508000D01*
X381904Y505520D01*
X382518Y504039D01*
X381418Y502039D01*
X375502D01*
X374402Y504039D01*
X375015Y505520D01*
X375342Y508000D01*
X375015Y510480D01*
X374058Y512791D01*
X372535Y514775D01*
X370551Y516298D01*
X368240Y517256D01*
X365760Y517582D01*
X363280Y517256D01*
X360969Y516298D01*
X358984Y514775D01*
X357462Y512791D01*
X356505Y510480D01*
X356178Y508000D01*
X356505Y505520D01*
X357118Y504039D01*
X356018Y502039D01*
X350102D01*
X349002Y504039D01*
X349616Y505520D01*
X349942Y508000D01*
X349616Y510480D01*
X348658Y512791D01*
X347135Y514775D01*
X345151Y516298D01*
X342840Y517256D01*
X340360Y517582D01*
X337880Y517256D01*
X335569Y516298D01*
X333585Y514775D01*
X332062Y512791D01*
X331105Y510480D01*
X330778Y508000D01*
X331105Y505520D01*
X331718Y504039D01*
X330619Y502039D01*
X324701D01*
X323602Y504039D01*
X324216Y505520D01*
X324542Y508000D01*
X324216Y510480D01*
X323258Y512791D01*
X321735Y514775D01*
X319751Y516298D01*
X317440Y517256D01*
X314960Y517582D01*
X312480Y517256D01*
X310169Y516298D01*
X308185Y514775D01*
X306662Y512791D01*
X305704Y510480D01*
X305378Y508000D01*
X305704Y505520D01*
X306318Y504039D01*
X305219Y502039D01*
X299301D01*
X298202Y504039D01*
X298815Y505520D01*
X299142Y508000D01*
X298815Y510480D01*
X297858Y512791D01*
X296335Y514775D01*
X294351Y516298D01*
X292040Y517256D01*
X289560Y517582D01*
X287080Y517256D01*
X284769Y516298D01*
X282785Y514775D01*
X281262Y512791D01*
X280305Y510480D01*
X279978Y508000D01*
X280305Y505520D01*
X281262Y503209D01*
X282785Y501225D01*
X283196Y500909D01*
X283370Y498254D01*
X271558Y486442D01*
X271116Y485780D01*
X270961Y485000D01*
Y461613D01*
X270962Y461605D01*
X269776Y461369D01*
X268784Y460706D01*
X266223Y460940D01*
X266110Y461110D01*
X264224Y462369D01*
X262000Y462812D01*
X259776Y462369D01*
X257890Y461110D01*
X257459Y460464D01*
X255218Y460218D01*
X253333Y461478D01*
X251109Y461920D01*
X248885Y461478D01*
X246999Y460218D01*
X244649Y460301D01*
X244109Y461110D01*
X242224Y462369D01*
X240000Y462812D01*
X237776Y462369D01*
X235891Y461110D01*
X235703Y460828D01*
X233297D01*
X233109Y461110D01*
X231224Y462369D01*
X229000Y462812D01*
X226776Y462369D01*
X224890Y461110D01*
X223631Y459224D01*
X223188Y457000D01*
X223631Y454776D01*
X224890Y452891D01*
X226776Y451631D01*
X229000Y451188D01*
X231224Y451631D01*
X233109Y452891D01*
X233297Y453172D01*
X235703D01*
X235891Y452891D01*
X237776Y451631D01*
X240000Y451188D01*
X242224Y451631D01*
X244109Y452891D01*
X246459Y452807D01*
X246999Y451999D01*
X248885Y450739D01*
X251109Y450297D01*
X253333Y450739D01*
X255218Y451999D01*
X255649Y452645D01*
X257891Y452891D01*
X259776Y451631D01*
X262000Y451188D01*
X264224Y451631D01*
X265216Y452294D01*
X267777Y452060D01*
X267890Y451890D01*
X269776Y450631D01*
X270962Y450395D01*
X270961Y450387D01*
Y426363D01*
X270990Y426217D01*
X270961Y426072D01*
Y423000D01*
X269849Y421294D01*
X269499Y421039D01*
X258954D01*
X258757Y421000D01*
X258556D01*
X258370Y420923D01*
X258173Y420884D01*
X258006Y420772D01*
X257821Y420695D01*
X257679Y420554D01*
X257512Y420442D01*
X257400Y420275D01*
X257258Y420133D01*
X257181Y419947D01*
X257070Y419780D01*
X257030Y419583D01*
X256954Y419398D01*
X256666Y417951D01*
X255857Y416740D01*
X254646Y415931D01*
X253217Y415647D01*
X251789Y415931D01*
X250578Y416740D01*
X250177Y417341D01*
X250035Y417483D01*
X249923Y417650D01*
X249756Y417761D01*
X249614Y417903D01*
X249428Y417980D01*
X249261Y418092D01*
X249065Y418131D01*
X248879Y418208D01*
X248678D01*
X248481Y418247D01*
X246954D01*
X246757Y418208D01*
X246556D01*
X246370Y418131D01*
X246173Y418092D01*
X246006Y417980D01*
X245821Y417903D01*
X245679Y417761D01*
X245512Y417650D01*
X245400Y417483D01*
X245258Y417341D01*
X244857Y416740D01*
X243646Y415931D01*
X242217Y415647D01*
X240789Y415931D01*
X239578Y416740D01*
X238769Y417951D01*
X238481Y419398D01*
X238404Y419583D01*
X238365Y419780D01*
X238253Y419947D01*
X238177Y420133D01*
X238035Y420275D01*
X237923Y420442D01*
X237756Y420554D01*
X237614Y420696D01*
X237428Y420772D01*
X237262Y420884D01*
X237064Y420923D01*
X236879Y421000D01*
X236678D01*
X236481Y421039D01*
X226124D01*
X225769Y422824D01*
X224510Y424710D01*
X222624Y425969D01*
X220400Y426412D01*
X218176Y425969D01*
X216291Y424710D01*
X215031Y422824D01*
X214588Y420600D01*
X214588Y420568D01*
X214482Y419880D01*
X214011Y418532D01*
X213790Y418401D01*
X213552Y418303D01*
X212428Y417552D01*
X211000Y417267D01*
X209572Y417552D01*
X208361Y418361D01*
X207495Y419657D01*
X207470Y419780D01*
X207359Y419947D01*
X207282Y420133D01*
X207140Y420275D01*
X207028Y420442D01*
X206861Y420554D01*
X206719Y420695D01*
X206534Y420772D01*
X206367Y420884D01*
X206170Y420923D01*
X205984Y421000D01*
X205783D01*
X205586Y421039D01*
X199730D01*
X199533Y421000D01*
X199333D01*
X199147Y420923D01*
X198950Y420884D01*
X198783Y420772D01*
X198597Y420695D01*
X198455Y420554D01*
X198288Y420442D01*
X198177Y420275D01*
X198035Y420133D01*
X197519Y419361D01*
X196308Y418552D01*
X194879Y418268D01*
X193451Y418552D01*
X192240Y419361D01*
X191724Y420133D01*
X191582Y420275D01*
X191471Y420442D01*
X191304Y420554D01*
X191162Y420695D01*
X190976Y420772D01*
X190809Y420884D01*
X190612Y420923D01*
X190427Y421000D01*
X190226D01*
X190029Y421039D01*
X158351D01*
X157744Y423039D01*
X158258Y423382D01*
X159518Y425268D01*
X159960Y427492D01*
X159518Y429716D01*
X158258Y431601D01*
X156372Y432861D01*
X154148Y433304D01*
X151924Y432861D01*
X150039Y431601D01*
X148779Y429716D01*
X148337Y427492D01*
X148779Y425268D01*
X150039Y423382D01*
X150553Y423039D01*
X149946Y421039D01*
X122141D01*
X121376Y422887D01*
X141901Y443412D01*
X204607D01*
X205776Y442631D01*
X208000Y442188D01*
X210224Y442631D01*
X212110Y443890D01*
X213369Y445776D01*
X213812Y448000D01*
X213369Y450224D01*
X212110Y452109D01*
X210224Y453369D01*
X208000Y453812D01*
X205776Y453369D01*
X204628Y452602D01*
X204267Y452588D01*
X140000D01*
X138244Y452239D01*
X136756Y451244D01*
X96006Y410494D01*
X95011Y409006D01*
X94662Y407250D01*
Y379799D01*
X46556Y331693D01*
X45561Y330204D01*
X45212Y328448D01*
Y300343D01*
X45561Y298588D01*
X46556Y297099D01*
X47112Y296543D01*
Y222600D01*
X41022Y216511D01*
X40718Y216265D01*
X38581Y215840D01*
X37054Y214820D01*
X35323Y215458D01*
X35036Y215694D01*
X34978Y218567D01*
Y334766D01*
X35092Y338088D01*
X35287Y340117D01*
X35398Y340793D01*
X35507Y341242D01*
X35557Y341374D01*
X35559Y341378D01*
X36504Y342610D01*
X37210Y344313D01*
X37450Y346140D01*
Y358860D01*
X37210Y360687D01*
X36504Y362390D01*
X35382Y363852D01*
X29492Y369742D01*
X28030Y370864D01*
X26327Y371570D01*
X24500Y371810D01*
X22673Y371570D01*
X20970Y370864D01*
X19508Y369742D01*
X18385Y368280D01*
X17680Y366577D01*
X17440Y364750D01*
X17680Y362923D01*
X18385Y361220D01*
X19508Y359757D01*
X23330Y355936D01*
Y346140D01*
X23570Y344313D01*
X24276Y342610D01*
X25221Y341378D01*
X25223Y341374D01*
X25273Y341242D01*
X25358Y340890D01*
X25802Y334189D01*
Y215365D01*
X25796Y214696D01*
X25770Y214129D01*
X24974Y212937D01*
X24527Y210694D01*
Y206696D01*
X24069Y204390D01*
X24550Y201971D01*
X25920Y199920D01*
X27971Y198550D01*
X30390Y198069D01*
X32809Y198550D01*
X34662Y199788D01*
X35578Y199560D01*
X36662Y199017D01*
Y174750D01*
X36766Y174225D01*
X35622Y173454D01*
X34924Y173233D01*
X33224Y174369D01*
X31000Y174812D01*
X28776Y174369D01*
X26890Y173109D01*
X25631Y171224D01*
X25188Y169000D01*
X25631Y166776D01*
X26890Y164890D01*
X28776Y163631D01*
X31000Y163188D01*
X33224Y163631D01*
X35110Y164890D01*
X36369Y166776D01*
X36812Y169000D01*
X36595Y170088D01*
X38438Y171073D01*
X40256Y169256D01*
X53756Y155756D01*
X55244Y154761D01*
X57000Y154412D01*
X200503D01*
X240912Y114003D01*
Y100524D01*
X240767Y100420D01*
X238555Y101291D01*
X238369Y102224D01*
X237110Y104109D01*
X235224Y105369D01*
X233000Y105812D01*
X230776Y105369D01*
X228890Y104109D01*
X227631Y102224D01*
X227188Y100000D01*
X227631Y97776D01*
X228890Y95891D01*
X230776Y94631D01*
X233000Y94188D01*
X235224Y94631D01*
X237110Y95891D01*
X237475Y96438D01*
X239359Y95657D01*
X239179Y94750D01*
X239660Y92331D01*
X241030Y90280D01*
X243081Y88910D01*
X245500Y88429D01*
X247919Y88910D01*
X249970Y90280D01*
X251340Y92331D01*
X251821Y94750D01*
X251340Y97169D01*
X250134Y98974D01*
X250088Y99619D01*
Y115904D01*
X249739Y117659D01*
X248744Y119148D01*
X232908Y134984D01*
X233493Y137227D01*
X234860Y138140D01*
X236119Y140026D01*
X236562Y142250D01*
X236119Y144474D01*
X234860Y146360D01*
X232974Y147619D01*
X230750Y148062D01*
X228526Y147619D01*
X226640Y146360D01*
X225728Y144993D01*
X223484Y144408D01*
X205648Y162244D01*
X204159Y163239D01*
X202404Y163588D01*
X58900D01*
X49407Y173081D01*
X53457Y177131D01*
X53491Y177156D01*
X53603Y177223D01*
X53738Y177288D01*
X53901Y177348D01*
X54093Y177403D01*
X54318Y177449D01*
X54577Y177484D01*
X54868Y177505D01*
X54911Y177506D01*
X55250Y177438D01*
X57474Y177881D01*
X59359Y179141D01*
X60619Y181026D01*
X61062Y183250D01*
X60619Y185474D01*
X59359Y187360D01*
X57474Y188619D01*
X55250Y189062D01*
X53026Y188619D01*
X51141Y187360D01*
X49881Y185474D01*
X49438Y183250D01*
X49506Y182911D01*
X49505Y182868D01*
X49484Y182577D01*
X49449Y182318D01*
X49403Y182093D01*
X49349Y181901D01*
X49288Y181738D01*
X49223Y181603D01*
X49156Y181490D01*
X49131Y181457D01*
X47686Y180012D01*
X45838Y180777D01*
Y205698D01*
X45867Y206020D01*
X45887Y206154D01*
X46840Y207581D01*
X47264Y209710D01*
X47687Y210198D01*
X54944Y217456D01*
X55939Y218944D01*
X56288Y220700D01*
Y235215D01*
X58136Y235980D01*
X62539Y231577D01*
X62623Y231521D01*
X62688Y231443D01*
X62952Y231301D01*
X63201Y231135D01*
X63300Y231115D01*
X63389Y231068D01*
X63687Y231038D01*
X63981Y230980D01*
X64080Y230999D01*
X64181Y230989D01*
X65445Y231114D01*
X65542Y231143D01*
X65643D01*
X65920Y231258D01*
X66206Y231345D01*
X66284Y231409D01*
X66378Y231448D01*
X66590Y231660D01*
X66821Y231850D01*
X66869Y231939D01*
X66941Y232010D01*
X67361Y232639D01*
X68572Y233448D01*
X70000Y233732D01*
X71428Y233448D01*
X72639Y232639D01*
X73448Y231428D01*
X73733Y230000D01*
X73448Y228572D01*
X72639Y227361D01*
X72010Y226940D01*
X71939Y226869D01*
X71850Y226821D01*
X71660Y226590D01*
X71448Y226378D01*
X71409Y226285D01*
X71345Y226206D01*
X71258Y225920D01*
X71143Y225643D01*
Y225542D01*
X71114Y225445D01*
X70989Y224181D01*
X70999Y224080D01*
X70980Y223981D01*
X71038Y223687D01*
X71068Y223389D01*
X71115Y223300D01*
X71135Y223201D01*
X71301Y222952D01*
X71443Y222687D01*
X71521Y222623D01*
X71577Y222539D01*
X83558Y210558D01*
X83558Y210558D01*
X92613Y201503D01*
X91925Y200474D01*
X91483Y198250D01*
X91925Y196026D01*
X93185Y194140D01*
X95070Y192881D01*
X97295Y192438D01*
X99518Y192881D01*
X101404Y194140D01*
X102664Y196026D01*
X103106Y198250D01*
X103073Y198415D01*
X104342Y199961D01*
X147556D01*
X147622Y199974D01*
X147689Y199965D01*
X148010Y200051D01*
X148336Y200116D01*
X149436Y199034D01*
X149764Y198653D01*
X151104Y196907D01*
X153088Y195384D01*
X155399Y194427D01*
X157879Y194100D01*
X160359Y194427D01*
X162670Y195384D01*
X164655Y196907D01*
X165994Y198653D01*
X166322Y199034D01*
X167422Y200116D01*
X167748Y200051D01*
X168069Y199965D01*
X168136Y199974D01*
X168203Y199961D01*
X172956D01*
X173022Y199974D01*
X173089Y199965D01*
X173410Y200051D01*
X173736Y200116D01*
X174836Y199034D01*
X175164Y198653D01*
X176504Y196907D01*
X178488Y195384D01*
X180799Y194427D01*
X183279Y194100D01*
X185759Y194427D01*
X188070Y195384D01*
X190055Y196907D01*
X191394Y198653D01*
X191722Y199034D01*
X192822Y200116D01*
X193148Y200051D01*
X193469Y199965D01*
X193536Y199974D01*
X193603Y199961D01*
X198356D01*
X198422Y199974D01*
X198489Y199965D01*
X198810Y200051D01*
X199136Y200116D01*
X200236Y199034D01*
X200564Y198653D01*
X201904Y196907D01*
X203888Y195384D01*
X206199Y194427D01*
X208679Y194100D01*
X211159Y194427D01*
X213470Y195384D01*
X215455Y196907D01*
X216794Y198653D01*
X217122Y199034D01*
X218222Y200116D01*
X218548Y200051D01*
X218869Y199965D01*
X218936Y199974D01*
X219003Y199961D01*
X223438D01*
X223775Y200028D01*
X224116Y200077D01*
X224888Y199591D01*
X225780Y198892D01*
X225781Y198891D01*
X227304Y196907D01*
X229288Y195384D01*
X229885Y195137D01*
X231160Y193736D01*
X231095Y193410D01*
X231009Y193089D01*
X231018Y193022D01*
X231005Y192956D01*
X231070Y192630D01*
X231113Y192300D01*
X231147Y192242D01*
X231160Y192175D01*
X231345Y191899D01*
X231511Y191611D01*
X231565Y191570D01*
X231602Y191514D01*
X233333Y189783D01*
X232616Y187672D01*
X231599Y187538D01*
X229288Y186581D01*
X227304Y185058D01*
X225781Y183073D01*
X224824Y180762D01*
X224497Y178282D01*
X224824Y175802D01*
X225781Y173491D01*
X227304Y171507D01*
X229288Y169984D01*
X231599Y169027D01*
X234079Y168701D01*
X236559Y169027D01*
X238870Y169984D01*
X240855Y171507D01*
X242377Y173491D01*
X243335Y175802D01*
X243468Y176819D01*
X245580Y177536D01*
X248306Y174810D01*
X248968Y174368D01*
X249748Y174212D01*
X250922Y172408D01*
Y171483D01*
X250916Y171403D01*
X250891Y171208D01*
X250865Y171072D01*
X249631Y169224D01*
X249188Y167000D01*
X249631Y164776D01*
X250891Y162890D01*
X252776Y161631D01*
X254956Y161197D01*
X255032Y161145D01*
X255385Y160847D01*
X264116Y152116D01*
X264116Y152116D01*
X265439Y151232D01*
X267000Y150922D01*
X272408D01*
X274212Y149748D01*
X274368Y148968D01*
X274810Y148306D01*
X274810Y148306D01*
X300539Y122577D01*
X300623Y122521D01*
X300688Y122443D01*
X300952Y122301D01*
X301201Y122135D01*
X301300Y122115D01*
X301389Y122067D01*
X301687Y122038D01*
X301981Y121980D01*
X302080Y121999D01*
X302181Y121989D01*
X303445Y122114D01*
X303542Y122143D01*
X303643D01*
X303920Y122258D01*
X304206Y122345D01*
X304284Y122409D01*
X304378Y122448D01*
X304590Y122660D01*
X304821Y122850D01*
X304869Y122939D01*
X304941Y123010D01*
X305361Y123639D01*
X306572Y124448D01*
X308000Y124733D01*
X309428Y124448D01*
X310639Y123639D01*
X311448Y122428D01*
X311733Y121000D01*
X311448Y119572D01*
X310639Y118361D01*
X310010Y117941D01*
X309939Y117869D01*
X309850Y117821D01*
X309660Y117590D01*
X309448Y117378D01*
X309409Y117284D01*
X309345Y117206D01*
X309258Y116920D01*
X309143Y116643D01*
Y116542D01*
X309114Y116445D01*
X308990Y115181D01*
X308999Y115080D01*
X308980Y114981D01*
X309038Y114687D01*
X309067Y114389D01*
X309115Y114300D01*
X309135Y114201D01*
X309301Y113952D01*
X309443Y113687D01*
X309521Y113623D01*
X309577Y113539D01*
X338008Y85108D01*
X338175Y84997D01*
X338317Y84855D01*
X338639Y84639D01*
X338855Y84317D01*
X338997Y84174D01*
X339109Y84008D01*
X340150Y82966D01*
X340323Y82850D01*
X340472Y82704D01*
X340651Y82631D01*
X340812Y82524D01*
X341016Y82483D01*
X341209Y82405D01*
X341403Y82406D01*
X341592Y82369D01*
X341796Y82409D01*
X342005Y82411D01*
X343493Y82719D01*
X343851Y82870D01*
X344213Y83020D01*
X344219Y83026D01*
X344226Y83029D01*
X344500Y83307D01*
X344776Y83583D01*
X345482Y84639D01*
X346693Y85448D01*
X348121Y85732D01*
X349549Y85448D01*
X350760Y84639D01*
X351569Y83428D01*
X351854Y82000D01*
X351569Y80572D01*
X351290Y80153D01*
X351175Y79876D01*
X351034Y79612D01*
X351024Y79511D01*
X350985Y79418D01*
Y79118D01*
X350956Y78820D01*
X350985Y78723D01*
Y78622D01*
X351100Y78345D01*
X351187Y78059D01*
X351866Y76789D01*
X352056Y76557D01*
X352222Y76308D01*
X352444Y75252D01*
X352488Y74706D01*
X352450Y74363D01*
X352347Y74002D01*
X351189Y72845D01*
X351189Y72845D01*
X350747Y72183D01*
X350592Y71403D01*
Y55369D01*
X350592Y55369D01*
X350747Y54589D01*
X351189Y53927D01*
X353708Y51408D01*
X352943Y49560D01*
X340391D01*
X339254Y51560D01*
X339591Y53250D01*
X339148Y55474D01*
X337888Y57359D01*
X336003Y58619D01*
X333779Y59062D01*
X331555Y58619D01*
X329669Y57359D01*
X328410Y55474D01*
X327967Y53250D01*
X328303Y51560D01*
X327167Y49560D01*
X257750D01*
X255923Y49320D01*
X254220Y48615D01*
X252758Y47492D01*
X245826Y40560D01*
X176928D01*
X176419Y41318D01*
X177551Y43220D01*
X178535Y43220D01*
X194270D01*
Y60920D01*
X176570D01*
Y45218D01*
X176570Y43962D01*
X176035Y42813D01*
X175096Y41951D01*
X154064Y62983D01*
X153208Y63964D01*
X152200Y65436D01*
X151210Y67225D01*
X150249Y69329D01*
X149326Y71745D01*
X148458Y74434D01*
X146090Y84502D01*
X145514Y87826D01*
X145472Y88355D01*
X144410Y92778D01*
X142670Y96981D01*
X140293Y100859D01*
X137339Y104319D01*
X133879Y107273D01*
X130001Y109650D01*
X125798Y111390D01*
X121375Y112452D01*
X116840Y112809D01*
X112305Y112452D01*
X107882Y111390D01*
X103679Y109650D01*
X99801Y107273D01*
X96341Y104319D01*
X93387Y100859D01*
X91010Y96981D01*
X89270Y92778D01*
X88208Y88355D01*
X87851Y83820D01*
X88208Y79285D01*
X89270Y74862D01*
X91010Y70659D01*
X93387Y66781D01*
X96341Y63321D01*
X99801Y60367D01*
X103679Y57990D01*
X107882Y56249D01*
X112305Y55188D01*
X116840Y54831D01*
X121375Y55188D01*
X122073Y55355D01*
X125344Y55863D01*
X128473Y56173D01*
X131377Y56276D01*
X134056Y56174D01*
X136507Y55874D01*
X138731Y55382D01*
X140732Y54706D01*
X142517Y53850D01*
X144099Y52819D01*
X145316Y51761D01*
X150274Y46803D01*
X149069Y45179D01*
X148106Y45694D01*
X143985Y46944D01*
X139700Y47366D01*
X135415Y46944D01*
X131294Y45694D01*
X127496Y43664D01*
X124168Y40932D01*
X121436Y37604D01*
X119406Y33806D01*
X118156Y29685D01*
X117734Y25400D01*
X118156Y21115D01*
X119406Y16994D01*
X121436Y13196D01*
X124168Y9868D01*
X127207Y7373D01*
X126942Y5373D01*
X25400D01*
X25155Y5324D01*
X21479Y5686D01*
X17708Y6830D01*
X14233Y8688D01*
X11187Y11187D01*
X8688Y14233D01*
X6830Y17708D01*
X5686Y21479D01*
X5324Y25155D01*
X5373Y25400D01*
Y508000D01*
X5324Y508246D01*
X5686Y511921D01*
X6830Y515692D01*
X8688Y519167D01*
X11187Y522213D01*
X14233Y524712D01*
X17384Y526396D01*
X18162Y526040D01*
X19128Y524910D01*
X18915Y523842D01*
X19381Y521501D01*
X20707Y519516D01*
X21021Y519306D01*
X21075Y519251D01*
X21307Y518985D01*
X21500Y518737D01*
X21655Y518508D01*
X21776Y518300D01*
X21865Y518113D01*
X21926Y517949D01*
X21964Y517807D01*
X21974Y517746D01*
Y517358D01*
X21974Y517357D01*
X22207Y516187D01*
X22870Y515195D01*
X25452Y512613D01*
X25452Y512613D01*
X26444Y511950D01*
X27615Y511717D01*
X62333D01*
X62333Y511717D01*
X63504Y511950D01*
X64496Y512613D01*
X64654Y512770D01*
X66569Y512613D01*
X67561Y511950D01*
X68732Y511717D01*
X79804D01*
X79804Y511717D01*
X80975Y511950D01*
X81967Y512613D01*
X82032Y512678D01*
X83487D01*
X84097Y512612D01*
X85090Y511950D01*
X86260Y511717D01*
X86260Y511717D01*
X117246D01*
Y494130D01*
X117246Y494130D01*
X117479Y492959D01*
X118141Y491967D01*
X118401Y491707D01*
Y486595D01*
X118395Y486553D01*
X118363Y486426D01*
X118313Y486285D01*
X118241Y486127D01*
X118144Y485952D01*
X118017Y485760D01*
X117859Y485553D01*
X117667Y485332D01*
X117638Y485302D01*
X117351Y485109D01*
X116091Y483224D01*
X115648Y481000D01*
X116091Y478776D01*
X117351Y476890D01*
X119236Y475631D01*
X121460Y475188D01*
X123684Y475631D01*
X125569Y476890D01*
X126829Y478776D01*
X127272Y481000D01*
X126829Y483224D01*
X125569Y485109D01*
X125282Y485302D01*
X125253Y485332D01*
X125061Y485553D01*
X124903Y485760D01*
X124776Y485952D01*
X124679Y486127D01*
X124607Y486285D01*
X124557Y486426D01*
X124525Y486553D01*
X124519Y486595D01*
Y492974D01*
X124286Y494145D01*
X123623Y495137D01*
X123623Y495137D01*
X123363Y495397D01*
Y512692D01*
X123379Y512834D01*
X123419Y513046D01*
X123474Y513245D01*
X123544Y513434D01*
X123628Y513617D01*
X123730Y513796D01*
X123851Y513974D01*
X123941Y514086D01*
X125695Y515840D01*
X125695Y515840D01*
X126358Y516833D01*
X126591Y518003D01*
X126591Y518004D01*
Y518301D01*
X126597Y518354D01*
X126621Y518479D01*
X126649Y518571D01*
X126675Y518637D01*
X126699Y518682D01*
X126722Y518714D01*
X126746Y518741D01*
X126777Y518770D01*
X126911Y518867D01*
X127019Y518984D01*
X127858Y519545D01*
X129184Y521530D01*
X129650Y523871D01*
X129221Y526027D01*
X129302Y526547D01*
X130093Y528027D01*
X139642D01*
X139907Y526027D01*
X136868Y523532D01*
X134136Y520204D01*
X132106Y516406D01*
X130856Y512285D01*
X130434Y508000D01*
X130856Y503715D01*
X132106Y499594D01*
X134136Y495796D01*
X136868Y492468D01*
X140196Y489736D01*
X143994Y487706D01*
X148115Y486456D01*
X152400Y486034D01*
X156685Y486456D01*
X160806Y487706D01*
X164604Y489736D01*
X167932Y492468D01*
X170664Y495796D01*
X172694Y499594D01*
X173944Y503715D01*
X174366Y508000D01*
X173944Y512285D01*
X172694Y516406D01*
X170664Y520204D01*
X167932Y523532D01*
X164893Y526027D01*
X165158Y528027D01*
X635000D01*
X635246Y528076D01*
X638921Y527714D01*
D02*
G37*
G36*
X680427Y63442D02*
Y50801D01*
X680427Y50800D01*
X680427Y50800D01*
X680215Y48894D01*
X679479Y47117D01*
X678308Y45592D01*
X676783Y44421D01*
X675006Y43685D01*
X673100Y43473D01*
X673034Y43473D01*
X672865Y43437D01*
X671180Y43268D01*
X669577Y43110D01*
X666190Y42082D01*
X663068Y40414D01*
X660332Y38168D01*
X658086Y35432D01*
X656418Y32310D01*
X655390Y28923D01*
X655232Y27320D01*
X655052Y25528D01*
X655027Y25400D01*
X655027D01*
X654908Y23449D01*
X654714Y21479D01*
X653570Y17708D01*
X651712Y14233D01*
X649213Y11187D01*
X646167Y8688D01*
X642692Y6830D01*
X638921Y5686D01*
X635246Y5324D01*
X635000Y5373D01*
X152458D01*
X152193Y7373D01*
X155232Y9868D01*
X157964Y13196D01*
X159994Y16994D01*
X161244Y21115D01*
X161666Y25400D01*
X161244Y29685D01*
X159994Y33806D01*
X159479Y34769D01*
X161103Y35974D01*
X168569Y28508D01*
X170031Y27385D01*
X171734Y26680D01*
X173562Y26440D01*
X248750D01*
X250577Y26680D01*
X252280Y27385D01*
X253743Y28508D01*
X260674Y35440D01*
X268123D01*
X269900Y34900D01*
X269900Y33440D01*
Y15900D01*
X288900D01*
Y33440D01*
X288900Y34900D01*
X290676Y35440D01*
X299137D01*
X299469Y34776D01*
X299672Y33440D01*
X298025Y32175D01*
X296502Y30191D01*
X295544Y27880D01*
X295218Y25400D01*
X295544Y22920D01*
X296502Y20609D01*
X298025Y18625D01*
X300009Y17102D01*
X302320Y16144D01*
X304800Y15818D01*
X307280Y16144D01*
X309591Y17102D01*
X311575Y18625D01*
X313098Y20609D01*
X314056Y22920D01*
X314382Y25400D01*
X314056Y27880D01*
X313098Y30191D01*
X311575Y32175D01*
X309928Y33440D01*
X310131Y34776D01*
X310463Y35440D01*
X324537D01*
X324869Y34776D01*
X325072Y33440D01*
X323425Y32175D01*
X321902Y30191D01*
X320945Y27880D01*
X320618Y25400D01*
X320945Y22920D01*
X321902Y20609D01*
X323425Y18625D01*
X325409Y17102D01*
X327720Y16144D01*
X330200Y15818D01*
X332680Y16144D01*
X334991Y17102D01*
X336975Y18625D01*
X338498Y20609D01*
X339455Y22920D01*
X339782Y25400D01*
X339455Y27880D01*
X338498Y30191D01*
X336975Y32175D01*
X335328Y33440D01*
X335531Y34776D01*
X335863Y35440D01*
X349937D01*
X350269Y34776D01*
X350472Y33440D01*
X348825Y32175D01*
X347302Y30191D01*
X346344Y27880D01*
X346018Y25400D01*
X346344Y22920D01*
X347302Y20609D01*
X348825Y18625D01*
X350809Y17102D01*
X353120Y16144D01*
X355600Y15818D01*
X358080Y16144D01*
X360391Y17102D01*
X362375Y18625D01*
X363898Y20609D01*
X364855Y22920D01*
X365182Y25400D01*
X364855Y27880D01*
X363898Y30191D01*
X362375Y32175D01*
X360728Y33440D01*
X360931Y34776D01*
X361263Y35440D01*
X375337D01*
X375669Y34776D01*
X375872Y33440D01*
X374225Y32175D01*
X372702Y30191D01*
X371744Y27880D01*
X371418Y25400D01*
X371744Y22920D01*
X372702Y20609D01*
X374225Y18625D01*
X376209Y17102D01*
X378520Y16144D01*
X381000Y15818D01*
X383480Y16144D01*
X385791Y17102D01*
X387775Y18625D01*
X389298Y20609D01*
X390256Y22920D01*
X390582Y25400D01*
X390256Y27880D01*
X389298Y30191D01*
X387775Y32175D01*
X386128Y33440D01*
X386331Y34776D01*
X386663Y35440D01*
X400737D01*
X401069Y34776D01*
X401272Y33440D01*
X399624Y32175D01*
X398102Y30191D01*
X397145Y27880D01*
X397015Y26900D01*
X415784D01*
X415656Y27880D01*
X414698Y30191D01*
X413175Y32175D01*
X411528Y33440D01*
X411731Y34776D01*
X412063Y35440D01*
X426137D01*
X426469Y34776D01*
X426672Y33440D01*
X425024Y32175D01*
X423502Y30191D01*
X422545Y27880D01*
X422416Y26900D01*
X441185D01*
X441055Y27880D01*
X440453Y29333D01*
X442149Y30466D01*
X446227Y26388D01*
X447396Y25163D01*
X447695Y24814D01*
X447944Y22920D01*
X448902Y20609D01*
X450424Y18625D01*
X452409Y17102D01*
X454720Y16144D01*
X457200Y15818D01*
X459680Y16144D01*
X461991Y17102D01*
X463975Y18625D01*
X465498Y20609D01*
X466944Y20607D01*
X467658Y20369D01*
X467982Y20328D01*
X468303Y20264D01*
X468375Y20278D01*
X468447Y20269D01*
X468763Y20356D01*
X469084Y20419D01*
X469144Y20460D01*
X469214Y20479D01*
X469473Y20680D01*
X469745Y20861D01*
X479845Y30961D01*
X498500D01*
Y15900D01*
X517500D01*
Y30961D01*
X523259D01*
X524592Y28961D01*
X524145Y27880D01*
X523818Y25400D01*
X524145Y22920D01*
X525102Y20609D01*
X526625Y18625D01*
X528609Y17102D01*
X530920Y16144D01*
X533400Y15818D01*
X535880Y16144D01*
X538191Y17102D01*
X540175Y18625D01*
X541698Y20609D01*
X542655Y22920D01*
X542982Y25400D01*
X542655Y27880D01*
X542208Y28961D01*
X543541Y30961D01*
X548658D01*
X549992Y28961D01*
X549544Y27880D01*
X549218Y25400D01*
X549544Y22920D01*
X550502Y20609D01*
X552025Y18625D01*
X554009Y17102D01*
X556320Y16144D01*
X558800Y15818D01*
X561280Y16144D01*
X563591Y17102D01*
X565575Y18625D01*
X567098Y20609D01*
X568055Y22920D01*
X568382Y25400D01*
X568055Y27880D01*
X567608Y28961D01*
X568941Y30961D01*
X574058D01*
X575392Y28961D01*
X574944Y27880D01*
X574618Y25400D01*
X574944Y22920D01*
X575902Y20609D01*
X577425Y18625D01*
X579409Y17102D01*
X581720Y16144D01*
X584200Y15818D01*
X586680Y16144D01*
X588991Y17102D01*
X590975Y18625D01*
X592498Y20609D01*
X593456Y22920D01*
X593782Y25400D01*
X593456Y27880D01*
X593008Y28961D01*
X594342Y30961D01*
X599459D01*
X600792Y28961D01*
X600345Y27880D01*
X600018Y25400D01*
X600345Y22920D01*
X601302Y20609D01*
X602825Y18625D01*
X604809Y17102D01*
X607120Y16144D01*
X609600Y15818D01*
X612080Y16144D01*
X614391Y17102D01*
X616375Y18625D01*
X617898Y20609D01*
X618856Y22920D01*
X619182Y25400D01*
X618856Y27880D01*
X618408Y28961D01*
X619742Y30961D01*
X624859D01*
X626192Y28961D01*
X625745Y27880D01*
X625418Y25400D01*
X625745Y22920D01*
X626702Y20609D01*
X628224Y18625D01*
X630209Y17102D01*
X632520Y16144D01*
X635000Y15818D01*
X637480Y16144D01*
X639791Y17102D01*
X641775Y18625D01*
X643298Y20609D01*
X644256Y22920D01*
X644582Y25400D01*
X644256Y27880D01*
X643298Y30191D01*
X642408Y31351D01*
X642442Y31558D01*
X642442Y31558D01*
X661703Y50819D01*
X661904Y51119D01*
X662115Y51411D01*
X662124Y51449D01*
X662145Y51481D01*
X662215Y51835D01*
X662299Y52186D01*
X662293Y52223D01*
X662300Y52261D01*
X662271Y52409D01*
X662312Y52751D01*
X663384Y54528D01*
X664685Y54656D01*
X668806Y55906D01*
X672604Y57936D01*
X675932Y60668D01*
X678427Y63707D01*
X680427Y63442D01*
D02*
G37*
G36*
X27490Y520634D02*
X26915Y519937D01*
X26681Y519592D01*
X26483Y519249D01*
X26321Y518909D01*
X26195Y518570D01*
X26105Y518234D01*
X26051Y517901D01*
X26033Y517569D01*
X24032D01*
X24014Y517901D01*
X23960Y518234D01*
X23870Y518570D01*
X23744Y518909D01*
X23582Y519249D01*
X23384Y519592D01*
X23150Y519937D01*
X22880Y520284D01*
X22575Y520634D01*
X22232Y520985D01*
X27833D01*
X27490Y520634D01*
D02*
G37*
G36*
X125487Y520354D02*
X125287Y520171D01*
X125110Y519969D01*
X124957Y519747D01*
X124827Y519505D01*
X124721Y519244D01*
X124639Y518964D01*
X124579Y518663D01*
X124544Y518343D01*
X124532Y518003D01*
X122532D01*
X122521Y518343D01*
X122485Y518663D01*
X122426Y518964D01*
X122344Y519244D01*
X122238Y519505D01*
X122108Y519747D01*
X121955Y519969D01*
X121778Y520171D01*
X121578Y520354D01*
X121354Y520516D01*
X125711D01*
X125487Y520354D01*
D02*
G37*
G36*
X84987D02*
X84787Y520171D01*
X84610Y519969D01*
X84457Y519747D01*
X84327Y519505D01*
X84221Y519244D01*
X84193Y519149D01*
X84259Y518911D01*
X84386Y518564D01*
X84542Y518228D01*
X84725Y517905D01*
X84937Y517593D01*
X85178Y517292D01*
X85447Y517003D01*
X84447Y515175D01*
X84164Y515430D01*
X83881Y515628D01*
X83598Y515769D01*
X83315Y515854D01*
X83032Y515882D01*
X82750Y515854D01*
X82467Y515769D01*
X82184Y515628D01*
X81901Y515430D01*
X81618Y515175D01*
X80618Y517003D01*
X80887Y517292D01*
X81127Y517593D01*
X81339Y517905D01*
X81523Y518228D01*
X81679Y518564D01*
X81806Y518911D01*
X81872Y519149D01*
X81844Y519244D01*
X81738Y519505D01*
X81608Y519747D01*
X81455Y519969D01*
X81278Y520171D01*
X81078Y520354D01*
X80854Y520516D01*
X85211D01*
X84987Y520354D01*
D02*
G37*
G36*
X122719Y515775D02*
X122450Y515487D01*
X122210Y515186D01*
X121997Y514874D01*
X121813Y514550D01*
X121658Y514215D01*
X121531Y513867D01*
X121432Y513508D01*
X121361Y513138D01*
X121319Y512755D01*
X121304Y512361D01*
X119304Y511776D01*
X119284Y512155D01*
X119224Y512495D01*
X119124Y512795D01*
X118984Y513055D01*
X118804Y513275D01*
X118584Y513456D01*
X118324Y513595D01*
X118024Y513695D01*
X117684Y513755D01*
X117304Y513775D01*
X117890Y515775D01*
X118284Y515790D01*
X118667Y515832D01*
X119038Y515903D01*
X119396Y516002D01*
X119744Y516129D01*
X120079Y516285D01*
X120403Y516468D01*
X120715Y516681D01*
X121016Y516921D01*
X121304Y517190D01*
X122719Y515775D01*
D02*
G37*
G36*
X67487Y520325D02*
X67287Y520142D01*
X67110Y519940D01*
X66957Y519718D01*
X66827Y519477D01*
X66721Y519215D01*
X66693Y519120D01*
X66759Y518882D01*
X66886Y518535D01*
X67042Y518200D01*
X67225Y517876D01*
X67438Y517564D01*
X67678Y517263D01*
X67947Y516974D01*
X66947Y515146D01*
X66664Y515401D01*
X66381Y515599D01*
X66098Y515740D01*
X65815Y515825D01*
X65532Y515853D01*
X65250Y515825D01*
X64967Y515740D01*
X64684Y515599D01*
X64401Y515401D01*
X64118Y515146D01*
X63118Y516974D01*
X63387Y517263D01*
X63627Y517564D01*
X63840Y517876D01*
X64023Y518200D01*
X64179Y518535D01*
X64306Y518882D01*
X64372Y519120D01*
X64344Y519215D01*
X64238Y519477D01*
X64108Y519718D01*
X63955Y519940D01*
X63778Y520142D01*
X63578Y520325D01*
X63354Y520488D01*
X67711D01*
X67487Y520325D01*
D02*
G37*
%LPC*%
G36*
X80000Y203812D02*
X77776Y203369D01*
X75890Y202110D01*
X74631Y200224D01*
X74188Y198000D01*
X74631Y195776D01*
X75890Y193890D01*
X77776Y192631D01*
X80000Y192188D01*
X82224Y192631D01*
X84109Y193890D01*
X85369Y195776D01*
X85812Y198000D01*
X85369Y200224D01*
X84109Y202110D01*
X82224Y203369D01*
X80000Y203812D01*
D02*
G37*
G36*
X131850Y281662D02*
X129626Y281219D01*
X127740Y279960D01*
X126481Y278074D01*
X126038Y275850D01*
X126481Y273626D01*
X127381Y272279D01*
X127123Y270742D01*
X126551Y270359D01*
X125291Y268474D01*
X124848Y266250D01*
X125291Y264026D01*
X126551Y262141D01*
X127740Y261346D01*
Y260959D01*
X126481Y259074D01*
X126038Y256850D01*
X126481Y254626D01*
X127740Y252741D01*
Y252261D01*
X126540Y251459D01*
X125281Y249574D01*
X124838Y247350D01*
X125281Y245126D01*
X126540Y243241D01*
X128426Y241981D01*
X130650Y241538D01*
X132874Y241981D01*
X134760Y243241D01*
X136019Y245126D01*
X136462Y247350D01*
X136019Y249574D01*
X134760Y251459D01*
Y251939D01*
X135960Y252740D01*
X137219Y254626D01*
X137662Y256850D01*
X137219Y259074D01*
X135960Y260959D01*
X134769Y261755D01*
Y262141D01*
X136029Y264026D01*
X136472Y266250D01*
X136029Y268474D01*
X135129Y269821D01*
X135387Y271358D01*
X135960Y271740D01*
X137219Y273626D01*
X137662Y275850D01*
X137219Y278074D01*
X135960Y279960D01*
X134074Y281219D01*
X131850Y281662D01*
D02*
G37*
G36*
X539596Y270408D02*
X537373Y269966D01*
X535487Y268706D01*
X534227Y266821D01*
X533785Y264597D01*
X534227Y262372D01*
X535487Y260487D01*
X537373Y259227D01*
X539596Y258785D01*
X541820Y259227D01*
X543706Y260487D01*
X544966Y262372D01*
X545408Y264597D01*
X544966Y266821D01*
X543706Y268706D01*
X541820Y269966D01*
X539596Y270408D01*
D02*
G37*
G36*
X324000Y190062D02*
X321776Y189619D01*
X319890Y188360D01*
X318631Y186474D01*
X318288Y184751D01*
X317103Y183692D01*
X316500Y183812D01*
X314276Y183369D01*
X312390Y182110D01*
X311131Y180224D01*
X310688Y178000D01*
X311131Y175776D01*
X312390Y173890D01*
X314276Y172631D01*
X316500Y172188D01*
X318724Y172631D01*
X320610Y173890D01*
X321869Y175776D01*
X322212Y177499D01*
X323397Y178558D01*
X324000Y178438D01*
X325380Y178713D01*
X325711Y178467D01*
X326332Y177607D01*
X325958Y175730D01*
X326401Y173506D01*
X327660Y171621D01*
X329546Y170361D01*
X331770Y169918D01*
X333994Y170361D01*
X335879Y171621D01*
X337139Y173506D01*
X337582Y175730D01*
X337139Y177954D01*
X335879Y179839D01*
X333994Y181099D01*
X331770Y181542D01*
X330390Y181267D01*
X330059Y181513D01*
X329438Y182373D01*
X329812Y184250D01*
X329369Y186474D01*
X328110Y188360D01*
X326224Y189619D01*
X324000Y190062D01*
D02*
G37*
G36*
X478200Y198812D02*
X475976Y198369D01*
X474090Y197110D01*
X472831Y195224D01*
X472388Y193000D01*
X472831Y190776D01*
X474090Y188890D01*
X475976Y187631D01*
X478200Y187188D01*
X480424Y187631D01*
X482309Y188890D01*
X483569Y190776D01*
X484012Y193000D01*
X483569Y195224D01*
X482309Y197110D01*
X480424Y198369D01*
X478200Y198812D01*
D02*
G37*
G36*
X331750Y201562D02*
X329526Y201119D01*
X327640Y199860D01*
X326381Y197974D01*
X325938Y195750D01*
X326381Y193526D01*
X327640Y191640D01*
X329526Y190381D01*
X331750Y189938D01*
X333974Y190381D01*
X335859Y191640D01*
X335861Y191642D01*
X337388D01*
X337891Y190891D01*
X339776Y189631D01*
X342000Y189188D01*
X344224Y189631D01*
X346110Y190891D01*
X347343Y192737D01*
X347582Y192776D01*
X348418D01*
X348657Y192737D01*
X349891Y190891D01*
X351776Y189631D01*
X354000Y189188D01*
X356224Y189631D01*
X358110Y190891D01*
X359369Y192776D01*
X359812Y195000D01*
X359369Y197224D01*
X358110Y199109D01*
X356224Y200369D01*
X354000Y200812D01*
X351776Y200369D01*
X349891Y199109D01*
X348657Y197262D01*
X348418Y197224D01*
X347582D01*
X347343Y197262D01*
X346110Y199109D01*
X344224Y200369D01*
X342000Y200812D01*
X339776Y200369D01*
X337891Y199109D01*
X337889Y199108D01*
X336362D01*
X335859Y199860D01*
X333974Y201119D01*
X331750Y201562D01*
D02*
G37*
G36*
X676785Y206500D02*
X668900D01*
Y198615D01*
X669880Y198745D01*
X672191Y199702D01*
X674175Y201224D01*
X675698Y203209D01*
X676656Y205520D01*
X676785Y206500D01*
D02*
G37*
G36*
X484800Y255012D02*
X482576Y254569D01*
X480691Y253309D01*
X480468Y252977D01*
X479198D01*
X479109Y253109D01*
X477224Y254369D01*
X475000Y254812D01*
X472776Y254369D01*
X470891Y253109D01*
X469631Y251224D01*
X469188Y249000D01*
X469631Y246776D01*
X470891Y244890D01*
X472776Y243631D01*
X475000Y243188D01*
X477224Y243631D01*
X479109Y244890D01*
X479332Y245223D01*
X480602D01*
X480691Y245091D01*
X482576Y243831D01*
X484800Y243388D01*
X487024Y243831D01*
X488909Y245091D01*
X490169Y246976D01*
X490612Y249200D01*
X490169Y251424D01*
X488909Y253309D01*
X487024Y254569D01*
X484800Y255012D01*
D02*
G37*
G36*
X485999Y220811D02*
X483775Y220369D01*
X481890Y219109D01*
X480630Y217224D01*
X480187Y215000D01*
X480630Y212775D01*
X481890Y210890D01*
X483775Y209630D01*
X485999Y209188D01*
X488223Y209630D01*
X490108Y210890D01*
X491368Y212775D01*
X491811Y215000D01*
X491368Y217224D01*
X490108Y219109D01*
X488223Y220369D01*
X485999Y220811D01*
D02*
G37*
G36*
X640500Y206500D02*
X632616D01*
X632745Y205520D01*
X633702Y203209D01*
X635225Y201224D01*
X637209Y199702D01*
X639520Y198745D01*
X640500Y198615D01*
Y206500D01*
D02*
G37*
G36*
X151250Y252812D02*
X149026Y252369D01*
X147141Y251110D01*
X145881Y249224D01*
X145438Y247000D01*
X145881Y244776D01*
X147141Y242890D01*
X149026Y241631D01*
X151250Y241188D01*
X153474Y241631D01*
X155359Y242890D01*
X156619Y244776D01*
X157062Y247000D01*
X156619Y249224D01*
X155359Y251110D01*
X153474Y252369D01*
X151250Y252812D01*
D02*
G37*
G36*
X651385Y206500D02*
X643500D01*
Y198615D01*
X644480Y198745D01*
X646791Y199702D01*
X648775Y201224D01*
X650298Y203209D01*
X651255Y205520D01*
X651385Y206500D01*
D02*
G37*
G36*
X526750Y195062D02*
X524526Y194619D01*
X522640Y193360D01*
X521381Y191474D01*
X520938Y189250D01*
X521381Y187026D01*
X522640Y185140D01*
X524526Y183881D01*
X526750Y183438D01*
X528974Y183881D01*
X530859Y185140D01*
X532119Y187026D01*
X532562Y189250D01*
X532119Y191474D01*
X530859Y193360D01*
X528974Y194619D01*
X526750Y195062D01*
D02*
G37*
G36*
X167379Y187782D02*
X148379D01*
Y168782D01*
X167379D01*
Y187782D01*
D02*
G37*
G36*
X251000Y259812D02*
X248776Y259369D01*
X246891Y258109D01*
X245631Y256224D01*
X245188Y254000D01*
X245631Y251776D01*
X246891Y249890D01*
X248776Y248631D01*
X251000Y248188D01*
X253224Y248631D01*
X255110Y249890D01*
X256369Y251776D01*
X256812Y254000D01*
X256369Y256224D01*
X255110Y258109D01*
X253224Y259369D01*
X251000Y259812D01*
D02*
G37*
G36*
X631590Y193160D02*
X628549Y192760D01*
X625715Y191586D01*
X623281Y189719D01*
X621414Y187285D01*
X620240Y184451D01*
X619840Y181410D01*
X620240Y178369D01*
X621414Y175535D01*
X623281Y173101D01*
X625715Y171234D01*
X628549Y170060D01*
X631590Y169660D01*
X634631Y170060D01*
X637465Y171234D01*
X639899Y173101D01*
X641766Y175535D01*
X642940Y178369D01*
X643341Y181410D01*
X642940Y184451D01*
X641766Y187285D01*
X639899Y189719D01*
X637465Y191586D01*
X634631Y192760D01*
X631590Y193160D01*
D02*
G37*
G36*
X200000Y260811D02*
X197776Y260369D01*
X195890Y259109D01*
X194630Y257223D01*
X194188Y255000D01*
X194630Y252775D01*
X195890Y250890D01*
X197776Y249630D01*
X200000Y249188D01*
X202224Y249630D01*
X204109Y250890D01*
X205369Y252775D01*
X205811Y255000D01*
X205369Y257223D01*
X204109Y259109D01*
X202224Y260369D01*
X200000Y260811D01*
D02*
G37*
G36*
X183279Y187864D02*
X180799Y187538D01*
X178488Y186581D01*
X176504Y185058D01*
X174981Y183073D01*
X174024Y180762D01*
X173697Y178282D01*
X174024Y175802D01*
X174981Y173491D01*
X176504Y171507D01*
X178488Y169984D01*
X180799Y169027D01*
X183279Y168701D01*
X185759Y169027D01*
X188070Y169984D01*
X190055Y171507D01*
X191577Y173491D01*
X192535Y175802D01*
X192861Y178282D01*
X192535Y180762D01*
X191577Y183073D01*
X190055Y185058D01*
X188070Y186581D01*
X185759Y187538D01*
X183279Y187864D01*
D02*
G37*
G36*
X208679D02*
X206199Y187538D01*
X203888Y186581D01*
X201904Y185058D01*
X200381Y183073D01*
X199424Y180762D01*
X199097Y178282D01*
X199424Y175802D01*
X200381Y173491D01*
X201904Y171507D01*
X203888Y169984D01*
X206199Y169027D01*
X208679Y168701D01*
X211159Y169027D01*
X213470Y169984D01*
X215455Y171507D01*
X216977Y173491D01*
X217935Y175802D01*
X218261Y178282D01*
X217935Y180762D01*
X216977Y183073D01*
X215455Y185058D01*
X213470Y186581D01*
X211159Y187538D01*
X208679Y187864D01*
D02*
G37*
G36*
X447250Y203062D02*
X445026Y202619D01*
X443140Y201360D01*
X441881Y199474D01*
X441438Y197250D01*
X441881Y195026D01*
X442789Y193667D01*
X442779Y192638D01*
X442409Y192124D01*
X440891Y191110D01*
X439631Y189224D01*
X439188Y187000D01*
X439631Y184776D01*
X440891Y182890D01*
X442776Y181631D01*
X442856Y181615D01*
X443124Y180267D01*
X442141Y179610D01*
X440881Y177724D01*
X440438Y175500D01*
X440881Y173276D01*
X442141Y171390D01*
X444026Y170131D01*
X446250Y169688D01*
X448474Y170131D01*
X450359Y171390D01*
X451619Y173276D01*
X452062Y175500D01*
X451619Y177724D01*
X450359Y179610D01*
X448474Y180869D01*
X448394Y180885D01*
X448126Y182233D01*
X449109Y182890D01*
X450268Y184624D01*
X450877Y184657D01*
X451590Y184490D01*
X451881Y183026D01*
X453140Y181140D01*
X455026Y179881D01*
X457250Y179438D01*
X459474Y179881D01*
X461359Y181140D01*
X462619Y183026D01*
X463062Y185250D01*
X462619Y187474D01*
X461359Y189359D01*
X459474Y190619D01*
X457250Y191062D01*
X455026Y190619D01*
X453140Y189359D01*
X451982Y187626D01*
X451373Y187593D01*
X450661Y187760D01*
X450369Y189224D01*
X449461Y190583D01*
X449471Y191612D01*
X449841Y192126D01*
X451359Y193141D01*
X452619Y195026D01*
X453062Y197250D01*
X452619Y199474D01*
X451359Y201360D01*
X449474Y202619D01*
X447250Y203062D01*
D02*
G37*
G36*
X167960Y253602D02*
X165736Y253159D01*
X163850Y251899D01*
X162591Y250014D01*
X162148Y247790D01*
X162591Y245566D01*
X163850Y243680D01*
X165736Y242421D01*
X167960Y241978D01*
X170184Y242421D01*
X172069Y243680D01*
X173329Y245566D01*
X173772Y247790D01*
X173329Y250014D01*
X172069Y251899D01*
X170184Y253159D01*
X167960Y253602D01*
D02*
G37*
G36*
X571000Y182312D02*
X568776Y181869D01*
X566890Y180609D01*
X566264Y179671D01*
X564736D01*
X564109Y180609D01*
X562224Y181869D01*
X560000Y182312D01*
X557776Y181869D01*
X555891Y180609D01*
X555264Y179671D01*
X553736D01*
X553110Y180609D01*
X551224Y181869D01*
X549000Y182312D01*
X546776Y181869D01*
X544891Y180609D01*
X543631Y178724D01*
X543188Y176500D01*
X543631Y174276D01*
X544891Y172390D01*
X545829Y171764D01*
Y170236D01*
X544891Y169609D01*
X543631Y167724D01*
X543188Y165500D01*
X543631Y163276D01*
X544891Y161390D01*
X546776Y160131D01*
X549000Y159688D01*
X551224Y160131D01*
X553110Y161390D01*
X553736Y162329D01*
X555264D01*
X555891Y161390D01*
X557776Y160131D01*
X560000Y159688D01*
X562224Y160131D01*
X564109Y161390D01*
X564736Y162329D01*
X566264D01*
X566890Y161390D01*
X568776Y160131D01*
X571000Y159688D01*
X573224Y160131D01*
X575109Y161390D01*
X576369Y163276D01*
X576812Y165500D01*
X576369Y167724D01*
X575109Y169609D01*
X574171Y170236D01*
Y171764D01*
X575109Y172390D01*
X576369Y174276D01*
X576812Y176500D01*
X576369Y178724D01*
X575109Y180609D01*
X573224Y181869D01*
X571000Y182312D01*
D02*
G37*
G36*
X472000Y182812D02*
X469776Y182369D01*
X467891Y181110D01*
X466631Y179224D01*
X466188Y177000D01*
X466631Y174776D01*
X467891Y172890D01*
X469776Y171631D01*
X472000Y171188D01*
X474224Y171631D01*
X476110Y172890D01*
X477369Y174776D01*
X477812Y177000D01*
X477369Y179224D01*
X476110Y181110D01*
X474224Y182369D01*
X472000Y182812D01*
D02*
G37*
G36*
X382750Y184562D02*
X380526Y184119D01*
X378641Y182859D01*
X377381Y180974D01*
X376938Y178750D01*
X377381Y176526D01*
X378641Y174641D01*
X380526Y173381D01*
X382750Y172938D01*
X384974Y173381D01*
X386860Y174641D01*
X388119Y176526D01*
X388562Y178750D01*
X388119Y180974D01*
X386860Y182859D01*
X384974Y184119D01*
X382750Y184562D01*
D02*
G37*
G36*
X231999Y267811D02*
X229776Y267369D01*
X227890Y266109D01*
X226630Y264223D01*
X226188Y261999D01*
X226630Y259776D01*
X227480Y258504D01*
X227028Y257126D01*
X227004Y257104D01*
X225140Y255860D01*
X223881Y253974D01*
X223438Y251750D01*
X223881Y249526D01*
X225140Y247640D01*
X227026Y246381D01*
X229250Y245938D01*
X231474Y246381D01*
X233360Y247640D01*
X234619Y249526D01*
X235062Y251750D01*
X234619Y253974D01*
X233770Y255245D01*
X234221Y256623D01*
X234246Y256645D01*
X236109Y257890D01*
X237369Y259776D01*
X237811Y261999D01*
X237369Y264223D01*
X236109Y266109D01*
X234224Y267369D01*
X231999Y267811D01*
D02*
G37*
G36*
X218000Y228812D02*
X215776Y228369D01*
X213890Y227110D01*
X212631Y225224D01*
X212188Y223000D01*
X212631Y220776D01*
X213890Y218890D01*
X215776Y217631D01*
X218000Y217188D01*
X220224Y217631D01*
X222110Y218890D01*
X223369Y220776D01*
X223812Y223000D01*
X223369Y225224D01*
X222110Y227110D01*
X220224Y228369D01*
X218000Y228812D01*
D02*
G37*
G36*
X234250Y229062D02*
X232026Y228619D01*
X230140Y227360D01*
X228881Y225474D01*
X228438Y223250D01*
X228881Y221026D01*
X230140Y219140D01*
X232026Y217881D01*
X234250Y217438D01*
X236474Y217881D01*
X238360Y219140D01*
X239619Y221026D01*
X240062Y223250D01*
X239619Y225474D01*
X238360Y227360D01*
X236474Y228619D01*
X234250Y229062D01*
D02*
G37*
G36*
X254000Y229812D02*
X251776Y229369D01*
X249890Y228109D01*
X248631Y226224D01*
X248188Y224000D01*
X248631Y221776D01*
X249890Y219890D01*
X251776Y218631D01*
X254000Y218188D01*
X256224Y218631D01*
X258109Y219890D01*
X259369Y221776D01*
X259812Y224000D01*
X259369Y226224D01*
X258109Y228109D01*
X256224Y229369D01*
X254000Y229812D01*
D02*
G37*
G36*
X517000Y236812D02*
X514776Y236369D01*
X512891Y235110D01*
X511631Y233224D01*
X511188Y231000D01*
X511631Y228776D01*
X512891Y226891D01*
X514776Y225631D01*
X517000Y225188D01*
X519224Y225631D01*
X520458Y226456D01*
X520704Y226619D01*
X521619Y225704D01*
X521456Y225459D01*
X520631Y224224D01*
X520188Y222000D01*
X520631Y219776D01*
X521890Y217890D01*
X523776Y216631D01*
X526000Y216188D01*
X528224Y216631D01*
X530109Y217890D01*
X531369Y219776D01*
X531812Y222000D01*
X531369Y224224D01*
X530109Y226110D01*
X528224Y227369D01*
X526000Y227812D01*
X523776Y227369D01*
X522542Y226544D01*
X522296Y226381D01*
X521381Y227296D01*
X521544Y227541D01*
X522369Y228776D01*
X522812Y231000D01*
X522369Y233224D01*
X521110Y235110D01*
X519224Y236369D01*
X517000Y236812D01*
D02*
G37*
G36*
X557000Y242247D02*
X554776Y241805D01*
X552891Y240545D01*
X551631Y238659D01*
X551188Y236435D01*
X551631Y234211D01*
X552891Y232326D01*
X554776Y231066D01*
X557000Y230624D01*
X559224Y231066D01*
X561110Y232326D01*
X562369Y234211D01*
X562812Y236435D01*
X562369Y238659D01*
X561110Y240545D01*
X559224Y241805D01*
X557000Y242247D01*
D02*
G37*
G36*
X154250Y228812D02*
X152026Y228369D01*
X150140Y227110D01*
X148881Y225224D01*
X148438Y223000D01*
X148881Y220776D01*
X150140Y218890D01*
X152026Y217631D01*
X154250Y217188D01*
X156474Y217631D01*
X158359Y218890D01*
X159619Y220776D01*
X160062Y223000D01*
X159619Y225224D01*
X158359Y227110D01*
X156474Y228369D01*
X154250Y228812D01*
D02*
G37*
G36*
X640500Y257300D02*
X632616D01*
X632745Y256320D01*
X633702Y254009D01*
X635225Y252024D01*
X637209Y250502D01*
X639520Y249545D01*
X640500Y249415D01*
Y257300D01*
D02*
G37*
G36*
X475000Y237812D02*
X472776Y237369D01*
X470891Y236110D01*
X469631Y234224D01*
X469188Y232000D01*
X469631Y229776D01*
X470891Y227890D01*
X472776Y226631D01*
X475000Y226188D01*
X477224Y226631D01*
X479109Y227890D01*
X480369Y229776D01*
X480812Y232000D01*
X480369Y234224D01*
X479109Y236110D01*
X477224Y237369D01*
X475000Y237812D01*
D02*
G37*
G36*
X437000Y260812D02*
X434776Y260369D01*
X432891Y259109D01*
X431631Y257224D01*
X431188Y255000D01*
X431631Y252776D01*
X432891Y250891D01*
X434776Y249631D01*
X437000Y249188D01*
X439224Y249631D01*
X441110Y250891D01*
X442369Y252776D01*
X442812Y255000D01*
X442369Y257224D01*
X441110Y259109D01*
X439224Y260369D01*
X437000Y260812D01*
D02*
G37*
G36*
X640500Y231900D02*
X632616D01*
X632745Y230920D01*
X633702Y228609D01*
X635225Y226625D01*
X637209Y225102D01*
X639520Y224144D01*
X640500Y224016D01*
Y231900D01*
D02*
G37*
G36*
X651385D02*
X643500D01*
Y224016D01*
X644480Y224144D01*
X646791Y225102D01*
X648775Y226625D01*
X650298Y228609D01*
X651255Y230920D01*
X651385Y231900D01*
D02*
G37*
G36*
X676785D02*
X668900D01*
Y224016D01*
X669880Y224144D01*
X672191Y225102D01*
X674175Y226625D01*
X675698Y228609D01*
X676656Y230920D01*
X676785Y231900D01*
D02*
G37*
G36*
X90600Y228643D02*
X88376Y228201D01*
X86490Y226941D01*
X85231Y225056D01*
X84788Y222832D01*
X85231Y220608D01*
X86490Y218722D01*
X88376Y217463D01*
X90600Y217020D01*
X92824Y217463D01*
X94205Y218386D01*
X95728Y218134D01*
X95891Y217890D01*
X97776Y216631D01*
X100000Y216188D01*
X102224Y216631D01*
X104109Y217890D01*
X105369Y219776D01*
X105812Y222000D01*
X105369Y224224D01*
X104109Y226110D01*
X102224Y227369D01*
X100000Y227812D01*
X97776Y227369D01*
X96514Y226526D01*
X94872Y226698D01*
X94710Y226941D01*
X92824Y228201D01*
X90600Y228643D01*
D02*
G37*
G36*
X676785Y257300D02*
X668900D01*
Y249415D01*
X669880Y249545D01*
X672191Y250502D01*
X674175Y252024D01*
X675698Y254009D01*
X676656Y256320D01*
X676785Y257300D01*
D02*
G37*
G36*
X521000Y249062D02*
X518776Y248619D01*
X516890Y247359D01*
X515631Y245474D01*
X515188Y243250D01*
X515631Y241026D01*
X516890Y239140D01*
X518776Y237881D01*
X521000Y237438D01*
X523224Y237881D01*
X525109Y239140D01*
X526369Y241026D01*
X526812Y243250D01*
X526369Y245474D01*
X525109Y247359D01*
X523224Y248619D01*
X521000Y249062D01*
D02*
G37*
G36*
X668900Y242784D02*
Y234900D01*
X676785D01*
X676656Y235880D01*
X675698Y238191D01*
X674175Y240175D01*
X672191Y241698D01*
X669880Y242655D01*
X668900Y242784D01*
D02*
G37*
G36*
X640500Y217384D02*
X639520Y217255D01*
X637209Y216298D01*
X635225Y214775D01*
X633702Y212791D01*
X632745Y210480D01*
X632616Y209500D01*
X640500D01*
Y217384D01*
D02*
G37*
G36*
X643500D02*
Y209500D01*
X651385D01*
X651255Y210480D01*
X650298Y212791D01*
X648775Y214775D01*
X646791Y216298D01*
X644480Y217255D01*
X643500Y217384D01*
D02*
G37*
G36*
X668900D02*
Y209500D01*
X676785D01*
X676656Y210480D01*
X675698Y212791D01*
X674175Y214775D01*
X672191Y216298D01*
X669880Y217255D01*
X668900Y217384D01*
D02*
G37*
G36*
X640500Y242784D02*
X639520Y242655D01*
X637209Y241698D01*
X635225Y240175D01*
X633702Y238191D01*
X632745Y235880D01*
X632616Y234900D01*
X640500D01*
Y242784D01*
D02*
G37*
G36*
X113500Y245312D02*
X111276Y244869D01*
X109390Y243610D01*
X108131Y241724D01*
X107688Y239500D01*
X108131Y237276D01*
X109390Y235390D01*
X111276Y234131D01*
X112255Y233936D01*
X112741Y232763D01*
X112381Y232224D01*
X111938Y230000D01*
X112381Y227776D01*
X113640Y225891D01*
X115526Y224631D01*
X115465Y223348D01*
X114881Y222474D01*
X114438Y220250D01*
X114881Y218026D01*
X116140Y216140D01*
X118026Y214881D01*
X120250Y214438D01*
X122474Y214881D01*
X124360Y216140D01*
X125619Y218026D01*
X126062Y220250D01*
X125619Y222474D01*
X124360Y224359D01*
X122474Y225619D01*
X122535Y226902D01*
X123119Y227776D01*
X123562Y230000D01*
X123119Y232224D01*
X121860Y234109D01*
X119974Y235369D01*
X118995Y235564D01*
X118509Y236737D01*
X118869Y237276D01*
X119312Y239500D01*
X118869Y241724D01*
X117610Y243610D01*
X115724Y244869D01*
X113500Y245312D01*
D02*
G37*
G36*
X573250Y226812D02*
X571026Y226369D01*
X569140Y225110D01*
X567881Y223224D01*
X567438Y221000D01*
X567881Y218776D01*
X569140Y216891D01*
X571026Y215631D01*
X573250Y215188D01*
X575474Y215631D01*
X577359Y216891D01*
X578619Y218776D01*
X579062Y221000D01*
X578619Y223224D01*
X577359Y225110D01*
X575474Y226369D01*
X573250Y226812D01*
D02*
G37*
G36*
X651385Y257300D02*
X643500D01*
Y249415D01*
X644480Y249545D01*
X646791Y250502D01*
X648775Y252024D01*
X650298Y254009D01*
X651255Y256320D01*
X651385Y257300D01*
D02*
G37*
G36*
X643500Y242784D02*
Y234900D01*
X651385D01*
X651255Y235880D01*
X650298Y238191D01*
X648775Y240175D01*
X646791Y241698D01*
X644480Y242655D01*
X643500Y242784D01*
D02*
G37*
G36*
X133660Y223152D02*
X131436Y222709D01*
X129551Y221450D01*
X128291Y219564D01*
X127848Y217340D01*
X128291Y215116D01*
X129551Y213231D01*
X131436Y211971D01*
X133660Y211528D01*
X135884Y211971D01*
X137769Y213231D01*
X139029Y215116D01*
X139472Y217340D01*
X139029Y219564D01*
X137769Y221450D01*
X135884Y222709D01*
X133660Y223152D01*
D02*
G37*
G36*
X590000Y176812D02*
X587776Y176369D01*
X585891Y175110D01*
X584631Y173224D01*
X584188Y171000D01*
X584631Y168776D01*
X585891Y166891D01*
X587776Y165631D01*
X590000Y165188D01*
X592224Y165631D01*
X594109Y166891D01*
X595369Y168776D01*
X595812Y171000D01*
X595369Y173224D01*
X594109Y175110D01*
X592224Y176369D01*
X590000Y176812D01*
D02*
G37*
G36*
X52840Y108894D02*
X49419Y108557D01*
X44688Y107122D01*
X40328Y104791D01*
X36506Y101654D01*
X33369Y97832D01*
X31038Y93472D01*
X29603Y88741D01*
X29266Y85320D01*
X52840D01*
Y108894D01*
D02*
G37*
G36*
X417000Y82812D02*
X414776Y82369D01*
X413322Y81398D01*
X412000Y81226D01*
X410678Y81398D01*
X409224Y82369D01*
X407000Y82812D01*
X404776Y82369D01*
X403322Y81398D01*
X402000Y81226D01*
X400678Y81398D01*
X399224Y82369D01*
X397000Y82812D01*
X394776Y82369D01*
X392891Y81110D01*
X391631Y79224D01*
X391188Y77000D01*
X391631Y74776D01*
X392891Y72891D01*
X394776Y71631D01*
X397000Y71188D01*
X399224Y71631D01*
X400678Y72602D01*
X402000Y72775D01*
X403322Y72602D01*
X404776Y71631D01*
X407000Y71188D01*
X409224Y71631D01*
X410678Y72602D01*
X412000Y72775D01*
X413322Y72602D01*
X414776Y71631D01*
X417000Y71188D01*
X419224Y71631D01*
X421110Y72891D01*
X422369Y74776D01*
X422812Y77000D01*
X422369Y79224D01*
X421110Y81110D01*
X419224Y82369D01*
X417000Y82812D01*
D02*
G37*
G36*
X468400Y93750D02*
X460400D01*
Y85750D01*
X468400D01*
Y93750D01*
D02*
G37*
G36*
X55840Y108894D02*
Y85320D01*
X79414D01*
X79077Y88741D01*
X77642Y93472D01*
X75311Y97832D01*
X72174Y101654D01*
X68352Y104791D01*
X63992Y107122D01*
X59261Y108557D01*
X55840Y108894D01*
D02*
G37*
G36*
X571500Y79432D02*
X569020Y79106D01*
X566709Y78148D01*
X564725Y76625D01*
X563202Y74641D01*
X562244Y72330D01*
X561918Y69850D01*
X562244Y67370D01*
X563202Y65059D01*
X564725Y63075D01*
X566709Y61552D01*
X569020Y60595D01*
X571500Y60268D01*
X573980Y60595D01*
X576291Y61552D01*
X578275Y63075D01*
X579798Y65059D01*
X580756Y67370D01*
X581082Y69850D01*
X580756Y72330D01*
X579798Y74641D01*
X578275Y76625D01*
X576291Y78148D01*
X573980Y79106D01*
X571500Y79432D01*
D02*
G37*
G36*
X546100D02*
X543620Y79106D01*
X541309Y78148D01*
X539324Y76625D01*
X537802Y74641D01*
X536844Y72330D01*
X536518Y69850D01*
X536844Y67370D01*
X537802Y65059D01*
X539324Y63075D01*
X541309Y61552D01*
X543620Y60595D01*
X546100Y60268D01*
X548580Y60595D01*
X550891Y61552D01*
X552875Y63075D01*
X554398Y65059D01*
X555355Y67370D01*
X555682Y69850D01*
X555355Y72330D01*
X554398Y74641D01*
X552875Y76625D01*
X550891Y78148D01*
X548580Y79106D01*
X546100Y79432D01*
D02*
G37*
G36*
X479400Y79350D02*
X460400D01*
Y60350D01*
X479400D01*
Y79350D01*
D02*
G37*
G36*
X596900Y79432D02*
X594420Y79106D01*
X592109Y78148D01*
X590125Y76625D01*
X588602Y74641D01*
X587645Y72330D01*
X587318Y69850D01*
X587645Y67370D01*
X588602Y65059D01*
X590125Y63075D01*
X592109Y61552D01*
X594420Y60595D01*
X596900Y60268D01*
X599380Y60595D01*
X601691Y61552D01*
X603675Y63075D01*
X605198Y65059D01*
X606156Y67370D01*
X606482Y69850D01*
X606156Y72330D01*
X605198Y74641D01*
X603675Y76625D01*
X601691Y78148D01*
X599380Y79106D01*
X596900Y79432D01*
D02*
G37*
G36*
X544600Y93750D02*
X536716D01*
X536844Y92770D01*
X537802Y90459D01*
X539324Y88475D01*
X541309Y86952D01*
X543620Y85995D01*
X544600Y85865D01*
Y93750D01*
D02*
G37*
G36*
X530084D02*
X522200D01*
Y85865D01*
X523180Y85995D01*
X525491Y86952D01*
X527475Y88475D01*
X528998Y90459D01*
X529955Y92770D01*
X530084Y93750D01*
D02*
G37*
G36*
X570000D02*
X562116D01*
X562244Y92770D01*
X563202Y90459D01*
X564725Y88475D01*
X566709Y86952D01*
X569020Y85995D01*
X570000Y85865D01*
Y93750D01*
D02*
G37*
G36*
X555485D02*
X547600D01*
Y85865D01*
X548580Y85995D01*
X550891Y86952D01*
X552875Y88475D01*
X554398Y90459D01*
X555355Y92770D01*
X555485Y93750D01*
D02*
G37*
G36*
X493800D02*
X485915D01*
X486045Y92770D01*
X487002Y90459D01*
X488525Y88475D01*
X490509Y86952D01*
X492820Y85995D01*
X493800Y85865D01*
Y93750D01*
D02*
G37*
G36*
X479400D02*
X471400D01*
Y85750D01*
X479400D01*
Y93750D01*
D02*
G37*
G36*
X519200D02*
X511315D01*
X511445Y92770D01*
X512402Y90459D01*
X513924Y88475D01*
X515909Y86952D01*
X518220Y85995D01*
X519200Y85865D01*
Y93750D01*
D02*
G37*
G36*
X504684D02*
X496800D01*
Y85865D01*
X497780Y85995D01*
X500091Y86952D01*
X502075Y88475D01*
X503598Y90459D01*
X504556Y92770D01*
X504684Y93750D01*
D02*
G37*
G36*
X210820Y60996D02*
X208510Y60692D01*
X206357Y59801D01*
X204508Y58382D01*
X203090Y56533D01*
X202198Y54380D01*
X201894Y52070D01*
X202198Y49760D01*
X203090Y47607D01*
X204508Y45758D01*
X206357Y44339D01*
X208510Y43448D01*
X210820Y43144D01*
X213130Y43448D01*
X215283Y44339D01*
X217132Y45758D01*
X218550Y47607D01*
X219442Y49760D01*
X219746Y52070D01*
X219442Y54380D01*
X218550Y56533D01*
X217132Y58382D01*
X215283Y59801D01*
X213130Y60692D01*
X210820Y60996D01*
D02*
G37*
G36*
X441185Y23900D02*
X433300D01*
Y16015D01*
X434280Y16144D01*
X436591Y17102D01*
X438575Y18625D01*
X440098Y20609D01*
X441055Y22920D01*
X441185Y23900D01*
D02*
G37*
G36*
X244949Y50570D02*
X237720D01*
Y43341D01*
X238530Y43448D01*
X240683Y44339D01*
X242532Y45758D01*
X243951Y47607D01*
X244842Y49760D01*
X244949Y50570D01*
D02*
G37*
G36*
X234720D02*
X227491D01*
X227598Y49760D01*
X228489Y47607D01*
X229908Y45758D01*
X231757Y44339D01*
X233910Y43448D01*
X234720Y43341D01*
Y50570D01*
D02*
G37*
G36*
X404900Y23900D02*
X397015D01*
X397145Y22920D01*
X398102Y20609D01*
X399624Y18625D01*
X401609Y17102D01*
X403920Y16144D01*
X404900Y16015D01*
Y23900D01*
D02*
G37*
G36*
X86840Y61041D02*
X81919Y60557D01*
X77188Y59122D01*
X72828Y56791D01*
X69006Y53654D01*
X65869Y49832D01*
X63538Y45472D01*
X62103Y40740D01*
X61619Y35820D01*
X62103Y30900D01*
X63538Y26168D01*
X65869Y21808D01*
X69006Y17986D01*
X72828Y14849D01*
X77188Y12518D01*
X81919Y11083D01*
X86840Y10599D01*
X91761Y11083D01*
X96492Y12518D01*
X100852Y14849D01*
X104674Y17986D01*
X107811Y21808D01*
X110142Y26168D01*
X111577Y30900D01*
X112061Y35820D01*
X111577Y40740D01*
X110142Y45472D01*
X107811Y49832D01*
X104674Y53654D01*
X100852Y56791D01*
X96492Y59122D01*
X91761Y60557D01*
X86840Y61041D01*
D02*
G37*
G36*
X430300Y23900D02*
X422416D01*
X422545Y22920D01*
X423502Y20609D01*
X425024Y18625D01*
X427009Y17102D01*
X429320Y16144D01*
X430300Y16015D01*
Y23900D01*
D02*
G37*
G36*
X415784D02*
X407900D01*
Y16015D01*
X408880Y16144D01*
X411191Y17102D01*
X413175Y18625D01*
X414698Y20609D01*
X415656Y22920D01*
X415784Y23900D01*
D02*
G37*
G36*
X79414Y82320D02*
X55840D01*
Y58746D01*
X59261Y59083D01*
X63992Y60518D01*
X68352Y62849D01*
X72174Y65986D01*
X75311Y69808D01*
X77642Y74168D01*
X79077Y78899D01*
X79414Y82320D01*
D02*
G37*
G36*
X52840D02*
X29266D01*
X29603Y78899D01*
X31038Y74168D01*
X33369Y69808D01*
X36506Y65986D01*
X40328Y62849D01*
X44688Y60518D01*
X49419Y59083D01*
X52840Y58746D01*
Y82320D01*
D02*
G37*
G36*
X520700Y79432D02*
X518220Y79106D01*
X515909Y78148D01*
X513924Y76625D01*
X512402Y74641D01*
X511445Y72330D01*
X511118Y69850D01*
X511445Y67370D01*
X512402Y65059D01*
X513924Y63075D01*
X515909Y61552D01*
X518220Y60595D01*
X520700Y60268D01*
X523180Y60595D01*
X525491Y61552D01*
X527475Y63075D01*
X528998Y65059D01*
X529955Y67370D01*
X530282Y69850D01*
X529955Y72330D01*
X528998Y74641D01*
X527475Y76625D01*
X525491Y78148D01*
X523180Y79106D01*
X520700Y79432D01*
D02*
G37*
G36*
X495300D02*
X492820Y79106D01*
X490509Y78148D01*
X488525Y76625D01*
X487002Y74641D01*
X486045Y72330D01*
X485718Y69850D01*
X486045Y67370D01*
X487002Y65059D01*
X488525Y63075D01*
X490509Y61552D01*
X492820Y60595D01*
X495300Y60268D01*
X497780Y60595D01*
X500091Y61552D01*
X502075Y63075D01*
X503598Y65059D01*
X504556Y67370D01*
X504882Y69850D01*
X504556Y72330D01*
X503598Y74641D01*
X502075Y76625D01*
X500091Y78148D01*
X497780Y79106D01*
X495300Y79432D01*
D02*
G37*
G36*
X237720Y60799D02*
Y53570D01*
X244949D01*
X244842Y54380D01*
X243951Y56533D01*
X242532Y58382D01*
X240683Y59801D01*
X238530Y60692D01*
X237720Y60799D01*
D02*
G37*
G36*
X234720D02*
X233910Y60692D01*
X231757Y59801D01*
X229908Y58382D01*
X228489Y56533D01*
X227598Y54380D01*
X227491Y53570D01*
X234720D01*
Y60799D01*
D02*
G37*
G36*
X313037Y65598D02*
X310813Y65156D01*
X308927Y63896D01*
X307667Y62011D01*
X307225Y59787D01*
X307667Y57563D01*
X308927Y55677D01*
X310813Y54417D01*
X313037Y53975D01*
X315261Y54417D01*
X317146Y55677D01*
X318406Y57563D01*
X318848Y59787D01*
X318406Y62011D01*
X317146Y63896D01*
X315261Y65156D01*
X313037Y65598D01*
D02*
G37*
G36*
X277005D02*
X274781Y65156D01*
X272895Y63896D01*
X271636Y62011D01*
X271193Y59787D01*
X271636Y57563D01*
X272895Y55677D01*
X274781Y54417D01*
X277005Y53975D01*
X279229Y54417D01*
X281114Y55677D01*
X282374Y57563D01*
X282817Y59787D01*
X282374Y62011D01*
X281114Y63896D01*
X279229Y65156D01*
X277005Y65598D01*
D02*
G37*
G36*
X546100Y130232D02*
X543620Y129906D01*
X541309Y128948D01*
X539324Y127425D01*
X537802Y125441D01*
X536844Y123130D01*
X536518Y120650D01*
X536844Y118170D01*
X537802Y115859D01*
X539324Y113875D01*
X541309Y112352D01*
X543620Y111395D01*
X546100Y111068D01*
X548580Y111395D01*
X550891Y112352D01*
X552875Y113875D01*
X554398Y115859D01*
X555355Y118170D01*
X555682Y120650D01*
X555355Y123130D01*
X554398Y125441D01*
X552875Y127425D01*
X550891Y128948D01*
X548580Y129906D01*
X546100Y130232D01*
D02*
G37*
G36*
X520700D02*
X518220Y129906D01*
X515909Y128948D01*
X513924Y127425D01*
X512402Y125441D01*
X511445Y123130D01*
X511118Y120650D01*
X511445Y118170D01*
X512402Y115859D01*
X513924Y113875D01*
X515909Y112352D01*
X518220Y111395D01*
X520700Y111068D01*
X523180Y111395D01*
X525491Y112352D01*
X527475Y113875D01*
X528998Y115859D01*
X529955Y118170D01*
X530282Y120650D01*
X529955Y123130D01*
X528998Y125441D01*
X527475Y127425D01*
X525491Y128948D01*
X523180Y129906D01*
X520700Y130232D01*
D02*
G37*
G36*
X596900D02*
X594420Y129906D01*
X592109Y128948D01*
X590125Y127425D01*
X588602Y125441D01*
X587645Y123130D01*
X587318Y120650D01*
X587645Y118170D01*
X588602Y115859D01*
X590125Y113875D01*
X592109Y112352D01*
X594420Y111395D01*
X596900Y111068D01*
X599380Y111395D01*
X601691Y112352D01*
X603675Y113875D01*
X605198Y115859D01*
X606156Y118170D01*
X606482Y120650D01*
X606156Y123130D01*
X605198Y125441D01*
X603675Y127425D01*
X601691Y128948D01*
X599380Y129906D01*
X596900Y130232D01*
D02*
G37*
G36*
X571500D02*
X569020Y129906D01*
X566709Y128948D01*
X564725Y127425D01*
X563202Y125441D01*
X562244Y123130D01*
X561918Y120650D01*
X562244Y118170D01*
X563202Y115859D01*
X564725Y113875D01*
X566709Y112352D01*
X569020Y111395D01*
X571500Y111068D01*
X573980Y111395D01*
X576291Y112352D01*
X578275Y113875D01*
X579798Y115859D01*
X580756Y118170D01*
X581082Y120650D01*
X580756Y123130D01*
X579798Y125441D01*
X578275Y127425D01*
X576291Y128948D01*
X573980Y129906D01*
X571500Y130232D01*
D02*
G37*
G36*
X374068Y117879D02*
X371844Y117437D01*
X369958Y116177D01*
X368698Y114292D01*
X368256Y112068D01*
X368698Y109844D01*
X369958Y107958D01*
X371844Y106698D01*
X373628Y106343D01*
X373801Y106309D01*
Y105014D01*
X373685Y104991D01*
X372408Y104737D01*
X370954Y103765D01*
X369698Y104139D01*
X369563Y104247D01*
X369369Y105224D01*
X368110Y107109D01*
X366224Y108369D01*
X364000Y108812D01*
X361776Y108369D01*
X359891Y107109D01*
X358631Y105224D01*
X358188Y103000D01*
X358631Y100776D01*
X359891Y98890D01*
X361776Y97631D01*
X364000Y97188D01*
X366224Y97631D01*
X367678Y98602D01*
X368934Y98229D01*
X369069Y98120D01*
X369263Y97144D01*
X370523Y95258D01*
X372408Y93998D01*
X374632Y93556D01*
X376856Y93998D01*
X378742Y95258D01*
X380002Y97144D01*
X380444Y99368D01*
X380002Y101592D01*
X378742Y103477D01*
X376856Y104737D01*
X375072Y105092D01*
X374898Y105126D01*
Y106421D01*
X375015Y106445D01*
X376292Y106698D01*
X378177Y107958D01*
X379437Y109844D01*
X379879Y112068D01*
X379437Y114292D01*
X378177Y116177D01*
X376292Y117437D01*
X374068Y117879D01*
D02*
G37*
G36*
X631590Y123160D02*
X628549Y122760D01*
X625715Y121586D01*
X623281Y119719D01*
X621414Y117285D01*
X620240Y114451D01*
X619840Y111410D01*
X620240Y108369D01*
X621414Y105535D01*
X623281Y103101D01*
X625715Y101234D01*
X628549Y100060D01*
X631590Y99660D01*
X634631Y100060D01*
X637465Y101234D01*
X639899Y103101D01*
X641766Y105535D01*
X642940Y108369D01*
X643341Y111410D01*
X642940Y114451D01*
X641766Y117285D01*
X639899Y119719D01*
X637465Y121586D01*
X634631Y122760D01*
X631590Y123160D01*
D02*
G37*
G36*
X495300Y130232D02*
X492820Y129906D01*
X490509Y128948D01*
X488525Y127425D01*
X487002Y125441D01*
X486045Y123130D01*
X485718Y120650D01*
X486045Y118170D01*
X487002Y115859D01*
X488525Y113875D01*
X490509Y112352D01*
X492820Y111395D01*
X495300Y111068D01*
X497780Y111395D01*
X500091Y112352D01*
X502075Y113875D01*
X503598Y115859D01*
X504556Y118170D01*
X504882Y120650D01*
X504556Y123130D01*
X503598Y125441D01*
X502075Y127425D01*
X500091Y128948D01*
X497780Y129906D01*
X495300Y130232D01*
D02*
G37*
G36*
X448068Y117879D02*
X445844Y117437D01*
X443958Y116177D01*
X442698Y114292D01*
X442256Y112068D01*
X442698Y109844D01*
X443958Y107958D01*
X445844Y106698D01*
X448068Y106256D01*
X450292Y106698D01*
X452177Y107958D01*
X453437Y109844D01*
X453879Y112068D01*
X453437Y114292D01*
X452177Y116177D01*
X450292Y117437D01*
X448068Y117879D01*
D02*
G37*
G36*
X479000Y147062D02*
X476776Y146619D01*
X474891Y145359D01*
X473631Y143474D01*
X473188Y141250D01*
X473631Y139026D01*
X474891Y137141D01*
X476776Y135881D01*
X479000Y135438D01*
X481224Y135881D01*
X483109Y137141D01*
X484369Y139026D01*
X484812Y141250D01*
X484369Y143474D01*
X483109Y145359D01*
X481224Y146619D01*
X479000Y147062D01*
D02*
G37*
G36*
X341967Y145845D02*
X339743Y145402D01*
X337858Y144142D01*
X336598Y142257D01*
X336155Y140033D01*
X336598Y137809D01*
X337858Y135924D01*
X339743Y134664D01*
X341967Y134221D01*
X344191Y134664D01*
X346077Y135924D01*
X347336Y137809D01*
X347779Y140033D01*
X347336Y142257D01*
X346077Y144142D01*
X344191Y145402D01*
X341967Y145845D01*
D02*
G37*
G36*
X367250Y140562D02*
X365026Y140119D01*
X363140Y138860D01*
X361881Y136974D01*
X361803Y136584D01*
X360630Y136098D01*
X360224Y136369D01*
X358000Y136812D01*
X355776Y136369D01*
X353890Y135110D01*
X352631Y133224D01*
X352188Y131000D01*
X352631Y128776D01*
X353890Y126890D01*
X355776Y125631D01*
X358000Y125188D01*
X360224Y125631D01*
X362109Y126890D01*
X363369Y128776D01*
X363447Y129166D01*
X364620Y129652D01*
X365026Y129381D01*
X367250Y128938D01*
X368402Y129167D01*
X369166Y128025D01*
X368631Y127224D01*
X368188Y125000D01*
X368631Y122776D01*
X369891Y120891D01*
X371776Y119631D01*
X374000Y119188D01*
X376224Y119631D01*
X378110Y120891D01*
X379369Y122776D01*
X379812Y125000D01*
X379369Y127224D01*
X378110Y129109D01*
X376224Y130369D01*
X374000Y130812D01*
X372848Y130583D01*
X372084Y131726D01*
X372619Y132526D01*
X373062Y134750D01*
X372619Y136974D01*
X371359Y138860D01*
X369474Y140119D01*
X367250Y140562D01*
D02*
G37*
G36*
X423870Y147682D02*
X421646Y147239D01*
X419761Y145979D01*
X418501Y144094D01*
X418058Y141870D01*
X418501Y139646D01*
X419761Y137761D01*
X421646Y136501D01*
X423870Y136058D01*
X426094Y136501D01*
X427980Y137761D01*
X429239Y139646D01*
X429682Y141870D01*
X429239Y144094D01*
X427980Y145979D01*
X426094Y147239D01*
X423870Y147682D01*
D02*
G37*
G36*
X147250Y138496D02*
X144831Y138014D01*
X142780Y136644D01*
X141410Y134593D01*
X140928Y132174D01*
X141410Y129755D01*
X142780Y127704D01*
X144831Y126334D01*
X147250Y125853D01*
X149669Y126334D01*
X151720Y127704D01*
X153090Y129755D01*
X153571Y132174D01*
X153090Y134593D01*
X151720Y136644D01*
X149669Y138014D01*
X147250Y138496D01*
D02*
G37*
G36*
X479400Y130150D02*
X460400D01*
Y111150D01*
X479400D01*
Y130150D01*
D02*
G37*
G36*
X131470Y139282D02*
X129246Y138839D01*
X127361Y137579D01*
X126101Y135694D01*
X125658Y133470D01*
X126101Y131246D01*
X127361Y129361D01*
X129246Y128101D01*
X131470Y127658D01*
X133694Y128101D01*
X135580Y129361D01*
X136839Y131246D01*
X137282Y133470D01*
X136839Y135694D01*
X135580Y137579D01*
X133694Y138839D01*
X131470Y139282D01*
D02*
G37*
G36*
X200000Y148562D02*
X197776Y148119D01*
X195891Y146860D01*
X194631Y144974D01*
X194188Y142750D01*
X194631Y140526D01*
X195479Y139257D01*
X195360Y136773D01*
X195281Y136719D01*
X194021Y134834D01*
X193578Y132610D01*
X194021Y130386D01*
X195281Y128500D01*
X197166Y127241D01*
X199390Y126798D01*
X201614Y127241D01*
X203500Y128500D01*
X204759Y130386D01*
X205202Y132610D01*
X204759Y134834D01*
X203911Y136103D01*
X204030Y138587D01*
X204109Y138640D01*
X205369Y140526D01*
X205812Y142750D01*
X205369Y144974D01*
X204109Y146860D01*
X202224Y148119D01*
X200000Y148562D01*
D02*
G37*
G36*
X479400Y104750D02*
X471400D01*
Y96750D01*
X479400D01*
Y104750D01*
D02*
G37*
G36*
X468400D02*
X460400D01*
Y96750D01*
X468400D01*
Y104750D01*
D02*
G37*
G36*
X496800Y104635D02*
Y96750D01*
X504684D01*
X504556Y97730D01*
X503598Y100041D01*
X502075Y102025D01*
X500091Y103548D01*
X497780Y104506D01*
X496800Y104635D01*
D02*
G37*
G36*
X493800D02*
X492820Y104506D01*
X490509Y103548D01*
X488525Y102025D01*
X487002Y100041D01*
X486045Y97730D01*
X485915Y96750D01*
X493800D01*
Y104635D01*
D02*
G37*
G36*
X595400Y93750D02*
X587515D01*
X587645Y92770D01*
X588602Y90459D01*
X590125Y88475D01*
X592109Y86952D01*
X594420Y85995D01*
X595400Y85865D01*
Y93750D01*
D02*
G37*
G36*
X580885D02*
X573000D01*
Y85865D01*
X573980Y85995D01*
X576291Y86952D01*
X578275Y88475D01*
X579798Y90459D01*
X580756Y92770D01*
X580885Y93750D01*
D02*
G37*
G36*
X207000Y101812D02*
X204776Y101369D01*
X202890Y100110D01*
X201631Y98224D01*
X201188Y96000D01*
X201631Y93776D01*
X202890Y91890D01*
X204776Y90631D01*
X207000Y90188D01*
X209224Y90631D01*
X211110Y91890D01*
X212369Y93776D01*
X212812Y96000D01*
X212369Y98224D01*
X211110Y100110D01*
X209224Y101369D01*
X207000Y101812D01*
D02*
G37*
G36*
X606284Y93750D02*
X598400D01*
Y85865D01*
X599380Y85995D01*
X601691Y86952D01*
X603675Y88475D01*
X605198Y90459D01*
X606156Y92770D01*
X606284Y93750D01*
D02*
G37*
G36*
X573000Y104635D02*
Y96750D01*
X580885D01*
X580756Y97730D01*
X579798Y100041D01*
X578275Y102025D01*
X576291Y103548D01*
X573980Y104506D01*
X573000Y104635D01*
D02*
G37*
G36*
X570000D02*
X569020Y104506D01*
X566709Y103548D01*
X564725Y102025D01*
X563202Y100041D01*
X562244Y97730D01*
X562116Y96750D01*
X570000D01*
Y104635D01*
D02*
G37*
G36*
X598400D02*
Y96750D01*
X606284D01*
X606156Y97730D01*
X605198Y100041D01*
X603675Y102025D01*
X601691Y103548D01*
X599380Y104506D01*
X598400Y104635D01*
D02*
G37*
G36*
X595400D02*
X594420Y104506D01*
X592109Y103548D01*
X590125Y102025D01*
X588602Y100041D01*
X587645Y97730D01*
X587515Y96750D01*
X595400D01*
Y104635D01*
D02*
G37*
G36*
X522200D02*
Y96750D01*
X530084D01*
X529955Y97730D01*
X528998Y100041D01*
X527475Y102025D01*
X525491Y103548D01*
X523180Y104506D01*
X522200Y104635D01*
D02*
G37*
G36*
X519200D02*
X518220Y104506D01*
X515909Y103548D01*
X513924Y102025D01*
X512402Y100041D01*
X511445Y97730D01*
X511315Y96750D01*
X519200D01*
Y104635D01*
D02*
G37*
G36*
X547600D02*
Y96750D01*
X555485D01*
X555355Y97730D01*
X554398Y100041D01*
X552875Y102025D01*
X550891Y103548D01*
X548580Y104506D01*
X547600Y104635D01*
D02*
G37*
G36*
X544600D02*
X543620Y104506D01*
X541309Y103548D01*
X539324Y102025D01*
X537802Y100041D01*
X536844Y97730D01*
X536716Y96750D01*
X544600D01*
Y104635D01*
D02*
G37*
G36*
X389660Y447534D02*
X388680Y447406D01*
X386369Y446448D01*
X384384Y444925D01*
X382862Y442941D01*
X381904Y440630D01*
X381776Y439650D01*
X389660D01*
Y447534D01*
D02*
G37*
G36*
X367260D02*
Y439650D01*
X375145D01*
X375015Y440630D01*
X374058Y442941D01*
X372535Y444925D01*
X370551Y446448D01*
X368240Y447406D01*
X367260Y447534D01*
D02*
G37*
G36*
X415060Y447650D02*
X407060D01*
Y439650D01*
X415060D01*
Y447650D01*
D02*
G37*
G36*
X392660Y447534D02*
Y439650D01*
X400545D01*
X400415Y440630D01*
X399458Y442941D01*
X397935Y444925D01*
X395951Y446448D01*
X393640Y447406D01*
X392660Y447534D01*
D02*
G37*
G36*
X338860D02*
X337880Y447406D01*
X335569Y446448D01*
X333585Y444925D01*
X332062Y442941D01*
X331105Y440630D01*
X330975Y439650D01*
X338860D01*
Y447534D01*
D02*
G37*
G36*
X316460D02*
Y439650D01*
X324344D01*
X324216Y440630D01*
X323258Y442941D01*
X321735Y444925D01*
X319751Y446448D01*
X317440Y447406D01*
X316460Y447534D01*
D02*
G37*
G36*
X364260D02*
X363280Y447406D01*
X360969Y446448D01*
X358984Y444925D01*
X357462Y442941D01*
X356505Y440630D01*
X356376Y439650D01*
X364260D01*
Y447534D01*
D02*
G37*
G36*
X341860D02*
Y439650D01*
X349744D01*
X349616Y440630D01*
X348658Y442941D01*
X347135Y444925D01*
X345151Y446448D01*
X342840Y447406D01*
X341860Y447534D01*
D02*
G37*
G36*
X506500D02*
X505520Y447406D01*
X503209Y446448D01*
X501225Y444925D01*
X499702Y442941D01*
X498745Y440630D01*
X498615Y439650D01*
X506500D01*
Y447534D01*
D02*
G37*
G36*
X484100D02*
Y439650D01*
X491984D01*
X491856Y440630D01*
X490898Y442941D01*
X489375Y444925D01*
X487391Y446448D01*
X485080Y447406D01*
X484100Y447534D01*
D02*
G37*
G36*
X531900D02*
X530920Y447406D01*
X528609Y446448D01*
X526625Y444925D01*
X525102Y442941D01*
X524145Y440630D01*
X524016Y439650D01*
X531900D01*
Y447534D01*
D02*
G37*
G36*
X509500D02*
Y439650D01*
X517384D01*
X517256Y440630D01*
X516298Y442941D01*
X514775Y444925D01*
X512791Y446448D01*
X510480Y447406D01*
X509500Y447534D01*
D02*
G37*
G36*
X455700D02*
X454720Y447406D01*
X452409Y446448D01*
X450424Y444925D01*
X448902Y442941D01*
X447944Y440630D01*
X447816Y439650D01*
X455700D01*
Y447534D01*
D02*
G37*
G36*
X426060Y447650D02*
X418060D01*
Y439650D01*
X426060D01*
Y447650D01*
D02*
G37*
G36*
X481100Y447534D02*
X480120Y447406D01*
X477809Y446448D01*
X475825Y444925D01*
X474302Y442941D01*
X473344Y440630D01*
X473215Y439650D01*
X481100D01*
Y447534D01*
D02*
G37*
G36*
X458700D02*
Y439650D01*
X466585D01*
X466455Y440630D01*
X465498Y442941D01*
X463975Y444925D01*
X461991Y446448D01*
X459680Y447406D01*
X458700Y447534D01*
D02*
G37*
G36*
X542785Y436650D02*
X534900D01*
Y428765D01*
X535880Y428895D01*
X538191Y429852D01*
X540175Y431375D01*
X541698Y433359D01*
X542655Y435670D01*
X542785Y436650D01*
D02*
G37*
G36*
X531900D02*
X524016D01*
X524145Y435670D01*
X525102Y433359D01*
X526625Y431375D01*
X528609Y429852D01*
X530920Y428895D01*
X531900Y428765D01*
Y436650D01*
D02*
G37*
G36*
X568185D02*
X560300D01*
Y428765D01*
X561280Y428895D01*
X563591Y429852D01*
X565575Y431375D01*
X567098Y433359D01*
X568055Y435670D01*
X568185Y436650D01*
D02*
G37*
G36*
X557300D02*
X549416D01*
X549544Y435670D01*
X550502Y433359D01*
X552025Y431375D01*
X554009Y429852D01*
X556320Y428895D01*
X557300Y428765D01*
Y436650D01*
D02*
G37*
G36*
X491984D02*
X484100D01*
Y428765D01*
X485080Y428895D01*
X487391Y429852D01*
X489375Y431375D01*
X490898Y433359D01*
X491856Y435670D01*
X491984Y436650D01*
D02*
G37*
G36*
X481100D02*
X473215D01*
X473344Y435670D01*
X474302Y433359D01*
X475825Y431375D01*
X477809Y429852D01*
X480120Y428895D01*
X481100Y428765D01*
Y436650D01*
D02*
G37*
G36*
X517384D02*
X509500D01*
Y428765D01*
X510480Y428895D01*
X512791Y429852D01*
X514775Y431375D01*
X516298Y433359D01*
X517256Y435670D01*
X517384Y436650D01*
D02*
G37*
G36*
X506500D02*
X498615D01*
X498745Y435670D01*
X499702Y433359D01*
X501225Y431375D01*
X503209Y429852D01*
X505520Y428895D01*
X506500Y428765D01*
Y436650D01*
D02*
G37*
G36*
X288060Y447534D02*
X287080Y447406D01*
X284769Y446448D01*
X282785Y444925D01*
X281262Y442941D01*
X280305Y440630D01*
X280175Y439650D01*
X288060D01*
Y447534D01*
D02*
G37*
G36*
X228000Y446812D02*
X225776Y446369D01*
X223890Y445109D01*
X222631Y443224D01*
X222188Y441000D01*
X222631Y438776D01*
X223890Y436890D01*
X225776Y435631D01*
X228000Y435188D01*
X230224Y435631D01*
X232110Y436890D01*
X233369Y438776D01*
X233812Y441000D01*
X233369Y443224D01*
X232110Y445109D01*
X230224Y446369D01*
X228000Y446812D01*
D02*
G37*
G36*
X313460Y447534D02*
X312480Y447406D01*
X310169Y446448D01*
X308185Y444925D01*
X306662Y442941D01*
X305704Y440630D01*
X305576Y439650D01*
X313460D01*
Y447534D01*
D02*
G37*
G36*
X291060D02*
Y439650D01*
X298944D01*
X298815Y440630D01*
X297858Y442941D01*
X296335Y444925D01*
X294351Y446448D01*
X292040Y447406D01*
X291060Y447534D01*
D02*
G37*
G36*
X593585Y436650D02*
X585700D01*
Y428765D01*
X586680Y428895D01*
X588991Y429852D01*
X590975Y431375D01*
X592498Y433359D01*
X593456Y435670D01*
X593585Y436650D01*
D02*
G37*
G36*
X582700D02*
X574815D01*
X574944Y435670D01*
X575902Y433359D01*
X577425Y431375D01*
X579409Y429852D01*
X581720Y428895D01*
X582700Y428765D01*
Y436650D01*
D02*
G37*
G36*
X618984D02*
X611100D01*
Y428765D01*
X612080Y428895D01*
X614391Y429852D01*
X616375Y431375D01*
X617898Y433359D01*
X618856Y435670D01*
X618984Y436650D01*
D02*
G37*
G36*
X608100D02*
X600215D01*
X600345Y435670D01*
X601302Y433359D01*
X602825Y431375D01*
X604809Y429852D01*
X607120Y428895D01*
X608100Y428765D01*
Y436650D01*
D02*
G37*
G36*
X426060Y473050D02*
X407060D01*
Y454050D01*
X426060D01*
Y473050D01*
D02*
G37*
G36*
X609600Y473132D02*
X607120Y472805D01*
X604809Y471848D01*
X602825Y470325D01*
X601302Y468341D01*
X600345Y466030D01*
X600018Y463550D01*
X600345Y461070D01*
X601302Y458759D01*
X602825Y456774D01*
X604809Y455252D01*
X607120Y454295D01*
X609600Y453968D01*
X612080Y454295D01*
X614391Y455252D01*
X616375Y456774D01*
X617898Y458759D01*
X618856Y461070D01*
X619182Y463550D01*
X618856Y466030D01*
X617898Y468341D01*
X616375Y470325D01*
X614391Y471848D01*
X612080Y472805D01*
X609600Y473132D01*
D02*
G37*
G36*
X210820Y469062D02*
X208596Y468619D01*
X206710Y467360D01*
X205451Y465474D01*
X205008Y463250D01*
X205451Y461026D01*
X206710Y459141D01*
X208596Y457881D01*
X210820Y457438D01*
X213044Y457881D01*
X214930Y459141D01*
X216189Y461026D01*
X216632Y463250D01*
X216189Y465474D01*
X214930Y467360D01*
X213044Y468619D01*
X210820Y469062D01*
D02*
G37*
G36*
X644500Y473050D02*
X625500D01*
Y454050D01*
X644500D01*
Y473050D01*
D02*
G37*
G36*
X533400Y473132D02*
X530920Y472805D01*
X528609Y471848D01*
X526625Y470325D01*
X525102Y468341D01*
X524145Y466030D01*
X523818Y463550D01*
X524145Y461070D01*
X525102Y458759D01*
X526625Y456774D01*
X528609Y455252D01*
X530920Y454295D01*
X533400Y453968D01*
X535880Y454295D01*
X538191Y455252D01*
X540175Y456774D01*
X541698Y458759D01*
X542655Y461070D01*
X542982Y463550D01*
X542655Y466030D01*
X541698Y468341D01*
X540175Y470325D01*
X538191Y471848D01*
X535880Y472805D01*
X533400Y473132D01*
D02*
G37*
G36*
X508000D02*
X505520Y472805D01*
X503209Y471848D01*
X501225Y470325D01*
X499702Y468341D01*
X498745Y466030D01*
X498418Y463550D01*
X498745Y461070D01*
X499702Y458759D01*
X501225Y456774D01*
X503209Y455252D01*
X505520Y454295D01*
X508000Y453968D01*
X510480Y454295D01*
X512791Y455252D01*
X514775Y456774D01*
X516298Y458759D01*
X517256Y461070D01*
X517582Y463550D01*
X517256Y466030D01*
X516298Y468341D01*
X514775Y470325D01*
X512791Y471848D01*
X510480Y472805D01*
X508000Y473132D01*
D02*
G37*
G36*
X584200D02*
X581720Y472805D01*
X579409Y471848D01*
X577425Y470325D01*
X575902Y468341D01*
X574944Y466030D01*
X574618Y463550D01*
X574944Y461070D01*
X575902Y458759D01*
X577425Y456774D01*
X579409Y455252D01*
X581720Y454295D01*
X584200Y453968D01*
X586680Y454295D01*
X588991Y455252D01*
X590975Y456774D01*
X592498Y458759D01*
X593456Y461070D01*
X593782Y463550D01*
X593456Y466030D01*
X592498Y468341D01*
X590975Y470325D01*
X588991Y471848D01*
X586680Y472805D01*
X584200Y473132D01*
D02*
G37*
G36*
X558800D02*
X556320Y472805D01*
X554009Y471848D01*
X552025Y470325D01*
X550502Y468341D01*
X549544Y466030D01*
X549218Y463550D01*
X549544Y461070D01*
X550502Y458759D01*
X552025Y456774D01*
X554009Y455252D01*
X556320Y454295D01*
X558800Y453968D01*
X561280Y454295D01*
X563591Y455252D01*
X565575Y456774D01*
X567098Y458759D01*
X568055Y461070D01*
X568382Y463550D01*
X568055Y466030D01*
X567098Y468341D01*
X565575Y470325D01*
X563591Y471848D01*
X561280Y472805D01*
X558800Y473132D01*
D02*
G37*
G36*
X273545Y506500D02*
X265660D01*
Y498615D01*
X266640Y498745D01*
X268951Y499702D01*
X270935Y501225D01*
X272458Y503209D01*
X273416Y505520D01*
X273545Y506500D01*
D02*
G37*
G36*
X262660D02*
X254776D01*
X254904Y505520D01*
X255862Y503209D01*
X257384Y501225D01*
X259369Y499702D01*
X261680Y498745D01*
X262660Y498615D01*
Y506500D01*
D02*
G37*
G36*
X265660Y517384D02*
Y509500D01*
X273545D01*
X273416Y510480D01*
X272458Y512791D01*
X270935Y514775D01*
X268951Y516298D01*
X266640Y517256D01*
X265660Y517384D01*
D02*
G37*
G36*
X262660D02*
X261680Y517256D01*
X259369Y516298D01*
X257384Y514775D01*
X255862Y512791D01*
X254904Y510480D01*
X254776Y509500D01*
X262660D01*
Y517384D01*
D02*
G37*
G36*
X187960Y517582D02*
X185480Y517256D01*
X183169Y516298D01*
X181185Y514775D01*
X179662Y512791D01*
X178704Y510480D01*
X178378Y508000D01*
X178704Y505520D01*
X179662Y503209D01*
X181185Y501225D01*
X183169Y499702D01*
X185480Y498745D01*
X187960Y498418D01*
X190440Y498745D01*
X192751Y499702D01*
X194735Y501225D01*
X196258Y503209D01*
X197215Y505520D01*
X197542Y508000D01*
X197215Y510480D01*
X196258Y512791D01*
X194735Y514775D01*
X192751Y516298D01*
X190440Y517256D01*
X187960Y517582D01*
D02*
G37*
G36*
X78000Y484062D02*
X75776Y483619D01*
X73891Y482360D01*
X72631Y480474D01*
X72188Y478250D01*
X72631Y476026D01*
X73891Y474141D01*
X75057Y473361D01*
X75058Y473358D01*
Y471142D01*
X75057Y471139D01*
X73891Y470359D01*
X72631Y468474D01*
X72188Y466250D01*
X72631Y464026D01*
X73891Y462141D01*
X75776Y460881D01*
X78000Y460438D01*
X80224Y460881D01*
X82109Y462141D01*
X83369Y464026D01*
X83812Y466250D01*
X83369Y468474D01*
X82109Y470359D01*
X80943Y471139D01*
X80942Y471142D01*
Y473358D01*
X80943Y473361D01*
X82109Y474141D01*
X83369Y476026D01*
X83812Y478250D01*
X83369Y480474D01*
X82109Y482360D01*
X80224Y483619D01*
X78000Y484062D01*
D02*
G37*
G36*
X238760Y517582D02*
X236280Y517256D01*
X233969Y516298D01*
X231985Y514775D01*
X230462Y512791D01*
X229505Y510480D01*
X229178Y508000D01*
X229505Y505520D01*
X230462Y503209D01*
X231985Y501225D01*
X233969Y499702D01*
X236280Y498745D01*
X238760Y498418D01*
X241240Y498745D01*
X243551Y499702D01*
X245535Y501225D01*
X247058Y503209D01*
X248015Y505520D01*
X248342Y508000D01*
X248015Y510480D01*
X247058Y512791D01*
X245535Y514775D01*
X243551Y516298D01*
X241240Y517256D01*
X238760Y517582D01*
D02*
G37*
G36*
X213360D02*
X210880Y517256D01*
X208569Y516298D01*
X206585Y514775D01*
X205062Y512791D01*
X204104Y510480D01*
X203778Y508000D01*
X204104Y505520D01*
X205062Y503209D01*
X206585Y501225D01*
X208569Y499702D01*
X210880Y498745D01*
X213360Y498418D01*
X215840Y498745D01*
X218151Y499702D01*
X220135Y501225D01*
X221658Y503209D01*
X222616Y505520D01*
X222942Y508000D01*
X222616Y510480D01*
X221658Y512791D01*
X220135Y514775D01*
X218151Y516298D01*
X215840Y517256D01*
X213360Y517582D01*
D02*
G37*
G36*
X608100Y447534D02*
X607120Y447406D01*
X604809Y446448D01*
X602825Y444925D01*
X601302Y442941D01*
X600345Y440630D01*
X600215Y439650D01*
X608100D01*
Y447534D01*
D02*
G37*
G36*
X585700D02*
Y439650D01*
X593585D01*
X593456Y440630D01*
X592498Y442941D01*
X590975Y444925D01*
X588991Y446448D01*
X586680Y447406D01*
X585700Y447534D01*
D02*
G37*
G36*
X633500Y447650D02*
X625500D01*
Y439650D01*
X633500D01*
Y447650D01*
D02*
G37*
G36*
X611100Y447534D02*
Y439650D01*
X618984D01*
X618856Y440630D01*
X617898Y442941D01*
X616375Y444925D01*
X614391Y446448D01*
X612080Y447406D01*
X611100Y447534D01*
D02*
G37*
G36*
X557300D02*
X556320Y447406D01*
X554009Y446448D01*
X552025Y444925D01*
X550502Y442941D01*
X549544Y440630D01*
X549416Y439650D01*
X557300D01*
Y447534D01*
D02*
G37*
G36*
X534900D02*
Y439650D01*
X542785D01*
X542655Y440630D01*
X541698Y442941D01*
X540175Y444925D01*
X538191Y446448D01*
X535880Y447406D01*
X534900Y447534D01*
D02*
G37*
G36*
X582700D02*
X581720Y447406D01*
X579409Y446448D01*
X577425Y444925D01*
X575902Y442941D01*
X574944Y440630D01*
X574815Y439650D01*
X582700D01*
Y447534D01*
D02*
G37*
G36*
X560300D02*
Y439650D01*
X568185D01*
X568055Y440630D01*
X567098Y442941D01*
X565575Y444925D01*
X563591Y446448D01*
X561280Y447406D01*
X560300Y447534D01*
D02*
G37*
G36*
X391160Y473132D02*
X388680Y472805D01*
X386369Y471848D01*
X384384Y470325D01*
X382862Y468341D01*
X381904Y466030D01*
X381578Y463550D01*
X381904Y461070D01*
X382862Y458759D01*
X384384Y456774D01*
X386369Y455252D01*
X388680Y454295D01*
X391160Y453968D01*
X393640Y454295D01*
X395951Y455252D01*
X397935Y456774D01*
X399458Y458759D01*
X400415Y461070D01*
X400742Y463550D01*
X400415Y466030D01*
X399458Y468341D01*
X397935Y470325D01*
X395951Y471848D01*
X393640Y472805D01*
X391160Y473132D01*
D02*
G37*
G36*
X365760D02*
X363280Y472805D01*
X360969Y471848D01*
X358984Y470325D01*
X357462Y468341D01*
X356505Y466030D01*
X356178Y463550D01*
X356505Y461070D01*
X357462Y458759D01*
X358984Y456774D01*
X360969Y455252D01*
X363280Y454295D01*
X365760Y453968D01*
X368240Y454295D01*
X370551Y455252D01*
X372535Y456774D01*
X374058Y458759D01*
X375015Y461070D01*
X375342Y463550D01*
X375015Y466030D01*
X374058Y468341D01*
X372535Y470325D01*
X370551Y471848D01*
X368240Y472805D01*
X365760Y473132D01*
D02*
G37*
G36*
X482600D02*
X480120Y472805D01*
X477809Y471848D01*
X475825Y470325D01*
X474302Y468341D01*
X473344Y466030D01*
X473018Y463550D01*
X473344Y461070D01*
X474302Y458759D01*
X475825Y456774D01*
X477809Y455252D01*
X480120Y454295D01*
X482600Y453968D01*
X485080Y454295D01*
X487391Y455252D01*
X489375Y456774D01*
X490898Y458759D01*
X491856Y461070D01*
X492182Y463550D01*
X491856Y466030D01*
X490898Y468341D01*
X489375Y470325D01*
X487391Y471848D01*
X485080Y472805D01*
X482600Y473132D01*
D02*
G37*
G36*
X457200D02*
X454720Y472805D01*
X452409Y471848D01*
X450424Y470325D01*
X448902Y468341D01*
X447944Y466030D01*
X447618Y463550D01*
X447944Y461070D01*
X448902Y458759D01*
X450424Y456774D01*
X452409Y455252D01*
X454720Y454295D01*
X457200Y453968D01*
X459680Y454295D01*
X461991Y455252D01*
X463975Y456774D01*
X465498Y458759D01*
X466455Y461070D01*
X466782Y463550D01*
X466455Y466030D01*
X465498Y468341D01*
X463975Y470325D01*
X461991Y471848D01*
X459680Y472805D01*
X457200Y473132D01*
D02*
G37*
G36*
X289560D02*
X287080Y472805D01*
X284769Y471848D01*
X282785Y470325D01*
X281262Y468341D01*
X280305Y466030D01*
X279978Y463550D01*
X280305Y461070D01*
X281262Y458759D01*
X282785Y456774D01*
X284769Y455252D01*
X287080Y454295D01*
X289560Y453968D01*
X292040Y454295D01*
X294351Y455252D01*
X296335Y456774D01*
X297858Y458759D01*
X298815Y461070D01*
X299142Y463550D01*
X298815Y466030D01*
X297858Y468341D01*
X296335Y470325D01*
X294351Y471848D01*
X292040Y472805D01*
X289560Y473132D01*
D02*
G37*
G36*
X644500Y447650D02*
X636500D01*
Y439650D01*
X644500D01*
Y447650D01*
D02*
G37*
G36*
X340360Y473132D02*
X337880Y472805D01*
X335569Y471848D01*
X333585Y470325D01*
X332062Y468341D01*
X331105Y466030D01*
X330778Y463550D01*
X331105Y461070D01*
X332062Y458759D01*
X333585Y456774D01*
X335569Y455252D01*
X337880Y454295D01*
X340360Y453968D01*
X342840Y454295D01*
X345151Y455252D01*
X347135Y456774D01*
X348658Y458759D01*
X349616Y461070D01*
X349942Y463550D01*
X349616Y466030D01*
X348658Y468341D01*
X347135Y470325D01*
X345151Y471848D01*
X342840Y472805D01*
X340360Y473132D01*
D02*
G37*
G36*
X314960D02*
X312480Y472805D01*
X310169Y471848D01*
X308185Y470325D01*
X306662Y468341D01*
X305704Y466030D01*
X305378Y463550D01*
X305704Y461070D01*
X306662Y458759D01*
X308185Y456774D01*
X310169Y455252D01*
X312480Y454295D01*
X314960Y453968D01*
X317440Y454295D01*
X319751Y455252D01*
X321735Y456774D01*
X323258Y458759D01*
X324216Y461070D01*
X324542Y463550D01*
X324216Y466030D01*
X323258Y468341D01*
X321735Y470325D01*
X319751Y471848D01*
X317440Y472805D01*
X314960Y473132D01*
D02*
G37*
G36*
X523750Y331562D02*
X521526Y331119D01*
X519641Y329860D01*
X518381Y327974D01*
X517938Y325750D01*
X518381Y323526D01*
X519641Y321641D01*
X521526Y320381D01*
X523750Y319938D01*
X525974Y320381D01*
X527859Y321641D01*
X529119Y323526D01*
X529562Y325750D01*
X529119Y327974D01*
X527859Y329860D01*
X525974Y331119D01*
X523750Y331562D01*
D02*
G37*
G36*
X406939Y334729D02*
X404715Y334287D01*
X402830Y333027D01*
X401570Y331142D01*
X401127Y328918D01*
X401570Y326693D01*
X402830Y324808D01*
X404715Y323548D01*
X406939Y323106D01*
X408222Y323361D01*
X409302Y322281D01*
X409047Y320998D01*
X409267Y319891D01*
X408187Y318811D01*
X407080Y319031D01*
X404856Y318589D01*
X402971Y317329D01*
X401711Y315444D01*
X401269Y313220D01*
X401711Y310996D01*
X402971Y309110D01*
X404856Y307850D01*
X407080Y307408D01*
X408364Y307663D01*
X409444Y306583D01*
X409188Y305300D01*
X409486Y303804D01*
X408436Y302753D01*
X406939Y303051D01*
X404715Y302608D01*
X402830Y301348D01*
X401570Y299463D01*
X401127Y297239D01*
X401570Y295015D01*
X402830Y293130D01*
X404715Y291870D01*
X406939Y291427D01*
X408436Y291725D01*
X409486Y290674D01*
X409188Y289178D01*
X409486Y287681D01*
X408436Y286631D01*
X406939Y286929D01*
X404715Y286486D01*
X402830Y285226D01*
X401570Y283341D01*
X401127Y281117D01*
X401570Y278893D01*
X402830Y277007D01*
X404715Y275748D01*
X406939Y275305D01*
X409163Y275748D01*
X411049Y277007D01*
X412308Y278893D01*
X412751Y281117D01*
X412453Y282613D01*
X413503Y283664D01*
X415000Y283366D01*
X417224Y283809D01*
X419109Y285068D01*
X420369Y286954D01*
X420812Y289178D01*
X420369Y291402D01*
X419109Y293287D01*
X417224Y294547D01*
X415000Y294990D01*
X413503Y294692D01*
X412453Y295742D01*
X412751Y297239D01*
X412453Y298736D01*
X413503Y299786D01*
X415000Y299488D01*
X417224Y299931D01*
X419109Y301191D01*
X420369Y303076D01*
X420812Y305300D01*
X420369Y307524D01*
X419109Y309410D01*
X417224Y310669D01*
X415000Y311112D01*
X413717Y310856D01*
X412637Y311936D01*
X412892Y313220D01*
X412672Y314326D01*
X413752Y315406D01*
X414859Y315186D01*
X417083Y315629D01*
X418968Y316888D01*
X420228Y318774D01*
X420670Y320998D01*
X420228Y323222D01*
X418968Y325107D01*
X417083Y326367D01*
X414859Y326810D01*
X413575Y326554D01*
X412495Y327634D01*
X412751Y328918D01*
X412308Y331142D01*
X411049Y333027D01*
X409163Y334287D01*
X406939Y334729D01*
D02*
G37*
G36*
X586000Y332812D02*
X583776Y332369D01*
X581890Y331110D01*
X580631Y329224D01*
X580188Y327000D01*
X579523Y326334D01*
X578218Y326594D01*
X575993Y326152D01*
X574108Y324892D01*
X572848Y323007D01*
X572406Y320783D01*
X572848Y318559D01*
X573326Y317843D01*
X572563Y316700D01*
X572000Y316812D01*
X569776Y316369D01*
X567891Y315110D01*
X566776D01*
X566108Y316109D01*
X564223Y317369D01*
X561999Y317811D01*
X559775Y317369D01*
X557889Y316109D01*
X557634Y315726D01*
X556364D01*
X556300Y315822D01*
X556286Y317341D01*
X557108Y317890D01*
X558368Y319775D01*
X558811Y321999D01*
X558368Y324223D01*
X557108Y326109D01*
X555223Y327369D01*
X552999Y327811D01*
X550775Y327369D01*
X548889Y326109D01*
X548635Y325728D01*
X547365D01*
X547109Y326110D01*
X545224Y327369D01*
X543000Y327812D01*
X540776Y327369D01*
X538890Y326110D01*
X537631Y324224D01*
X537188Y322000D01*
X537631Y319776D01*
X538890Y317890D01*
X540776Y316631D01*
X543000Y316188D01*
X545224Y316631D01*
X547109Y317890D01*
X547364Y318272D01*
X548634D01*
X548889Y317890D01*
Y316777D01*
X547889Y316109D01*
X546630Y314223D01*
X546187Y311999D01*
X546630Y309775D01*
X547889Y307890D01*
X549775Y306630D01*
X551999Y306188D01*
X554223Y306630D01*
X556108Y307890D01*
X556364Y308272D01*
X557634D01*
X557889Y307890D01*
X559775Y306630D01*
X561999Y306188D01*
X564223Y306630D01*
X566108Y307890D01*
X567223D01*
X567891Y306891D01*
X569776Y305631D01*
X572000Y305188D01*
X574224Y305631D01*
X576110Y306891D01*
X577369Y308776D01*
X577812Y311000D01*
X577369Y313224D01*
X576891Y313940D01*
X577655Y315083D01*
X578218Y314971D01*
X580442Y315413D01*
X582327Y316673D01*
X583587Y318559D01*
X584029Y320783D01*
X584695Y321448D01*
X586000Y321188D01*
X588224Y321631D01*
X590109Y322891D01*
X591369Y324776D01*
X591812Y327000D01*
X591369Y329224D01*
X590109Y331110D01*
X588224Y332369D01*
X586000Y332812D01*
D02*
G37*
G36*
X233500Y336812D02*
X231276Y336369D01*
X229391Y335109D01*
X228131Y333224D01*
X227688Y331000D01*
X228131Y328776D01*
X229391Y326890D01*
X230803Y325947D01*
X230307Y324751D01*
X230000Y324812D01*
X227776Y324369D01*
X225891Y323110D01*
X224631Y321224D01*
X224188Y319000D01*
X224631Y316776D01*
X225891Y314890D01*
X227776Y313631D01*
X230000Y313188D01*
X232224Y313631D01*
X234109Y314890D01*
X235369Y316776D01*
X235812Y319000D01*
X235369Y321224D01*
X234109Y323110D01*
X232697Y324053D01*
X233193Y325249D01*
X233500Y325188D01*
X235724Y325631D01*
X237610Y326890D01*
X238869Y328776D01*
X239312Y331000D01*
X238869Y333224D01*
X237610Y335109D01*
X235724Y336369D01*
X233500Y336812D01*
D02*
G37*
G36*
X91000Y320812D02*
X88776Y320369D01*
X86890Y319109D01*
X85631Y317224D01*
X85188Y315000D01*
X85631Y312776D01*
X86890Y310891D01*
X87829Y310264D01*
Y308736D01*
X86890Y308109D01*
X85631Y306223D01*
X85188Y303999D01*
X85631Y301775D01*
X86890Y299890D01*
X88776Y298630D01*
X91000Y298188D01*
X93224Y298630D01*
X95109Y299890D01*
X96369Y301775D01*
X96812Y303999D01*
X96369Y306223D01*
X95109Y308109D01*
X94171Y308736D01*
Y310263D01*
X95110Y310891D01*
X96369Y312776D01*
X96812Y315000D01*
X96369Y317224D01*
X95110Y319109D01*
X93224Y320369D01*
X91000Y320812D01*
D02*
G37*
G36*
X129850Y304662D02*
X127626Y304219D01*
X125740Y302959D01*
X124481Y301074D01*
X124038Y298850D01*
X124481Y296626D01*
X125740Y294741D01*
X127626Y293481D01*
X129850Y293038D01*
X132074Y293481D01*
X133960Y294741D01*
X135219Y296626D01*
X135662Y298850D01*
X135219Y301074D01*
X133960Y302959D01*
X132074Y304219D01*
X129850Y304662D01*
D02*
G37*
G36*
X181750Y320812D02*
X179526Y320369D01*
X177640Y319109D01*
X176381Y317224D01*
X176373Y317183D01*
X175445Y317028D01*
X175055Y317070D01*
X173860Y318860D01*
X171974Y320119D01*
X169750Y320562D01*
X167526Y320119D01*
X165641Y318860D01*
X164381Y316974D01*
X163938Y314750D01*
X164381Y312526D01*
X165641Y310641D01*
X167526Y309381D01*
X169750Y308938D01*
X171974Y309381D01*
X173860Y310641D01*
X175119Y312526D01*
X175127Y312567D01*
X176054Y312722D01*
X176445Y312680D01*
X177640Y310891D01*
X179526Y309631D01*
X181750Y309188D01*
X183974Y309631D01*
X185860Y310891D01*
X187119Y312776D01*
X187562Y315000D01*
X187119Y317224D01*
X185860Y319109D01*
X183974Y320369D01*
X181750Y320812D01*
D02*
G37*
G36*
X137960Y321852D02*
X135736Y321409D01*
X133850Y320149D01*
X132591Y318264D01*
X132148Y316040D01*
X132591Y313816D01*
X133850Y311931D01*
X135736Y310671D01*
X137960Y310228D01*
X140184Y310671D01*
X142070Y311931D01*
X143175Y313585D01*
X144125Y313567D01*
X144496Y313451D01*
X144631Y312776D01*
X145891Y310891D01*
X147776Y309631D01*
X150000Y309188D01*
X152224Y309631D01*
X154109Y310891D01*
X155369Y312776D01*
X155812Y315000D01*
X155369Y317224D01*
X154109Y319109D01*
X152224Y320369D01*
X150000Y320812D01*
X147776Y320369D01*
X145891Y319109D01*
X144785Y317455D01*
X143835Y317473D01*
X143463Y317589D01*
X143329Y318264D01*
X142070Y320149D01*
X140184Y321409D01*
X137960Y321852D01*
D02*
G37*
G36*
X326770Y365042D02*
X324546Y364599D01*
X322660Y363340D01*
X321401Y361454D01*
X320958Y359230D01*
X321401Y357006D01*
X322660Y355121D01*
X324546Y353861D01*
X326770Y353418D01*
X328994Y353861D01*
X330879Y355121D01*
X332139Y357006D01*
X332582Y359230D01*
X332139Y361454D01*
X330879Y363340D01*
X328994Y364599D01*
X326770Y365042D01*
D02*
G37*
G36*
X136000Y351812D02*
X133776Y351369D01*
X131890Y350109D01*
X131264Y349171D01*
X129736D01*
X129109Y350109D01*
X127224Y351369D01*
X125000Y351812D01*
X122776Y351369D01*
X120891Y350109D01*
X119631Y348224D01*
X119188Y346000D01*
X119631Y343776D01*
X120891Y341890D01*
X122776Y340631D01*
X125000Y340188D01*
X127224Y340631D01*
X129109Y341890D01*
X129736Y342829D01*
X131264D01*
X131890Y341890D01*
X133776Y340631D01*
X136000Y340188D01*
X138224Y340631D01*
X140110Y341890D01*
X141369Y343776D01*
X141812Y346000D01*
X141369Y348224D01*
X140110Y350109D01*
X138224Y351369D01*
X136000Y351812D01*
D02*
G37*
G36*
X615700Y378261D02*
X613220Y377935D01*
X610909Y376977D01*
X608925Y375455D01*
X607402Y373470D01*
X606445Y371159D01*
X606118Y368679D01*
X606445Y366199D01*
X607402Y363888D01*
X608925Y361904D01*
X610909Y360381D01*
X613220Y359424D01*
X615700Y359097D01*
X618180Y359424D01*
X620491Y360381D01*
X622476Y361904D01*
X623998Y363888D01*
X624955Y366199D01*
X625282Y368679D01*
X624955Y371159D01*
X623998Y373470D01*
X622476Y375455D01*
X620491Y376977D01*
X618180Y377935D01*
X615700Y378261D01*
D02*
G37*
G36*
X367250Y366062D02*
X365026Y365619D01*
X363140Y364360D01*
X361881Y362474D01*
X361438Y360250D01*
X361881Y358026D01*
X363140Y356141D01*
X365026Y354881D01*
X367250Y354438D01*
X369474Y354881D01*
X371359Y356141D01*
X372619Y358026D01*
X373062Y360250D01*
X372619Y362474D01*
X371359Y364360D01*
X369474Y365619D01*
X367250Y366062D01*
D02*
G37*
G36*
X150580Y344232D02*
X148356Y343789D01*
X146470Y342529D01*
X145211Y340644D01*
X144768Y338420D01*
X145211Y336196D01*
X146470Y334310D01*
X148356Y333051D01*
X150580Y332608D01*
X152804Y333051D01*
X154690Y334310D01*
X155949Y336196D01*
X156392Y338420D01*
X155949Y340644D01*
X154690Y342529D01*
X152804Y343789D01*
X150580Y344232D01*
D02*
G37*
G36*
X262690Y341502D02*
X260466Y341059D01*
X258581Y339799D01*
X257321Y337914D01*
X256878Y335690D01*
X257321Y333466D01*
X258581Y331581D01*
X260466Y330321D01*
X262690Y329878D01*
X264914Y330321D01*
X266800Y331581D01*
X268059Y333466D01*
X268502Y335690D01*
X268059Y337914D01*
X266800Y339799D01*
X264914Y341059D01*
X262690Y341502D01*
D02*
G37*
G36*
X194000Y350812D02*
X191776Y350369D01*
X189890Y349109D01*
X188631Y347224D01*
X188188Y345000D01*
X188631Y342776D01*
X189890Y340891D01*
X191776Y339631D01*
X194000Y339188D01*
X196224Y339631D01*
X198109Y340891D01*
X199369Y342776D01*
X199812Y345000D01*
X199369Y347224D01*
X198109Y349109D01*
X196224Y350369D01*
X194000Y350812D01*
D02*
G37*
G36*
X398000Y344812D02*
X395776Y344369D01*
X393890Y343110D01*
X392631Y341224D01*
X392188Y339000D01*
X392631Y336776D01*
X393890Y334891D01*
X395776Y333631D01*
X398000Y333188D01*
X400224Y333631D01*
X402109Y334891D01*
X403369Y336776D01*
X403812Y339000D01*
X403369Y341224D01*
X402109Y343110D01*
X400224Y344369D01*
X398000Y344812D01*
D02*
G37*
G36*
X651500Y282700D02*
X643500D01*
Y274700D01*
X651500D01*
Y282700D01*
D02*
G37*
G36*
X640500D02*
X632500D01*
Y274700D01*
X640500D01*
Y282700D01*
D02*
G37*
G36*
X546250Y289062D02*
X544026Y288619D01*
X542141Y287360D01*
X540881Y285474D01*
X540438Y283250D01*
X540881Y281026D01*
X542141Y279141D01*
X544026Y277881D01*
X546250Y277438D01*
X548474Y277881D01*
X550359Y279141D01*
X551619Y281026D01*
X552062Y283250D01*
X551619Y285474D01*
X550359Y287360D01*
X548474Y288619D01*
X546250Y289062D01*
D02*
G37*
G36*
X676900Y282700D02*
X668900D01*
Y274700D01*
X676900D01*
Y282700D01*
D02*
G37*
G36*
X643500Y268184D02*
Y260300D01*
X651385D01*
X651255Y261280D01*
X650298Y263591D01*
X648775Y265575D01*
X646791Y267098D01*
X644480Y268055D01*
X643500Y268184D01*
D02*
G37*
G36*
X640500D02*
X639520Y268055D01*
X637209Y267098D01*
X635225Y265575D01*
X633702Y263591D01*
X632745Y261280D01*
X632616Y260300D01*
X640500D01*
Y268184D01*
D02*
G37*
G36*
X567718Y272690D02*
X565494Y272248D01*
X563608Y270988D01*
X563353Y270606D01*
X562083D01*
X561827Y270988D01*
X559942Y272248D01*
X557718Y272690D01*
X555494Y272248D01*
X553608Y270988D01*
X552348Y269103D01*
X551906Y266879D01*
X552348Y264655D01*
X553608Y262769D01*
X553991Y262514D01*
Y261244D01*
X553608Y260988D01*
X552348Y259103D01*
X551906Y256879D01*
X552348Y254655D01*
X553608Y252769D01*
X555494Y251510D01*
X557718Y251067D01*
X559942Y251510D01*
X561827Y252769D01*
X562083Y253152D01*
X563353D01*
X563608Y252769D01*
X565494Y251510D01*
X567718Y251067D01*
X569942Y251510D01*
X571827Y252769D01*
X573087Y254655D01*
X573529Y256879D01*
X573087Y259103D01*
X571827Y260988D01*
X571445Y261244D01*
Y262514D01*
X571827Y262769D01*
X573087Y264655D01*
X573529Y266879D01*
X573087Y269103D01*
X571827Y270988D01*
X569942Y272248D01*
X567718Y272690D01*
D02*
G37*
G36*
X668900Y268184D02*
Y260300D01*
X676785D01*
X676656Y261280D01*
X675698Y263591D01*
X674175Y265575D01*
X672191Y267098D01*
X669880Y268055D01*
X668900Y268184D01*
D02*
G37*
G36*
X676900Y293700D02*
X668900D01*
Y285700D01*
X676900D01*
Y293700D01*
D02*
G37*
G36*
X651500D02*
X643500D01*
Y285700D01*
X651500D01*
Y293700D01*
D02*
G37*
G36*
X517000Y299812D02*
X514776Y299369D01*
X512891Y298109D01*
X511631Y296224D01*
X511188Y294000D01*
X511631Y291776D01*
X512891Y289890D01*
X514776Y288631D01*
X517000Y288188D01*
X519224Y288631D01*
X521109Y289890D01*
X522369Y291776D01*
X522812Y294000D01*
X522369Y296224D01*
X521109Y298109D01*
X519224Y299369D01*
X517000Y299812D01*
D02*
G37*
G36*
X305000Y297812D02*
X302776Y297369D01*
X300891Y296110D01*
X299631Y294224D01*
X299188Y292000D01*
X299631Y289776D01*
X300891Y287890D01*
X302776Y286631D01*
X305000Y286188D01*
X307224Y286631D01*
X309109Y287890D01*
X310369Y289776D01*
X310812Y292000D01*
X310369Y294224D01*
X309109Y296110D01*
X307224Y297369D01*
X305000Y297812D01*
D02*
G37*
G36*
X91000Y296812D02*
X88776Y296369D01*
X86890Y295110D01*
X85631Y293224D01*
X85188Y291000D01*
X85631Y288776D01*
X86890Y286891D01*
X88776Y285631D01*
X91000Y285188D01*
X93224Y285631D01*
X95110Y286891D01*
X96369Y288776D01*
X96812Y291000D01*
X96369Y293224D01*
X95110Y295110D01*
X93224Y296369D01*
X91000Y296812D01*
D02*
G37*
G36*
X584000Y295812D02*
X581776Y295369D01*
X579891Y294109D01*
X578631Y292224D01*
X578188Y290000D01*
X578631Y287776D01*
X579891Y285891D01*
X581776Y284631D01*
X584000Y284188D01*
X586224Y284631D01*
X588110Y285891D01*
X589369Y287776D01*
X589812Y290000D01*
X589369Y292224D01*
X588110Y294109D01*
X586224Y295369D01*
X584000Y295812D01*
D02*
G37*
G36*
X640500Y293700D02*
X632500D01*
Y285700D01*
X640500D01*
Y293700D01*
D02*
G37*
G36*
X239000Y296812D02*
X236776Y296369D01*
X234890Y295110D01*
X233631Y293224D01*
X233188Y291000D01*
X233631Y288776D01*
X234890Y286891D01*
X236776Y285631D01*
X239000Y285188D01*
X241224Y285631D01*
X243109Y286891D01*
X244369Y288776D01*
X244812Y291000D01*
X244369Y293224D01*
X243109Y295110D01*
X241224Y296369D01*
X239000Y296812D01*
D02*
G37*
G36*
X298944Y436650D02*
X291060D01*
Y428765D01*
X292040Y428895D01*
X294351Y429852D01*
X296335Y431375D01*
X297858Y433359D01*
X298815Y435670D01*
X298944Y436650D01*
D02*
G37*
G36*
X313460D02*
X305576D01*
X305704Y435670D01*
X306662Y433359D01*
X308185Y431375D01*
X310169Y429852D01*
X312480Y428895D01*
X313460Y428765D01*
Y436650D01*
D02*
G37*
G36*
X324344D02*
X316460D01*
Y428765D01*
X317440Y428895D01*
X319751Y429852D01*
X321735Y431375D01*
X323258Y433359D01*
X324216Y435670D01*
X324344Y436650D01*
D02*
G37*
G36*
X288060D02*
X280175D01*
X280305Y435670D01*
X281262Y433359D01*
X282785Y431375D01*
X284769Y429852D01*
X287080Y428895D01*
X288060Y428765D01*
Y436650D01*
D02*
G37*
G36*
X426060D02*
X418060D01*
Y428650D01*
X426060D01*
Y436650D01*
D02*
G37*
G36*
X633500D02*
X625500D01*
Y428650D01*
X633500D01*
Y436650D01*
D02*
G37*
G36*
X644500D02*
X636500D01*
Y428650D01*
X644500D01*
Y436650D01*
D02*
G37*
G36*
X338860D02*
X330975D01*
X331105Y435670D01*
X332062Y433359D01*
X333585Y431375D01*
X335569Y429852D01*
X337880Y428895D01*
X338860Y428765D01*
Y436650D01*
D02*
G37*
G36*
X400545D02*
X392660D01*
Y428765D01*
X393640Y428895D01*
X395951Y429852D01*
X397935Y431375D01*
X399458Y433359D01*
X400415Y435670D01*
X400545Y436650D01*
D02*
G37*
G36*
X455700D02*
X447816D01*
X447944Y435670D01*
X448902Y433359D01*
X450424Y431375D01*
X452409Y429852D01*
X454720Y428895D01*
X455700Y428765D01*
Y436650D01*
D02*
G37*
G36*
X466585D02*
X458700D01*
Y428765D01*
X459680Y428895D01*
X461991Y429852D01*
X463975Y431375D01*
X465498Y433359D01*
X466455Y435670D01*
X466585Y436650D01*
D02*
G37*
G36*
X389660D02*
X381776D01*
X381904Y435670D01*
X382862Y433359D01*
X384384Y431375D01*
X386369Y429852D01*
X388680Y428895D01*
X389660Y428765D01*
Y436650D01*
D02*
G37*
G36*
X349744D02*
X341860D01*
Y428765D01*
X342840Y428895D01*
X345151Y429852D01*
X347135Y431375D01*
X348658Y433359D01*
X349616Y435670D01*
X349744Y436650D01*
D02*
G37*
G36*
X364260D02*
X356376D01*
X356505Y435670D01*
X357462Y433359D01*
X358984Y431375D01*
X360969Y429852D01*
X363280Y428895D01*
X364260Y428765D01*
Y436650D01*
D02*
G37*
G36*
X375145D02*
X367260D01*
Y428765D01*
X368240Y428895D01*
X370551Y429852D01*
X372535Y431375D01*
X374058Y433359D01*
X375015Y435670D01*
X375145Y436650D01*
D02*
G37*
G36*
X415060D02*
X407060D01*
Y428650D01*
X415060D01*
Y436650D01*
D02*
G37*
G36*
X541250Y403062D02*
X539026Y402619D01*
X537141Y401359D01*
X535881Y399474D01*
X535438Y397250D01*
X535881Y395026D01*
X537141Y393140D01*
X539026Y391881D01*
X541250Y391438D01*
X543474Y391881D01*
X545359Y393140D01*
X546619Y395026D01*
X547062Y397250D01*
X546619Y399474D01*
X545359Y401359D01*
X543474Y402619D01*
X541250Y403062D01*
D02*
G37*
G36*
X644500Y422250D02*
X625500D01*
X625500Y404191D01*
X624526Y402619D01*
X623927Y402219D01*
X622640Y401359D01*
X621381Y399474D01*
X620938Y397250D01*
X621381Y395026D01*
X622640Y393140D01*
X624526Y391881D01*
X626750Y391438D01*
X628974Y391881D01*
X630859Y393140D01*
X632119Y395026D01*
X632562Y397250D01*
X632119Y399474D01*
X630933Y401250D01*
X631060Y401851D01*
X631630Y403250D01*
X636494D01*
X637101Y401250D01*
X636890Y401110D01*
X635631Y399224D01*
X635188Y397000D01*
X635631Y394776D01*
X636890Y392891D01*
X638776Y391631D01*
X641000Y391188D01*
X643224Y391631D01*
X645109Y392891D01*
X646369Y394776D01*
X646812Y397000D01*
X646369Y399224D01*
X645109Y401110D01*
X644746Y401352D01*
X644500Y403250D01*
X644500Y403922D01*
Y422250D01*
D02*
G37*
G36*
X592250Y403062D02*
X590026Y402619D01*
X588140Y401359D01*
X586881Y399474D01*
X586438Y397250D01*
X586881Y395026D01*
X588140Y393140D01*
X590026Y391881D01*
X592250Y391438D01*
X594474Y391881D01*
X596359Y393140D01*
X597619Y395026D01*
X598062Y397250D01*
X597619Y399474D01*
X596359Y401359D01*
X594474Y402619D01*
X592250Y403062D01*
D02*
G37*
G36*
X437250D02*
X435026Y402619D01*
X433140Y401359D01*
X431881Y399474D01*
X431438Y397250D01*
X431881Y395026D01*
X433140Y393140D01*
X435026Y391881D01*
X437250Y391438D01*
X439474Y391881D01*
X441359Y393140D01*
X442619Y395026D01*
X443062Y397250D01*
X442619Y399474D01*
X441359Y401359D01*
X439474Y402619D01*
X437250Y403062D01*
D02*
G37*
G36*
X74000Y381812D02*
X71776Y381369D01*
X69890Y380109D01*
X68631Y378224D01*
X68188Y376000D01*
X68631Y373776D01*
X69890Y371890D01*
X71776Y370631D01*
X74000Y370188D01*
X76224Y370631D01*
X78109Y371890D01*
X79369Y373776D01*
X79812Y376000D01*
X79369Y378224D01*
X78109Y380109D01*
X76224Y381369D01*
X74000Y381812D01*
D02*
G37*
G36*
X163750Y392812D02*
X161526Y392369D01*
X159641Y391110D01*
X158381Y389224D01*
X157938Y387000D01*
X158381Y384776D01*
X159641Y382891D01*
X161526Y381631D01*
X162122Y381512D01*
X162608Y380339D01*
X162197Y379724D01*
X161755Y377500D01*
X162197Y375276D01*
X163457Y373391D01*
X165343Y372131D01*
X166477Y371905D01*
X167061Y370494D01*
X166781Y370074D01*
X166338Y367850D01*
X166386Y367612D01*
X165488Y366714D01*
X165000Y366811D01*
X162776Y366368D01*
X160890Y365109D01*
X159630Y363223D01*
X159188Y360999D01*
X159630Y358775D01*
X160890Y356890D01*
X162776Y355630D01*
X165000Y355188D01*
X167224Y355630D01*
X169109Y356890D01*
X170369Y358775D01*
X170811Y360999D01*
X170764Y361237D01*
X171662Y362135D01*
X172150Y362038D01*
X174374Y362481D01*
X176259Y363741D01*
X177519Y365626D01*
X177962Y367850D01*
X177519Y370074D01*
X176259Y371959D01*
X174374Y373219D01*
X173240Y373445D01*
X172655Y374856D01*
X172936Y375276D01*
X173378Y377500D01*
X172936Y379724D01*
X171676Y381609D01*
X169791Y382869D01*
X169195Y382988D01*
X168708Y384161D01*
X169119Y384776D01*
X169562Y387000D01*
X169119Y389224D01*
X167859Y391110D01*
X165974Y392369D01*
X163750Y392812D01*
D02*
G37*
G36*
X234000Y402811D02*
X231775Y402369D01*
X229890Y401109D01*
X228630Y399223D01*
X228188Y396999D01*
X228630Y394775D01*
X229890Y392890D01*
X231775Y391630D01*
X234000Y391188D01*
X236224Y391630D01*
X238109Y392890D01*
X239369Y394775D01*
X239811Y396999D01*
X239369Y399223D01*
X238109Y401109D01*
X236224Y402369D01*
X234000Y402811D01*
D02*
G37*
G36*
X121000Y382812D02*
X118776Y382369D01*
X116890Y381109D01*
X115631Y379224D01*
X115188Y377000D01*
X115631Y374776D01*
X116890Y372891D01*
X118776Y371631D01*
X121000Y371188D01*
X123224Y371631D01*
X125110Y372891D01*
X126369Y374776D01*
X126812Y377000D01*
X126369Y379224D01*
X125110Y381109D01*
X123224Y382369D01*
X121000Y382812D01*
D02*
G37*
G36*
X584200Y422332D02*
X581720Y422006D01*
X579409Y421048D01*
X577425Y419525D01*
X575902Y417541D01*
X574944Y415230D01*
X574618Y412750D01*
X574944Y410270D01*
X575902Y407959D01*
X577425Y405975D01*
X578768Y404944D01*
X579409Y404452D01*
X578543Y402705D01*
X577779Y402857D01*
X576750Y403062D01*
X574526Y402619D01*
X572640Y401359D01*
X571381Y399474D01*
X570938Y397250D01*
X571381Y395026D01*
X572640Y393140D01*
X574526Y391881D01*
X576750Y391438D01*
X578974Y391881D01*
X580859Y393140D01*
X582119Y395026D01*
X582562Y397250D01*
X582119Y399474D01*
X580859Y401359D01*
X579573Y402219D01*
X580520Y403992D01*
X581720Y403494D01*
X584200Y403168D01*
X586680Y403494D01*
X588991Y404452D01*
X590975Y405975D01*
X592498Y407959D01*
X593456Y410270D01*
X593782Y412750D01*
X593456Y415230D01*
X592498Y417541D01*
X590975Y419525D01*
X588991Y421048D01*
X586680Y422006D01*
X584200Y422332D01*
D02*
G37*
G36*
X609600D02*
X607120Y422006D01*
X604809Y421048D01*
X602825Y419525D01*
X601302Y417541D01*
X600345Y415230D01*
X600018Y412750D01*
X600345Y410270D01*
X601302Y407959D01*
X602825Y405975D01*
X604809Y404452D01*
X607120Y403494D01*
X609600Y403168D01*
X612080Y403494D01*
X614391Y404452D01*
X616375Y405975D01*
X617898Y407959D01*
X618856Y410270D01*
X619182Y412750D01*
X618856Y415230D01*
X617898Y417541D01*
X616375Y419525D01*
X614391Y421048D01*
X612080Y422006D01*
X609600Y422332D01*
D02*
G37*
G36*
X78788Y429191D02*
X76564Y428748D01*
X74678Y427489D01*
X73418Y425603D01*
X72976Y423379D01*
X73418Y421155D01*
X74678Y419269D01*
X76564Y418010D01*
X78788Y417567D01*
X79137Y417637D01*
X80838Y415936D01*
X80688Y415183D01*
X80764Y414802D01*
X79063Y413101D01*
X78788Y413156D01*
X76564Y412714D01*
X74678Y411454D01*
X73418Y409568D01*
X72976Y407344D01*
X73418Y405120D01*
X74678Y403235D01*
X76564Y401975D01*
X78788Y401533D01*
X79108Y401596D01*
X80809Y399896D01*
X80688Y399291D01*
X80794Y398762D01*
X79093Y397061D01*
X78788Y397122D01*
X76564Y396679D01*
X74678Y395419D01*
X73418Y393534D01*
X72976Y391310D01*
X73418Y389086D01*
X74678Y387200D01*
X76564Y385941D01*
X78788Y385498D01*
X81012Y385941D01*
X82897Y387200D01*
X84157Y389086D01*
X84599Y391310D01*
X84494Y391839D01*
X86195Y393540D01*
X86500Y393479D01*
X88724Y393922D01*
X90610Y395181D01*
X91869Y397067D01*
X92312Y399291D01*
X91869Y401515D01*
X90610Y403400D01*
X88724Y404660D01*
X86500Y405103D01*
X86180Y405039D01*
X84479Y406740D01*
X84599Y407344D01*
X84523Y407725D01*
X86224Y409426D01*
X86500Y409371D01*
X88724Y409814D01*
X90610Y411073D01*
X91869Y412959D01*
X92312Y415183D01*
X91869Y417407D01*
X90610Y419292D01*
X88724Y420552D01*
X86500Y420994D01*
X86150Y420925D01*
X84449Y422626D01*
X84599Y423379D01*
X84157Y425603D01*
X82897Y427489D01*
X81012Y428748D01*
X78788Y429191D01*
D02*
G37*
G36*
X558800Y422332D02*
X556320Y422006D01*
X554009Y421048D01*
X552025Y419525D01*
X550502Y417541D01*
X549544Y415230D01*
X549218Y412750D01*
X549544Y410270D01*
X550502Y407959D01*
X552025Y405975D01*
X554009Y404452D01*
X556320Y403494D01*
X558800Y403168D01*
X561280Y403494D01*
X563591Y404452D01*
X565575Y405975D01*
X567098Y407959D01*
X568055Y410270D01*
X568382Y412750D01*
X568055Y415230D01*
X567098Y417541D01*
X565575Y419525D01*
X563591Y421048D01*
X561280Y422006D01*
X558800Y422332D01*
D02*
G37*
G36*
X400950Y403762D02*
X398726Y403319D01*
X396841Y402059D01*
X395581Y400174D01*
X395138Y397950D01*
X395581Y395726D01*
X396841Y393840D01*
X398726Y392581D01*
X400950Y392138D01*
X403174Y392581D01*
X405060Y393840D01*
X406319Y395726D01*
X406762Y397950D01*
X406319Y400174D01*
X405060Y402059D01*
X403174Y403319D01*
X400950Y403762D01*
D02*
G37*
G36*
X508000Y422332D02*
X505520Y422006D01*
X503209Y421048D01*
X501225Y419525D01*
X499702Y417541D01*
X498745Y415230D01*
X498418Y412750D01*
X498745Y410270D01*
X499702Y407959D01*
X501225Y405975D01*
X503209Y404452D01*
X505520Y403494D01*
X508000Y403168D01*
X510480Y403494D01*
X512791Y404452D01*
X514775Y405975D01*
X516298Y407959D01*
X517256Y410270D01*
X517582Y412750D01*
X517256Y415230D01*
X516298Y417541D01*
X514775Y419525D01*
X512791Y421048D01*
X510480Y422006D01*
X508000Y422332D01*
D02*
G37*
G36*
X533400D02*
X530920Y422006D01*
X528609Y421048D01*
X526625Y419525D01*
X525102Y417541D01*
X524145Y415230D01*
X523818Y412750D01*
X524145Y410270D01*
X525102Y407959D01*
X526625Y405975D01*
X528609Y404452D01*
X528604Y404420D01*
X526707Y402871D01*
X525750Y403062D01*
X523526Y402619D01*
X521641Y401359D01*
X520381Y399474D01*
X519938Y397250D01*
X520381Y395026D01*
X521641Y393140D01*
X523526Y391881D01*
X525750Y391438D01*
X527974Y391881D01*
X529860Y393140D01*
X531119Y395026D01*
X531562Y397250D01*
X531119Y399474D01*
X529860Y401359D01*
X529264Y401757D01*
X528618Y403132D01*
X528820Y403510D01*
X530364Y403725D01*
X530920Y403494D01*
X533400Y403168D01*
X535880Y403494D01*
X538191Y404452D01*
X540175Y405975D01*
X541698Y407959D01*
X542655Y410270D01*
X542982Y412750D01*
X542655Y415230D01*
X541698Y417541D01*
X540175Y419525D01*
X538191Y421048D01*
X535880Y422006D01*
X533400Y422332D01*
D02*
G37*
%LPD*%
G36*
X572428Y179948D02*
X573639Y179139D01*
X574448Y177928D01*
X574733Y176500D01*
X574448Y175072D01*
X573639Y173861D01*
X573038Y173459D01*
X572896Y173317D01*
X572729Y173206D01*
X572618Y173039D01*
X572476Y172897D01*
X572399Y172711D01*
X572287Y172544D01*
X572248Y172347D01*
X572171Y172162D01*
Y171961D01*
X572132Y171764D01*
Y170236D01*
X572171Y170039D01*
Y169838D01*
X572248Y169653D01*
X572287Y169456D01*
X572399Y169289D01*
X572476Y169103D01*
X572618Y168961D01*
X572729Y168794D01*
X572896Y168683D01*
X573038Y168541D01*
X573639Y168139D01*
X574448Y166928D01*
X574733Y165500D01*
X574448Y164072D01*
X573639Y162861D01*
X572428Y162052D01*
X571000Y161768D01*
X569572Y162052D01*
X568361Y162861D01*
X567959Y163461D01*
X567817Y163603D01*
X567706Y163771D01*
X567539Y163882D01*
X567397Y164024D01*
X567211Y164101D01*
X567044Y164213D01*
X566847Y164252D01*
X566662Y164329D01*
X566461D01*
X566264Y164368D01*
X564736D01*
X564539Y164329D01*
X564338D01*
X564153Y164252D01*
X563956Y164213D01*
X563789Y164101D01*
X563603Y164024D01*
X563461Y163882D01*
X563294Y163771D01*
X563183Y163603D01*
X563041Y163461D01*
X562639Y162861D01*
X561428Y162052D01*
X560000Y161768D01*
X558572Y162052D01*
X557361Y162861D01*
X556959Y163461D01*
X556817Y163603D01*
X556706Y163771D01*
X556539Y163882D01*
X556397Y164024D01*
X556211Y164101D01*
X556044Y164213D01*
X555847Y164252D01*
X555662Y164329D01*
X555461D01*
X555264Y164368D01*
X553736D01*
X553539Y164329D01*
X553338D01*
X553153Y164252D01*
X552956Y164213D01*
X552789Y164101D01*
X552603Y164024D01*
X552461Y163882D01*
X552294Y163771D01*
X552183Y163603D01*
X552041Y163461D01*
X551639Y162861D01*
X550428Y162052D01*
X549000Y161768D01*
X547572Y162052D01*
X546361Y162861D01*
X545552Y164072D01*
X545267Y165500D01*
X545552Y166928D01*
X546361Y168139D01*
X546962Y168541D01*
X547104Y168683D01*
X547271Y168794D01*
X547382Y168961D01*
X547524Y169103D01*
X547601Y169289D01*
X547713Y169456D01*
X547752Y169653D01*
X547829Y169838D01*
Y170039D01*
X547868Y170236D01*
Y171764D01*
X547829Y171961D01*
Y172162D01*
X547752Y172347D01*
X547713Y172544D01*
X547601Y172711D01*
X547524Y172897D01*
X547382Y173039D01*
X547271Y173206D01*
X547104Y173317D01*
X546962Y173459D01*
X546361Y173861D01*
X545552Y175072D01*
X545267Y176500D01*
X545552Y177928D01*
X546361Y179139D01*
X547572Y179948D01*
X549000Y180233D01*
X550428Y179948D01*
X551639Y179139D01*
X552041Y178538D01*
X552183Y178396D01*
X552294Y178229D01*
X552461Y178118D01*
X552603Y177976D01*
X552789Y177899D01*
X552956Y177787D01*
X553153Y177748D01*
X553338Y177671D01*
X553539D01*
X553736Y177632D01*
X555264D01*
X555461Y177671D01*
X555662D01*
X555847Y177748D01*
X556044Y177787D01*
X556211Y177899D01*
X556397Y177976D01*
X556539Y178118D01*
X556706Y178229D01*
X556817Y178396D01*
X556959Y178538D01*
X557361Y179139D01*
X558572Y179948D01*
X560000Y180233D01*
X561428Y179948D01*
X562639Y179139D01*
X563041Y178538D01*
X563183Y178396D01*
X563294Y178229D01*
X563461Y178118D01*
X563603Y177976D01*
X563789Y177899D01*
X563956Y177787D01*
X564153Y177748D01*
X564338Y177671D01*
X564539D01*
X564736Y177632D01*
X566264D01*
X566461Y177671D01*
X566662D01*
X566847Y177748D01*
X567044Y177787D01*
X567211Y177899D01*
X567397Y177976D01*
X567539Y178118D01*
X567706Y178229D01*
X567817Y178396D01*
X567959Y178538D01*
X568361Y179139D01*
X569572Y179948D01*
X571000Y180233D01*
X572428Y179948D01*
D02*
G37*
D59*
X232999Y328999D02*
X233500Y329500D01*
Y331000D01*
D60*
X120304Y494130D02*
Y514775D01*
X123532Y518003D02*
Y524121D01*
X120304Y514775D02*
X123532Y518003D01*
X86260Y514775D02*
X120304D01*
X83032Y518003D02*
X86260Y514775D01*
X83032Y518003D02*
Y524121D01*
X79804Y514775D02*
X83032Y518003D01*
X68732Y514775D02*
X79804D01*
X65532Y517975D02*
X68732Y514775D01*
X65532Y517975D02*
Y524092D01*
X62333Y514775D02*
X65532Y517975D01*
X27615Y514775D02*
X62333D01*
X25032Y517357D02*
X27615Y514775D01*
X25032Y517357D02*
Y524092D01*
X43500Y172500D02*
X44500D01*
X55250Y183250D01*
X121460Y481000D02*
Y492974D01*
X120304Y494130D02*
X121460Y492974D01*
D61*
X57000Y159000D02*
X202404D01*
X99250Y377898D02*
Y407250D01*
X49800Y328448D02*
X99250Y377898D01*
X49800Y300343D02*
Y328448D01*
X99250Y407250D02*
X140000Y448000D01*
X30390Y210694D02*
Y346140D01*
X41250Y174750D02*
X43500Y172500D01*
X140000Y448000D02*
X208000D01*
X49800Y300343D02*
X51700Y298443D01*
Y220700D02*
Y298443D01*
X41000Y210000D02*
X51700Y220700D01*
X473750Y397000D02*
X490199Y380551D01*
X475500Y266000D02*
X490199Y280699D01*
Y380551D01*
X43500Y172500D02*
X57000Y159000D01*
X41250Y174750D02*
Y209750D01*
X245500Y94750D02*
Y115904D01*
X202404Y159000D02*
X245500Y115904D01*
D62*
X336000Y112000D02*
Y116889D01*
X297889Y155000D02*
X336000Y116889D01*
X267000Y155000D02*
X297889D01*
X255000Y167000D02*
X267000Y155000D01*
X255000Y167000D02*
Y199111D01*
X269750Y213860D01*
Y217250D01*
X58000Y303740D02*
X60870Y300870D01*
Y291130D02*
Y300870D01*
X41000Y210000D02*
X41250Y209750D01*
D63*
X30390Y204390D02*
Y210694D01*
D64*
X116840Y83820D02*
X123242D01*
X173562Y33500D01*
X248750D01*
X257750Y42500D01*
X440100D01*
X457200Y25400D01*
X24500Y364750D02*
X30390Y358860D01*
Y346140D02*
Y358860D01*
D67*
X431800Y25400D02*
D03*
X457200D02*
D03*
X406400D02*
D03*
X264160Y508000D02*
D03*
X495300Y95250D02*
D03*
X520700D02*
D03*
X546100D02*
D03*
X571500D02*
D03*
X596900D02*
D03*
X457200Y438150D02*
D03*
X533400D02*
D03*
X508000D02*
D03*
X482600D02*
D03*
X558800D02*
D03*
X584200D02*
D03*
X609600D02*
D03*
X391160D02*
D03*
X365760D02*
D03*
X340360D02*
D03*
X314960D02*
D03*
X289560D02*
D03*
X667400Y258800D02*
D03*
Y233400D02*
D03*
Y208000D02*
D03*
X642000Y258800D02*
D03*
Y233400D02*
D03*
Y208000D02*
D03*
D68*
X469900Y95250D02*
D03*
X635000Y438150D02*
D03*
X416560D02*
D03*
D69*
X667400Y284200D02*
D03*
X642000D02*
D03*
D70*
X54340Y83820D02*
D03*
D71*
X116840D02*
D03*
D72*
X656590Y123910D02*
D03*
D74*
X236220Y52070D02*
D03*
D77*
X11500Y435500D02*
D03*
X129850Y390250D02*
D03*
X109000Y390000D02*
D03*
X88000Y381000D02*
D03*
X567718Y256879D02*
D03*
X557718D02*
D03*
Y266879D02*
D03*
X567718D02*
D03*
X562718Y261879D02*
D03*
X17527Y347500D02*
D03*
X546000Y521000D02*
D03*
X437000Y519000D02*
D03*
X11500Y510750D02*
D03*
X208000Y448000D02*
D03*
X364000Y82000D02*
D03*
X267217Y426217D02*
D03*
X273000Y409000D02*
D03*
X473750Y397000D02*
D03*
X475500Y266000D02*
D03*
X308000Y121000D02*
D03*
X411000Y398000D02*
D03*
X349999Y397999D02*
D03*
X596000Y191000D02*
D03*
X351770Y174770D02*
D03*
X597379Y346379D02*
D03*
X218000Y481250D02*
D03*
X249000Y481750D02*
D03*
X558745Y295599D02*
D03*
X524000Y257000D02*
D03*
X531000Y354000D02*
D03*
X534000Y329000D02*
D03*
X523750Y316250D02*
D03*
X464250Y396750D02*
D03*
X96750Y167250D02*
D03*
X55250Y183250D02*
D03*
X70000Y230000D02*
D03*
X58000Y303740D02*
D03*
X400060Y141940D02*
D03*
X510750Y163750D02*
D03*
X192750Y248750D02*
D03*
X255000Y167000D02*
D03*
X269750Y202250D02*
D03*
Y217250D02*
D03*
X143160Y217160D02*
D03*
X60870Y291130D02*
D03*
X218000Y430000D02*
D03*
X211000Y421000D02*
D03*
X221000Y410000D02*
D03*
X262190Y326190D02*
D03*
X199000Y289000D02*
D03*
X208140Y338140D02*
D03*
X175420Y338420D02*
D03*
X121000Y356250D02*
D03*
X71550Y255550D02*
D03*
X246000Y150000D02*
D03*
X73000Y311000D02*
D03*
X336000Y82000D02*
D03*
X348121D02*
D03*
X243300Y15000D02*
D03*
X121460Y481000D02*
D03*
X194879Y422000D02*
D03*
X253217Y419379D02*
D03*
X242217D02*
D03*
X253217Y430379D02*
D03*
X242217D02*
D03*
X571000Y165500D02*
D03*
X560000D02*
D03*
X549000D02*
D03*
X560000Y176500D02*
D03*
X549000D02*
D03*
X571000D02*
D03*
X554717Y359379D02*
D03*
X565718D02*
D03*
X576717D02*
D03*
X565718Y348379D02*
D03*
X576717D02*
D03*
X554717D02*
D03*
X214140Y120280D02*
D03*
X209140Y115280D02*
D03*
X219140D02*
D03*
X209140Y125280D02*
D03*
X219140D02*
D03*
X233500Y331000D02*
D03*
D79*
X123532Y523871D02*
D03*
X83032D02*
D03*
X65532Y523842D02*
D03*
X25032D02*
D03*
D80*
X169323Y93750D02*
D03*
X213960Y76750D02*
D03*
X363500Y59500D02*
D03*
X363750Y70000D02*
D03*
X24500Y364750D02*
D03*
X17500Y301067D02*
D03*
Y277067D02*
D03*
X30390Y204390D02*
D03*
X44000Y336000D02*
D03*
X43000Y242000D02*
D03*
X245500Y94750D02*
D03*
X153000Y101000D02*
D03*
X144000Y109000D02*
D03*
X188000Y76000D02*
D03*
X41000Y210000D02*
D03*
X336000Y112000D02*
D03*
X346000Y124000D02*
D03*
M02*
