G04 Layer_Color=255*
%FSLAX44Y44*%
%MOMM*%
G71*
G01*
G75*
%ADD67C,1.5000*%
%ADD68R,1.5000X1.5000*%
%ADD69R,1.5000X1.5000*%
%ADD70C,4.6200*%
%ADD71C,5.3800*%
%ADD72C,1.5400*%
%ADD73C,1.9300*%
%ADD74C,1.3700*%
%ADD75R,1.3700X1.3700*%
%ADD76C,1.5240*%
D67*
X635000Y25400D02*
D03*
X609600D02*
D03*
X584200D02*
D03*
X558800D02*
D03*
X533400D02*
D03*
X482600Y508000D02*
D03*
X457200D02*
D03*
X508000D02*
D03*
X533400D02*
D03*
X558800D02*
D03*
X584200D02*
D03*
X609600D02*
D03*
X431800Y25400D02*
D03*
X457200D02*
D03*
X406400D02*
D03*
X381000D02*
D03*
X355600D02*
D03*
X330200D02*
D03*
X304800D02*
D03*
X187960Y508000D02*
D03*
X213360D02*
D03*
X264160D02*
D03*
X238760D02*
D03*
X289560D02*
D03*
X314960D02*
D03*
X340360D02*
D03*
X365760D02*
D03*
X391160D02*
D03*
X596900Y69850D02*
D03*
X571500D02*
D03*
X546100D02*
D03*
X520700D02*
D03*
X495300D02*
D03*
Y95250D02*
D03*
X520700D02*
D03*
X546100D02*
D03*
X571500D02*
D03*
X596900D02*
D03*
X495300Y120650D02*
D03*
X520700D02*
D03*
X546100D02*
D03*
X571500D02*
D03*
X596900D02*
D03*
X609600Y412750D02*
D03*
X584200D02*
D03*
X558800D02*
D03*
X482600D02*
D03*
X508000D02*
D03*
X533400D02*
D03*
X457200D02*
D03*
X609600Y463550D02*
D03*
X584200D02*
D03*
X558800D02*
D03*
X482600D02*
D03*
X508000D02*
D03*
X533400D02*
D03*
X457200D02*
D03*
Y438150D02*
D03*
X533400D02*
D03*
X508000D02*
D03*
X482600D02*
D03*
X558800D02*
D03*
X584200D02*
D03*
X609600D02*
D03*
X391160Y412750D02*
D03*
X365760D02*
D03*
X340360D02*
D03*
X314960D02*
D03*
X289560D02*
D03*
Y463550D02*
D03*
X314960D02*
D03*
X340360D02*
D03*
X365760D02*
D03*
X391160D02*
D03*
Y438150D02*
D03*
X365760D02*
D03*
X340360D02*
D03*
X314960D02*
D03*
X289560D02*
D03*
X234079Y178282D02*
D03*
Y203682D02*
D03*
X208679D02*
D03*
X183279D02*
D03*
X157879D02*
D03*
X183279Y178282D02*
D03*
X208679D02*
D03*
X616600Y258800D02*
D03*
Y233400D02*
D03*
Y208000D02*
D03*
X667400Y258800D02*
D03*
Y233400D02*
D03*
Y208000D02*
D03*
X642000Y258800D02*
D03*
Y233400D02*
D03*
Y208000D02*
D03*
X615700Y343279D02*
D03*
Y368679D02*
D03*
D68*
X508000Y25400D02*
D03*
X635000Y508000D02*
D03*
X279400Y25400D02*
D03*
X416560Y508000D02*
D03*
X469900Y69850D02*
D03*
Y95250D02*
D03*
Y120650D02*
D03*
X635000Y412750D02*
D03*
Y463550D02*
D03*
Y438150D02*
D03*
X416560Y412750D02*
D03*
Y463550D02*
D03*
Y438150D02*
D03*
X157879Y178282D02*
D03*
D69*
X616600Y284200D02*
D03*
X667400D02*
D03*
X642000D02*
D03*
X615700Y317879D02*
D03*
D70*
X54340Y83820D02*
D03*
X86840Y35820D02*
D03*
D71*
X116840Y83820D02*
D03*
D72*
X656590Y168910D02*
D03*
Y123910D02*
D03*
D73*
X631590Y181410D02*
D03*
Y111410D02*
D03*
D74*
X236220Y52070D02*
D03*
X210820D02*
D03*
D75*
X185420D02*
D03*
D76*
X660400Y76200D02*
D03*
Y355600D02*
D03*
X152400Y508000D02*
D03*
X139700Y25400D02*
D03*
M02*
